<svg width="600" height="450" viewBox="0 0 800 600" fill="none" xmlns="http://www.w3.org/2000/svg" data-reactroot="">
<path d="M162.318 406.224H120.809C114.09 406.224 108.644 400.778 108.644 394.059V294.991C108.644 288.272 114.09 282.826 120.809 282.826H162.318C169.037 282.826 174.483 288.272 174.483 294.991V394.059C174.483 400.778 169.037 406.224 162.318 406.224Z" fill="#3913B8"></path>
<path d="M608.72 379.545H491.835C483.53 379.545 476.798 372.812 476.798 364.508V81.857C476.798 73.5525 483.53 66.8203 491.835 66.8203H608.72C617.024 66.8203 623.756 73.5525 623.756 81.857V364.508C623.756 372.812 617.024 379.545 608.72 379.545Z" fill="#A8BBDE"></path>
<path d="M745.998 95.8813H704.427V393.297H745.998V95.8813Z" fill="#A8BBDE"></path>
<path d="M742.465 425.055H46.5V474.061H742.465V425.055Z" fill="#3913B8"></path>
<path d="M436.84 563.463H71.0031C57.4704 563.463 46.5 552.492 46.5 538.96V538.96C46.5 525.427 57.4704 514.457 71.0031 514.457H436.84C450.373 514.457 461.344 525.427 461.344 538.96V538.96C461.344 552.492 450.373 563.463 436.84 563.463Z" fill="#FDD17B"></path>
<path d="M729.083 563.463H513.579C500.047 563.463 489.076 552.492 489.076 538.96V538.96C489.076 525.427 500.047 514.457 513.579 514.457H729.083C742.616 514.457 753.586 525.427 753.586 538.96V538.96C753.586 552.492 742.616 563.463 729.083 563.463Z" fill="#FDD17B"></path>
<path d="M445.363 409.628H353.34L325.445 381.112L321.445 317.352H406.468V377.012L445.363 409.628Z" fill="#FDD17B"></path>
<path fill-rule="evenodd" clip-rule="evenodd" d="M66.2861 425.119C66.2861 424.11 67.1042 423.292 68.1134 423.292H725.228C726.237 423.292 727.055 424.11 727.055 425.119C727.055 426.128 726.237 426.947 725.228 426.947H68.1134C67.1042 426.947 66.2861 426.128 66.2861 425.119Z" fill="#FDD17B"></path>
<path d="M579.494 349.54H224.694C213.969 349.54 203.555 340.846 201.435 330.121L163.452 138.025C161.331 127.3 168.307 118.605 179.032 118.605H533.832C544.557 118.605 554.97 127.3 557.091 138.025L595.073 330.121C597.194 340.846 590.219 349.54 579.494 349.54Z" fill="#3913B8"></path>
<path d="M534.628 403.192H243.51V411.123H534.628V403.192Z" fill="#3913B8"></path>
<path d="M648.757 270.463H747.429" stroke="#005B9D" stroke-width="1.82726" stroke-miterlimit="10"></path>
<path d="M648.757 291.807H747.429" stroke="#005B9D" stroke-width="1.82726" stroke-miterlimit="10"></path>
<path d="M700.542 313.15H747.429" stroke="#005B9D" stroke-width="1.82726" stroke-miterlimit="10"></path>
<path d="M700.542 334.495H747.429" stroke="#005B9D" stroke-width="1.82726" stroke-miterlimit="10"></path>
<path d="M648.757 355.838H747.429" stroke="#005B9D" stroke-width="1.82726" stroke-miterlimit="10"></path>
<path d="M163.073 298.455H159.419" stroke="#F1F1F2" stroke-width="0.913631" stroke-miterlimit="10"></path>
<path d="M152.055 298.455H102.744C87.0969 298.455 74.4121 285.77 74.4121 270.123C74.4121 254.475 87.0969 241.79 102.744 241.79H279.814C281.491 241.79 283.133 241.936 284.73 242.215" stroke="#FFE458" stroke-width="0.913631" stroke-miterlimit="10" stroke-dasharray="7.36 7.36"></path>
<path d="M288.305 243.084C289.475 243.452 290.612 243.893 291.712 244.402" stroke="#F1F1F2" stroke-width="0.913631" stroke-miterlimit="10"></path>
<path d="M291.711 244.402C301.415 248.898 308.145 258.724 308.145 270.122V270.122C308.145 285.77 295.46 298.455 279.813 298.455H163.072" stroke="#FFE458" stroke-width="0.913631" stroke-miterlimit="10"></path>
<path d="M449.947 501.794H57.8968C51.6025 501.794 46.5 496.691 46.5 490.397V456.206C46.5 449.912 51.6025 444.81 57.8968 444.81H449.947C456.241 444.81 461.344 449.912 461.344 456.206V490.397C461.343 496.691 456.241 501.794 449.947 501.794Z" stroke="#78D2EE" stroke-width="2" stroke-miterlimit="10"></path>
<path d="M738.666 501.794H500.473C494.179 501.794 489.076 496.691 489.076 490.397V456.206C489.076 449.912 494.179 444.81 500.473 444.81H738.666C744.96 444.81 750.063 449.912 750.063 456.206V490.397C750.063 496.691 744.96 501.794 738.666 501.794Z" stroke="#78D2EE" stroke-width="2" stroke-miterlimit="10"></path>
<path d="M70.0529 456.966H62.835V490.777H70.0529V456.966Z" fill="#FDD17B"></path>
<path d="M516.808 456.966H509.59V490.777H516.808V456.966Z" fill="#FDD17B"></path>
<path d="M81.2057 211.048C96.3593 211.048 108.644 198.764 108.644 183.61C108.644 168.456 96.3593 156.172 81.2057 156.172C66.052 156.172 53.7676 168.456 53.7676 183.61C53.7676 198.764 66.052 211.048 81.2057 211.048Z" fill="#3913B8"></path>
<path d="M265.837 159.14H118.87V168.211H265.837V159.14Z" fill="#FDD17B"></path>
<path d="M270.92 179.075H123.953V188.146H270.92V179.075Z" fill="#FDD17B"></path>
<path d="M324.348 199.01H127.346V208.081H324.348V199.01Z" fill="#FDD17B"></path>
<path d="M137.044 140.649H602.238" stroke="#FFE458" stroke-width="0.913631" stroke-miterlimit="10"></path>
<path d="M88.8574 95.8813H397.215" stroke="#78D2EE" stroke-miterlimit="10"></path>
<path d="M116.741 84.2368H425.099" stroke="#78D2EE" stroke-miterlimit="10"></path>
<path d="M674.55 210.128L679.001 231.48C681.251 242.269 674.359 251.016 663.61 251.016H405.647C394.897 251.016 384.359 242.269 382.11 231.48L377.659 210.128C375.41 199.338 382.301 190.592 393.051 190.592H651.013C661.763 190.592 672.301 199.338 674.55 210.128Z" fill="#FDD17B"></path>
<path d="M416.612 229.696H416.612C410.041 229.696 403.601 224.35 402.226 217.755V217.755C400.851 211.161 405.063 205.815 411.633 205.815H411.633C418.204 205.815 424.644 211.161 426.019 217.755V217.755C427.394 224.35 423.182 229.696 416.612 229.696Z" fill="#3913B8"></path>
<path d="M444.576 208.863H647.519" stroke="#005B9D" stroke-width="1.82726" stroke-miterlimit="10" stroke-linecap="round"></path>
<path d="M448.283 226.647H651.226" stroke="#005B9D" stroke-width="1.82726" stroke-miterlimit="10" stroke-linecap="round"></path>
<path d="M147.658 399.372H135.061C134.031 399.372 133.195 398.536 133.195 397.506C133.195 396.475 134.031 395.64 135.061 395.64H147.658C148.689 395.64 149.524 396.475 149.524 397.506C149.524 398.536 148.689 399.372 147.658 399.372Z" fill="#A8BBDE"></path>
<path d="M163.52 319.157H119.607V369.893H163.52V319.157Z" fill="#FDD17B"></path>
<path d="M163.52 309.885H119.607V314.375H163.52V309.885Z" fill="#FDD17B"></path>
<path d="M151.595 289.124H131.534C128.055 289.124 125.235 286.304 125.235 282.826H157.893C157.893 286.304 155.073 289.124 151.595 289.124Z" fill="#A8BBDE"></path>
<path d="M119.607 374.208H163.52" stroke="#78D2EE" stroke-width="0.913631" stroke-miterlimit="10"></path>
<path d="M119.607 379.544H163.52" stroke="#78D2EE" stroke-width="0.913631" stroke-miterlimit="10"></path>
<path d="M119.607 384.88H163.52" stroke="#78D2EE" stroke-width="0.913631" stroke-miterlimit="10"></path>
<path d="M575.944 309.643C587.903 309.643 597.632 319.372 597.632 331.331C597.632 343.29 587.903 353.019 575.944 353.019C563.985 353.019 554.256 343.29 554.256 331.331C554.256 319.372 563.985 309.643 575.944 309.643ZM575.944 301.202C559.304 301.202 545.814 314.691 545.814 331.331C545.814 347.971 559.304 361.46 575.944 361.46C592.584 361.46 606.073 347.971 606.073 331.331C606.073 314.691 592.584 301.202 575.944 301.202Z" fill="#FDD17B"></path>
<path d="M580.677 296.789H571.209V304.871H580.677V296.789Z" fill="#FDD17B"></path>
<path d="M580.677 357.419H571.209V365.501H580.677V357.419Z" fill="#FDD17B"></path>
<path d="M596.89 303.504L591.175 309.219L597.87 315.914L603.585 310.199L596.89 303.504Z" fill="#FDD17B"></path>
<path d="M554.018 346.376L548.303 352.091L554.998 358.786L560.713 353.071L554.018 346.376Z" fill="#FDD17B"></path>
<path d="M610.3 326.411H602.218V335.879H610.3V326.411Z" fill="#FDD17B"></path>
<path d="M549.669 326.411H541.587V335.879H549.669V326.411Z" fill="#FDD17B"></path>
<path d="M597.87 346.376L591.175 353.071L596.89 358.786L603.585 352.091L597.87 346.376Z" fill="#FDD17B"></path>
<path d="M554.998 303.504L548.303 310.199L554.018 315.914L560.713 309.219L554.998 303.504Z" fill="#FDD17B"></path>
<path d="M525.94 281.638C534.543 281.638 541.541 288.636 541.541 297.238C541.541 305.841 534.543 312.839 525.94 312.839C517.338 312.839 510.34 305.841 510.34 297.238C510.34 288.636 517.338 281.638 525.94 281.638ZM525.94 275.565C513.971 275.565 504.268 285.269 504.268 297.238C504.268 309.208 513.971 318.911 525.94 318.911C537.91 318.911 547.613 309.208 547.613 297.238C547.613 285.269 537.91 275.565 525.94 275.565Z" fill="#FDD17B"></path>
<path d="M530.611 271.311H521.271V279.285H530.611V271.311Z" fill="#FDD17B"></path>
<path d="M530.611 314.924H521.271V322.898H530.611V314.924Z" fill="#FDD17B"></path>
<path d="M540.877 275.563L535.238 281.202L541.843 287.806L547.481 282.168L540.877 275.563Z" fill="#FDD17B"></path>
<path d="M510.038 306.403L504.399 312.041L511.004 318.646L516.643 313.008L510.038 306.403Z" fill="#FDD17B"></path>
<path d="M551.734 292.435H543.761V301.775H551.734V292.435Z" fill="#FDD17B"></path>
<path d="M508.121 292.435H500.147V301.775H508.121V292.435Z" fill="#FDD17B"></path>
<path d="M541.843 306.403L535.238 313.008L540.877 318.646L547.481 312.041L541.843 306.403Z" fill="#FDD17B"></path>
<path d="M511.004 275.563L504.399 282.168L510.038 287.806L516.643 281.202L511.004 275.563Z" fill="#FDD17B"></path>
<path d="M518.168 178.222L460.551 178.222" stroke="#FFE458" stroke-width="4.81606" stroke-miterlimit="10"></path>
<path d="M515.189 165.731L479.705 165.731" stroke="#FFE458" stroke-width="4.81606" stroke-miterlimit="10"></path>
<path d="M511.81 153.241L461.57 153.241" stroke="#FFE458" stroke-width="4.81606" stroke-miterlimit="10"></path>
<path d="M413.063 294.175L355.446 294.175" stroke="#FFE458" stroke-width="4.81606" stroke-miterlimit="10"></path>
<path d="M410.084 281.685L374.601 281.685" stroke="#FFE458" stroke-width="4.81606" stroke-miterlimit="10"></path>
<path d="M406.705 269.195L356.466 269.195" stroke="#FFE458" stroke-width="4.81606" stroke-miterlimit="10"></path>
<path d="M476.798 102.402C484.139 102.402 490.09 96.4516 490.09 89.1109C490.09 81.7702 484.139 75.8193 476.798 75.8193C469.458 75.8193 463.507 81.7702 463.507 89.1109C463.507 96.4516 469.458 102.402 476.798 102.402Z" stroke="#005B9D" stroke-width="0.913631" stroke-miterlimit="10"></path>
<path d="M723.985 49.3351C727.315 49.3351 730.015 46.6357 730.015 43.3058C730.015 39.9758 727.315 37.2764 723.985 37.2764C720.655 37.2764 717.956 39.9758 717.956 43.3058C717.956 46.6357 720.655 49.3351 723.985 49.3351Z" fill="#3913B8"></path>
<path d="M156.638 49.8684C160.192 49.8684 163.072 46.9877 163.072 43.4342C163.072 39.8807 160.192 37 156.638 37C153.085 37 150.204 39.8807 150.204 43.4342C150.204 46.9877 153.085 49.8684 156.638 49.8684Z" fill="#FDD17B"></path>
<path d="M576.264 338.289C580.033 338.289 583.088 335.234 583.088 331.466C583.088 327.698 580.033 324.643 576.264 324.643C572.496 324.643 569.441 327.698 569.441 331.466C569.441 335.234 572.496 338.289 576.264 338.289Z" fill="#FDD17B"></path>
<path d="M191.631 135.252C193.565 135.252 195.133 133.684 195.133 131.75C195.133 129.817 193.565 128.249 191.631 128.249C189.697 128.249 188.13 129.817 188.13 131.75C188.13 133.684 189.697 135.252 191.631 135.252Z" fill="#FDD17B"></path>
<path d="M206.354 135.252C208.288 135.252 209.855 133.684 209.855 131.75C209.855 129.817 208.288 128.249 206.354 128.249C204.42 128.249 202.853 129.817 202.853 131.75C202.853 133.684 204.42 135.252 206.354 135.252Z" fill="#FDD17B"></path>
<path d="M221.077 135.252C223.01 135.252 224.578 133.684 224.578 131.75C224.578 129.817 223.01 128.249 221.077 128.249C219.143 128.249 217.575 129.817 217.575 131.75C217.575 133.684 219.143 135.252 221.077 135.252Z" fill="#A8BBDE"></path>
<path d="M161.678 44.1767C161.678 44.1767 570.728 42.7934 637.671 43.5133C664.308 43.7997 688.455 60.1351 697.728 85.1076C700.929 93.7247 701.94 102.327 699.586 110.493C691.651 138.008 650.422 143.47 650.815 163.393C651.154 180.527 684.181 179.729 695.136 204.915C716.5 254.03 679.532 330.946 626.089 341.143C606.814 344.82 588.977 339.12 575.943 332.62" stroke="#005B9D" stroke-width="2" stroke-miterlimit="10" stroke-dasharray="7.31 7.31"></path>
<path d="M81.7542 181.935C85.677 181.935 88.8571 178.755 88.8571 174.832C88.8571 170.909 85.677 167.729 81.7542 167.729C77.8314 167.729 74.6514 170.909 74.6514 174.832C74.6514 178.755 77.8314 181.935 81.7542 181.935Z" fill="#FDD17B"></path>
<path d="M68.3896 195.841V195.841C68.3896 190.975 72.3345 184.908 77.2007 184.908H85.2107C90.0769 184.908 94.0217 190.975 94.0217 195.841V195.841C94.0217 200.707 68.3896 200.707 68.3896 195.841Z" fill="#FDD17B"></path>
<path d="M163.287 305.103C166.958 305.103 169.935 302.126 169.935 298.455C169.935 294.783 166.958 291.807 163.287 291.807C159.615 291.807 156.639 294.783 156.639 298.455C156.639 302.126 159.615 305.103 163.287 305.103Z" fill="#A8BBDE"></path>
<path d="M291.001 251.237C294.672 251.237 297.649 248.261 297.649 244.589C297.649 240.917 294.672 237.941 291.001 237.941C287.329 237.941 284.353 240.917 284.353 244.589C284.353 248.261 287.329 251.237 291.001 251.237Z" fill="#A8BBDE"></path>
<path d="M118.87 168.21H265.837" stroke="#78D2EE" stroke-width="0.913631" stroke-miterlimit="10" stroke-linecap="round"></path>
<path d="M123.954 188.146H270.921" stroke="#78D2EE" stroke-width="0.913631" stroke-miterlimit="10" stroke-linecap="round"></path>
<path d="M127.346 208.081H324.348" stroke="#78D2EE" stroke-width="0.913631" stroke-miterlimit="10" stroke-linecap="round"></path>
</svg>
