<svg width="600" height="450" viewBox="0 0 800 600" fill="none" xmlns="http://www.w3.org/2000/svg" data-reactroot="">
<path d="M393.299 93.6997H256.699V449.2H393.299V93.6997Z" fill="#b69ae2"></path>
<path d="M393.299 93.6997H256.699V449.2H393.299V93.6997Z" fill="black" fill-opacity="0.3"></path>
<path d="M725.4 134.8H665V177.3H725.4V134.8Z" fill="#b69ae2"></path>
<path d="M665.938 118.625V105.425L139.938 105.425V118.625L665.938 118.625Z" fill="#7838e0"></path>
<path d="M665.938 118.625V105.425L139.938 105.425V118.625L665.938 118.625Z" fill="black" fill-opacity="0.28"></path>
<path d="M665.896 79.9837V66.7837L139.896 66.7837V79.9837L665.896 79.9837Z" fill="#7838e0"></path>
<path d="M221.399 74.1997H208.199V152.9H221.399V74.1997Z" fill="#7838e0"></path>
<path d="M290.3 169.2H157.2V472.1H290.3V169.2Z" fill="#b69ae2"></path>
<path d="M606.399 0H393.199V505H606.399V0Z" fill="#b69ae2"></path>
<path d="M725.4 152.6H606.399V449.2H725.4V152.6Z" fill="#b69ae2"></path>
<path d="M725.401 152.6H606.4V449.2H725.401V152.6Z" fill="black" fill-opacity="0.33"></path>
<path d="M639.3 189.6H621V204.4H639.3V189.6Z" fill="black" fill-opacity="0.17"></path>
<path d="M663.1 189.6H644.8V204.4H663.1V189.6Z" fill="black" fill-opacity="0.17"></path>
<path d="M687 189.6H668.7V204.4H687V189.6Z" fill="black" fill-opacity="0.17"></path>
<path d="M710.9 189.6H692.6V204.4H710.9V189.6Z" fill="black" fill-opacity="0.17"></path>
<path d="M639.3 236.6H621V251.4H639.3V236.6Z" fill="black" fill-opacity="0.17"></path>
<path d="M663.1 236.6H644.8V251.4H663.1V236.6Z" fill="black" fill-opacity="0.17"></path>
<path d="M687 236.6H668.7V251.4H687V236.6Z" fill="black" fill-opacity="0.17"></path>
<path d="M710.9 236.6H692.6V251.4H710.9V236.6Z" fill="black" fill-opacity="0.17"></path>
<path d="M639.3 263.1H621V277.9H639.3V263.1Z" fill="black" fill-opacity="0.17"></path>
<path d="M663.1 263.1H644.8V277.9H663.1V263.1Z" fill="black" fill-opacity="0.17"></path>
<path d="M687 263.1H668.7V277.9H687V263.1Z" fill="black" fill-opacity="0.17"></path>
<path d="M710.9 263.1H692.6V277.9H710.9V263.1Z" fill="black" fill-opacity="0.17"></path>
<path d="M639.3 310H621V324.8H639.3V310Z" fill="black" fill-opacity="0.17"></path>
<path d="M663.1 310H644.8V324.8H663.1V310Z" fill="black" fill-opacity="0.17"></path>
<path d="M687 310H668.7V324.8H687V310Z" fill="black" fill-opacity="0.17"></path>
<path d="M710.9 310H692.6V324.8H710.9V310Z" fill="black" fill-opacity="0.17"></path>
<path d="M639.3 336.5H621V351.3H639.3V336.5Z" fill="black" fill-opacity="0.17"></path>
<path d="M663.1 336.5H644.8V351.3H663.1V336.5Z" fill="black" fill-opacity="0.17"></path>
<path d="M687 336.5H668.7V351.3H687V336.5Z" fill="black" fill-opacity="0.17"></path>
<path d="M710.9 336.5H692.6V351.3H710.9V336.5Z" fill="black" fill-opacity="0.17"></path>
<path d="M563.799 107.8H559.999V206.3H563.799V107.8Z" fill="black" fill-opacity="0.17"></path>
<path d="M553.499 107.8H549.699V206.3H553.499V107.8Z" fill="black" fill-opacity="0.17"></path>
<path d="M543.1 107.8H539.3V206.3H543.1V107.8Z" fill="black" fill-opacity="0.17"></path>
<path d="M532.799 107.8H528.999V206.3H532.799V107.8Z" fill="black" fill-opacity="0.17"></path>
<path d="M522.4 107.8H518.6V206.3H522.4V107.8Z" fill="black" fill-opacity="0.17"></path>
<path d="M512.1 107.8H508.3V206.3H512.1V107.8Z" fill="black" fill-opacity="0.17"></path>
<path d="M501.799 107.8H497.999V206.3H501.799V107.8Z" fill="black" fill-opacity="0.17"></path>
<path d="M491.4 107.8H487.6V206.3H491.4V107.8Z" fill="black" fill-opacity="0.17"></path>
<path d="M481.1 107.8H477.3V206.3H481.1V107.8Z" fill="black" fill-opacity="0.17"></path>
<path d="M470.699 107.8H466.899V206.3H470.699V107.8Z" fill="black" fill-opacity="0.17"></path>
<path d="M460.4 107.8H456.6V206.3H460.4V107.8Z" fill="black" fill-opacity="0.17"></path>
<path d="M449.999 107.8H446.199V206.3H449.999V107.8Z" fill="black" fill-opacity="0.17"></path>
<path d="M439.699 107.8H435.899V206.3H439.699V107.8Z" fill="black" fill-opacity="0.17"></path>
<path d="M563.799 381.2H559.999V479.7H563.799V381.2Z" fill="black" fill-opacity="0.17"></path>
<path d="M553.499 381.2H549.699V479.7H553.499V381.2Z" fill="black" fill-opacity="0.17"></path>
<path d="M543.1 381.2H539.3V479.7H543.1V381.2Z" fill="black" fill-opacity="0.17"></path>
<path d="M532.799 381.2H528.999V479.7H532.799V381.2Z" fill="black" fill-opacity="0.17"></path>
<path d="M522.4 381.2H518.6V479.7H522.4V381.2Z" fill="black" fill-opacity="0.17"></path>
<path d="M512.1 381.2H508.3V479.7H512.1V381.2Z" fill="black" fill-opacity="0.17"></path>
<path d="M501.799 381.2H497.999V479.7H501.799V381.2Z" fill="black" fill-opacity="0.17"></path>
<path d="M491.4 381.2H487.6V479.7H491.4V381.2Z" fill="black" fill-opacity="0.17"></path>
<path d="M481.1 381.2H477.3V479.7H481.1V381.2Z" fill="black" fill-opacity="0.17"></path>
<path d="M470.699 381.2H466.899V479.7H470.699V381.2Z" fill="black" fill-opacity="0.17"></path>
<path d="M460.4 381.2H456.6V479.7H460.4V381.2Z" fill="black" fill-opacity="0.17"></path>
<path d="M449.999 381.2H446.199V479.7H449.999V381.2Z" fill="black" fill-opacity="0.17"></path>
<path d="M439.699 381.2H435.899V479.7H439.699V381.2Z" fill="black" fill-opacity="0.17"></path>
<path d="M563.899 350.1H435.899V353.9H563.899V350.1Z" fill="black" fill-opacity="0.17"></path>
<path d="M563.899 339.8H435.899V343.6H563.899V339.8Z" fill="black" fill-opacity="0.17"></path>
<path d="M563.899 329.4H435.899V333.2H563.899V329.4Z" fill="black" fill-opacity="0.17"></path>
<path d="M563.899 319.1H435.899V322.9H563.899V319.1Z" fill="black" fill-opacity="0.17"></path>
<path d="M563.899 308.8H435.899V312.6H563.899V308.8Z" fill="black" fill-opacity="0.17"></path>
<path d="M563.899 298.4H435.899V302.2H563.899V298.4Z" fill="black" fill-opacity="0.17"></path>
<path d="M563.899 288.1H435.899V291.9H563.899V288.1Z" fill="black" fill-opacity="0.17"></path>
<path d="M563.899 277.7H435.899V281.5H563.899V277.7Z" fill="black" fill-opacity="0.17"></path>
<path d="M563.899 267.4H435.899V271.2H563.899V267.4Z" fill="black" fill-opacity="0.17"></path>
<path d="M563.899 257H435.899V260.8H563.899V257Z" fill="black" fill-opacity="0.17"></path>
<path d="M563.899 246.7H435.899V250.5H563.899V246.7Z" fill="black" fill-opacity="0.17"></path>
<path d="M563.899 236.3H435.899V240.1H563.899V236.3Z" fill="black" fill-opacity="0.17"></path>
<path d="M563.899 226H435.899V229.8H563.899V226Z" fill="black" fill-opacity="0.17"></path>
<path d="M461.5 25.3999H435.1V46.6999H461.5V25.3999Z" fill="black" fill-opacity="0.17"></path>
<path d="M495.9 25.3999H469.5V46.6999H495.9V25.3999Z" fill="black" fill-opacity="0.17"></path>
<path d="M530.299 25.3999H503.899V46.6999H530.299V25.3999Z" fill="black" fill-opacity="0.17"></path>
<path d="M564.599 25.3999H538.199V46.6999H564.599V25.3999Z" fill="black" fill-opacity="0.17"></path>
<path d="M461.5 63.4999H435.1V84.7999H461.5V63.4999Z" fill="black" fill-opacity="0.17"></path>
<path d="M495.9 63.4999H469.5V84.7999H495.9V63.4999Z" fill="black" fill-opacity="0.17"></path>
<path d="M530.299 63.4999H503.899V84.7999H530.299V63.4999Z" fill="black" fill-opacity="0.17"></path>
<path d="M564.599 63.4999H538.199V84.7999H564.599V63.4999Z" fill="black" fill-opacity="0.17"></path>
<path d="M157.1 0H0.5V505H157.1V0Z" fill="#b69ae2"></path>
<path d="M66.2996 46.2002H22.5996V55.4002H66.2996V46.2002Z" fill="black" fill-opacity="0.17"></path>
<path d="M66.2996 73.7002H22.5996V82.9002H66.2996V73.7002Z" fill="black" fill-opacity="0.17"></path>
<path d="M66.2996 101.2H22.5996V110.4H66.2996V101.2Z" fill="black" fill-opacity="0.17"></path>
<path d="M66.2996 128.6H22.5996V137.8H66.2996V128.6Z" fill="black" fill-opacity="0.17"></path>
<path d="M66.2996 156.1H22.5996V165.3H66.2996V156.1Z" fill="black" fill-opacity="0.17"></path>
<path d="M66.2996 183.5H22.5996V192.7H66.2996V183.5Z" fill="black" fill-opacity="0.17"></path>
<path d="M66.2996 211H22.5996V220.2H66.2996V211Z" fill="black" fill-opacity="0.17"></path>
<path d="M66.2996 238.4H22.5996V247.6H66.2996V238.4Z" fill="black" fill-opacity="0.17"></path>
<path d="M66.2996 265.9H22.5996V275.1H66.2996V265.9Z" fill="black" fill-opacity="0.17"></path>
<path d="M66.2996 293.3H22.5996V302.5H66.2996V293.3Z" fill="black" fill-opacity="0.17"></path>
<path d="M66.2996 320.8H22.5996V330H66.2996V320.8Z" fill="black" fill-opacity="0.17"></path>
<path d="M134.999 46.2002H91.2988V55.4002H134.999V46.2002Z" fill="black" fill-opacity="0.17"></path>
<path d="M134.999 73.7002H91.2988V82.9002H134.999V73.7002Z" fill="black" fill-opacity="0.17"></path>
<path d="M134.999 101.2H91.2988V110.4H134.999V101.2Z" fill="black" fill-opacity="0.17"></path>
<path d="M134.999 128.6H91.2988V137.8H134.999V128.6Z" fill="black" fill-opacity="0.17"></path>
<path d="M134.999 156.1H91.2988V165.3H134.999V156.1Z" fill="black" fill-opacity="0.17"></path>
<path d="M134.999 183.5H91.2988V192.7H134.999V183.5Z" fill="black" fill-opacity="0.17"></path>
<path d="M134.999 211H91.2988V220.2H134.999V211Z" fill="black" fill-opacity="0.17"></path>
<path d="M134.899 290.8H131.199V330H134.899V290.8Z" fill="black" fill-opacity="0.17"></path>
<path d="M124.899 290.8H121.199V330H124.899V290.8Z" fill="black" fill-opacity="0.17"></path>
<path d="M115 290.8H111.3V330H115V290.8Z" fill="black" fill-opacity="0.17"></path>
<path d="M105.099 290.8H101.399V330H105.099V290.8Z" fill="black" fill-opacity="0.17"></path>
<path d="M95.0994 290.8H91.3994V330H95.0994V290.8Z" fill="black" fill-opacity="0.17"></path>
<path d="M134.899 238.4H131.199V275.1H134.899V238.4Z" fill="black" fill-opacity="0.17"></path>
<path d="M124.899 238.4H121.199V275.1H124.899V238.4Z" fill="black" fill-opacity="0.17"></path>
<path d="M115 238.4H111.3V275.1H115V238.4Z" fill="black" fill-opacity="0.17"></path>
<path d="M105.099 238.4H101.399V275.1H105.099V238.4Z" fill="black" fill-opacity="0.17"></path>
<path d="M95.0994 238.4H91.3994V275.1H95.0994V238.4Z" fill="black" fill-opacity="0.17"></path>
<path d="M135 358.2H22.5996V484.7H135V358.2Z" fill="black" fill-opacity="0.17"></path>
<path fill-rule="evenodd" clip-rule="evenodd" d="M85.5986 391.554L92.2655 389.112L94.4829 395.164C96.7653 394.812 99.1319 394.894 101.456 395.455L104.196 389.546L110.638 392.533L107.9 398.435C109.859 399.862 111.47 401.64 112.686 403.639L118.771 401.41L121.213 408.077L115.119 410.309C115.472 412.593 115.391 414.961 114.829 417.287L120.738 420.027L117.751 426.468L111.849 423.731C110.432 425.676 108.668 427.279 106.686 428.491L108.917 434.582L102.25 437.024L100.022 430.942C97.7237 431.303 95.3393 431.225 92.9977 430.66L90.299 436.479L83.8579 433.492L86.5535 427.68C84.6066 426.262 83.0031 424.496 81.7903 422.512L75.7441 424.727L73.3018 418.06L79.3413 415.847C78.9758 413.519 79.0617 411.101 79.6484 408.729L73.8472 406.039L76.8341 399.598L82.6646 402.302C84.0818 400.379 85.8396 398.795 87.8121 397.596L85.5986 391.554ZM91.7157 424.941C85.1522 421.898 82.2988 414.11 85.3426 407.546C88.3863 400.982 96.1745 398.129 102.738 401.173C109.302 404.217 112.155 412.005 109.111 418.568C106.067 425.132 98.2793 427.985 91.7157 424.941ZM49.2757 443.494C44.2427 439.994 42.9998 433.077 46.4996 428.044C49.9994 423.011 56.9167 421.768 61.9497 425.268C66.9827 428.768 68.2256 435.685 64.7258 440.718C61.226 445.751 54.3088 446.994 49.2757 443.494ZM40.0327 419.747L44.4238 422.801C45.9837 421.29 47.8026 420.143 49.7553 419.383L48.8027 414.083L54.9048 412.986L55.8566 418.282C57.9413 418.311 60.0354 418.745 62.0156 419.606L65.0757 415.205L70.1659 418.745L67.1233 423.12C68.6698 424.698 69.841 426.545 70.6133 428.53L75.9082 427.578L77.005 433.68L71.7122 434.631C71.6812 436.747 71.2339 438.871 70.3472 440.877L74.7323 443.926L71.1927 449.016L66.801 445.962C65.2387 447.475 63.4167 448.623 61.4605 449.383L62.3956 454.585L56.2936 455.682L55.3586 450.481C53.245 450.449 51.122 450.002 49.1181 449.116L46.0682 453.502L40.978 449.962L44.0323 445.57C42.5209 444.009 41.3737 442.189 40.6131 440.235L35.3077 441.188L34.2109 435.086L39.5132 434.133C39.5439 432.018 39.991 429.892 40.8778 427.886L36.4932 424.837L40.0327 419.747Z" fill="#7838e0"></path>
<path d="M260.6 144H187.1V186.5H260.6V144Z" fill="#b69ae2"></path>
<path fill-rule="evenodd" clip-rule="evenodd" d="M187.1 144H260.6V169.2H290.3V472.1H157.2V169.2H187.1V144Z" fill="black" fill-opacity="0.2"></path>
<path d="M800.537 83.2388H724.438V498.039H800.537V83.2388Z" fill="#b69ae2"></path>
<path d="M782.82 131.039H780.471V297.839H782.82V131.039Z" fill="black" fill-opacity="0.17"></path>
<path d="M776.494 131.039H774.145V297.839H776.494V131.039Z" fill="black" fill-opacity="0.17"></path>
<path d="M769.987 131.039H767.638V297.839H769.987V131.039Z" fill="black" fill-opacity="0.17"></path>
<path d="M763.662 131.039H761.312V297.839H763.662V131.039Z" fill="black" fill-opacity="0.17"></path>
<path d="M757.336 131.039H754.986V297.839H757.336V131.039Z" fill="black" fill-opacity="0.17"></path>
<path d="M750.829 131.039H748.479V297.839H750.829V131.039Z" fill="black" fill-opacity="0.17"></path>
<path d="M744.504 131.039H742.154V297.839H744.504V131.039Z" fill="black" fill-opacity="0.17"></path>
<rect x="743.329" y="306.412" width="15.1187" height="34.724" fill="black" fill-opacity="0.17"></rect>
<rect x="766.526" y="306.412" width="15.1187" height="34.724" fill="black" fill-opacity="0.17"></rect>
<rect x="743.329" y="349.708" width="15.1187" height="34.724" fill="black" fill-opacity="0.17"></rect>
<rect x="766.526" y="349.708" width="15.1187" height="34.724" fill="black" fill-opacity="0.17"></rect>
<rect x="743.329" y="393.004" width="15.1187" height="34.724" fill="black" fill-opacity="0.17"></rect>
<rect x="766.526" y="393.004" width="15.1187" height="34.724" fill="black" fill-opacity="0.17"></rect>
<rect x="743.329" y="436.3" width="15.1187" height="34.724" fill="black" fill-opacity="0.17"></rect>
<rect x="766.526" y="436.3" width="15.1187" height="34.724" fill="black" fill-opacity="0.17"></rect>
<path fill-rule="evenodd" clip-rule="evenodd" d="M702.183 571.04C740.783 570.046 766.526 568.261 766.526 566.223C766.526 563.103 706.183 560.574 631.746 560.574C579.661 560.574 534.477 561.813 512.037 563.625C479.157 563.42 443.806 563.308 406.99 563.308C231.655 563.308 89.5176 565.837 89.5176 568.957C89.5176 572.076 231.655 574.605 406.99 574.605C540.982 574.605 655.586 573.129 702.183 571.04Z" fill="black" fill-opacity="0.2"></path>
<path d="M478.034 130.852H523.496V143.844H478.034V130.852Z" fill="#B5CDFB"></path>
<path d="M545.907 329.117C544.256 333.447 555.515 339.722 561.352 342.318L566.409 341.245L567.121 332.388L566.11 320.789C560.064 321.761 547.558 324.787 545.907 329.117Z" fill="#D69962"></path>
<path d="M528.39 270.267H555.661V286.271H528.39V270.267Z" fill="#7838e0"></path>
<path d="M598.777 265.469C600.478 263.503 603.45 263.289 605.415 264.99C607.38 266.691 607.594 269.663 605.893 271.628L543.157 344.112C541.457 346.077 538.485 346.291 536.519 344.59C534.554 342.889 534.34 339.917 536.041 337.952L598.777 265.469Z" fill="#B5CDFB"></path>
<path d="M574.684 267.997C573.897 268.863 573.962 270.203 574.828 270.99L596.334 290.516C600.124 293.957 605.985 293.674 609.425 289.885C612.866 286.096 612.583 280.235 608.794 276.794L587.287 257.268C586.421 256.481 585.081 256.546 584.295 257.412L574.684 267.997Z" fill="#B5CDFB"></path>
<path fill-rule="evenodd" clip-rule="evenodd" d="M243.703 195.337C242.773 190.237 246.153 185.35 251.253 184.42L280.013 169.274L317.358 129.42L324.046 142.567L292.952 179.383L254.62 202.887C249.521 203.817 244.633 200.437 243.703 195.337Z" fill="#D69962"></path>
<path d="M280.752 197.013L264.437 175.259C249.52 177.434 236.467 186.265 231.806 190.409L246.956 217.99L280.752 197.013Z" fill="#D9D9D9"></path>
<path fill-rule="evenodd" clip-rule="evenodd" d="M638.257 394.688C639.146 389.08 635.32 383.814 629.713 382.925L596.789 377.708L575.575 329.226C570.498 316.979 556.156 327.906 561.233 340.154L582.204 396.213L626.495 403.232C632.102 404.12 637.368 400.295 638.257 394.688Z" fill="#D69962"></path>
<path d="M617.976 372.535L610.855 412.41L664.972 408.613L675.416 384.402L617.976 372.535Z" fill="#474646"></path>
<path fill-rule="evenodd" clip-rule="evenodd" d="M656.713 548.77C656.825 551.977 659.516 554.486 662.723 554.373L696.596 553.185C699.803 553.073 702.311 550.382 702.199 547.175C702.086 543.968 699.395 541.459 696.188 541.572L662.316 542.76C659.109 542.872 656.6 545.563 656.713 548.77Z" fill="#D69962"></path>
<path d="M678.738 541.862C678.738 541.862 684.055 545.822 686.191 553.785C703.269 552.616 730.582 555.617 732.215 551.661C733.849 547.705 694.733 533.603 685.346 530.852C679.935 533.539 678.738 541.862 678.738 541.862Z" fill="#B5CDFB"></path>
<path d="M321.648 141.344H537.798V283.882H321.648V141.344Z" fill="#2D2D2D"></path>
<path d="M321.648 283.882H537.798V426.42H321.648V283.882Z" fill="#181818"></path>
<path d="M321.648 426.419H537.798V568.957H321.648V426.419Z" fill="#474646"></path>
<path fill-rule="evenodd" clip-rule="evenodd" d="M429.724 378.018C442.354 378.018 452.593 367.78 452.593 355.15C452.593 342.52 442.354 332.281 429.724 332.281C417.094 332.281 406.855 342.52 406.855 355.15C406.855 367.78 417.094 378.018 429.724 378.018ZM429.724 387.851C447.785 387.851 462.426 373.21 462.426 355.15C462.426 337.089 447.785 322.448 429.724 322.448C411.663 322.448 397.022 337.089 397.022 355.15C397.022 373.21 411.663 387.851 429.724 387.851Z" fill="#A3A3A3"></path>
<path d="M423.437 312.152H436.01V324.726H423.437V312.152Z" fill="#A3A3A3"></path>
<path d="M423.437 385.572H436.01V398.146H423.437V385.572Z" fill="#A3A3A3"></path>
<path d="M455.682 320.301L464.573 329.192L455.682 338.083L446.791 329.192L455.682 320.301Z" fill="#A3A3A3"></path>
<path d="M403.766 372.216L412.657 381.108L403.766 389.999L394.874 381.108L403.766 372.216Z" fill="#A3A3A3"></path>
<path d="M472.721 348.862L472.721 361.436L460.147 361.436L460.147 348.862L472.721 348.862Z" fill="#A3A3A3"></path>
<path d="M399.301 348.862L399.301 361.436L386.727 361.436L386.727 348.862L399.301 348.862Z" fill="#A3A3A3"></path>
<path d="M464.572 381.108L455.681 389.999L446.79 381.108L455.681 372.217L464.572 381.108Z" fill="#A3A3A3"></path>
<path d="M412.656 329.192L403.765 338.083L394.874 329.192L403.765 320.3L412.656 329.192Z" fill="#A3A3A3"></path>
<path d="M328.8 294.914H335.951V308.659H328.8V294.914Z" fill="#7838e0"></path>
<path d="M328.8 315.81H335.951V329.555H328.8V315.81Z" fill="#7838e0"></path>
<path d="M328.8 336.707H335.951V350.452H328.8V336.707Z" fill="#7838e0"></path>
<path d="M343.103 294.914H350.254V308.659H343.103V294.914Z" fill="#7838e0"></path>
<path d="M343.103 315.81H350.254V329.555H343.103V315.81Z" fill="#7838e0"></path>
<path d="M343.103 336.707H350.254V350.452H343.103V336.707Z" fill="#7838e0"></path>
<path d="M342.545 394.571L342.545 401.722L328.8 401.722L328.8 394.571L342.545 394.571Z" fill="#7838e0"></path>
<path d="M507.914 472.659L507.914 479.811L351.533 479.811L351.533 472.659L507.914 472.659Z" fill="#7838e0"></path>
<path d="M507.914 486.962L507.914 494.113L351.533 494.113L351.533 486.962L507.914 486.962Z" fill="#7838e0"></path>
<path d="M507.914 501.264L507.914 508.415L351.533 508.415L351.533 501.264L507.914 501.264Z" fill="#7838e0"></path>
<path d="M507.914 515.566L507.914 522.718L351.533 522.718L351.533 515.566L507.914 515.566Z" fill="#7838e0"></path>
<path d="M507.914 233.823L507.914 240.975L351.533 240.975L351.533 233.823L507.914 233.823Z" fill="#7838e0"></path>
<path fill-rule="evenodd" clip-rule="evenodd" d="M656.819 558.405C656.936 561.612 659.63 564.116 662.837 563.999L700.771 562.613C703.978 562.496 706.483 559.801 706.366 556.595C706.249 553.388 703.554 550.883 700.347 551L662.413 552.386C659.206 552.503 656.702 555.198 656.819 558.405Z" fill="#FFB877"></path>
<path d="M684.013 551.473C684.013 551.473 690.979 554.923 693.115 562.886C710.194 561.717 736.671 564.041 738.304 560.085C739.938 556.129 700.822 542.027 691.435 539.276C686.024 541.962 684.013 551.473 684.013 551.473Z" fill="#b69ae2"></path>
<path d="M507.914 248.126L507.914 255.277L351.533 255.277L351.533 248.126L507.914 248.126Z" fill="#7838e0"></path>
<path d="M507.914 262.429L507.914 269.58L351.533 269.58L351.533 262.429L507.914 262.429Z" fill="#7838e0"></path>
<path d="M342.545 408.873L342.545 416.024L328.8 416.024L328.8 408.873L342.545 408.873Z" fill="#7838e0"></path>
<path d="M523.496 295.282C523.496 297.628 521.594 299.53 519.248 299.53C516.901 299.53 514.999 297.628 514.999 295.282C514.999 292.936 516.901 291.033 519.248 291.033C521.594 291.033 523.496 292.936 523.496 295.282Z" fill="#7838e0"></path>
<path d="M507.849 295.282C507.849 297.628 505.946 299.53 503.6 299.53C501.254 299.53 499.352 297.628 499.352 295.282C499.352 292.936 501.254 291.033 503.6 291.033C505.946 291.033 507.849 292.936 507.849 295.282Z" fill="#B5CDFB"></path>
<path d="M492.2 295.282C492.2 297.628 490.298 299.53 487.952 299.53C485.605 299.53 483.703 297.628 483.703 295.282C483.703 292.936 485.605 291.033 487.952 291.033C490.298 291.033 492.2 292.936 492.2 295.282Z" fill="#DEDEDE"></path>
<path d="M482.609 392.827H523.496V416.024H482.609V392.827Z" fill="#E8E8E8" fill-opacity="0.09"></path>
<path d="M372.061 174.686L384.142 181.661V195.61L372.061 202.585L359.98 195.61V181.661L372.061 174.686Z" fill="#7838e0"></path>
<path d="M429.722 174.686L441.803 181.661V195.61L429.722 202.585L417.642 195.61V181.661L429.722 174.686Z" fill="#A2A2A2"></path>
<path d="M487.384 174.686L499.465 181.661V195.61L487.384 202.585L475.304 195.61V181.661L487.384 174.686Z" fill="#A2A2A2"></path>
<path d="M265.918 448.695H322.469V568.957H265.918V448.695Z" fill="#2D2D2D"></path>
<path d="M204.758 478.789H265.918V568.957H204.758V478.789Z" fill="#2D2D2D"></path>
<path d="M143.598 508.888H204.758V568.957H143.598V508.888Z" fill="#2D2D2D"></path>
<path d="M686.926 324.128L644.78 318.633C644.78 318.633 643.05 326.382 640.891 336.612C640.479 338.565 635.775 340.691 635.341 342.788C635.068 344.104 639.069 345.359 638.794 346.708C637.587 352.618 636.373 358.761 635.341 364.375C653.958 376.049 683.704 354.988 683.704 354.988L686.926 324.128Z" fill="#FFB877"></path>
<path fill-rule="evenodd" clip-rule="evenodd" d="M641.885 334.787C641.429 334.597 640.906 334.812 640.716 335.267C639.861 337.318 638.296 338.576 636.869 339.529C636.636 339.685 636.391 339.842 636.151 339.996C635.705 340.282 635.273 340.558 634.952 340.804C634.694 341.001 634.423 341.24 634.226 341.527C634.017 341.833 633.864 342.243 633.956 342.717C634.072 343.318 634.471 343.866 634.845 344.287C635.242 344.735 635.727 345.166 636.181 345.533C636.638 345.903 637.083 346.225 637.413 346.453C637.578 346.567 637.716 346.659 637.813 346.723C637.861 346.755 637.9 346.78 637.927 346.797L637.958 346.817L637.967 346.823L637.97 346.825C637.97 346.825 637.971 346.825 638.436 346.088L637.97 346.825C638.388 347.089 638.94 346.964 639.204 346.547C639.467 346.129 639.343 345.577 638.925 345.314L638.919 345.309L638.894 345.294C638.872 345.279 638.838 345.258 638.795 345.229C638.708 345.172 638.583 345.088 638.43 344.983C638.125 344.771 637.718 344.477 637.306 344.144C636.89 343.807 636.488 343.446 636.182 343.101C635.934 342.821 635.804 342.612 635.746 342.481C635.799 342.423 635.889 342.338 636.04 342.223C636.307 342.018 636.624 341.816 637.012 341.568C637.263 341.407 637.545 341.228 637.862 341.016C639.377 340.004 641.304 338.502 642.366 335.956C642.556 335.5 642.341 334.977 641.885 334.787Z" fill="#222222"></path>
<path fill-rule="evenodd" clip-rule="evenodd" d="M672.984 535.39C677.242 535.545 681.228 535.656 684.654 535.656C695.268 535.656 703.873 527.051 703.873 516.437C703.873 505.823 695.269 497.218 684.654 497.218C679.953 497.218 674.167 496.979 667.267 496.694C664.468 496.579 661.486 496.456 658.318 496.338C647.768 495.946 635.766 495.648 624.184 496.149C612.819 496.64 600.647 497.937 590.158 501.264C580.214 504.417 567.292 510.855 561.7 524.836C558.323 533.279 558.877 542.87 564.749 550.839C569.53 557.328 576.35 560.632 581.144 562.427C591.06 566.139 603.754 567.468 614.485 568C625.756 568.559 637.149 568.317 645.587 567.955C649.84 567.772 653.416 567.555 655.945 567.383C657.211 567.296 658.218 567.221 658.921 567.166C659.273 567.138 659.549 567.116 659.743 567.1L659.972 567.081L660.069 567.073C660.072 567.072 660.075 567.072 658.429 548.106L660.075 567.072C670.65 566.155 678.478 556.838 677.561 546.264C677.198 542.088 675.526 538.34 672.984 535.39ZM596.752 540.206C596.753 540.207 596.759 540.201 596.771 540.188C596.758 540.2 596.752 540.206 596.752 540.206ZM593.546 525.954C593.543 525.955 593.584 525.981 593.677 526.028C593.595 525.976 593.548 525.952 593.546 525.954Z" fill="#b69ae2"></path>
<path d="M679.739 390.284C677.178 381.074 673.951 359.589 676.687 352.974L662.561 357.517C658.872 359.356 651.947 363.676 653.762 366.242C655.577 368.808 646.838 384.711 644.986 387.669L657.719 388.139C663.44 390.707 682.3 399.494 679.739 390.284Z" fill="#FFB877"></path>
<path d="M662.896 366.091C662.896 366.091 656.164 367.03 653.841 367.448C654.07 369.219 649.714 378.549 648.753 380.862C648.753 380.862 659.958 369.837 662.896 366.091Z" fill="black" fill-opacity="0.64"></path>
<path fill-rule="evenodd" clip-rule="evenodd" d="M637 355.611C641.221 356.454 643.895 353.964 644.565 352.516L642.943 351.766C642.583 352.543 640.678 354.523 637.35 353.857L637 355.611Z" fill="#222222"></path>
<path d="M658.873 328.055L669.401 329.098C670.955 331.881 667.967 337.913 665.239 341.816L672.377 344.453C674.317 340.083 679.582 336.711 682.166 341.615C684.75 346.518 673.811 352.183 670.903 357.297C667.994 362.411 673.938 365.45 676.546 366.675C679.155 367.901 691.239 374.724 692.391 366.013C693.544 357.302 696.071 341.743 700.245 330.987C703.584 322.382 696.71 321.278 692.855 321.802C693.067 321.661 692.995 321.046 692.713 320.096C692.772 307.946 690.439 287.328 684.389 284.968C681.371 283.791 678.512 286.137 676.107 289.711C669.579 282.25 661.583 278.234 652.344 285.573C651.062 286.591 649.978 288.102 649.061 289.94C647.52 289.353 645.847 289.43 644.058 290.456C635.943 295.109 641.281 314.492 644.068 322.479C644.068 322.479 649.31 326.658 658.873 328.055Z" fill="#b69ae2"></path>
<path fill-rule="evenodd" clip-rule="evenodd" d="M660.608 403.644C656.809 399.098 650.044 398.492 645.498 402.29L603.527 437.362L555.218 414.972C549.843 412.481 543.466 414.819 540.975 420.194C538.484 425.569 540.822 431.946 546.197 434.437L606.847 462.546L659.255 418.753C663.801 414.954 664.406 408.19 660.608 403.644Z" fill="#FFB877"></path>
<path d="M548.237 391.216C553.369 402.967 555.266 416.195 551.853 428.711C549.568 437.089 543.094 431.84 536.821 429.15L537.151 376.934C538.708 376.798 543.105 379.464 548.237 391.216Z" fill="#FFB877"></path>
<path d="M348.194 131.104C339.38 126.333 329.441 124.518 320.012 127.573C313.701 129.618 317.617 135.581 319.611 141.344L358.882 141.344C358.991 139.918 357.007 135.874 348.194 131.104Z" fill="#D69962"></path>
<path d="M639.293 495.861L711.304 498.11V509.436C711.304 528.196 696.096 543.404 677.336 543.404H639.293V495.861Z" fill="#b69ae2"></path>
<path fill-rule="evenodd" clip-rule="evenodd" d="M582.679 532.178C582.753 531.943 583.004 531.812 583.24 531.886C615.224 541.968 640.248 542.957 677.094 542.957C677.341 542.957 677.541 543.157 677.541 543.404C677.541 543.651 677.341 543.851 677.094 543.851C640.229 543.851 615.092 542.863 582.971 532.739C582.735 532.665 582.605 532.414 582.679 532.178Z" fill="#B5CDFB"></path>
<path d="M683.183 380.574C716.211 422.153 712.673 497.336 711.881 509.446L639.581 496.479L642.095 448.964L630.027 458.351L613.488 422.591C613.488 422.591 618.389 410.652 645.224 380.573C670.703 373.85 675.269 370.61 683.183 380.574Z" fill="#181818"></path>
<path d="M576.598 314.11C577.263 316.352 577.181 327.043 576.47 331.027L561.471 325.297L567.265 311.153C570.099 311.204 575.933 311.868 576.598 314.11Z" fill="#D69962"></path>
<path d="M561.571 302.146C571.916 312.143 567.155 305.847 572.212 319.637C573.877 324.174 558.492 333.601 558.492 333.601C546.315 332.445 541.856 324.251 541.856 324.251C541.856 324.251 555.129 295.921 561.571 302.146Z" fill="#D69962"></path>
<path d="M577.922 311.245C577.922 311.245 578.177 326.797 574.103 328.907C570.906 326.837 565.011 321.856 567.014 318.485C569.518 314.271 570.857 312.339 566.382 308.007C562.801 304.542 563.741 300.45 564.588 299.417C566.172 299.19 577.922 311.245 577.922 311.245Z" fill="#D69962"></path>
<path fill-rule="evenodd" clip-rule="evenodd" d="M224.787 435.387C227.914 436.11 229.862 439.231 229.139 442.357L223.562 466.47C222.839 469.596 219.718 471.544 216.592 470.821C213.465 470.098 211.517 466.978 212.24 463.851L217.817 439.739C218.54 436.612 221.661 434.664 224.787 435.387Z" fill="#FFB877"></path>
<path d="M211.479 460.526C211.479 460.526 219.339 467.189 224.196 460.526C239.711 467.76 263.439 471.31 263.541 475.589C263.642 479.868 222.071 478.958 212.323 478.148C208.241 473.696 211.479 460.526 211.479 460.526Z" fill="#B5CDFB"></path>
<path fill-rule="evenodd" clip-rule="evenodd" d="M239.134 460.192C239.657 460.715 239.657 461.564 239.134 462.088L230.519 470.702C229.996 471.226 229.147 471.226 228.623 470.702C228.1 470.178 228.1 469.329 228.623 468.806L237.237 460.192C237.761 459.668 238.61 459.668 239.134 460.192Z" fill="#7838e0"></path>
<path fill-rule="evenodd" clip-rule="evenodd" d="M247.748 461.302C248.271 461.826 248.271 462.675 247.748 463.199L239.134 471.813C238.61 472.336 237.761 472.336 237.237 471.813C236.714 471.289 236.714 470.44 237.237 469.917L245.852 461.302C246.375 460.779 247.224 460.779 247.748 461.302Z" fill="#7838e0"></path>
<path fill-rule="evenodd" clip-rule="evenodd" d="M282.918 405.094C286.004 405.976 287.79 409.192 286.909 412.277L280.257 435.56C279.375 438.646 276.159 440.432 273.074 439.551C269.988 438.669 268.202 435.453 269.083 432.368L275.735 409.085C276.617 405.999 279.833 404.213 282.918 405.094Z" fill="#FFB877"></path>
<path d="M268.309 430.391C268.309 430.391 276.169 437.053 281.026 430.391C296.541 437.624 320.269 441.175 320.371 445.454C320.472 449.733 278.902 448.822 269.153 448.013C265.071 443.561 268.309 430.391 268.309 430.391Z" fill="#b69ae2"></path>
<path fill-rule="evenodd" clip-rule="evenodd" d="M295.964 430.056C296.487 430.58 296.487 431.428 295.964 431.952L287.35 440.566C286.826 441.09 285.977 441.09 285.453 440.566C284.93 440.043 284.93 439.194 285.453 438.67L294.067 430.056C294.591 429.532 295.44 429.532 295.964 430.056Z" fill="#7838e0"></path>
<path fill-rule="evenodd" clip-rule="evenodd" d="M304.578 431.167C305.102 431.691 305.102 432.54 304.578 433.063L295.964 441.678C295.44 442.201 294.591 442.201 294.068 441.678C293.544 441.154 293.544 440.305 294.068 439.781L302.682 431.167C303.205 430.644 304.054 430.644 304.578 431.167Z" fill="#7838e0"></path>
<path fill-rule="evenodd" clip-rule="evenodd" d="M225.553 291.576C234.142 290.645 241.86 296.853 242.791 305.443L227.463 307.104C242.791 305.443 242.791 305.443 242.791 305.444L242.849 305.985C242.886 306.333 242.94 306.841 243.008 307.494C243.144 308.8 243.338 310.686 243.571 313.022C244.035 317.692 244.655 324.173 245.275 331.425C246.501 345.756 247.783 363.692 247.783 376.503C247.783 389.855 245.658 406.529 243.681 419.303C242.674 425.81 241.668 431.533 240.914 435.634C240.536 437.686 240.22 439.339 239.996 440.486C239.885 441.061 239.796 441.509 239.734 441.818C239.704 441.973 239.68 442.093 239.663 442.177L239.635 442.316C239.634 442.317 239.634 442.318 224.304 439.202L239.634 442.318C237.913 450.785 229.655 456.253 221.188 454.532C212.723 452.811 207.254 444.554 208.974 436.088L208.975 436.087L208.991 436.005C209.004 435.941 209.024 435.842 209.05 435.709C209.104 435.442 209.183 435.039 209.286 434.511C209.491 433.457 209.787 431.909 210.144 429.971C210.858 426.089 211.811 420.666 212.763 414.518C214.703 401.98 216.496 387.305 216.496 376.503C216.496 365.161 215.327 348.409 214.103 334.091C213.498 327.018 212.892 320.685 212.438 316.121C212.211 313.84 212.022 312.004 211.89 310.743C211.825 310.112 211.773 309.625 211.738 309.298L211.686 308.814C211.686 308.814 211.686 308.814 211.686 308.814C210.756 300.225 216.964 292.507 225.553 291.576Z" fill="#b69ae2"></path>
<path fill-rule="evenodd" clip-rule="evenodd" d="M216.481 310.446C216.699 301.316 224.278 294.091 233.408 294.309L233.014 310.841C233.408 294.309 233.412 294.309 233.416 294.309L233.446 294.31L233.505 294.311C233.551 294.312 233.612 294.314 233.686 294.316C233.835 294.321 234.038 294.328 234.293 294.337C234.803 294.356 235.518 294.387 236.411 294.435C238.194 294.53 240.7 294.693 243.691 294.97C249.611 295.518 257.721 296.536 266.009 298.443C274.043 300.291 283.524 303.253 291.376 308.297C299.339 313.413 308.128 322.48 308.128 336.393C308.128 349.911 305.685 368.047 303.442 382.043C302.295 389.204 301.149 395.58 300.29 400.168C299.86 402.464 299.501 404.319 299.247 405.608C299.121 406.252 299.02 406.756 298.951 407.102C298.916 407.276 298.889 407.41 298.87 407.503L298.839 407.655C298.839 407.656 298.839 407.657 283.158 404.452L298.839 407.658C297.009 416.606 288.272 422.377 279.324 420.547C270.377 418.718 264.606 409.982 266.434 401.034C266.434 401.034 266.434 401.034 266.435 401.033L266.435 401.032L266.454 400.935C266.465 400.882 266.48 400.81 266.498 400.717L266.523 400.593C266.585 400.286 266.677 399.825 266.795 399.225C267.031 398.024 267.371 396.268 267.781 394.081C268.601 389.701 269.694 383.618 270.785 376.81C272.958 363.247 274.943 347.888 275.049 337.272C274.765 337.012 274.284 336.628 273.5 336.124C270.369 334.113 265.206 332.196 258.595 330.676C252.239 329.214 245.705 328.372 240.642 327.904C238.141 327.672 236.071 327.538 234.65 327.462C233.941 327.424 233.399 327.401 233.05 327.388C232.876 327.382 232.75 327.377 232.677 327.375L232.608 327.373L232.613 327.373C232.61 327.373 232.607 327.373 232.604 327.373C223.48 327.147 216.264 319.572 216.481 310.446ZM275.407 337.679C275.397 337.679 275.348 337.624 275.289 337.512C275.388 337.623 275.417 337.679 275.407 337.679Z" fill="#b69ae2"></path>
<path d="M227.259 125.392L268.114 127.211C268.114 127.211 266.488 135.888 264.044 145.117C263.672 146.523 265.947 149.209 265.539 150.613C265.246 151.621 262.279 151.354 261.97 152.336C259.661 159.683 256.944 165.971 254.264 166.719C247.462 168.62 224.276 152.837 224.276 152.837L227.259 125.392Z" fill="#FFB877"></path>
<path fill-rule="evenodd" clip-rule="evenodd" d="M263.23 141.887C263.667 141.904 264.007 142.272 263.99 142.71C263.911 144.676 264.698 146.271 265.489 147.57C265.618 147.783 265.756 148 265.892 148.213C266.143 148.609 266.387 148.993 266.553 149.31C266.686 149.565 266.815 149.858 266.866 150.162C266.92 150.487 266.89 150.873 266.639 151.219C266.321 151.658 265.796 151.95 265.338 152.149C264.852 152.36 264.301 152.525 263.8 152.651C263.294 152.778 262.816 152.87 262.466 152.93C262.291 152.96 262.146 152.983 262.044 152.998C261.993 153.005 261.953 153.011 261.925 153.015L261.892 153.019L261.883 153.02L261.88 153.021L261.879 153.021C261.879 153.021 261.879 153.021 261.778 152.235L261.879 153.021C261.445 153.077 261.048 152.77 260.992 152.336C260.936 151.903 261.243 151.506 261.677 151.45L261.683 151.449L261.709 151.445C261.732 151.442 261.767 151.437 261.813 151.431C261.904 151.417 262.036 151.397 262.198 151.369C262.522 151.313 262.959 151.229 263.415 151.115C263.874 150.999 264.332 150.859 264.707 150.696C265.011 150.564 265.193 150.445 265.288 150.361C265.268 150.295 265.227 150.193 265.149 150.044C265.011 149.78 264.832 149.499 264.613 149.155C264.47 148.932 264.311 148.683 264.136 148.394C263.296 147.015 262.309 145.089 262.407 142.646C262.424 142.209 262.793 141.869 263.23 141.887Z" fill="#1D1D1D"></path>
<path d="M215.139 184.17C219.051 176.658 230.448 172.244 228.894 152.032L240.303 158.565C243.163 160.837 246.426 162.711 244.382 164.601C242.337 166.492 248.935 185.024 249.997 187.928L238.875 185.996C233.445 187.171 211.228 191.682 215.139 184.17Z" fill="#FFB877"></path>
<path d="M237.321 161.488C237.321 161.488 242.688 163.587 244.624 164.375C244.1 165.869 245.79 174.466 246.199 176.647C246.199 176.647 239.18 165.274 237.321 161.488Z" fill="black" fill-opacity="0.28"></path>
<path fill-rule="evenodd" clip-rule="evenodd" d="M257.857 159.288C253.99 158.858 252.392 155.951 252.221 154.518L253.794 154.331C253.888 155.122 254.982 157.375 258.032 157.714L257.857 159.288Z" fill="#1D1D1D"></path>
<path d="M270.149 139.884L247.671 136.408C247.685 137.654 246.777 139.896 243.025 138.893C238.336 137.639 233.421 133.022 230.445 134.366C227.469 135.709 234.724 148.526 229.177 153.827C223.629 159.127 218.259 147.597 213.561 145.595C208.863 143.594 204.108 118.968 214.743 118.843C226.522 118.705 226.076 112.602 231.702 113.97C229.875 112.371 231.451 108.513 252.362 105.875C273.273 103.237 272.933 127.449 270.149 139.884Z" fill="#b69ae2"></path>
<path d="M238.052 104.558C238.123 110.662 232.337 117.152 226.233 117.224C216.958 123.503 208.811 114.371 208.739 108.267C208.668 102.163 216.308 94.3414 222.412 94.2699C228.516 94.1984 237.98 98.4538 238.052 104.558Z" fill="#b69ae2"></path>
<path d="M204.434 295.05C204.434 295.05 238.771 292.759 259.053 292.758C261.353 292.758 263.712 324.138 263.712 324.138C263.712 324.138 246.304 331.601 234.38 329.314C221.193 326.785 206.397 322.425 205.261 306.58L204.434 295.05Z" fill="#b69ae2"></path>
<path d="M252.999 183.718C245.855 179.108 216.471 175.468 216.471 175.468C216.471 175.468 203.469 184.868 202.668 199.911C201.047 230.347 197.065 283.289 197.192 297.516L264.897 294.701L262.245 227.303C260.1 198.567 252.999 183.718 252.999 183.718Z" fill="#F8F8F8"></path>
<path d="M249.508 177.499C243.793 171.76 231.351 171.733 220.588 169.099C218.768 168.651 212.786 178.422 216.166 177.049C219.545 175.677 252.036 186.9 251.934 185.318C251.833 183.735 254.945 182.959 249.508 177.499Z" fill="white"></path>
<path d="M318.435 247.805C315.635 247.924 306.915 257.154 304.273 259.045L320.682 261.433C320.682 261.433 321.338 256.422 322.653 254.758C323.739 253.385 326.831 251.035 326.831 251.035C326.831 251.035 332.1 254.018 334.819 249.874C334.819 249.874 328.37 246.219 327.645 246.353C324.799 246.881 321.401 247.68 318.435 247.805Z" fill="#FFB877"></path>
<path fill-rule="evenodd" clip-rule="evenodd" d="M257.066 329.143C255.958 329.098 255.098 328.161 255.149 327.053L255.991 308.633C256.023 307.945 256.406 307.322 257.006 306.983L269.208 300.094C275.066 301.37 287.841 304.865 292.079 308.633C296.318 312.402 301.692 318.53 303.849 321.123L302.11 337.546C302.031 338.295 301.538 338.935 300.835 339.204L282.844 346.077C281.851 346.456 280.735 345.993 280.303 345.022L277.076 337.772C276.618 336.742 277.101 335.538 278.143 335.109L289.166 330.576C289.816 330.309 290.277 329.721 290.383 329.027L292.079 317.877C292.195 317.116 291.863 316.355 291.227 315.922L281.836 309.537C281.267 309.15 280.538 309.083 279.907 309.36L268.734 314.271C268.039 314.576 267.577 315.248 267.541 316.007L266.991 327.555C266.939 328.653 266.011 329.503 264.913 329.458L257.066 329.143Z" fill="black" fill-opacity="0.2"></path>
<path d="M340.799 260.471C341.501 259.303 336.157 254.595 333.397 252.388L329.112 255.407L326.58 264.465C331.028 263.62 340.098 261.64 340.799 260.471Z" fill="#D69962"></path>
<path fill-rule="evenodd" clip-rule="evenodd" d="M215.86 199.479L233.447 192.913L256.039 253.432L308.604 259.232C318.938 260.171 313.078 275.845 303.743 274.996L242.582 271.058L215.86 199.479Z" fill="#FFB877"></path>
<path fill-rule="evenodd" clip-rule="evenodd" d="M224.618 184.844C232.735 182.708 241.046 187.557 243.181 195.673L256.19 245.11L226.799 252.845L213.789 203.407C211.654 195.291 216.502 186.98 224.618 184.844Z" fill="#D1D1D1"></path>
<path d="M222.54 271.838L228.802 276.069L222.007 279.376L222.54 271.838Z" fill="#b69ae2"></path>
<path d="M208.386 233.689L213.654 239.107L206.328 240.961L208.386 233.689Z" fill="#b69ae2"></path>
<path d="M229.546 214.775L231.335 219.74L226.141 218.806L229.546 214.775Z" fill="#b69ae2"></path>
<path d="M209.58 203.145L205.064 205.875L204.957 200.599L209.58 203.145Z" fill="#b69ae2"></path>
<path d="M205.995 263.132L207.784 268.097L202.59 267.163L205.995 263.132Z" fill="#b69ae2"></path>
<path d="M260.074 240.873L261.862 245.838L256.668 244.905L260.074 240.873Z" fill="#b69ae2"></path>
<path d="M208.454 289.76L210.243 294.725L205.049 293.791L208.454 289.76Z" fill="#b69ae2"></path>
<path d="M251.201 198.745L252.989 203.709L247.795 202.776L251.201 198.745Z" fill="#b69ae2"></path>
<path d="M218.079 179.656L219.868 184.621L214.674 183.688L218.079 179.656Z" fill="#b69ae2"></path>
<path fill-rule="evenodd" clip-rule="evenodd" d="M223.27 260.092C223.389 259.876 223.661 259.797 223.877 259.917L227.832 262.099C228.049 262.219 228.127 262.491 228.008 262.707C227.889 262.923 227.617 263.001 227.401 262.882L223.445 260.699C223.229 260.58 223.15 260.308 223.27 260.092Z" fill="#b69ae2"></path>
<path fill-rule="evenodd" clip-rule="evenodd" d="M224.361 258.114C224.481 257.898 224.752 257.819 224.969 257.939L228.924 260.122C229.14 260.241 229.219 260.513 229.1 260.729C228.98 260.945 228.708 261.023 228.492 260.904L224.537 258.721C224.321 258.602 224.242 258.33 224.361 258.114Z" fill="#b69ae2"></path>
<path fill-rule="evenodd" clip-rule="evenodd" d="M231.79 289.278C231.748 289.035 231.911 288.804 232.154 288.762L236.605 287.989C236.848 287.947 237.08 288.11 237.122 288.353C237.164 288.596 237.001 288.827 236.758 288.87L232.307 289.642C232.063 289.685 231.832 289.522 231.79 289.278Z" fill="#b69ae2"></path>
<path fill-rule="evenodd" clip-rule="evenodd" d="M231.404 287.053C231.362 286.809 231.525 286.578 231.768 286.536L236.219 285.763C236.463 285.721 236.694 285.884 236.736 286.127C236.778 286.37 236.615 286.602 236.372 286.644L231.921 287.417C231.678 287.459 231.446 287.296 231.404 287.053Z" fill="#b69ae2"></path>
<path fill-rule="evenodd" clip-rule="evenodd" d="M253.824 291.531C253.782 291.288 253.945 291.057 254.188 291.015L258.639 290.242C258.883 290.2 259.114 290.362 259.156 290.606C259.198 290.849 259.035 291.08 258.792 291.123L254.341 291.895C254.098 291.937 253.866 291.775 253.824 291.531Z" fill="#b69ae2"></path>
<path fill-rule="evenodd" clip-rule="evenodd" d="M253.438 289.306C253.396 289.062 253.559 288.831 253.802 288.789L258.254 288.016C258.497 287.974 258.728 288.137 258.77 288.38C258.813 288.623 258.65 288.854 258.406 288.897L253.955 289.669C253.712 289.712 253.48 289.549 253.438 289.306Z" fill="#b69ae2"></path>
<path fill-rule="evenodd" clip-rule="evenodd" d="M251.831 219.186C251.981 218.99 252.261 218.953 252.457 219.103L256.045 221.848C256.241 221.998 256.279 222.279 256.129 222.475C255.979 222.671 255.698 222.708 255.502 222.558L251.914 219.813C251.718 219.663 251.681 219.382 251.831 219.186Z" fill="#b69ae2"></path>
<path fill-rule="evenodd" clip-rule="evenodd" d="M253.204 217.392C253.354 217.196 253.634 217.159 253.83 217.309L257.418 220.054C257.614 220.204 257.652 220.485 257.502 220.681C257.352 220.877 257.071 220.914 256.875 220.764L253.287 218.019C253.091 217.869 253.054 217.588 253.204 217.392Z" fill="#b69ae2"></path>
<path fill-rule="evenodd" clip-rule="evenodd" d="M214.915 250.946C214.873 250.702 215.036 250.471 215.279 250.429L219.73 249.656C219.973 249.614 220.205 249.777 220.247 250.02C220.289 250.263 220.126 250.495 219.883 250.537L215.432 251.31C215.188 251.352 214.957 251.189 214.915 250.946Z" fill="#b69ae2"></path>
<path fill-rule="evenodd" clip-rule="evenodd" d="M214.529 248.72C214.487 248.477 214.65 248.245 214.893 248.203L219.344 247.43C219.588 247.388 219.819 247.551 219.861 247.794C219.903 248.037 219.74 248.269 219.497 248.311L215.046 249.084C214.803 249.126 214.571 248.963 214.529 248.72Z" fill="#b69ae2"></path>
<path fill-rule="evenodd" clip-rule="evenodd" d="M247.456 250.652C247.414 250.409 247.577 250.178 247.82 250.136L252.271 249.363C252.514 249.321 252.746 249.484 252.788 249.727C252.83 249.97 252.667 250.201 252.424 250.244L247.973 251.016C247.729 251.059 247.498 250.896 247.456 250.652Z" fill="#b69ae2"></path>
<path fill-rule="evenodd" clip-rule="evenodd" d="M247.07 248.427C247.028 248.183 247.191 247.952 247.434 247.91L251.885 247.137C252.129 247.095 252.36 247.258 252.402 247.501C252.444 247.744 252.282 247.976 252.038 248.018L247.587 248.791C247.344 248.833 247.112 248.67 247.07 248.427Z" fill="#b69ae2"></path>
<path fill-rule="evenodd" clip-rule="evenodd" d="M229.755 236.672C229.712 236.429 229.875 236.197 230.119 236.155L234.57 235.382C234.813 235.34 235.045 235.503 235.087 235.746C235.129 235.989 234.966 236.221 234.723 236.263L230.271 237.036C230.028 237.078 229.797 236.915 229.755 236.672Z" fill="#b69ae2"></path>
<path fill-rule="evenodd" clip-rule="evenodd" d="M229.369 234.446C229.327 234.203 229.49 233.971 229.733 233.929L234.184 233.156C234.427 233.114 234.659 233.277 234.701 233.52C234.743 233.763 234.58 233.995 234.337 234.037L229.886 234.81C229.643 234.852 229.411 234.689 229.369 234.446Z" fill="#b69ae2"></path>
<path fill-rule="evenodd" clip-rule="evenodd" d="M266.106 190.744C266.272 190.562 266.554 190.548 266.737 190.715L268.944 192.723C269.126 192.889 269.14 193.171 268.974 193.354C268.807 193.537 268.525 193.55 268.342 193.384L266.135 191.376C265.953 191.21 265.94 190.927 266.106 190.744Z" fill="#b69ae2"></path>
<path fill-rule="evenodd" clip-rule="evenodd" d="M267.11 189.641C267.276 189.459 267.558 189.445 267.741 189.611L269.948 191.619C270.13 191.786 270.144 192.068 269.977 192.251C269.811 192.433 269.529 192.447 269.346 192.281L267.139 190.273C266.957 190.106 266.943 189.824 267.11 189.641Z" fill="#b69ae2"></path>
<path fill-rule="evenodd" clip-rule="evenodd" d="M206.613 214.847C206.78 214.664 207.062 214.651 207.245 214.817L210.586 217.858C210.769 218.024 210.782 218.307 210.616 218.489C210.45 218.672 210.167 218.685 209.985 218.519L206.643 215.478C206.461 215.312 206.447 215.029 206.613 214.847Z" fill="#b69ae2"></path>
<path fill-rule="evenodd" clip-rule="evenodd" d="M208.134 213.176C208.3 212.994 208.583 212.98 208.765 213.146L212.107 216.187C212.289 216.353 212.303 216.636 212.137 216.819C211.971 217.001 211.688 217.014 211.505 216.848L208.164 213.808C207.981 213.641 207.968 213.359 208.134 213.176Z" fill="#b69ae2"></path>
<path fill-rule="evenodd" clip-rule="evenodd" d="M204.059 279.821C204.017 279.578 204.18 279.347 204.423 279.305L208.875 278.532C209.118 278.49 209.349 278.652 209.391 278.896C209.434 279.139 209.271 279.37 209.028 279.412L204.576 280.185C204.333 280.227 204.102 280.065 204.059 279.821Z" fill="#b69ae2"></path>
<path fill-rule="evenodd" clip-rule="evenodd" d="M203.674 277.596C203.631 277.352 203.794 277.121 204.038 277.079L208.489 276.306C208.732 276.264 208.964 276.427 209.006 276.67C209.048 276.913 208.885 277.144 208.642 277.187L204.19 277.959C203.947 278.002 203.716 277.839 203.674 277.596Z" fill="#b69ae2"></path>
<path d="M252.975 275.388L258.078 276.731L254.363 280.479L252.975 275.388Z" fill="#b69ae2"></path>
<path d="M261.935 178.147L263.349 182.071L259.243 181.334L261.935 178.147Z" fill="#b69ae2"></path>
<path d="M262.526 198.892L263.94 202.817L259.834 202.079L262.526 198.892Z" fill="#b69ae2"></path>
<path d="M252.052 232.151L248.354 235.916L246.942 230.831L252.052 232.151Z" fill="#b69ae2"></path>
<path fill-rule="evenodd" clip-rule="evenodd" d="M236.493 205.207C236.738 205.176 236.961 205.35 236.992 205.595L237.557 210.077C237.587 210.322 237.414 210.546 237.169 210.577C236.924 210.607 236.701 210.434 236.67 210.189L236.105 205.706C236.074 205.462 236.248 205.238 236.493 205.207Z" fill="#b69ae2"></path>
<path fill-rule="evenodd" clip-rule="evenodd" d="M238.734 204.925C238.979 204.894 239.203 205.068 239.233 205.313L239.798 209.795C239.829 210.04 239.655 210.264 239.41 210.294C239.165 210.325 238.942 210.152 238.911 209.907L238.346 205.424C238.316 205.179 238.489 204.956 238.734 204.925Z" fill="#b69ae2"></path>
<path fill-rule="evenodd" clip-rule="evenodd" d="M220.116 198.267C220.361 198.236 220.584 198.41 220.615 198.655L221.18 203.137C221.21 203.382 221.037 203.606 220.792 203.637C220.547 203.667 220.324 203.494 220.293 203.249L219.728 198.766C219.697 198.522 219.871 198.298 220.116 198.267Z" fill="#b69ae2"></path>
<path fill-rule="evenodd" clip-rule="evenodd" d="M222.357 197.985C222.602 197.954 222.826 198.128 222.856 198.373L223.421 202.855C223.452 203.1 223.278 203.324 223.033 203.354C222.788 203.385 222.565 203.212 222.534 202.967L221.97 198.484C221.939 198.239 222.112 198.016 222.357 197.985Z" fill="#b69ae2"></path>
<path d="M232.795 189.298L231.537 194.423L227.727 190.772L232.795 189.298Z" fill="#b69ae2"></path>
<path d="M447.325 355.15C447.325 364.87 439.444 372.751 429.724 372.751C420.003 372.751 412.123 364.87 412.123 355.15C412.123 345.429 420.003 337.549 429.724 337.549C439.444 337.549 447.325 345.429 447.325 355.15Z" fill="#727272"></path>
<path fill-rule="evenodd" clip-rule="evenodd" d="M367.836 164.835C368.848 164.381 370.036 164.836 370.485 165.85L373.663 173.031C374.107 174.036 373.658 175.212 372.657 175.664L362.119 180.421C361.427 180.733 360.972 181.41 360.943 182.168L360.483 194.364C360.457 195.053 360.788 195.706 361.357 196.093L370.747 202.479C371.384 202.912 372.213 202.941 372.879 202.553L382.625 196.877C383.231 196.523 383.608 195.878 383.618 195.176L383.781 183.258C383.796 182.131 384.739 181.24 385.865 181.287L393.794 181.623C394.855 181.667 395.697 182.535 395.709 183.598L395.931 202.856C395.94 203.608 395.525 204.302 394.858 204.651L369.644 217.84C368.991 218.181 368.202 218.136 367.593 217.721L346.869 203.629C346.24 203.201 345.908 202.454 346.012 201.701L349.854 173.94C349.949 173.258 350.388 172.672 351.016 172.39L367.836 164.835Z" fill="#B5CDFB"></path>
<path fill-rule="evenodd" clip-rule="evenodd" d="M264.196 317.245C264.146 318.353 265.006 319.291 266.114 319.335L273.961 319.651C275.059 319.695 275.986 318.845 276.039 317.747L276.589 306.199C276.625 305.441 277.087 304.768 277.782 304.463L288.955 299.552C289.586 299.275 290.315 299.342 290.884 299.729L300.275 306.115C300.911 306.548 301.243 307.308 301.127 308.069L299.431 319.22C299.325 319.914 298.864 320.502 298.214 320.769L287.191 325.301C286.149 325.73 285.666 326.935 286.124 327.964L289.351 335.214C289.783 336.185 290.899 336.648 291.892 336.269L309.883 329.396C310.586 329.127 311.079 328.487 311.158 327.738L314.154 299.442C314.232 298.709 313.9 297.992 313.29 297.577L292.566 283.485C291.937 283.057 291.12 283.023 290.458 283.397L266.054 297.175C265.454 297.514 265.071 298.137 265.039 298.825L264.196 317.245Z" fill="#B5CDFB"></path>
<path fill-rule="evenodd" clip-rule="evenodd" d="M293.545 290.429L354.398 202.335L366.901 210.972L306.049 299.066L293.545 290.429Z" fill="#B5CDFB"></path>
<path d="M349.123 216.58C350.228 214.956 352.44 214.534 354.065 215.639C355.689 216.744 356.111 218.956 355.006 220.581L310.37 286.221C309.265 287.846 307.053 288.267 305.428 287.163C303.804 286.058 303.382 283.846 304.487 282.221L349.123 216.58Z" fill="black" fill-opacity="0.33"></path>
<path d="M303.016 258.625L299.894 274.078C308.409 276.396 319.115 279.826 327.82 274.078C330.39 272.381 339.462 267.942 341.063 262.818C342.482 258.278 338.638 257.454 334.559 257.613C323.904 258.028 318.017 252.607 312.272 253.738C303.506 259.064 303.016 258.625 303.016 258.625Z" fill="#FFB877"></path>
</svg>
