<svg width="600" height="450" viewBox="0 0 800 600" fill="none" xmlns="http://www.w3.org/2000/svg" data-reactroot="">
<path fill-rule="evenodd" clip-rule="evenodd" d="M120.421 198.222V403.795C120.421 405.7 120.23 407.605 119.849 409.415C118.23 416.655 113.562 421.99 108.132 421.99C102.702 421.99 98.0345 416.75 96.4151 409.606C96.0341 407.796 95.7483 405.891 95.7483 403.89V198.222C95.7483 188.22 101.273 180.123 108.037 180.123C114.896 180.028 120.421 188.125 120.421 198.222Z" fill="#b69ae2"></path>
<path opacity="0.47" d="M120.421 340.328V407.582C120.421 409.487 120.23 411.393 119.849 413.203L96.4151 413.298C96.0341 411.488 95.7483 409.583 95.7483 407.582V352.903C101.559 353.569 107.656 355.189 113.753 357.57C114.515 350.235 116.61 343.948 120.421 340.328Z" fill="black" fill-opacity="0.51"></path>
<path fill-rule="evenodd" clip-rule="evenodd" d="M678.553 180.028C685.412 180.028 690.937 188.125 690.937 198.128V403.7C690.937 413.703 685.412 421.8 678.553 421.8C671.694 421.8 666.169 413.703 666.169 403.7V198.223C666.169 188.125 671.694 180.028 678.553 180.028Z" fill="#DDEBFF"></path>
<path d="M678.553 250.997C730.111 250.997 771.908 209.2 771.908 157.642C771.908 106.083 730.111 64.2861 678.553 64.2861C626.994 64.2861 585.197 106.083 585.197 157.642C585.197 209.2 626.994 250.997 678.553 250.997Z" fill="#DDEBFF"></path>
<path fill-rule="evenodd" clip-rule="evenodd" d="M690.841 198.222V403.795C690.841 413.797 685.316 421.894 678.553 421.894C671.694 421.894 666.169 413.797 666.169 403.795V198.222C666.169 188.22 671.694 180.123 678.553 180.123C685.316 180.028 690.841 188.125 690.841 198.222Z" fill="#b69ae2"></path>
<path d="M591.485 334.731C595.39 333.874 587.293 305.391 603.487 302.724C628.065 298.628 628.255 330.064 639.782 337.685C671.027 358.261 650.737 388.649 638.162 407.511L637.972 407.796H637.591C627.112 408.273 559.953 411.321 559.096 407.796C545.283 351.116 539.758 345.21 559.096 334.827C571.289 328.254 587.579 335.684 591.485 334.731Z" fill="#7838e0"></path>
<path fill-rule="evenodd" clip-rule="evenodd" d="M633.209 329.301C632.256 337.112 634.447 344.924 640.734 350.734C606.917 344.257 606.25 381.98 611.584 393.792L645.593 395.983C656.548 377.693 665.311 354.45 639.877 337.684C637.21 335.874 635.114 332.921 633.209 329.301Z" fill="black" fill-opacity="0.11"></path>
<path opacity="0.47" d="M690.841 299.485V392.745L666.169 391.125V295.96C675.981 299.199 677.886 316.25 677.41 326.158C678.553 318.822 682.554 306.724 690.841 299.485Z" fill="black" fill-opacity="0.51"></path>
<path d="M689.603 333.682C690.27 320.727 687.031 296.054 669.217 301.008C647.021 307.295 635.495 337.969 652.737 353.973C615.967 346.924 615.3 387.886 621.111 400.746L758.381 409.51C772.385 405.509 797.724 390.648 787.721 363.023C778.1 336.445 761.144 341.494 752.951 347.971C766.764 320.727 748.284 299.103 722.087 298.341C700.653 297.483 691.508 321.584 689.603 333.682Z" fill="#b69ae2"></path>
<path d="M189.675 424.276L12.2046 425.229C12.2046 399.127 49.7373 363.69 91.3662 363.69C95.4624 363.69 99.7491 364.262 104.036 365.31C141.664 374.55 185.198 419.608 189.389 423.895C189.58 424.181 189.675 424.276 189.675 424.276Z" fill="#b69ae2"></path>
<path d="M786.578 435.517H10V460.665H786.578V435.517Z" fill="#B5CDFB"></path>
<path d="M595.676 424.181H469.837C467.169 422.847 464.121 420.942 461.168 418.56C450.594 409.987 440.592 395.222 451.452 377.027C464.788 354.641 479.268 362.166 485.46 369.406C477.743 342.447 498.224 326.062 521.944 329.873C541.473 333.016 545.569 356.355 545.188 367.596C546.903 355.784 554.047 333.969 569.289 341.59C583.673 348.83 590.056 367.596 584.435 381.314C582.625 385.696 579.482 389.601 575.005 392.364C609.394 392.364 603.106 413.607 595.676 424.181Z" fill="#7838e0"></path>
<path d="M785.626 424.371H472.218C472.218 424.371 593.771 382.552 662.073 382.552C730.279 382.552 785.626 401.223 785.626 424.371Z" fill="#b69ae2"></path>
<path opacity="0.47" fill-rule="evenodd" clip-rule="evenodd" d="M95.7483 259.296V195.091C95.7483 185.088 101.273 176.991 108.132 176.991C114.991 176.991 120.516 185.088 120.516 195.091V260.725C118.135 260.916 115.753 261.011 113.372 261.011C107.275 260.916 101.369 260.344 95.7483 259.296Z" fill="black" fill-opacity="0.51"></path>
<path d="M113.276 250.997C164.835 250.997 206.632 209.2 206.632 157.642C206.632 106.083 164.835 64.2861 113.276 64.2861C61.7173 64.2861 19.9207 106.083 19.9207 157.642C19.9207 209.2 61.7173 250.997 113.276 250.997Z" fill="#b69ae2"></path>
<path fill-rule="evenodd" clip-rule="evenodd" d="M109.275 64.2861C89.6515 97.0558 64.979 153.545 83.0785 187.363C94.224 208.034 109.275 223.276 119.849 233.945C126.517 240.709 131.471 245.662 132.424 249.092C126.232 250.425 119.754 251.092 113.181 251.092C61.6449 251.092 19.8254 209.273 19.8254 157.737C19.8254 107.344 59.5491 66.3819 109.275 64.2861Z" fill="black" fill-opacity="0.11"></path>
<path opacity="0.47" fill-rule="evenodd" clip-rule="evenodd" d="M690.841 189.173V258.809C687.984 258.999 685.031 259.095 682.077 259.095C676.648 259.095 671.408 258.714 666.169 257.951V189.078C666.169 179.076 671.694 170.979 678.553 170.979C685.316 170.979 690.841 179.171 690.841 189.173Z" fill="black" fill-opacity="0.51"></path>
<path d="M771.908 157.355C771.908 203.557 738.376 241.852 694.366 249.377C689.222 250.235 683.887 250.711 678.553 250.711C627.017 250.711 585.197 208.891 585.197 157.355C585.197 108.773 622.349 68.763 669.789 64.381C672.647 64.0953 675.6 64 678.553 64C730.089 64 771.908 105.819 771.908 157.355Z" fill="#b69ae2"></path>
<path fill-rule="evenodd" clip-rule="evenodd" d="M694.366 249.378C689.222 250.235 683.887 250.712 678.553 250.712C627.017 250.712 585.197 208.892 585.197 157.356C585.197 108.773 622.349 68.7638 669.789 64.3818C649.498 100.581 627.684 155.927 645.974 190.031C658.072 212.512 674.361 228.992 685.888 240.614C689.222 243.948 692.08 246.901 694.366 249.378Z" fill="black" fill-opacity="0.11"></path>
<path opacity="0.47" d="M189.294 423.894L109.697 424.458C109.697 424.458 108.799 422.466 108.513 421.227C106.798 413.606 100.606 384.361 103.941 365.214C141.664 374.549 185.198 419.512 189.294 423.894Z" fill="black" fill-opacity="0.51"></path>
<path d="M213.3 424.085H178.3L119.808 424.377C119.808 424.377 119.087 422.561 118.801 421.323C117.086 413.607 110.704 383.409 114.419 364.262C115.753 357.403 118.325 351.973 122.897 349.496C134.995 342.923 151.38 350.354 155.286 349.496C159.192 348.639 151.095 320.156 167.289 317.489C187.675 314.059 191.295 335.017 198.439 346.638C199.963 349.02 201.583 351.02 203.583 352.354C234.924 373.121 213.3 424.085 213.3 424.085Z" fill="#b69ae2"></path>
<path d="M553.141 404.754H562.953C563.715 398.277 564.382 391.132 564.287 384.273C564.287 381.13 564.192 378.081 563.81 375.128C563.429 371.318 562.763 367.698 561.715 364.65C561.048 362.554 560.191 360.649 559.143 359.029C559.143 359.029 559.143 359.125 559.143 359.22C558.762 360.649 555.809 371.127 554.189 384.273C554.189 384.654 554.094 385.035 554.094 385.417C553.332 391.513 552.951 398.181 553.141 404.754Z" fill="#7838e0"></path>
<path d="M545.12 407.511H556.361C556.457 400.081 556.266 391.888 555.409 384.077C555.313 383.601 555.313 383.22 555.218 382.743C553.884 371.788 551.217 361.786 546.264 355.689C546.264 355.689 544.835 363.977 544.168 375.694C543.977 377.98 543.882 380.362 543.882 382.743C543.692 390.46 543.977 399.128 545.12 407.511Z" fill="#7838e0"></path>
<path d="M533.404 382.742C533.404 390.649 533.785 399.222 535.023 407.51H546.264C546.264 399.603 546.073 391.03 545.216 382.742C544.93 380.361 544.644 377.979 544.359 375.693C542.739 365.405 540.072 356.165 535.69 350.163C535.69 350.163 535.214 353.402 534.737 358.641C533.975 364.547 533.404 373.121 533.404 382.742Z" fill="#7838e0"></path>
<path d="M526.164 407.511H537.309C537.881 399.604 538.262 391.031 537.976 382.743C537.69 373.979 536.642 365.501 534.642 358.642C533.594 355.308 532.356 352.45 530.832 349.974C530.832 349.974 529.498 356.166 528.164 365.501C527.497 370.55 526.735 376.361 526.354 382.743C525.687 390.555 525.497 399.128 526.164 407.511Z" fill="#7838e0"></path>
<path d="M518.638 407.511H530.355C530.831 399.509 531.022 390.935 530.546 382.743C530.165 376.551 529.403 370.645 528.164 365.501C527.021 361.023 525.497 357.023 523.496 353.879C523.496 353.879 522.448 358.737 521.305 366.358C520.639 370.931 519.876 376.551 519.4 382.743C518.543 390.459 518.257 399.032 518.638 407.511Z" fill="#7838e0"></path>
<path d="M511.303 407.511H522.83C523.401 399.509 523.592 390.935 523.211 382.743C522.925 376.932 522.258 371.407 521.21 366.358C520.067 360.928 518.352 356.07 516.066 352.45C516.066 352.45 515.018 357.308 513.875 364.929C513.113 369.883 512.351 375.98 511.779 382.743C511.113 390.459 510.827 399.033 511.303 407.511Z" fill="#7838e0"></path>
<path d="M503.968 407.511H515.304C515.876 399.604 516.161 391.031 515.78 382.743C515.495 376.456 514.923 370.359 513.78 364.929C512.637 359.499 510.922 354.641 508.636 350.926C508.636 350.926 507.397 356.356 506.254 364.834C505.492 369.883 504.73 376.075 504.254 382.743C503.682 390.554 503.396 399.128 503.968 407.511Z" fill="#7838e0"></path>
<path d="M496.347 407.511H507.683C508.255 399.604 508.541 391.031 508.16 382.743C507.874 376.456 507.302 370.264 506.159 364.834C505.016 359.404 503.301 354.641 501.015 350.926C501.015 350.926 498.348 362.929 496.919 378.742C496.823 380.076 496.728 381.409 496.633 382.743C496.061 390.554 495.776 399.128 496.347 407.511Z" fill="#7838e0"></path>
<path d="M481.487 407.511H496.442C497.205 399.509 497.586 390.936 497.205 382.743C497.109 381.41 497.014 380.076 496.919 378.742C495.966 367.978 493.489 358.261 488.441 351.879C488.441 351.879 485.964 360.262 483.963 372.36C483.392 375.599 482.915 379.028 482.534 382.743C481.582 390.459 481.105 399.033 481.487 407.511Z" fill="#7838e0"></path>
<path d="M469.293 407.511H484.249C485.011 399.509 485.392 390.936 485.011 382.743C484.821 379.219 484.535 375.694 483.963 372.36C482.725 364.168 480.343 356.928 476.247 351.879C476.247 351.879 472.723 364.168 470.627 380.267C470.532 381.029 470.436 381.886 470.341 382.648C469.388 390.459 468.912 399.033 469.293 407.511Z" fill="#7838e0"></path>
<path d="M455.48 407.51H471.008C471.579 399.318 471.675 390.745 470.912 382.743C470.817 381.885 470.722 381.123 470.627 380.361C469.484 371.121 467.007 362.833 462.53 357.213C462.53 357.213 460.91 362.738 459.291 371.121C458.624 374.55 457.957 378.456 457.29 382.743C456.147 390.268 455.385 398.842 455.48 407.51Z" fill="#7838e0"></path>
<path d="M444.811 407.511H459.767C460.529 399.509 460.91 390.936 460.529 382.743C460.338 378.742 459.957 374.837 459.291 371.122C457.957 363.501 455.575 356.737 451.765 351.879C451.765 351.879 450.146 357.404 448.526 365.787C447.574 370.645 446.621 376.361 445.859 382.648C444.906 390.459 444.43 399.033 444.811 407.511Z" fill="#7838e0"></path>
<path d="M434.333 407.511H448.336C449.193 399.699 449.86 391.126 449.765 382.743C449.67 376.932 449.289 371.121 448.336 365.882C447.002 358.261 444.621 351.497 440.81 346.734C440.81 346.734 438.715 353.974 436.809 364.548C435.857 369.883 434.904 376.17 434.333 382.743C433.761 390.65 433.571 399.223 434.333 407.511Z" fill="#7838e0"></path>
<path d="M423.378 407.512H437.857C438.714 399.605 439.191 391.031 439 382.744C438.81 376.361 438.238 370.074 436.905 364.549C435.476 358.452 433.285 353.022 430.141 349.021C430.141 349.021 425.759 364.073 423.949 382.839C423.092 390.555 422.711 399.129 423.378 407.512Z" fill="#7838e0"></path>
<path d="M297.761 405.486H286.806C286.806 405.2 286.711 405.01 286.711 404.819C285.758 397.199 284.996 388.816 284.996 380.718C284.996 377.099 285.187 373.574 285.472 370.24C285.853 366.525 286.425 363.095 287.378 359.952C288.235 356.903 289.378 354.141 290.902 351.854C290.902 351.854 294.617 364.619 296.618 380.718C296.713 381.195 296.713 381.576 296.808 382.052C297.666 389.482 298.142 397.58 297.761 405.486Z" fill="#7838e0"></path>
<path d="M293.474 405.486H283.662C282.9 399.008 282.233 391.864 282.329 385.005C282.329 381.861 282.424 378.813 282.805 375.86C283.186 372.049 283.853 368.429 284.901 365.381C285.568 363.285 286.425 361.38 287.473 359.761C287.473 359.761 287.473 359.856 287.473 359.951C287.854 361.38 290.807 371.859 292.426 385.005C292.426 385.386 292.522 385.767 292.522 386.148C293.284 392.245 293.665 398.913 293.474 405.486Z" fill="#7838e0"></path>
<path d="M307.097 405.487H295.856C295.761 398.056 295.951 389.864 296.808 382.053C296.904 381.576 296.904 381.195 296.999 380.719C298.333 369.764 301 359.762 305.953 353.665C305.953 353.665 307.382 361.953 308.049 373.67C308.24 375.956 308.335 378.338 308.335 380.719C308.525 388.435 308.24 397.104 307.097 405.487Z" fill="#7838e0"></path>
<path d="M318.814 380.718C318.814 388.624 318.433 397.198 317.194 405.486H305.953C305.953 397.579 306.144 389.005 307.001 380.718C307.287 378.336 307.573 375.955 307.859 373.669C309.478 363.38 312.145 354.14 316.527 348.139C316.527 348.139 317.004 351.378 317.48 356.617C318.242 362.523 318.814 371.096 318.814 380.718Z" fill="#7838e0"></path>
<path d="M326.054 405.487H314.908C314.336 397.58 313.955 389.007 314.241 380.719C314.527 371.955 315.575 363.477 317.575 356.618C318.623 353.284 319.862 350.426 321.386 347.949C321.386 347.949 322.719 354.141 324.053 363.477C324.72 368.526 325.482 374.336 325.863 380.719C326.53 388.53 326.72 397.104 326.054 405.487Z" fill="#7838e0"></path>
<path d="M333.579 405.486H321.862C321.386 397.484 321.195 388.911 321.671 380.718C322.052 374.527 322.815 368.62 324.053 363.476C325.196 358.999 326.72 354.998 328.721 351.854C328.721 351.854 329.769 356.713 330.912 364.334C331.579 368.906 332.341 374.527 332.817 380.718C333.674 388.435 333.96 397.008 333.579 405.486Z" fill="#7838e0"></path>
<path d="M340.914 405.486H329.388C328.816 397.485 328.626 388.911 329.007 380.719C329.292 374.908 329.959 369.383 331.007 364.334C332.15 358.904 333.865 354.046 336.151 350.426C336.151 350.426 337.199 355.284 338.342 362.905C339.104 367.858 339.866 373.955 340.438 380.719C341.105 388.435 341.39 397.008 340.914 405.486Z" fill="#7838e0"></path>
<path d="M348.249 405.487H336.913C336.341 397.581 336.056 389.007 336.437 380.719C336.722 374.432 337.294 368.335 338.437 362.906C339.58 357.476 341.295 352.618 343.581 348.902C343.581 348.902 344.82 354.332 345.963 362.81C346.725 367.859 347.487 374.051 347.963 380.719C348.535 388.531 348.821 397.104 348.249 405.487Z" fill="#7838e0"></path>
<path d="M355.87 405.487H344.534C343.962 397.581 343.676 389.007 344.058 380.719C344.343 374.432 344.915 368.24 346.058 362.81C347.201 357.381 348.916 352.618 351.202 348.902C351.202 348.902 353.869 360.905 355.298 376.718C355.394 378.052 355.489 379.386 355.584 380.719C356.156 388.531 356.441 397.104 355.87 405.487Z" fill="#7838e0"></path>
<path d="M370.731 405.487H355.775C355.013 397.485 354.632 388.911 355.013 380.719C355.108 379.385 355.203 378.052 355.299 376.718C356.251 365.954 358.728 356.237 363.777 349.854C363.777 349.854 366.254 358.237 368.254 370.336C368.826 373.574 369.302 377.004 369.683 380.719C370.636 388.435 371.112 397.009 370.731 405.487Z" fill="#7838e0"></path>
<path d="M382.924 405.487H367.968C367.206 397.485 366.825 388.911 367.206 380.719C367.396 377.194 367.682 373.67 368.254 370.336C369.492 362.143 371.874 354.903 375.97 349.854C375.97 349.854 379.494 362.143 381.59 378.242C381.685 379.004 381.781 379.862 381.876 380.624C382.829 388.435 383.305 397.009 382.924 405.487Z" fill="#7838e0"></path>
<path d="M396.737 405.486H381.209C380.638 397.294 380.543 388.72 381.305 380.718C381.4 379.861 381.495 379.099 381.59 378.337C382.733 369.097 385.21 360.809 389.688 355.188C389.688 355.188 391.307 360.714 392.926 369.097C393.593 372.526 394.26 376.432 394.927 380.718C396.07 388.244 396.832 396.817 396.737 405.486Z" fill="#7838e0"></path>
<path d="M407.406 405.487H392.45C391.688 397.485 391.307 388.911 391.688 380.719C391.879 376.718 392.26 372.812 392.926 369.097C394.26 361.476 396.642 354.713 400.452 349.854C400.452 349.854 402.071 355.38 403.691 363.763C404.644 368.621 405.596 374.336 406.358 380.624C407.311 388.435 407.787 397.009 407.406 405.487Z" fill="#7838e0"></path>
<path d="M417.885 405.486H403.881C403.024 397.675 402.357 389.101 402.452 380.718C402.548 374.908 402.929 369.097 403.881 363.857C405.215 356.236 407.597 349.473 411.407 344.71C411.407 344.71 413.503 351.95 415.408 362.524C416.36 367.858 417.313 374.145 417.885 380.718C418.456 388.625 418.647 397.199 417.885 405.486Z" fill="#7838e0"></path>
<path d="M428.84 405.487H414.36C413.503 397.58 413.026 389.007 413.217 380.719C413.408 374.337 413.979 368.05 415.313 362.525C416.742 356.428 418.933 350.998 422.076 346.997C422.076 346.997 426.458 362.048 428.268 380.815C429.126 388.531 429.507 397.104 428.84 405.487Z" fill="#7838e0"></path>
<path opacity="0.47" d="M213.3 424.086L178.815 423.8C171.48 413.036 165.955 392.459 199.868 392.459C184.245 382.743 185.579 359.595 198.153 347.115C198.249 347.02 198.439 346.83 198.534 346.734C200.059 349.116 201.678 351.116 203.678 352.45C234.924 373.122 213.3 424.086 213.3 424.086Z" fill="black" fill-opacity="0.51"></path>
<path d="M312.752 424.181H186.913C186.817 423.99 186.722 423.895 186.532 423.705C179.196 412.94 173.671 392.364 207.584 392.364C191.866 382.647 193.295 359.499 205.774 347.02C207.965 344.829 210.442 343.019 213.205 341.59C228.446 333.969 235.591 355.784 237.305 367.596C236.924 356.355 240.925 333.016 260.549 329.873C284.364 326.062 304.75 342.447 297.034 369.406C303.226 362.166 317.705 354.641 331.042 377.027C345.045 400.366 324.659 418.179 312.752 424.181Z" fill="#b69ae2"></path>
<path d="M284.199 424.372H270.436C270.436 423.924 270.324 423.477 270.212 423.141C268.87 414.302 267.975 404.567 268.087 395.281C268.087 389.127 268.646 383.309 269.765 378.05C270.884 373.127 272.45 368.763 274.912 365.183C274.912 365.183 277.373 372.455 279.723 383.309C280.506 387.001 281.289 391.029 282.073 395.281C283.415 404.232 284.422 414.414 284.199 424.372Z" fill="#b69ae2"></path>
<path d="M291.807 423.477C291.807 423.812 291.695 424.036 291.695 424.26H277.933C277.261 414.973 277.038 404.791 277.933 395.169C278.268 391.029 278.828 387.001 279.611 383.197C281.177 375.924 283.527 369.658 287.219 365.183C287.219 365.183 288.338 369.882 289.569 377.155C289.905 378.945 290.129 380.847 290.464 382.973C291.024 386.665 291.471 390.805 291.807 395.281C292.478 404.008 292.814 413.966 291.807 423.477Z" fill="#b69ae2"></path>
<path d="M270.213 423.029C270.101 423.477 270.101 423.924 269.989 424.26H257.569C257.01 418.218 256.562 411.505 256.562 404.679V400.875C256.562 398.973 256.562 397.071 256.674 395.169C257.234 380.847 259.807 366.973 266.408 358.917C266.408 358.917 268.311 366.637 269.765 377.938C270.436 383.085 270.996 388.903 271.332 395.169C271.779 404.232 271.667 413.854 270.213 423.029Z" fill="#b69ae2"></path>
<path d="M304.786 424.371H291.919C291.919 424.035 291.807 423.812 291.807 423.588C290.688 414.637 289.793 404.791 289.793 395.28C289.793 391.028 290.017 386.888 290.352 382.972C290.8 378.609 291.471 374.581 292.59 370.888C293.597 367.308 294.94 364.063 296.73 361.378C296.73 361.378 301.094 376.371 303.443 395.28C303.555 395.84 303.555 396.287 303.667 396.847C304.674 405.574 305.234 415.084 304.786 424.371Z" fill="#b69ae2"></path>
<path d="M299.751 424.371H288.227C287.332 416.762 286.548 408.37 286.66 400.315C286.66 396.622 286.772 393.042 287.22 389.573C287.667 385.098 288.451 380.846 289.681 377.265C290.465 374.804 291.472 372.566 292.702 370.664C292.702 370.664 292.702 370.776 292.702 370.888C293.15 372.566 296.618 384.874 298.521 400.315C298.521 400.762 298.632 401.21 298.632 401.657C299.528 408.818 299.975 416.65 299.751 424.371Z" fill="#b69ae2"></path>
<path d="M315.751 424.371H302.548C302.437 415.644 302.66 406.022 303.667 396.847C303.779 396.287 303.779 395.84 303.891 395.28C305.458 382.413 308.59 370.665 314.409 363.504C314.409 363.504 316.087 373.238 316.87 387C317.094 389.686 317.206 392.483 317.206 395.28C317.43 404.343 317.094 414.525 315.751 424.371Z" fill="#b69ae2"></path>
<path d="M329.514 395.281C329.514 404.567 329.066 414.637 327.612 424.372H314.409C314.409 415.085 314.632 405.015 315.639 395.281C315.975 392.483 316.311 389.686 316.646 387.001C318.549 374.917 321.681 364.064 326.828 357.015C326.828 357.015 327.388 360.819 327.947 366.973C328.842 373.91 329.514 383.98 329.514 395.281Z" fill="#b69ae2"></path>
<path d="M338.017 424.371H324.926C324.255 415.084 323.807 405.014 324.143 395.28C324.479 384.986 325.709 375.028 328.059 366.972C329.29 363.056 330.744 359.699 332.535 356.79C332.535 356.79 334.101 364.063 335.667 375.028C336.451 380.958 337.346 387.783 337.793 395.28C338.577 404.455 338.8 414.525 338.017 424.371Z" fill="#b69ae2"></path>
<path d="M346.856 424.371H333.094C332.535 414.973 332.311 404.903 332.87 395.28C333.318 388.007 334.213 381.07 335.667 375.028C337.01 369.77 338.8 365.07 341.15 361.378C341.15 361.378 342.381 367.084 343.723 376.035C344.507 381.406 345.402 388.007 345.961 395.28C346.968 404.343 347.304 414.413 346.856 424.371Z" fill="#b69ae2"></path>
<path d="M355.472 424.372H341.933C341.262 414.973 341.038 404.903 341.486 395.281C341.821 388.456 342.605 381.966 343.835 376.036C345.178 369.658 347.192 363.952 349.877 359.7C349.877 359.7 351.108 365.406 352.451 374.358C353.346 380.176 354.241 387.337 354.912 395.281C355.696 404.344 356.031 414.414 355.472 424.372Z" fill="#b69ae2"></path>
<path d="M364.087 424.371H350.772C350.101 415.084 349.765 405.014 350.213 395.28C350.548 387.895 351.22 380.734 352.562 374.357C353.905 367.979 355.919 362.273 358.604 357.909C358.604 357.909 360.059 364.287 361.402 374.245C362.297 380.175 363.192 387.448 363.751 395.28C364.423 404.455 364.758 414.525 364.087 424.371Z" fill="#b69ae2"></path>
<path d="M373.038 424.371H359.723C359.052 415.084 358.716 405.014 359.164 395.28C359.5 387.895 360.171 380.623 361.514 374.245C362.856 367.867 364.87 362.273 367.556 357.909C367.556 357.909 370.689 372.007 372.367 390.581C372.479 392.147 372.591 393.713 372.703 395.28C373.374 404.455 373.709 414.525 373.038 424.371Z" fill="#b69ae2"></path>
<path d="M390.493 424.371H372.926C372.031 414.973 371.583 404.903 372.031 395.28C372.143 393.714 372.255 392.147 372.367 390.581C373.486 377.937 376.395 366.525 382.325 359.028C382.325 359.028 385.234 368.875 387.584 383.084C388.255 386.889 388.814 390.917 389.262 395.28C390.381 404.343 390.94 414.413 390.493 424.371Z" fill="#b69ae2"></path>
<path d="M404.814 424.371H387.248C386.353 414.973 385.905 404.903 386.353 395.28C386.577 391.14 386.912 387 387.584 383.084C389.038 373.462 391.835 364.958 396.647 359.028C396.647 359.028 400.786 373.462 403.248 392.371C403.36 393.266 403.472 394.273 403.584 395.168C404.703 404.343 405.262 414.413 404.814 424.371Z" fill="#b69ae2"></path>
<path d="M421.038 424.371H402.801C402.129 414.749 402.017 404.679 402.912 395.28C403.024 394.273 403.136 393.378 403.248 392.483C404.591 381.63 407.5 371.895 412.759 365.294C412.759 365.294 414.661 371.783 416.563 381.63C417.346 385.658 418.129 390.245 418.912 395.28C420.255 404.119 421.15 414.189 421.038 424.371Z" fill="#b69ae2"></path>
<path d="M433.57 424.371H416.004C415.108 414.973 414.661 404.903 415.108 395.28C415.332 390.581 415.78 385.993 416.563 381.63C418.129 372.679 420.927 364.735 425.402 359.028C425.402 359.028 427.304 365.518 429.206 375.364C430.325 381.07 431.444 387.784 432.339 395.168C433.458 404.343 434.018 414.413 433.57 424.371Z" fill="#b69ae2"></path>
<path d="M445.878 424.371H429.43C428.423 415.196 427.64 405.126 427.752 395.28C427.864 388.455 428.311 381.63 429.43 375.476C430.996 366.525 433.794 358.581 438.269 352.986C438.269 352.986 440.731 361.49 442.968 373.909C444.087 380.175 445.206 387.56 445.878 395.28C446.549 404.567 446.773 414.637 445.878 424.371Z" fill="#b69ae2"></path>
<path d="M456.815 424.372H442.314C441.455 416.453 440.978 407.867 441.169 399.567C441.36 393.175 441.932 386.878 443.268 381.345C444.699 375.239 446.893 369.801 450.041 365.794C450.041 365.794 454.43 380.868 456.242 399.662C457.101 407.39 457.483 415.976 456.815 424.372Z" fill="#b69ae2"></path>
<path d="M496.476 424.372H512.026C512.599 416.167 512.694 407.581 511.931 399.567C511.836 398.709 511.74 397.945 511.645 397.182C510.5 387.928 508.019 379.628 503.535 373.999C503.535 373.999 501.914 379.532 500.292 387.928C499.624 391.362 498.956 395.274 498.288 399.567C497.143 407.104 496.38 415.69 496.476 424.372Z" fill="#b69ae2"></path>
<path d="M512.196 424.372H535.465C536.322 415.9 536.465 407.034 535.322 398.76C535.18 397.873 535.037 397.085 534.894 396.297C533.181 386.742 529.469 378.171 522.76 372.359C522.76 372.359 520.333 378.073 517.906 386.742C516.907 390.288 515.907 394.327 514.908 398.76C513.195 406.542 512.053 415.407 512.196 424.372Z" fill="#b69ae2"></path>
<path d="M479.275 424.371H496.842C497.737 414.973 498.185 404.903 497.737 395.28C497.513 390.581 497.066 385.993 496.282 381.63C494.716 372.679 491.919 364.735 487.443 359.028C487.443 359.028 485.541 365.518 483.639 375.364C482.52 381.07 481.401 387.784 480.506 395.168C479.387 404.343 478.828 414.413 479.275 424.371Z" fill="#b69ae2"></path>
<path d="M466.791 424.371H480.815C481.674 416.548 482.342 407.962 482.246 399.566C482.151 393.747 481.769 387.927 480.815 382.68C479.48 375.048 477.094 368.274 473.278 363.504C473.278 363.504 471.179 370.755 469.271 381.344C468.317 386.687 467.363 392.984 466.791 399.566C466.219 407.485 466.028 416.071 466.791 424.371Z" fill="#b69ae2"></path>
<path d="M455.819 424.372H470.321C471.179 416.453 471.656 407.867 471.466 399.567C471.275 393.175 470.702 386.878 469.367 381.345C467.936 375.239 465.741 369.801 462.593 365.794C462.593 365.794 458.204 380.868 456.392 399.662C455.533 407.39 455.152 415.976 455.819 424.372Z" fill="#b69ae2"></path>
<path d="M575.347 424.621H557.109C556.437 414.999 556.325 404.929 557.221 395.53C557.332 394.523 557.444 393.628 557.556 392.733C558.899 381.88 561.808 372.145 567.067 365.544C567.067 365.544 568.969 372.033 570.871 381.88C571.654 385.908 572.437 390.495 573.221 395.53C574.563 404.369 575.458 414.439 575.347 424.621Z" fill="#b69ae2"></path>
<path d="M560.802 424.621H542.564C541.892 414.999 541.78 404.929 542.676 395.53C542.787 394.523 542.899 393.628 543.011 392.733C544.354 381.88 547.263 372.145 552.522 365.544C552.522 365.544 554.424 372.033 556.326 381.88C557.109 385.908 557.892 390.495 558.676 395.53C560.018 404.369 560.913 414.439 560.802 424.621Z" fill="#b69ae2"></path>
<path d="M546.686 424.621H531.92C531.376 416.83 531.286 408.677 532.011 401.068C532.101 400.252 532.192 399.528 532.282 398.803C533.369 390.016 535.725 382.135 539.982 376.79C539.982 376.79 541.522 382.044 543.062 390.016C543.697 393.277 544.331 396.991 544.965 401.068C546.052 408.224 546.777 416.377 546.686 424.621Z" fill="#b69ae2"></path>
<path d="M522.12 424.621H507.354C506.811 416.83 506.72 408.677 507.445 401.068C507.536 400.252 507.626 399.528 507.717 398.803C508.804 390.016 511.159 382.135 515.417 376.79C515.417 376.79 516.957 382.044 518.497 390.016C519.131 393.277 519.765 396.991 520.399 401.068C521.486 408.224 522.211 416.377 522.12 424.621Z" fill="#b69ae2"></path>
<path d="M387.236 258.461C438.173 258.461 479.465 217.168 479.465 166.231C479.465 115.294 438.173 74.002 387.236 74.002C336.299 74.002 295.007 115.294 295.007 166.231C295.007 217.168 336.299 258.461 387.236 258.461Z" fill="#DDEBFF"></path>
<path fill-rule="evenodd" clip-rule="evenodd" d="M399.377 206.322V409.415H375.002V206.322C375.002 196.441 380.46 188.441 387.236 188.441C393.918 188.347 399.377 196.347 399.377 206.322Z" fill="#b69ae2"></path>
<path opacity="0.47" fill-rule="evenodd" clip-rule="evenodd" d="M399.377 197.383V266.178C396.553 266.366 393.636 266.46 390.718 266.46C385.354 266.46 380.178 266.084 375.002 265.331V197.288C375.002 187.407 380.46 179.407 387.236 179.407C393.918 179.407 399.377 187.501 399.377 197.383Z" fill="black" fill-opacity="0.51"></path>
<path d="M479.465 165.949C479.465 211.593 446.338 249.426 402.859 256.861C397.777 257.708 392.506 258.178 387.236 258.178C336.322 258.178 295.007 216.863 295.007 165.949C295.007 117.952 331.71 78.4253 378.578 74.0962C381.401 73.8138 384.319 73.7197 387.236 73.7197C438.151 73.7197 479.465 115.035 479.465 165.949Z" fill="#7838e0"></path>
<path fill-rule="evenodd" clip-rule="evenodd" d="M402.859 256.861C397.777 257.708 392.506 258.179 387.236 258.179C336.322 258.179 295.007 216.864 295.007 165.95C295.007 117.953 331.71 78.4258 378.578 74.0967C358.532 109.859 336.981 164.538 355.05 198.23C367.002 220.44 383.095 236.721 394.483 248.203C397.777 251.497 400.6 254.414 402.859 256.861Z" fill="black" fill-opacity="0.11"></path>
<path d="M222.37 532.283C222.37 534.287 187.815 535.912 145.191 535.912C102.566 535.912 68.012 534.287 68.012 532.283C68.012 530.279 102.566 528.654 145.191 528.654C187.815 528.654 222.37 530.279 222.37 532.283Z" fill="black" fill-opacity="0.12"></path>
<path d="M731.989 532.283C731.989 534.287 697.434 535.912 654.81 535.912C612.185 535.912 577.631 534.287 577.631 532.283C577.631 530.279 612.185 528.654 654.81 528.654C697.434 528.654 731.989 530.279 731.989 532.283Z" fill="black" fill-opacity="0.12"></path>
<path d="M266.39 199.601C268.089 196.678 266.579 185.566 264.668 187C263.587 187.81 261.837 193.172 258.59 196.793C252.858 201.092 248.606 205.02 249.293 208.911L264.668 210.452C264.675 207.809 265.03 201.94 266.39 199.601Z" fill="#D69962"></path>
<path d="M281.874 212.963C274.28 220.406 265.108 224.781 251.091 222.994C243.537 222.031 249.65 208.047 249.65 208.047C249.65 208.047 258.685 204.978 265.795 202.656C272.906 200.334 273.243 198.76 283.481 199.875C293.719 200.989 289.468 205.52 281.874 212.963Z" fill="#D69962"></path>
<path fill-rule="evenodd" clip-rule="evenodd" d="M136.232 235.068C136.232 229.544 140.71 225.066 146.235 225.066L191.961 225.066L251.641 207.329L257.962 221.346L194.937 245.07L146.235 245.07C140.71 245.07 136.232 240.592 136.232 235.068Z" fill="#D69962"></path>
<path d="M265.249 164.631C265.249 155.687 272.499 148.437 281.443 148.437H435.549C444.493 148.437 451.744 155.687 451.744 164.631V484.209C451.744 493.153 444.493 500.404 435.549 500.404H281.443C272.499 500.404 265.249 493.153 265.249 484.209V164.631Z" fill="#b69ae2"></path>
<path d="M271.387 173.134C271.387 164.19 278.637 156.939 287.581 156.939H429.411C438.355 156.939 445.606 164.19 445.606 173.134V476.39C445.606 485.334 438.355 492.584 429.411 492.584H287.581C278.637 492.584 271.387 485.334 271.387 476.39V173.134Z" fill="#7838e0"></path>
<path d="M313.887 148.437H403.105V158.307C403.105 162.516 399.693 165.928 395.484 165.928H321.508C317.299 165.928 313.887 162.516 313.887 158.307V148.437Z" fill="#b69ae2"></path>
<path d="M371.381 465.731C371.381 472.847 365.612 478.616 358.496 478.616C351.38 478.616 345.612 472.847 345.612 465.731C345.612 458.615 351.38 452.847 358.496 452.847C365.612 452.847 371.381 458.615 371.381 465.731Z" fill="#b69ae2"></path>
<path d="M533.06 196.168C529.942 192.901 522.355 194.807 518.952 196.168L534.545 206.935C535.35 204.708 536.179 199.436 533.06 196.168Z" fill="#D69962"></path>
<path fill-rule="evenodd" clip-rule="evenodd" d="M511.604 201.301C515.601 196.414 522.803 195.693 527.689 199.69L586.512 247.804L629.918 225.596C635.538 222.721 642.426 224.946 645.301 230.566C648.177 236.187 645.951 243.074 640.331 245.95L583.613 274.968L513.214 217.386C508.328 213.389 507.606 206.187 511.604 201.301Z" fill="#D69962"></path>
<path fill-rule="evenodd" clip-rule="evenodd" d="M670.203 215.407C675.461 223.908 672.831 235.063 664.33 240.321L623.632 265.491L604.592 234.704L645.289 209.534C653.79 204.276 664.945 206.905 670.203 215.407Z" fill="#7838e0"></path>
<path fill-rule="evenodd" clip-rule="evenodd" d="M682.938 475.486C679.537 475.835 677.062 478.876 677.412 482.278L680.61 513.41C680.959 516.811 684 519.286 687.402 518.936C690.804 518.587 693.278 515.546 692.929 512.144L689.731 481.013C689.381 477.611 686.34 475.137 682.938 475.486Z" fill="#D69962"></path>
<path d="M693.258 512.777C693.258 512.777 685.781 519.878 680.605 512.777C664.071 520.486 638.784 524.27 638.677 528.83C638.569 533.39 682.869 532.419 693.258 531.557C699.443 527.414 693.258 512.777 693.258 512.777Z" fill="#b69ae2"></path>
<path d="M693.258 512.777C693.258 512.777 685.781 519.878 680.605 512.777C664.071 520.486 638.784 524.27 638.677 528.83C638.569 533.39 682.869 532.419 693.258 531.557C699.443 527.414 693.258 512.777 693.258 512.777Z" fill="black" fill-opacity="0.51"></path>
<path fill-rule="evenodd" clip-rule="evenodd" d="M645.471 482.945C642.051 482.945 639.279 485.718 639.279 489.137L639.279 520.413C639.279 523.833 642.051 526.605 645.471 526.605C648.891 526.605 651.663 523.833 651.663 520.413L651.663 489.137C651.663 485.718 648.891 482.945 645.471 482.945Z" fill="#FFB877"></path>
<path d="M652.655 512.777C652.655 512.777 644.279 519.878 639.103 512.777C622.569 520.486 597.282 524.27 597.174 528.83C597.066 533.39 641.367 532.419 651.755 531.557C656.106 526.812 652.655 512.777 652.655 512.777Z" fill="#b69ae2"></path>
<path fill-rule="evenodd" clip-rule="evenodd" d="M132.636 486.068C136.055 486 138.882 488.716 138.951 492.135L139.461 517.634C139.53 521.053 136.814 523.88 133.395 523.949C129.976 524.017 127.149 521.301 127.08 517.882L126.569 492.383C126.501 488.964 129.217 486.136 132.636 486.068Z" fill="#FFB877"></path>
<path d="M125.91 512.778C125.91 512.778 134.286 519.879 139.462 512.778C155.996 520.487 181.283 524.271 181.391 528.831C181.499 533.391 137.198 532.42 126.81 531.558C122.459 526.813 125.91 512.778 125.91 512.778Z" fill="#b69ae2"></path>
<path d="M125.91 512.778C125.91 512.778 134.286 519.879 139.462 512.778C155.996 520.487 181.283 524.271 181.391 528.831C181.499 533.391 137.198 532.42 126.81 531.558C122.459 526.813 125.91 512.778 125.91 512.778Z" fill="black" fill-opacity="0.51"></path>
<path fill-rule="evenodd" clip-rule="evenodd" d="M155.381 512.421C155.939 512.979 155.939 513.884 155.381 514.442L146.201 523.622C145.643 524.18 144.739 524.18 144.18 523.622C143.622 523.064 143.622 522.159 144.18 521.601L153.36 512.421C153.918 511.863 154.823 511.863 155.381 512.421Z" fill="#b69ae2"></path>
<path fill-rule="evenodd" clip-rule="evenodd" d="M164.561 513.605C165.119 514.163 165.119 515.068 164.561 515.626L155.381 524.806C154.823 525.364 153.918 525.364 153.36 524.806C152.802 524.248 152.802 523.343 153.36 522.785L162.54 513.605C163.098 513.047 164.003 513.047 164.561 513.605Z" fill="#b69ae2"></path>
<path fill-rule="evenodd" clip-rule="evenodd" d="M145.586 486.068C149.005 486 151.833 488.716 151.901 492.135L152.412 517.634C152.48 521.053 149.764 523.88 146.345 523.949C142.926 524.017 140.099 521.301 140.03 517.882L139.52 492.383C139.451 488.964 142.167 486.136 145.586 486.068Z" fill="#FFB877"></path>
<path d="M138.86 512.778C138.86 512.778 147.236 519.879 152.412 512.778C168.946 520.487 194.233 524.271 194.341 528.831C194.449 533.391 150.148 532.42 139.76 531.558C135.41 526.813 138.86 512.778 138.86 512.778Z" fill="#b69ae2"></path>
<path fill-rule="evenodd" clip-rule="evenodd" d="M168.331 512.421C168.889 512.979 168.889 513.884 168.331 514.442L159.151 523.622C158.593 524.18 157.689 524.18 157.131 523.622C156.573 523.064 156.573 522.159 157.131 521.601L166.311 512.421C166.869 511.863 167.773 511.863 168.331 512.421Z" fill="#B5CDFB"></path>
<path fill-rule="evenodd" clip-rule="evenodd" d="M177.511 513.605C178.069 514.163 178.069 515.068 177.511 515.626L168.331 524.806C167.773 525.364 166.868 525.364 166.31 524.806C165.752 524.248 165.752 523.343 166.31 522.785L175.49 513.605C176.048 513.047 176.953 513.047 177.511 513.605Z" fill="#B5CDFB"></path>
<path d="M246.308 219.777C246.308 209.255 254.838 200.725 265.36 200.725H577.295C587.818 200.725 596.348 209.255 596.348 219.777V410.933C596.348 421.455 587.818 429.985 577.295 429.985H265.36C254.838 429.985 246.308 421.455 246.308 410.933V219.777Z" fill="white" fill-opacity="0.52"></path>
<path d="M555.026 532.283C555.026 534.287 484.111 535.912 396.633 535.912C309.156 535.912 238.241 534.287 238.241 532.283C238.241 530.279 309.156 528.654 396.633 528.654C484.111 528.654 555.026 530.279 555.026 532.283Z" fill="black" fill-opacity="0.12"></path>
<path fill-rule="evenodd" clip-rule="evenodd" d="M122.491 333.654C131.507 331.786 140.33 337.579 142.198 346.595L125.874 349.978C142.198 346.595 142.198 346.596 142.199 346.597L142.232 346.758C142.252 346.856 142.281 346.998 142.318 347.182C142.393 347.549 142.501 348.082 142.637 348.766C142.909 350.132 143.296 352.098 143.758 354.534C144.681 359.399 145.912 366.163 147.145 373.761C149.558 388.628 152.176 407.851 152.176 422.191C152.176 435.584 151.345 452.729 150.538 466.296C150.131 473.128 149.725 479.144 149.42 483.454C149.267 485.61 149.14 487.341 149.05 488.538C149.006 489.136 148.97 489.601 148.946 489.918L148.908 490.412C148.908 490.412 148.908 490.413 132.516 489.132L148.908 490.413C148.191 499.592 140.168 506.451 130.99 505.734C121.811 505.017 114.951 496.995 115.668 487.816L115.702 487.373C115.725 487.075 115.759 486.629 115.802 486.051C115.889 484.895 116.013 483.208 116.162 481.101C116.46 476.884 116.858 470.996 117.256 464.314C118.057 450.854 118.835 434.537 118.835 422.191C118.835 410.791 116.637 393.907 114.235 379.102C113.06 371.865 111.884 365.401 111.001 360.749C110.56 358.425 110.194 356.56 109.939 355.284C109.812 354.646 109.713 354.156 109.647 353.83C109.614 353.667 109.589 353.545 109.572 353.466L109.551 353.361C109.551 353.36 109.55 353.36 109.55 353.359M122.491 333.654C113.477 335.522 107.683 344.344 109.55 353.359Z" fill="#b69ae2"></path>
<path fill-rule="evenodd" clip-rule="evenodd" d="M122.491 333.654C131.507 331.786 140.33 337.579 142.198 346.595L125.874 349.978C142.198 346.595 142.198 346.596 142.199 346.597L142.232 346.758C142.252 346.856 142.281 346.998 142.318 347.182C142.393 347.549 142.501 348.082 142.637 348.766C142.909 350.132 143.296 352.098 143.758 354.534C144.681 359.399 145.912 366.163 147.145 373.761C149.558 388.628 152.176 407.851 152.176 422.191C152.176 435.584 151.345 452.729 150.538 466.296C150.131 473.128 149.725 479.144 149.42 483.454C149.267 485.61 149.14 487.341 149.05 488.538C149.006 489.136 148.97 489.601 148.946 489.918L148.908 490.412C148.908 490.412 148.908 490.413 132.516 489.132L148.908 490.413C148.191 499.592 140.168 506.451 130.99 505.734C121.811 505.017 114.951 496.995 115.668 487.816L115.702 487.373C115.725 487.075 115.759 486.629 115.802 486.051C115.889 484.895 116.013 483.208 116.162 481.101C116.46 476.884 116.858 470.996 117.256 464.314C118.057 450.854 118.835 434.537 118.835 422.191C118.835 410.791 116.637 393.907 114.235 379.102C113.06 371.865 111.884 365.401 111.001 360.749C110.56 358.425 110.194 356.56 109.939 355.284C109.812 354.646 109.713 354.156 109.647 353.83C109.614 353.667 109.589 353.545 109.572 353.466L109.551 353.361C109.551 353.36 109.55 353.36 109.55 353.359M122.491 333.654C113.477 335.522 107.683 344.344 109.55 353.359Z" fill="black" fill-opacity="0.51"></path>
<path fill-rule="evenodd" clip-rule="evenodd" d="M143.625 324.247C153.349 323.819 161.578 331.355 162.005 341.079L144.614 341.844C162.005 341.079 162.006 341.079 162.006 341.08L162.033 341.71C162.051 342.121 162.077 342.724 162.11 343.5C162.176 345.053 162.27 347.297 162.383 350.068C162.609 355.611 162.91 363.272 163.212 371.743C163.811 388.59 164.423 408.967 164.423 422.192C164.423 435.615 163.591 452.783 162.783 466.353C162.376 473.19 161.969 479.209 161.664 483.522C161.512 485.679 161.384 487.412 161.295 488.61C161.25 489.209 161.215 489.674 161.19 489.991L161.152 490.487C161.152 490.487 161.152 490.488 143.582 489.115L161.152 490.488C160.394 500.191 151.913 507.443 142.21 506.685C132.506 505.927 125.255 497.446 126.013 487.743M126.013 487.743L126.047 487.302C126.069 487.003 126.103 486.559 126.146 485.981C126.233 484.826 126.357 483.14 126.506 481.034C126.804 476.821 127.202 470.936 127.599 464.259C128.4 450.802 129.177 434.508 129.177 422.192C129.177 409.676 128.588 389.884 127.987 372.997C127.689 364.601 127.39 357.003 127.166 351.504C127.054 348.755 126.96 346.532 126.895 344.998C126.863 344.231 126.837 343.637 126.82 343.235L126.793 342.627C126.793 342.627 126.793 342.627 143.66 341.886L126.793 342.627C126.366 332.904 133.902 324.674 143.625 324.247" fill="#7838e0"></path>
<path fill-rule="evenodd" clip-rule="evenodd" d="M143.606 233.62C144.876 227.435 150.919 223.451 157.103 224.721L222.063 238.059L275.633 226.336C281.78 224.895 283.006 229.027 284.447 235.174C285.889 241.32 287.401 242.061 281.254 243.502L222.388 261.466L152.505 247.117C146.321 245.847 142.337 239.804 143.606 233.62Z" fill="#FFB877"></path>
<path d="M130.304 154.588L173.842 156.526C173.842 156.526 166.76 179.146 166.251 197.994C146.769 205.132 126.861 175.788 126.861 175.788L130.304 154.588Z" fill="#FFB877"></path>
<path fill-rule="evenodd" clip-rule="evenodd" d="M168.637 172.166C169.103 172.184 169.465 172.577 169.446 173.043C169.363 175.139 170.201 176.838 171.044 178.223C171.182 178.449 171.329 178.68 171.474 178.908C171.742 179.33 172.001 179.739 172.178 180.077C172.32 180.349 172.458 180.661 172.512 180.985C172.569 181.331 172.537 181.742 172.27 182.111C171.931 182.579 171.371 182.89 170.884 183.102C170.365 183.327 169.778 183.503 169.244 183.637C168.705 183.772 168.196 183.87 167.823 183.934C167.636 183.966 167.482 183.99 167.373 184.006C167.319 184.014 167.276 184.02 167.246 184.025L167.211 184.029L167.201 184.031L167.199 184.031L167.197 184.031C167.197 184.031 167.197 184.031 167.091 183.209L167.197 184.031C166.735 184.091 166.312 183.764 166.252 183.302C166.193 182.839 166.519 182.416 166.981 182.357C166.981 182.357 166.981 182.357 166.981 182.357L166.983 182.357L166.989 182.356L167.016 182.352C167.041 182.349 167.078 182.344 167.127 182.336C167.224 182.322 167.365 182.3 167.537 182.271C167.882 182.211 168.348 182.121 168.834 182C169.324 181.877 169.811 181.727 170.211 181.554C170.535 181.413 170.729 181.286 170.831 181.197C170.809 181.126 170.765 181.017 170.682 180.859C170.535 180.577 170.344 180.278 170.11 179.911C169.959 179.674 169.789 179.408 169.602 179.101C168.707 177.631 167.656 175.578 167.76 172.975C167.778 172.51 168.171 172.147 168.637 172.166Z" fill="#1C1C1C"></path>
<path d="M117.389 217.226C121.557 209.221 133.702 204.517 132.047 182.978L144.205 189.939C147.253 192.361 150.73 194.358 148.552 196.373C146.373 198.387 153.404 218.136 154.535 221.231L142.683 219.172C136.896 220.424 113.22 225.231 117.389 217.226Z" fill="#FFB877"></path>
<path d="M141.027 193.054C141.027 193.054 146.746 195.291 148.809 196.131C148.252 197.722 150.052 206.884 150.488 209.208C150.488 209.208 143.008 197.089 141.027 193.054Z" fill="black" fill-opacity="0.27"></path>
<path fill-rule="evenodd" clip-rule="evenodd" d="M166.72 190.778C162.597 190.331 160.886 187.237 160.7 185.71L162.376 185.506C162.478 186.349 163.651 188.747 166.902 189.1L166.72 190.778Z" fill="#1C1C1C"></path>
<path d="M176.012 170.032L152.057 166.327C152.073 167.655 151.104 170.045 147.106 168.976C142.109 167.639 136.871 162.719 133.699 164.151C130.528 165.583 138.26 179.242 132.348 184.89C126.436 190.539 120.713 178.251 115.707 176.118C110.7 173.985 105.633 147.742 116.967 147.609C129.519 147.462 129.044 140.958 135.039 142.416C133.093 140.712 134.772 136.601 157.056 133.789C179.34 130.978 178.978 156.78 176.012 170.032Z" fill="#7838e0"></path>
<path d="M141.805 132.386C141.881 138.89 135.715 145.807 129.21 145.884C119.326 152.575 110.643 142.843 110.567 136.338C110.491 129.833 118.633 121.498 125.138 121.422C131.643 121.346 141.729 125.881 141.805 132.386Z" fill="#7838e0"></path>
<path d="M105.979 335.389C105.979 335.389 142.571 332.947 164.186 332.946C166.637 332.946 159.54 373.92 159.54 373.92L137.372 375.758L119.168 366.351C112.093 362.694 107.43 355.62 106.86 347.676L105.979 335.389Z" fill="#7838e0"></path>
<path d="M155.684 212.761C149.594 206.645 134.837 206.04 123.367 203.234C121.428 202.756 116.814 211.505 120.416 210.043C124.017 208.581 155.13 224.959 155.022 223.273C154.914 221.586 161.478 218.579 155.684 212.761Z" fill="white"></path>
<path d="M155.838 215.557C150.15 209.065 135.462 207.519 124.195 203.985C122.291 203.384 117.127 211.821 120.815 210.591C124.502 209.362 154.893 225.435 154.893 223.745C154.893 222.055 161.248 221.734 155.838 215.557Z" fill="white"></path>
<path d="M196.084 262.552L203.275 225.533C203.275 225.533 189.356 225.779 157.734 216.744C150.121 211.831 118.807 207.952 118.807 207.952C118.807 207.952 104.951 217.97 104.097 234.001C102.369 266.436 100.136 323.94 100.272 339.102L170.789 335.973L167.588 258.823L196.084 262.552Z" fill="#F8F8F8"></path>
<path d="M125.275 310.652L131.949 315.161L124.707 318.685L125.275 310.652Z" fill="#b69ae2"></path>
<path fill-rule="evenodd" clip-rule="evenodd" d="M125.275 310.652L124.707 318.685L131.949 315.161L125.275 310.652ZM126.109 312.365L125.774 317.107L130.048 315.026L126.109 312.365Z" fill="#b69ae2"></path>
<path d="M148.899 298.368L150.729 306.211L143.022 303.875L148.899 298.368Z" fill="#b69ae2"></path>
<path fill-rule="evenodd" clip-rule="evenodd" d="M148.899 298.368L143.022 303.875L150.729 306.211L148.899 298.368ZM148.347 300.192L144.878 303.442L149.427 304.821L148.347 300.192Z" fill="#b69ae2"></path>
<path d="M107.807 264.887L113.421 270.662L105.614 272.637L107.807 264.887Z" fill="#b69ae2"></path>
<path fill-rule="evenodd" clip-rule="evenodd" d="M107.807 264.887L105.614 272.637L113.421 270.662L107.807 264.887ZM108.274 266.734L106.98 271.309L111.588 270.143L108.274 266.734Z" fill="#b69ae2"></path>
<path d="M155.605 240.937L148.04 243.699L149.431 235.766L155.605 240.937Z" fill="#b69ae2"></path>
<path fill-rule="evenodd" clip-rule="evenodd" d="M155.605 240.937L149.431 235.766L148.04 243.699L155.605 240.937ZM153.729 240.608L150.084 237.556L149.263 242.238L153.729 240.608Z" fill="#b69ae2"></path>
<path d="M181.389 248.645L184.963 255.862L176.926 255.348L181.389 248.645Z" fill="#b69ae2"></path>
<path fill-rule="evenodd" clip-rule="evenodd" d="M181.389 248.645L176.926 255.348L184.963 255.862L181.389 248.645ZM181.268 250.546L178.633 254.503L183.377 254.806L181.268 250.546Z" fill="#b69ae2"></path>
<path d="M179.015 228.09L180.922 233.381L175.387 232.386L179.015 228.09Z" fill="#b69ae2"></path>
<path fill-rule="evenodd" clip-rule="evenodd" d="M179.015 228.09L175.387 232.386L180.922 233.381L179.015 228.09ZM178.678 229.965L177.179 231.741L179.466 232.151L178.678 229.965Z" fill="#b69ae2"></path>
<path d="M129.509 248.715L131.415 254.006L125.88 253.011L129.509 248.715Z" fill="#b69ae2"></path>
<path fill-rule="evenodd" clip-rule="evenodd" d="M129.509 248.715L125.88 253.011L131.415 254.006L129.509 248.715ZM129.172 250.59L127.672 252.366L129.96 252.776L129.172 250.59Z" fill="#b69ae2"></path>
<path d="M111.463 237.447L106.651 240.357L106.537 234.734L111.463 237.447Z" fill="#b69ae2"></path>
<path fill-rule="evenodd" clip-rule="evenodd" d="M111.463 237.447L106.537 234.734L106.651 240.357L111.463 237.447ZM109.559 237.485L107.523 236.364L107.57 238.688L109.559 237.485Z" fill="#b69ae2"></path>
<path d="M161.536 249.808L163.442 255.099L157.907 254.104L161.536 249.808Z" fill="#b69ae2"></path>
<path fill-rule="evenodd" clip-rule="evenodd" d="M161.536 249.808L157.907 254.104L163.442 255.099L161.536 249.808ZM161.199 251.683L159.699 253.458L161.986 253.869L161.199 251.683Z" fill="#b69ae2"></path>
<path d="M107.643 301.373L109.55 306.664L104.014 305.67L107.643 301.373Z" fill="#b69ae2"></path>
<path fill-rule="evenodd" clip-rule="evenodd" d="M107.643 301.373L104.014 305.67L109.55 306.664L107.643 301.373ZM107.306 303.248L105.807 305.024L108.094 305.435L107.306 303.248Z" fill="#b69ae2"></path>
<path d="M110.265 329.75L112.171 335.041L106.636 334.046L110.265 329.75Z" fill="#b69ae2"></path>
<path fill-rule="evenodd" clip-rule="evenodd" d="M110.265 329.75L106.636 334.046L112.171 335.041L110.265 329.75ZM109.928 331.625L108.428 333.401L110.716 333.812L109.928 331.625Z" fill="#b69ae2"></path>
<path fill-rule="evenodd" clip-rule="evenodd" d="M117.988 293.856C118.115 293.626 118.405 293.542 118.635 293.669L122.851 295.995C123.081 296.123 123.165 296.412 123.038 296.643C122.911 296.873 122.621 296.957 122.39 296.829L118.175 294.503C117.945 294.376 117.861 294.086 117.988 293.856Z" fill="#b69ae2"></path>
<path fill-rule="evenodd" clip-rule="evenodd" d="M119.151 291.749C119.278 291.518 119.568 291.435 119.798 291.562L124.014 293.888C124.244 294.015 124.328 294.305 124.201 294.535C124.074 294.765 123.784 294.849 123.554 294.722L119.338 292.396C119.108 292.269 119.024 291.979 119.151 291.749Z" fill="#b69ae2"></path>
<path fill-rule="evenodd" clip-rule="evenodd" d="M135.133 329.239C135.088 328.98 135.261 328.733 135.52 328.688L140.264 327.864C140.523 327.819 140.77 327.993 140.815 328.252C140.86 328.511 140.686 328.758 140.427 328.803L135.683 329.627C135.424 329.672 135.178 329.498 135.133 329.239Z" fill="#b69ae2"></path>
<path fill-rule="evenodd" clip-rule="evenodd" d="M134.721 326.867C134.676 326.607 134.85 326.361 135.109 326.316L139.853 325.492C140.112 325.447 140.358 325.621 140.403 325.88C140.448 326.139 140.275 326.386 140.015 326.431L135.272 327.254C135.013 327.299 134.766 327.126 134.721 326.867Z" fill="#b69ae2"></path>
<path fill-rule="evenodd" clip-rule="evenodd" d="M101.506 285.113C101.461 284.854 101.635 284.607 101.894 284.562L106.638 283.738C106.897 283.693 107.143 283.867 107.188 284.126C107.233 284.385 107.06 284.632 106.801 284.677L102.057 285.501C101.798 285.546 101.551 285.372 101.506 285.113Z" fill="#b69ae2"></path>
<path fill-rule="evenodd" clip-rule="evenodd" d="M101.095 282.741C101.05 282.481 101.223 282.235 101.482 282.19L106.226 281.366C106.485 281.321 106.732 281.495 106.777 281.754C106.822 282.013 106.648 282.26 106.389 282.305L101.645 283.128C101.386 283.173 101.14 283 101.095 282.741Z" fill="#b69ae2"></path>
<path fill-rule="evenodd" clip-rule="evenodd" d="M151.828 288.076C151.783 287.816 151.956 287.57 152.216 287.525L156.959 286.701C157.218 286.656 157.465 286.83 157.51 287.089C157.555 287.348 157.381 287.595 157.122 287.64L152.378 288.463C152.119 288.508 151.873 288.335 151.828 288.076Z" fill="#b69ae2"></path>
<path fill-rule="evenodd" clip-rule="evenodd" d="M151.416 285.704C151.371 285.444 151.545 285.198 151.804 285.153L156.548 284.329C156.807 284.284 157.053 284.458 157.098 284.717C157.143 284.976 156.97 285.223 156.711 285.268L151.967 286.091C151.708 286.136 151.461 285.963 151.416 285.704Z" fill="#b69ae2"></path>
<path fill-rule="evenodd" clip-rule="evenodd" d="M131.82 266.925C131.775 266.666 131.949 266.419 132.208 266.374L136.951 265.551C137.211 265.506 137.457 265.68 137.502 265.939C137.547 266.198 137.374 266.445 137.114 266.49L132.371 267.313C132.111 267.358 131.865 267.184 131.82 266.925Z" fill="#b69ae2"></path>
<path fill-rule="evenodd" clip-rule="evenodd" d="M131.408 264.553C131.363 264.294 131.537 264.047 131.796 264.002L136.54 263.179C136.799 263.134 137.046 263.308 137.091 263.567C137.136 263.826 136.962 264.072 136.703 264.117L131.959 264.941C131.7 264.986 131.453 264.812 131.408 264.553Z" fill="#b69ae2"></path>
<path fill-rule="evenodd" clip-rule="evenodd" d="M188.573 247.248C188.75 247.053 189.051 247.039 189.246 247.216L192.807 250.457C193.002 250.634 193.016 250.935 192.839 251.13C192.662 251.324 192.36 251.338 192.166 251.161L188.605 247.921C188.41 247.744 188.396 247.443 188.573 247.248Z" fill="#b69ae2"></path>
<path fill-rule="evenodd" clip-rule="evenodd" d="M190.194 245.467C190.371 245.272 190.672 245.258 190.866 245.435L194.427 248.675C194.622 248.853 194.636 249.154 194.459 249.348C194.282 249.543 193.981 249.557 193.786 249.38L190.225 246.14C190.031 245.963 190.016 245.661 190.194 245.467Z" fill="#b69ae2"></path>
<path fill-rule="evenodd" clip-rule="evenodd" d="M160.947 233.15C161.124 232.956 161.425 232.942 161.62 233.119L165.181 236.359C165.376 236.536 165.39 236.837 165.213 237.032C165.036 237.226 164.734 237.241 164.54 237.064L160.979 233.823C160.784 233.646 160.77 233.345 160.947 233.15Z" fill="#b69ae2"></path>
<path fill-rule="evenodd" clip-rule="evenodd" d="M162.568 231.369C162.745 231.175 163.046 231.16 163.24 231.337L166.801 234.578C166.996 234.755 167.01 235.056 166.833 235.251C166.656 235.445 166.355 235.459 166.16 235.282L162.599 232.042C162.405 231.865 162.391 231.564 162.568 231.369Z" fill="#b69ae2"></path>
<path fill-rule="evenodd" clip-rule="evenodd" d="M108.303 249.919C108.48 249.724 108.781 249.71 108.976 249.887L112.537 253.128C112.731 253.305 112.745 253.606 112.568 253.8C112.391 253.995 112.09 254.009 111.895 253.832L108.334 250.592C108.14 250.415 108.126 250.113 108.303 249.919Z" fill="#b69ae2"></path>
<path fill-rule="evenodd" clip-rule="evenodd" d="M109.923 248.138C110.1 247.943 110.401 247.929 110.596 248.106L114.157 251.346C114.351 251.523 114.366 251.825 114.189 252.019C114.012 252.214 113.71 252.228 113.516 252.051L109.955 248.811C109.76 248.633 109.746 248.332 109.923 248.138Z" fill="#b69ae2"></path>
<path fill-rule="evenodd" clip-rule="evenodd" d="M138.062 224.767C138.017 224.508 138.191 224.261 138.45 224.216L143.194 223.393C143.453 223.348 143.699 223.521 143.744 223.781C143.789 224.04 143.616 224.286 143.357 224.331L138.613 225.155C138.354 225.2 138.107 225.026 138.062 224.767Z" fill="#b69ae2"></path>
<path fill-rule="evenodd" clip-rule="evenodd" d="M137.65 222.395C137.605 222.136 137.779 221.889 138.038 221.844L142.782 221.021C143.041 220.976 143.288 221.149 143.333 221.409C143.378 221.668 143.204 221.914 142.945 221.959L138.201 222.783C137.942 222.828 137.695 222.654 137.65 222.395Z" fill="#b69ae2"></path>
<path fill-rule="evenodd" clip-rule="evenodd" d="M100.358 319.434C100.313 319.175 100.486 318.928 100.746 318.883L105.489 318.06C105.748 318.015 105.995 318.188 106.04 318.448C106.085 318.707 105.911 318.953 105.652 318.998L100.908 319.822C100.649 319.867 100.403 319.693 100.358 319.434Z" fill="#b69ae2"></path>
<path fill-rule="evenodd" clip-rule="evenodd" d="M99.9461 317.062C99.9011 316.803 100.075 316.556 100.334 316.511L105.078 315.688C105.337 315.643 105.583 315.816 105.628 316.076C105.673 316.335 105.5 316.581 105.241 316.626L100.497 317.45C100.238 317.495 99.9911 317.321 99.9461 317.062Z" fill="#b69ae2"></path>
<path d="M157.709 314.435L163.148 315.866L159.189 319.86L157.709 314.435Z" fill="#b69ae2"></path>
<path fill-rule="evenodd" clip-rule="evenodd" d="M157.709 314.435L159.189 319.86L163.148 315.866L157.709 314.435ZM159.062 315.776L159.674 318.018L161.31 316.367L159.062 315.776Z" fill="#b69ae2"></path>
<path d="M157.346 269.226L159.252 274.517L153.717 273.522L157.346 269.226Z" fill="#b69ae2"></path>
<path fill-rule="evenodd" clip-rule="evenodd" d="M157.346 269.226L153.717 273.522L159.252 274.517L157.346 269.226ZM157.009 271.101L155.51 272.876L157.797 273.287L157.009 271.101Z" fill="#b69ae2"></path>
<path d="M128.385 231.031L121.445 226.945L128.453 222.977L128.385 231.031Z" fill="#b69ae2"></path>
<path fill-rule="evenodd" clip-rule="evenodd" d="M128.385 231.031L128.453 222.977L121.445 226.945L128.385 231.031ZM127.447 229.373L127.487 224.619L123.35 226.961L127.447 229.373Z" fill="#b69ae2"></path>
<path d="M132.981 287.843L126.04 283.758L133.049 279.79L132.981 287.843Z" fill="#b69ae2"></path>
<path fill-rule="evenodd" clip-rule="evenodd" d="M132.981 287.843L133.049 279.79L126.04 283.758L132.981 287.843ZM132.042 286.185L132.082 281.432L127.946 283.774L132.042 286.185Z" fill="#b69ae2"></path>
<path d="M196.833 229.585L198.34 233.768L193.964 232.982L196.833 229.585Z" fill="#b69ae2"></path>
<path fill-rule="evenodd" clip-rule="evenodd" d="M196.833 229.585L193.964 232.982L198.34 233.768L196.833 229.585ZM196.496 231.461L195.757 232.336L196.884 232.538L196.496 231.461Z" fill="#b69ae2"></path>
<path d="M665.416 136.091L623.857 139.88C623.857 139.88 623.881 166.14 624.64 185.732C644.984 192.917 668.959 166.349 668.959 166.349L665.416 136.091Z" fill="#FFB877"></path>
<path fill-rule="evenodd" clip-rule="evenodd" d="M624.554 155.979C624.076 155.895 623.621 156.214 623.537 156.691C623.158 158.839 621.93 160.381 620.767 161.601C620.577 161.8 620.376 162.003 620.179 162.202C619.813 162.571 619.458 162.929 619.204 163.233C619 163.478 618.79 163.765 618.664 164.082C618.529 164.421 618.471 164.846 618.66 165.28C618.901 165.831 619.401 166.27 619.85 166.594C620.326 166.937 620.884 167.246 621.397 167.501C621.915 167.757 622.41 167.969 622.775 168.117C622.958 168.191 623.11 168.25 623.216 168.29C623.27 168.31 623.312 168.326 623.341 168.336L623.376 168.349L623.385 168.352L623.389 168.354C623.389 168.354 623.39 168.354 623.677 167.548L623.389 168.354C623.846 168.517 624.348 168.279 624.511 167.822C624.674 167.366 624.436 166.864 623.979 166.701M620.325 164.67C620.363 164.603 620.432 164.502 620.551 164.359C620.763 164.106 621.023 163.844 621.342 163.523C621.548 163.315 621.779 163.083 622.037 162.812C623.272 161.517 624.795 159.664 625.265 156.996C625.35 156.519 625.031 156.064 624.554 155.979M620.325 164.67C620.409 164.783 620.578 164.955 620.876 165.17C621.243 165.435 621.706 165.694 622.176 165.928C622.643 166.159 623.096 166.353 623.434 166.49C623.603 166.558 623.741 166.612 623.836 166.648C623.884 166.666 623.921 166.679 623.945 166.688L623.972 166.698L623.978 166.7L623.979 166.701" fill="#1C1C1C"></path>
<path fill-rule="evenodd" clip-rule="evenodd" d="M683.965 344.047C683.964 344.046 683.964 344.046 667.342 345.307L650.719 346.567L650.756 347.062C650.781 347.393 650.817 347.883 650.863 348.516C650.956 349.783 651.089 351.621 651.249 353.896C651.569 358.447 651.995 364.735 652.422 371.685C653.283 385.742 654.11 401.982 654.11 412.17C654.11 424.697 657.267 444.308 660.067 459.528C661.517 467.411 662.964 474.593 664.048 479.799C664.59 482.406 665.043 484.525 665.362 485.999C665.521 486.737 665.647 487.313 665.734 487.709C665.778 487.906 665.811 488.059 665.835 488.164L665.872 488.333C665.872 488.334 665.872 488.335 682.144 484.71L665.872 488.335C667.874 497.321 676.782 502.984 685.769 500.982C694.756 498.98 700.418 490.072 698.416 481.085M698.416 481.085L698.389 480.961C698.369 480.872 698.339 480.736 698.299 480.555C698.219 480.193 698.101 479.652 697.95 478.952C697.647 477.553 697.212 475.518 696.689 473.006C695.642 467.975 694.249 461.058 692.858 453.496C689.976 437.828 687.451 421.169 687.451 412.17C687.451 400.83 686.558 383.639 685.7 369.646C685.267 362.571 684.833 356.18 684.508 351.558C684.346 349.246 684.21 347.374 684.115 346.077C684.068 345.429 684.03 344.924 684.005 344.58L683.965 344.047" fill="#b69ae2"></path>
<path fill-rule="evenodd" clip-rule="evenodd" d="M683.965 344.047C683.965 344.047 683.964 344.046 667.342 345.307L650.719 346.567L650.756 347.062C650.781 347.393 650.817 347.883 650.863 348.516C650.956 349.783 651.089 351.621 651.249 353.896C651.569 358.447 651.995 364.735 652.422 371.685C653.283 385.742 654.11 401.982 654.11 412.17C654.11 424.697 657.267 444.308 660.067 459.528C661.517 467.411 662.964 474.593 664.048 479.799C664.59 482.406 665.043 484.525 665.362 485.999C665.521 486.736 665.647 487.313 665.734 487.708C665.778 487.906 665.811 488.059 665.835 488.164L665.872 488.333C665.874 488.343 693.036 482.283 665.872 488.335C667.874 497.321 676.782 502.983 685.769 500.982C694.756 498.98 700.418 490.072 698.416 481.085M698.416 481.085L698.389 480.961C698.369 480.872 698.339 480.736 698.299 480.555C698.219 480.193 698.101 479.652 697.95 478.952C697.647 477.552 697.212 475.518 696.689 473.006C695.642 467.975 694.249 461.058 692.858 453.496C689.976 437.828 687.451 421.169 687.451 412.17C687.451 400.83 686.558 383.639 685.7 369.646C685.267 362.571 684.833 356.18 684.508 351.558C684.346 349.246 684.21 347.374 684.115 346.077C684.068 345.429 684.03 344.924 684.005 344.58L683.965 344.047" fill="black" fill-opacity="0.51"></path>
<path fill-rule="evenodd" clip-rule="evenodd" d="M665.001 336.138C665.001 336.138 665.001 336.138 644.044 336.138C623.086 336.138 623.086 336.138 623.086 336.138L623.087 484.07C623.087 484.071 623.087 484.071 644.044 484.071C665.001 484.071 665.001 484.071 665.001 484.07L665.001 336.138ZM644.044 505.028C655.618 505.028 665.001 495.644 665.001 484.07L644.044 484.071L623.087 484.07C623.087 495.644 632.469 505.028 644.044 505.028Z" fill="#7838e0"></path>
<path d="M672.742 201.016C668.31 192.743 660.602 172.852 661.803 165.927L649.245 173.314C646.106 175.868 640.399 181.495 642.689 183.563C644.979 185.631 640.024 202.745 638.885 205.977L651.184 203.692C657.217 204.923 677.174 209.289 672.742 201.016Z" fill="#FFB877"></path>
<path d="M651.408 181.457C651.408 181.457 645.159 183.803 643.024 184.702C643.623 186.35 641.455 196.225 641.03 198.647C641.03 198.647 649.398 185.677 651.408 181.457Z" fill="#174B88"></path>
<path fill-rule="evenodd" clip-rule="evenodd" d="M624.347 177.021C628.572 176.923 630.599 173.963 630.93 172.431L629.214 172.061C629.037 172.883 627.637 175.189 624.306 175.266L624.347 177.021Z" fill="#1C1C1C"></path>
<path d="M639.382 145.881L649.693 144.617C651.78 146.95 650.213 153.371 648.437 157.696L655.842 158.689C656.763 154.086 661.082 149.724 664.611 153.867C668.14 158.01 658.877 165.787 657.189 171.311C655.501 176.836 661.849 178.47 664.611 179.084C667.373 179.698 681.874 181.937 681.107 173.344C680.339 164.751 679.419 149.302 681.107 138.1C682.457 129.138 672.396 128.381 670.596 132.589C670.94 131.784 670.833 130.767 670.398 129.615C668.957 104.676 665.37 99.3502 658.915 98.3655C655.384 97.8269 651.82 101.706 649.155 106.587C640.894 100.014 631.741 96.9899 624 106.582C622.991 107.833 622.277 109.514 621.794 111.472C620.191 111.24 618.604 111.674 617.111 113.041C610.336 119.241 619.615 136.666 624 143.718C624 143.718 629.92 146.597 639.382 145.881Z" fill="#7838e0"></path>
<path d="M618.751 256.102L635.733 273.782L644.108 250.751L636.896 235.63L618.751 256.102Z" fill="#747474"></path>
<path d="M691.646 311.714C691.646 311.714 649.959 323.702 624.266 323.701C621.353 323.701 624.266 365.981 624.266 365.981L657.013 363.564L667.581 362.579C678.362 361.574 686.959 353.144 688.177 342.385L691.646 311.714Z" fill="#7838e0"></path>
<path d="M634.226 208.636C646.399 191.846 662.563 194.072 674.397 200.692C688.598 208.636 689.564 237.411 690.297 245.495C696.068 309.104 693.098 334.58 693.098 334.58L619.243 336.726C619.243 336.726 610.692 241.097 634.226 208.636Z" fill="#b69ae2"></path>
<path d="M634.226 208.636C646.399 191.846 662.562 194.072 674.396 200.692C688.598 208.636 689.564 237.411 690.297 245.495C696.068 309.104 693.098 334.58 693.098 334.58L619.243 336.726C619.243 336.726 610.692 241.097 634.226 208.636Z" fill="black" fill-opacity="0.16"></path>
<path d="M283.716 215.254C280.798 215.89 279.16 222.476 276.732 224.944L288.563 229.152C288.563 229.152 288.337 223.771 289.414 221.785C290.304 220.145 293.121 217.113 293.121 217.113C293.121 217.113 299.198 219.284 301.296 214.436C301.296 214.436 293.858 211.775 293.121 212.049C290.229 213.122 286.808 214.581 283.716 215.254Z" fill="#FFB877"></path>
<path d="M413.119 172.182H429.993V174.498H413.119V172.182Z" fill="#b69ae2"></path>
<path d="M413.119 178.936H429.993V181.252H413.119V178.936Z" fill="#b69ae2"></path>
<path d="M413.119 185.688H429.993V188.004H413.119V185.688Z" fill="#b69ae2"></path>
<path d="M287.629 220.499C287.629 217.342 290.188 214.783 293.345 214.783H337.267C340.424 214.783 342.983 217.342 342.983 220.499V264.031C342.983 267.188 340.424 269.747 337.267 269.747H293.345C290.188 269.747 287.629 267.188 287.629 264.031V220.499Z" fill="#B5CDFB"></path>
<path d="M358.224 220.499C358.224 217.342 360.783 214.783 363.94 214.783H407.862C411.019 214.783 413.578 217.342 413.578 220.499V264.031C413.578 267.188 411.019 269.747 407.862 269.747H363.94C360.783 269.747 358.224 267.188 358.224 264.031V220.499Z" fill="#B5CDFB"></path>
<path d="M429.078 220.499C429.078 217.342 431.637 214.783 434.793 214.783H478.715C481.872 214.783 484.431 217.342 484.431 220.499V264.031C484.431 267.188 481.872 269.747 478.715 269.747H434.793C431.637 269.747 429.078 267.188 429.078 264.031V220.499Z" fill="#B5CDFB"></path>
<path d="M499.571 220.499C499.571 217.342 502.13 214.783 505.286 214.783H549.208C552.365 214.783 554.924 217.342 554.924 220.499V264.031C554.924 267.188 552.365 269.747 549.208 269.747H505.286C502.13 269.747 499.571 267.188 499.571 264.031V220.499Z" fill="#B5CDFB"></path>
<path fill-rule="evenodd" clip-rule="evenodd" d="M299.323 238.136C298.674 238.576 298.523 239.469 298.992 240.097C299.432 240.687 300.257 240.826 300.866 240.414L314.368 231.27C314.931 230.889 315.668 230.889 316.231 231.27L329.746 240.423C330.36 240.838 331.193 240.693 331.629 240.094C332.087 239.465 331.933 238.582 331.289 238.145L316.231 227.948C315.668 227.567 314.931 227.567 314.368 227.948L299.323 238.136ZM324.967 255.915V256.217C324.967 256.584 324.669 256.882 324.302 256.882H306.297C305.93 256.882 305.632 256.584 305.632 256.217V241.516C305.586 241.005 305.157 240.605 304.634 240.605C304.081 240.605 303.632 241.053 303.632 241.607V257.546C303.632 258.28 304.227 258.875 304.961 258.875H325.638C326.372 258.875 326.967 258.28 326.967 257.546V251.567C326.967 251.017 326.52 250.57 325.97 250.57C325.419 250.57 324.973 251.017 324.973 251.567V255.918L324.967 255.915ZM324.967 241.601C324.967 241.051 325.416 240.605 325.967 240.605C326.517 240.605 326.967 241.051 326.967 241.601V247.913C326.967 248.463 326.517 248.909 325.967 248.909C325.416 248.909 324.967 248.463 324.967 247.913V241.601Z" fill="#b69ae2"></path>
<path fill-rule="evenodd" clip-rule="evenodd" d="M320.3 226.653C320.3 226.624 320.301 226.595 320.304 226.566C320.301 226.54 320.3 226.513 320.3 226.487C320.3 226.028 320.672 225.656 321.13 225.656H321.3H325.967H326.137C326.595 225.656 326.967 226.028 326.967 226.487C326.967 226.513 326.966 226.54 326.963 226.566C326.966 226.595 326.967 226.624 326.967 226.653V232.134C326.967 232.684 326.517 233.13 325.967 233.13C325.417 233.13 324.967 232.684 324.967 232.134V227.317H322.3V228.812C322.3 229.362 321.85 229.809 321.3 229.809C320.75 229.809 320.3 229.362 320.3 228.812V226.653ZM310.299 243.594C310.299 242.86 310.894 242.266 311.628 242.266H318.971C319.705 242.266 320.3 242.86 320.3 243.594V254.223C320.3 254.774 319.853 255.221 319.302 255.221C318.751 255.221 318.305 254.774 318.305 254.223V250.57H318.3V244.923C318.3 244.556 318.002 244.259 317.635 244.259H312.964C312.597 244.259 312.3 244.556 312.3 244.923V254.286C312.265 254.808 311.831 255.221 311.301 255.221C310.748 255.221 310.299 254.772 310.299 254.22V243.594Z" fill="#b69ae2"></path>
<path fill-rule="evenodd" clip-rule="evenodd" d="M463.699 237.584C463.699 244.005 458.494 249.21 452.073 249.21C445.652 249.21 440.446 244.005 440.446 237.584C440.446 231.162 445.652 225.957 452.073 225.957C458.494 225.957 463.699 231.162 463.699 237.584ZM461.705 237.583C461.705 242.903 457.392 247.216 452.072 247.216C446.752 247.216 442.439 242.903 442.439 237.583C442.439 232.262 446.752 227.949 452.072 227.949C457.392 227.949 461.705 232.262 461.705 237.583Z" fill="#b69ae2"></path>
<path fill-rule="evenodd" clip-rule="evenodd" d="M446.108 234.68C445.923 235.051 446.118 235.471 446.5 235.631C446.956 235.823 447.499 235.571 447.747 235.143C447.932 234.822 448.197 234.439 448.569 234.046C449.563 233.001 451.019 232.713 451.946 232.642C452.423 232.605 452.833 232.221 452.833 231.743C452.833 231.317 452.507 230.968 452.083 230.99C450.976 231.047 448.869 231.375 447.322 232.952C446.713 233.598 446.332 234.228 446.108 234.68ZM460.721 248.581C460.073 247.932 460.073 246.881 460.721 246.233C461.37 245.584 462.422 245.584 463.07 246.233L463.821 246.985C464.931 246.687 466.164 246.973 467.034 247.843L472.09 252.9C473.387 254.197 473.385 256.302 472.088 257.599C470.791 258.896 468.686 258.898 467.389 257.601L462.333 252.544C461.463 251.675 461.178 250.443 461.474 249.334L460.721 248.581ZM463.489 248.976C462.841 249.624 462.839 250.675 463.486 251.324L468.563 256.42C469.211 257.071 470.266 257.071 470.915 256.422C471.563 255.774 471.565 254.723 470.918 254.074L465.841 248.978C465.193 248.327 464.139 248.327 463.489 248.976Z" fill="#b69ae2"></path>
<path fill-rule="evenodd" clip-rule="evenodd" d="M528.57 258.17C527.918 259.092 526.567 259.106 525.919 258.181C522.868 253.829 515.621 242.939 515.621 237.693C515.621 231.048 520.826 225.661 527.247 225.661C533.668 225.661 538.874 231.048 538.874 237.693C538.874 240.247 537.585 243.805 535.008 248.366C534.856 248.636 534.626 249.029 534.41 249.395C534.102 249.918 533.412 250.062 532.919 249.709C532.508 249.414 532.369 248.866 532.59 248.412L532.89 247.797C534.993 244.113 536.88 240.13 536.88 237.693C536.88 232.187 532.568 227.724 527.247 227.724C521.927 227.724 517.614 232.187 517.614 237.693C517.614 242.317 524.41 252.512 526.586 255.657C526.909 256.124 527.586 256.124 527.908 255.657C528.429 254.904 529.214 253.748 530.108 252.361L530.713 251.497C531.041 251.028 531.691 250.921 532.152 251.26C532.587 251.58 532.698 252.183 532.402 252.634C532.171 252.986 531.902 253.393 531.682 253.718C531.047 254.657 529.632 256.667 528.57 258.17Z" fill="#b69ae2"></path>
<path fill-rule="evenodd" clip-rule="evenodd" d="M532.23 237.694C532.23 240.541 529.999 242.85 527.247 242.85C524.495 242.85 522.264 240.541 522.264 237.694C522.264 234.846 524.495 232.537 527.247 232.537C527.865 232.537 528.457 232.654 529.003 232.866C529.542 233.076 529.616 233.79 529.213 234.205L529.07 234.352C528.804 234.626 528.413 234.729 528.03 234.707C527.78 234.637 527.518 234.6 527.247 234.6C525.596 234.6 524.258 235.985 524.258 237.694C524.258 239.402 525.596 240.788 527.247 240.788C528.898 240.788 530.237 239.402 530.237 237.694C530.237 237.38 530.192 237.077 530.108 236.792C530.096 236.444 530.191 236.094 530.434 235.846C530.919 235.352 531.79 235.462 531.995 236.123C532.147 236.618 532.23 237.146 532.23 237.694Z" fill="#b69ae2"></path>
<path fill-rule="evenodd" clip-rule="evenodd" d="M655.546 231.617C649.883 228.826 643.03 231.154 640.239 236.816L618.751 280.002C606.02 289.164 564.347 310.654 564.347 310.654L569.495 324.912L635.301 298.137L660.745 246.924C663.537 241.261 661.209 234.408 655.546 231.617Z" fill="#FFB877"></path>
<path d="M287.629 298.325C287.629 295.168 290.188 292.609 293.345 292.609H407.862C411.018 292.609 413.577 295.168 413.577 298.325V364.856C413.577 368.013 411.018 370.572 407.862 370.572H293.345C290.188 370.572 287.629 368.013 287.629 364.856V298.325Z" fill="white" fill-opacity="0.6"></path>
<path d="M429.078 298.325C429.078 295.168 431.637 292.609 434.793 292.609H549.31C552.467 292.609 555.026 295.168 555.026 298.325V364.856C555.026 368.013 552.467 370.572 549.31 370.572H434.793C431.637 370.572 429.078 368.013 429.078 364.856V298.325Z" fill="white" fill-opacity="0.64"></path>
<path d="M302.442 304.821C302.442 303.451 303.552 302.341 304.922 302.341H396.285C397.654 302.341 398.765 303.451 398.765 304.821V304.821C398.765 306.19 397.654 307.301 396.285 307.301H304.922C303.552 307.301 302.442 306.19 302.442 304.821V304.821Z" fill="#b69ae2"></path>
<path d="M302.442 317.402C302.442 316.032 303.553 314.922 304.922 314.922H345.345C346.715 314.922 347.825 316.032 347.825 317.402V317.402C347.825 318.771 346.715 319.882 345.345 319.882H304.922C303.553 319.882 302.442 318.771 302.442 317.402V317.402Z" fill="#b69ae2"></path>
<path d="M302.442 329.982C302.442 328.612 303.553 327.502 304.922 327.502H396.285C397.655 327.502 398.765 328.612 398.765 329.982V329.982C398.765 331.351 397.655 332.462 396.285 332.462H304.922C303.553 332.462 302.442 331.351 302.442 329.982V329.982Z" fill="#b69ae2"></path>
<path d="M302.442 342.562C302.442 341.192 303.553 340.082 304.922 340.082H396.285C397.655 340.082 398.765 341.192 398.765 342.562V342.562C398.765 343.931 397.655 345.042 396.285 345.042H304.922C303.553 345.042 302.442 343.931 302.442 342.562V342.562Z" fill="#b69ae2"></path>
<path d="M302.442 355.143C302.442 353.773 303.553 352.663 304.922 352.663H345.345C346.715 352.663 347.825 353.773 347.825 355.143V355.143C347.825 356.513 346.715 357.623 345.345 357.623H304.922C303.553 357.623 302.442 356.513 302.442 355.143V355.143Z" fill="#b69ae2"></path>
<path d="M554.674 307.2C554.674 307.2 568.025 307.456 569.711 311.016C567.837 313.696 563.383 318.602 560.552 316.78C557.014 314.503 555.396 313.295 551.543 317.002C548.461 319.968 544.979 319.037 544.119 318.279C543.972 316.913 554.674 307.2 554.674 307.2Z" fill="#D69962"></path>
<path d="M443.891 304.821C443.891 303.451 445.001 302.341 446.37 302.341H537.733C539.103 302.341 540.213 303.451 540.213 304.821V304.821C540.213 306.19 539.103 307.301 537.733 307.301H446.37C445.001 307.301 443.891 306.19 443.891 304.821V304.821Z" fill="#b69ae2"></path>
<path d="M443.891 317.402C443.891 316.032 445.001 314.922 446.37 314.922H486.794C488.163 314.922 489.274 316.032 489.274 317.402V317.402C489.274 318.771 488.163 319.882 486.794 319.882H446.37C445.001 319.882 443.891 318.771 443.891 317.402V317.402Z" fill="#b69ae2"></path>
<path d="M443.891 329.982C443.891 328.612 445.001 327.502 446.37 327.502H537.733C539.103 327.502 540.213 328.612 540.213 329.982V329.982C540.213 331.351 539.103 332.462 537.733 332.462H446.37C445.001 332.462 443.891 331.351 443.891 329.982V329.982Z" fill="#b69ae2"></path>
<path d="M443.891 342.562C443.891 341.192 445.001 340.082 446.37 340.082H537.733C539.103 340.082 540.213 341.192 540.213 342.562V342.562C540.213 343.931 539.103 345.042 537.733 345.042H446.37C445.001 345.042 443.891 343.931 443.891 342.562V342.562Z" fill="#b69ae2"></path>
<path d="M443.891 355.143C443.891 353.773 445.001 352.663 446.37 352.663H486.794C488.163 352.663 489.274 353.773 489.274 355.143V355.143C489.274 356.513 488.163 357.623 486.794 357.623H446.37C445.001 357.623 443.891 356.513 443.891 355.143V355.143Z" fill="#b69ae2"></path>
<path fill-rule="evenodd" clip-rule="evenodd" d="M660.851 204.487C670.274 207.822 675.21 218.165 671.875 227.588L655.91 272.699L621.785 260.622L637.75 215.511C641.085 206.088 651.428 201.152 660.851 204.487Z" fill="#B5CDFB"></path>
<path d="M271.076 227.552L272.443 245.782C281.102 244.111 291.849 246.873 299.939 239.25C302.328 236.998 311.042 230.682 311.788 225.01C312.45 219.985 308.264 219.82 304.01 220.732C292.899 223.113 285.728 218.495 279.903 220.732C271.671 227.924 271.076 227.552 271.076 227.552Z" fill="#FFB877"></path>
<path fill-rule="evenodd" clip-rule="evenodd" d="M579.252 333.501L572.762 340.666L452.279 236.32L453.633 235.019C479.432 255.098 579.252 332.211 579.252 333.501Z" fill="#7838e0"></path>
<path d="M547.168 319.982C556.061 311.411 558.542 311.439 570.527 307.521C574.471 306.232 580.669 320.827 580.669 320.827C576.607 329.698 565.226 338.637 565.226 338.637C565.226 338.637 541.631 325.319 547.168 319.982Z" fill="#FFB877"></path>
<path d="M287.629 399.149C287.629 395.993 290.188 393.434 293.345 393.434H337.267C340.424 393.434 342.983 395.993 342.983 399.149V410.21C342.983 413.367 340.424 415.925 337.267 415.925H293.345C290.188 415.925 287.629 413.367 287.629 410.21V399.149Z" fill="#b69ae2"></path>
<path d="M358.224 399.149C358.224 395.993 360.783 393.434 363.94 393.434H407.862C411.019 393.434 413.578 395.993 413.578 399.149V410.21C413.578 413.367 411.019 415.925 407.862 415.925H363.94C360.783 415.925 358.224 413.367 358.224 410.21V399.149Z" fill="#b69ae2"></path>
<path d="M429.078 399.149C429.078 395.993 431.637 393.434 434.793 393.434H478.715C481.872 393.434 484.431 395.993 484.431 399.149V410.21C484.431 413.367 481.872 415.925 478.715 415.925H434.793C431.637 415.925 429.078 413.367 429.078 410.21V399.149Z" fill="#b69ae2"></path>
<path d="M499.571 399.149C499.571 395.993 502.13 393.434 505.286 393.434H549.208C552.365 393.434 554.924 395.993 554.924 399.149V410.21C554.924 413.367 552.365 415.925 549.208 415.925H505.286C502.13 415.925 499.571 413.367 499.571 410.21V399.149Z" fill="#b69ae2"></path>
<path fill-rule="evenodd" clip-rule="evenodd" d="M245.952 388.838C246.215 388.838 246.429 389.051 246.429 389.314V410.932C246.429 421.191 254.745 429.508 265.005 429.508H319.868C320.131 429.508 320.344 429.721 320.344 429.984C320.344 430.247 320.131 430.46 319.868 430.46H265.005C254.219 430.46 245.476 421.717 245.476 410.932V389.314C245.476 389.051 245.689 388.838 245.952 388.838ZM355.769 429.984C355.769 429.721 355.983 429.508 356.246 429.508H482.34C482.603 429.508 482.817 429.721 482.817 429.984C482.817 430.247 482.603 430.46 482.34 430.46H356.246C355.983 430.46 355.769 430.247 355.769 429.984Z" fill="#b69ae2"></path>
<path fill-rule="evenodd" clip-rule="evenodd" d="M375.632 246.122L372.511 253.761L380.153 250.642L381.095 249.7L382.603 251.207L381.337 252.473L371.064 256.355C370.347 256.626 369.646 255.925 369.917 255.207L373.799 244.935L375.065 243.669L376.575 245.179L375.632 246.122ZM380.578 255.448C380.578 254.858 381.056 254.38 381.646 254.38H393.754C394.344 254.38 394.822 254.858 394.822 255.448C394.822 256.038 394.344 256.516 393.754 256.516H381.646C381.056 256.516 380.578 256.038 380.578 255.448ZM397.671 254.38C397.081 254.38 396.603 254.858 396.603 255.448C396.603 256.038 397.081 256.516 397.671 256.516H400.876C401.466 256.516 401.945 256.038 401.945 255.448C401.945 254.858 401.466 254.38 400.876 254.38H397.671Z" fill="#b69ae2"></path>
<path fill-rule="evenodd" clip-rule="evenodd" d="M395.744 236.533C396.159 236.948 396.831 236.948 397.246 236.533L400.32 233.459C402.401 231.377 402.401 228.002 400.32 225.921C398.238 223.839 394.863 223.839 392.781 225.921L384.648 234.054C384.231 234.471 384.231 235.146 384.648 235.562C385.064 235.978 385.739 235.978 386.156 235.562L394.276 227.442C395.526 226.191 397.554 226.191 398.805 227.442C400.056 228.693 400.056 230.72 398.805 231.971L395.744 235.032C395.33 235.446 395.33 236.118 395.744 236.533ZM374.523 244.18C374.469 244.233 374.423 244.29 374.383 244.351L373.804 244.93L374.371 245.497C374.413 245.565 374.464 245.628 374.523 245.687C374.581 245.746 374.645 245.796 374.713 245.838L380.402 251.528C380.444 251.595 380.494 251.659 380.553 251.718C380.612 251.776 380.676 251.827 380.743 251.869L381.343 252.468L382.861 250.95L382.845 250.933L393.843 239.936C394.259 239.52 394.259 238.845 393.843 238.428C393.426 238.012 392.751 238.012 392.335 238.428L381.338 249.426L376.815 244.903L382.749 238.968C383.166 238.552 383.166 237.877 382.749 237.46C382.333 237.044 381.658 237.044 381.242 237.46L374.523 244.18Z" fill="#b69ae2"></path>
<path fill-rule="evenodd" clip-rule="evenodd" d="M518.494 429.93C518.494 429.667 518.707 429.454 518.97 429.454L596.347 429.454C596.611 429.454 596.824 429.667 596.824 429.93C596.824 430.193 596.611 430.407 596.347 430.407L518.97 430.407C518.707 430.407 518.494 430.193 518.494 429.93Z" fill="#b69ae2"></path>
<path fill-rule="evenodd" clip-rule="evenodd" d="M501.505 204.48C500.879 201.939 501.191 199.53 504.504 199.53C503.988 197.389 505.242 194.732 508.785 195.765C508.785 189.934 513.887 191.092 513.887 191.092C513.887 191.092 513.887 184.62 519.857 187.572C523.642 192.354 525.563 193.11 528.207 197.395C531.375 202.529 530.651 207.27 524.324 203.73C528.752 207.27 525.121 212.387 521.394 209.588C525.339 213.608 520.912 217.256 517.239 213.608C518.229 215.894 517.239 218.123 514.268 216.678C511.376 215.272 502.829 206.953 501.505 204.48Z" fill="#FFB877"></path>
<path d="M557.892 307.456C559.836 306.954 567.115 308.292 570.512 309.023L555.07 315.372C555.2 312.943 555.948 307.957 557.892 307.456Z" fill="#FFB877"></path>
</svg>
