<svg width="6891" height="2729" viewBox="0 0 6891 2729" fill="none" xmlns="http://www.w3.org/2000/svg">
<rect width="6891" height="2729" fill="#E5E5E5"/>
<rect width="6891" height="2729" fill="white"/>
<rect x="4253" y="870" width="2475" height="1202" fill="#33B6E8" fill-opacity="0.1"/>
<rect x="111.445" y="1498.06" width="944.789" height="426.11" fill="black" stroke="white" stroke-width="9.16365"/>
<path d="M416.003 1716.62H385.931V1748.27H376.481V1676.61H420.876V1684.38H385.931V1708.89H416.003V1716.62ZM455.231 1703.18C453.853 1702.95 452.36 1702.84 450.752 1702.84C444.78 1702.84 440.728 1705.38 438.595 1710.47V1748.27H429.489V1695.01H438.349L438.496 1701.17C441.482 1696.41 445.715 1694.03 451.195 1694.03C452.967 1694.03 454.312 1694.26 455.231 1694.72V1703.18ZM460.251 1721.15C460.251 1715.93 461.268 1711.24 463.303 1707.07C465.37 1702.91 468.225 1699.69 471.867 1697.43C475.542 1695.16 479.725 1694.03 484.418 1694.03C491.669 1694.03 497.526 1696.54 501.989 1701.56C506.484 1706.58 508.732 1713.26 508.732 1721.59V1722.23C508.732 1727.42 507.731 1732.08 505.729 1736.21C503.761 1740.31 500.922 1743.51 497.214 1745.81C493.539 1748.1 489.307 1749.25 484.516 1749.25C477.297 1749.25 471.44 1746.74 466.945 1741.72C462.482 1736.7 460.251 1730.06 460.251 1721.79V1721.15ZM469.406 1722.23C469.406 1728.14 470.767 1732.88 473.491 1736.46C476.247 1740.03 479.922 1741.82 484.516 1741.82C489.143 1741.82 492.818 1740.02 495.541 1736.41C498.264 1732.77 499.626 1727.68 499.626 1721.15C499.626 1715.31 498.232 1710.58 495.443 1706.97C492.686 1703.33 489.011 1701.51 484.418 1701.51C479.922 1701.51 476.296 1703.3 473.54 1706.88C470.784 1710.45 469.406 1715.57 469.406 1722.23ZM528.764 1695.01L529.059 1701.71C533.128 1696.59 538.443 1694.03 545.006 1694.03C556.261 1694.03 561.937 1700.38 562.036 1713.08V1748.27H552.93V1713.03C552.897 1709.19 552.011 1706.35 550.272 1704.51C548.566 1702.68 545.892 1701.76 542.25 1701.76C539.296 1701.76 536.704 1702.54 534.473 1704.12C532.242 1705.69 530.503 1707.76 529.256 1710.32V1748.27H520.15V1695.01H528.764ZM588.122 1682.12V1695.01H598.064V1702.05H588.122V1735.08C588.122 1737.21 588.565 1738.82 589.45 1739.9C590.336 1740.95 591.846 1741.48 593.979 1741.48C595.029 1741.48 596.472 1741.28 598.31 1740.89V1748.27C595.915 1748.93 593.585 1749.25 591.321 1749.25C587.252 1749.25 584.184 1748.02 582.117 1745.56C580.05 1743.1 579.016 1739.61 579.016 1735.08V1702.05H569.32V1695.01H579.016V1682.12H588.122ZM627.693 1721.54H603.675V1714.11H627.693V1721.54ZM678.536 1715.14H647.479V1740.54H683.557V1748.27H638.029V1676.61H683.065V1684.38H647.479V1707.42H678.536V1715.14ZM702.506 1695.01L702.801 1701.71C706.87 1696.59 712.186 1694.03 718.748 1694.03C730.003 1694.03 735.68 1700.38 735.778 1713.08V1748.27H726.673V1713.03C726.64 1709.19 725.754 1706.35 724.015 1704.51C722.308 1702.68 719.634 1701.76 715.992 1701.76C713.039 1701.76 710.447 1702.54 708.215 1704.12C705.984 1705.69 704.245 1707.76 702.998 1710.32V1748.27H693.893V1695.01H702.506ZM747.295 1721.2C747.295 1713.03 749.231 1706.47 753.103 1701.51C756.975 1696.52 762.044 1694.03 768.312 1694.03C774.546 1694.03 779.484 1696.16 783.126 1700.43V1672.67H792.232V1748.27H783.865L783.422 1742.56C779.78 1747.02 774.71 1749.25 768.213 1749.25C762.044 1749.25 757.008 1746.73 753.103 1741.67C749.231 1736.62 747.295 1730.03 747.295 1721.89V1721.2ZM756.401 1722.23C756.401 1728.27 757.648 1732.99 760.141 1736.41C762.635 1739.82 766.08 1741.53 770.477 1741.53C776.252 1741.53 780.469 1738.93 783.126 1733.75V1709.29C780.403 1704.27 776.219 1701.76 770.576 1701.76C766.113 1701.76 762.635 1703.48 760.141 1706.93C757.648 1710.37 756.401 1715.47 756.401 1722.23Z" fill="white"/>
<path d="M996.718 1530.14L1024.21 1557.63M996.718 1557.63L1024.21 1530.14" stroke="white" stroke-width="9.16365"/>
<rect x="138.936" y="1456.83" width="270.291" height="100.655" fill="black"/>
<path d="M221.248 1511.85H214.832V1526.16H206.778V1487.07H221.302C225.919 1487.07 229.481 1488.1 231.987 1490.15C234.492 1492.21 235.745 1495.12 235.745 1498.88C235.745 1501.55 235.163 1503.77 234 1505.56C232.855 1507.34 231.11 1508.75 228.765 1509.81L237.222 1525.78V1526.16H228.577L221.248 1511.85ZM214.832 1505.32H221.328C223.351 1505.32 224.917 1504.81 226.027 1503.79C227.136 1502.75 227.691 1501.33 227.691 1499.52C227.691 1497.68 227.163 1496.23 226.107 1495.17C225.069 1494.12 223.467 1493.59 221.302 1493.59H214.832V1505.32ZM254.752 1526.69C250.493 1526.69 247.021 1525.39 244.336 1522.77C241.669 1520.16 240.336 1516.68 240.336 1512.33V1511.58C240.336 1508.66 240.9 1506.06 242.027 1503.77C243.155 1501.46 244.748 1499.68 246.806 1498.45C248.882 1497.2 251.244 1496.57 253.893 1496.57C257.867 1496.57 260.99 1497.82 263.263 1500.33C265.554 1502.83 266.699 1506.39 266.699 1510.99V1514.15H248.202C248.452 1516.05 249.204 1517.57 250.457 1518.72C251.728 1519.86 253.33 1520.44 255.263 1520.44C258.251 1520.44 260.587 1519.35 262.27 1517.19L266.082 1521.46C264.918 1523.1 263.343 1524.39 261.357 1525.32C259.37 1526.24 257.169 1526.69 254.752 1526.69ZM253.867 1502.85C252.327 1502.85 251.074 1503.37 250.108 1504.41C249.159 1505.45 248.551 1506.93 248.282 1508.87H259.075V1508.25C259.039 1506.53 258.574 1505.21 257.679 1504.28C256.784 1503.33 255.513 1502.85 253.867 1502.85ZM287.962 1526.16C287.604 1525.46 287.344 1524.59 287.183 1523.55C285.304 1525.65 282.861 1526.69 279.854 1526.69C277.008 1526.69 274.646 1525.87 272.767 1524.22C270.905 1522.58 269.974 1520.5 269.974 1517.99C269.974 1514.92 271.111 1512.55 273.384 1510.91C275.675 1509.26 278.977 1508.43 283.29 1508.41H286.861V1506.75C286.861 1505.4 286.512 1504.33 285.814 1503.52C285.134 1502.72 284.051 1502.32 282.566 1502.32C281.259 1502.32 280.23 1502.63 279.478 1503.26C278.744 1503.88 278.377 1504.74 278.377 1505.83H270.619C270.619 1504.15 271.138 1502.59 272.176 1501.16C273.214 1499.73 274.682 1498.61 276.579 1497.81C278.476 1496.98 280.606 1496.57 282.968 1496.57C286.548 1496.57 289.385 1497.47 291.479 1499.28C293.591 1501.07 294.647 1503.6 294.647 1506.85V1519.44C294.664 1522.2 295.049 1524.28 295.801 1525.7V1526.16H287.962ZM281.545 1520.76C282.691 1520.76 283.747 1520.51 284.713 1520.01C285.68 1519.49 286.396 1518.8 286.861 1517.94V1512.95H283.962C280.078 1512.95 278.011 1514.29 277.76 1516.97L277.733 1517.43C277.733 1518.4 278.073 1519.19 278.753 1519.82C279.433 1520.45 280.364 1520.76 281.545 1520.76ZM312.687 1520.44C314.119 1520.44 315.283 1520.04 316.178 1519.26C317.072 1518.47 317.538 1517.42 317.574 1516.11H324.849C324.831 1518.08 324.294 1519.89 323.238 1521.54C322.182 1523.17 320.733 1524.44 318.889 1525.35C317.063 1526.24 315.041 1526.69 312.822 1526.69C308.669 1526.69 305.394 1525.38 302.996 1522.75C300.598 1520.1 299.398 1516.45 299.398 1511.79V1511.28C299.398 1506.81 300.589 1503.24 302.969 1500.57C305.349 1497.9 308.616 1496.57 312.768 1496.57C316.401 1496.57 319.31 1497.61 321.493 1499.68C323.695 1501.74 324.813 1504.49 324.849 1507.93H317.574C317.538 1506.42 317.072 1505.21 316.178 1504.28C315.283 1503.33 314.101 1502.85 312.634 1502.85C310.826 1502.85 309.457 1503.51 308.526 1504.84C307.613 1506.15 307.157 1508.28 307.157 1511.23V1512.03C307.157 1515.02 307.613 1517.17 308.526 1518.48C309.439 1519.78 310.826 1520.44 312.687 1520.44ZM338.568 1489.97V1497.11H343.534V1502.8H338.568V1517.3C338.568 1518.37 338.773 1519.14 339.185 1519.6C339.597 1520.07 340.384 1520.3 341.548 1520.3C342.407 1520.3 343.167 1520.24 343.83 1520.11V1525.99C342.308 1526.46 340.742 1526.69 339.131 1526.69C333.69 1526.69 330.916 1523.94 330.809 1518.45V1502.8H326.567V1497.11H330.809V1489.97H338.568Z" fill="white"/>
<rect x="138.936" y="1456.83" width="270.291" height="100.655" stroke="white" stroke-width="9.16365"/>
<rect x="2349.15" y="1479.82" width="944.789" height="426.11" fill="black" stroke="white" stroke-width="9.16365"/>
<path d="M2756.38 1698.08C2748.28 1695.75 2742.37 1692.9 2738.66 1689.52C2734.99 1686.1 2733.15 1681.9 2733.15 1676.92C2733.15 1671.27 2735.4 1666.61 2739.89 1662.94C2744.42 1659.23 2750.3 1657.38 2757.51 1657.38C2762.44 1657.38 2766.82 1658.33 2770.66 1660.23C2774.53 1662.14 2777.51 1664.76 2779.61 1668.11C2781.75 1671.45 2782.81 1675.11 2782.81 1679.08H2773.31C2773.31 1674.75 2771.94 1671.36 2769.18 1668.89C2766.42 1666.4 2762.54 1665.15 2757.51 1665.15C2752.86 1665.15 2749.21 1666.19 2746.59 1668.25C2744 1670.29 2742.7 1673.13 2742.7 1676.77C2742.7 1679.69 2743.93 1682.17 2746.39 1684.2C2748.89 1686.2 2753.1 1688.04 2759.04 1689.71C2765.01 1691.39 2769.67 1693.24 2773.02 1695.28C2776.4 1697.28 2778.89 1699.62 2780.5 1702.31C2782.14 1705 2782.96 1708.17 2782.96 1711.81C2782.96 1717.62 2780.7 1722.28 2776.17 1725.79C2771.64 1729.27 2765.59 1731.01 2758.01 1731.01C2753.09 1731.01 2748.49 1730.07 2744.23 1728.2C2739.96 1726.3 2736.66 1723.71 2734.33 1720.43C2732.04 1717.15 2730.89 1713.42 2730.89 1709.25H2740.39C2740.39 1713.59 2741.98 1717.01 2745.16 1719.54C2748.38 1722.03 2752.66 1723.28 2758.01 1723.28C2762.99 1723.28 2766.82 1722.26 2769.48 1720.23C2772.13 1718.2 2773.46 1715.42 2773.46 1711.91C2773.46 1708.4 2772.23 1705.69 2769.77 1703.79C2767.31 1701.85 2762.85 1699.95 2756.38 1698.08ZM2795.12 1730.02V1658.36H2815.35C2821.58 1658.36 2827.09 1659.74 2831.88 1662.5C2836.68 1665.25 2840.37 1669.17 2842.96 1674.26C2845.58 1679.35 2846.91 1685.19 2846.95 1691.78V1696.36C2846.95 1703.12 2845.63 1709.04 2843.01 1714.13C2840.42 1719.21 2836.69 1723.12 2831.84 1725.84C2827.01 1728.56 2821.38 1729.96 2814.95 1730.02H2795.12ZM2804.57 1666.14V1722.3H2814.51C2821.79 1722.3 2827.45 1720.03 2831.49 1715.5C2835.56 1710.98 2837.59 1704.53 2837.59 1696.16V1691.98C2837.59 1683.84 2835.67 1677.52 2831.84 1673.03C2828.03 1668.5 2822.61 1666.2 2815.59 1666.14H2804.57ZM2879.48 1696.7L2870.72 1705.81V1730.02H2861.27V1658.36H2870.72V1693.8L2902.56 1658.36H2913.98L2885.78 1690.01L2916.2 1730.02H2904.88L2879.48 1696.7Z" fill="white"/>
<path d="M3234.42 1511.89L3261.92 1539.38M3234.42 1539.38L3261.92 1511.89" stroke="white" stroke-width="9.16365"/>
<rect x="2376.64" y="1438.58" width="349.291" height="100.655" fill="black"/>
<path d="M2468.07 1491.94H2452.6V1507.91H2444.55V1468.82H2470V1475.35H2452.6V1485.44H2468.07V1491.94ZM2482.35 1507.91H2474.56V1478.86H2482.35V1507.91ZM2474.11 1471.35C2474.11 1470.18 2474.49 1469.22 2475.26 1468.47C2476.05 1467.72 2477.11 1467.35 2478.46 1467.35C2479.78 1467.35 2480.84 1467.72 2481.62 1468.47C2482.41 1469.22 2482.8 1470.18 2482.8 1471.35C2482.8 1472.53 2482.4 1473.49 2481.6 1474.24C2480.81 1475 2479.76 1475.37 2478.46 1475.37C2477.15 1475.37 2476.09 1475 2475.29 1474.24C2474.5 1473.49 2474.11 1472.53 2474.11 1471.35ZM2505.09 1486.14C2504.03 1485.99 2503.1 1485.92 2502.29 1485.92C2499.36 1485.92 2497.44 1486.92 2496.52 1488.9V1507.91H2488.76V1478.86H2496.09L2496.31 1482.33C2497.87 1479.66 2500.02 1478.33 2502.78 1478.33C2503.64 1478.33 2504.44 1478.44 2505.19 1478.67L2505.09 1486.14ZM2521.68 1508.45C2517.42 1508.45 2513.95 1507.14 2511.26 1504.53C2508.59 1501.91 2507.26 1498.43 2507.26 1494.08V1493.33C2507.26 1490.42 2507.83 1487.81 2508.95 1485.52C2510.08 1483.21 2511.67 1481.44 2513.73 1480.2C2515.81 1478.95 2518.17 1478.33 2520.82 1478.33C2524.79 1478.33 2527.92 1479.58 2530.19 1482.08C2532.48 1484.59 2533.62 1488.14 2533.62 1492.74V1495.91H2515.13C2515.38 1497.81 2516.13 1499.33 2517.38 1500.47C2518.65 1501.62 2520.26 1502.19 2522.19 1502.19C2525.18 1502.19 2527.51 1501.11 2529.2 1498.94L2533.01 1503.21C2531.84 1504.86 2530.27 1506.15 2528.28 1507.08C2526.3 1507.99 2524.09 1508.45 2521.68 1508.45ZM2520.79 1484.61C2519.25 1484.61 2518 1485.13 2517.03 1486.16C2516.09 1487.2 2515.48 1488.69 2515.21 1490.62H2526V1490C2525.96 1488.29 2525.5 1486.96 2524.6 1486.03C2523.71 1485.08 2522.44 1484.61 2520.79 1484.61ZM2553.79 1499.88C2553.79 1498.93 2553.31 1498.19 2552.36 1497.66C2551.43 1497.1 2549.93 1496.61 2547.85 1496.18C2540.95 1494.73 2537.49 1491.79 2537.49 1487.37C2537.49 1484.8 2538.56 1482.65 2540.69 1480.93C2542.83 1479.19 2545.63 1478.33 2549.09 1478.33C2552.78 1478.33 2555.72 1479.19 2557.92 1480.93C2560.14 1482.67 2561.25 1484.92 2561.25 1487.7H2553.49C2553.49 1486.59 2553.13 1485.67 2552.42 1484.96C2551.7 1484.22 2550.58 1483.86 2549.06 1483.86C2547.76 1483.86 2546.74 1484.15 2546.03 1484.74C2545.31 1485.33 2544.95 1486.08 2544.95 1487C2544.95 1487.86 2545.36 1488.55 2546.16 1489.09C2546.99 1489.61 2548.36 1490.07 2550.3 1490.46C2552.23 1490.84 2553.86 1491.27 2555.18 1491.75C2559.28 1493.25 2561.33 1495.86 2561.33 1499.56C2561.33 1502.21 2560.19 1504.36 2557.92 1506C2555.65 1507.63 2552.71 1508.45 2549.12 1508.45C2546.68 1508.45 2544.52 1508.02 2542.62 1507.16C2540.74 1506.28 2539.26 1505.09 2538.19 1503.59C2537.12 1502.07 2536.58 1500.43 2536.58 1498.68H2543.93C2544.01 1500.05 2544.52 1501.11 2545.46 1501.84C2546.41 1502.58 2547.68 1502.94 2549.28 1502.94C2550.76 1502.94 2551.88 1502.67 2552.63 1502.11C2553.4 1501.54 2553.79 1500.8 2553.79 1499.88ZM2575.64 1471.72V1478.86H2580.61V1484.55H2575.64V1499.05C2575.64 1500.13 2575.85 1500.89 2576.26 1501.36C2576.67 1501.83 2577.46 1502.06 2578.62 1502.06C2579.48 1502.06 2580.24 1502 2580.9 1501.87V1507.75C2579.38 1508.21 2577.81 1508.45 2576.2 1508.45C2570.76 1508.45 2567.99 1505.7 2567.88 1500.21V1484.55H2563.64V1478.86H2567.88V1471.72H2575.64ZM2582.92 1493.12C2582.92 1490.24 2583.47 1487.67 2584.58 1485.41C2585.69 1483.16 2587.28 1481.41 2589.36 1480.18C2591.45 1478.94 2593.88 1478.33 2596.63 1478.33C2600.55 1478.33 2603.75 1479.52 2606.22 1481.92C2608.71 1484.32 2610.09 1487.58 2610.38 1491.7L2610.43 1493.68C2610.43 1498.14 2609.19 1501.72 2606.7 1504.42C2604.21 1507.11 2600.88 1508.45 2596.69 1508.45C2592.5 1508.45 2589.15 1507.11 2586.65 1504.42C2584.16 1501.74 2582.92 1498.08 2582.92 1493.47V1493.12ZM2590.67 1493.68C2590.67 1496.44 2591.19 1498.55 2592.23 1500.02C2593.27 1501.47 2594.75 1502.19 2596.69 1502.19C2598.57 1502.19 2600.03 1501.48 2601.09 1500.04C2602.15 1498.59 2602.67 1496.29 2602.67 1493.12C2602.67 1490.42 2602.15 1488.32 2601.09 1486.84C2600.03 1485.35 2598.55 1484.61 2596.63 1484.61C2594.74 1484.61 2593.27 1485.35 2592.23 1486.84C2591.19 1488.3 2590.67 1490.59 2590.67 1493.68ZM2631.53 1486.14C2630.48 1485.99 2629.55 1485.92 2628.74 1485.92C2625.81 1485.92 2623.88 1486.92 2622.97 1488.9V1507.91H2615.21V1478.86H2622.54L2622.76 1482.33C2624.31 1479.66 2626.47 1478.33 2629.23 1478.33C2630.08 1478.33 2630.89 1478.44 2631.64 1478.67L2631.53 1486.14ZM2648.13 1508.45C2643.87 1508.45 2640.39 1507.14 2637.71 1504.53C2635.04 1501.91 2633.71 1498.43 2633.71 1494.08V1493.33C2633.71 1490.42 2634.27 1487.81 2635.4 1485.52C2636.53 1483.21 2638.12 1481.44 2640.18 1480.2C2642.26 1478.95 2644.62 1478.33 2647.27 1478.33C2651.24 1478.33 2654.36 1479.58 2656.64 1482.08C2658.93 1484.59 2660.07 1488.14 2660.07 1492.74V1495.91H2641.58C2641.83 1497.81 2642.58 1499.33 2643.83 1500.47C2645.1 1501.62 2646.7 1502.19 2648.64 1502.19C2651.62 1502.19 2653.96 1501.11 2655.64 1498.94L2659.46 1503.21C2658.29 1504.86 2656.72 1506.15 2654.73 1507.08C2652.74 1507.99 2650.54 1508.45 2648.13 1508.45ZM2647.24 1484.61C2645.7 1484.61 2644.45 1485.13 2643.48 1486.16C2642.53 1487.2 2641.92 1488.69 2641.66 1490.62H2652.45V1490C2652.41 1488.29 2651.95 1486.96 2651.05 1486.03C2650.16 1485.08 2648.89 1484.61 2647.24 1484.61Z" fill="white"/>
<rect x="2376.64" y="1438.58" width="349.291" height="100.655" stroke="white" stroke-width="9.16365"/>
<rect x="5288.58" y="1438.58" width="944.789" height="426.11" fill="black" stroke="white" stroke-width="9.16365"/>
<path d="M5616.96 1657.14H5586.89V1688.79H5577.44V1617.12H5621.84V1624.9H5586.89V1649.41H5616.96V1657.14ZM5641.62 1688.79H5632.52V1635.53H5641.62V1688.79ZM5631.78 1621.41C5631.78 1619.93 5632.22 1618.68 5633.11 1617.67C5634.03 1616.65 5635.37 1616.14 5637.14 1616.14C5638.91 1616.14 5640.26 1616.65 5641.18 1617.67C5642.1 1618.68 5642.56 1619.93 5642.56 1621.41C5642.56 1622.88 5642.1 1624.11 5641.18 1625.1C5640.26 1626.08 5638.91 1626.57 5637.14 1626.57C5635.37 1626.57 5634.03 1626.08 5633.11 1625.1C5632.22 1624.11 5631.78 1622.88 5631.78 1621.41ZM5681.98 1643.7C5680.6 1643.47 5679.11 1643.36 5677.5 1643.36C5671.53 1643.36 5667.48 1645.9 5665.35 1650.99V1688.79H5656.24V1635.53H5665.1L5665.25 1641.68C5668.23 1636.93 5672.47 1634.55 5677.95 1634.55C5679.72 1634.55 5681.06 1634.78 5681.98 1635.24V1643.7ZM5711.51 1689.77C5704.29 1689.77 5698.42 1687.41 5693.89 1682.68C5689.36 1677.93 5687.1 1671.58 5687.1 1663.64V1661.96C5687.1 1656.68 5688.1 1651.97 5690.1 1647.84C5692.14 1643.67 5694.96 1640.42 5698.57 1638.09C5702.21 1635.73 5706.15 1634.55 5710.38 1634.55C5717.3 1634.55 5722.68 1636.83 5726.52 1641.39C5730.36 1645.95 5732.28 1652.48 5732.28 1660.98V1664.77H5696.21C5696.34 1670.02 5697.86 1674.27 5700.78 1677.52C5703.74 1680.73 5707.48 1682.34 5712 1682.34C5715.22 1682.34 5717.94 1681.68 5720.17 1680.37C5722.41 1679.06 5724.36 1677.32 5726.03 1675.15L5731.59 1679.48C5727.13 1686.34 5720.44 1689.77 5711.51 1689.77ZM5710.38 1642.03C5706.71 1642.03 5703.62 1643.37 5701.13 1646.06C5698.63 1648.72 5697.09 1652.46 5696.5 1657.29H5723.18V1656.6C5722.91 1651.97 5721.67 1648.39 5719.44 1645.87C5717.21 1643.31 5714.19 1642.03 5710.38 1642.03ZM5787.95 1662.75C5787.95 1670.89 5786.08 1677.43 5782.34 1682.39C5778.6 1687.31 5773.58 1689.77 5767.28 1689.77C5760.55 1689.77 5755.35 1687.39 5751.67 1682.63L5751.23 1688.79H5742.86V1613.19H5751.97V1641.39C5755.65 1636.83 5760.71 1634.55 5767.18 1634.55C5773.64 1634.55 5778.71 1636.99 5782.39 1641.88C5786.1 1646.77 5787.95 1653.46 5787.95 1661.96V1662.75ZM5778.84 1661.72C5778.84 1655.51 5777.65 1650.72 5775.25 1647.34C5772.86 1643.96 5769.41 1642.27 5764.91 1642.27C5758.91 1642.27 5754.6 1645.06 5751.97 1650.64V1673.68C5754.76 1679.25 5759.11 1682.04 5765.01 1682.04C5769.38 1682.04 5772.77 1680.35 5775.2 1676.97C5777.63 1673.59 5778.84 1668.51 5778.84 1661.72ZM5832.34 1688.79C5831.82 1687.74 5831.39 1685.87 5831.06 1683.18C5826.83 1687.57 5821.78 1689.77 5815.91 1689.77C5810.66 1689.77 5806.34 1688.29 5802.96 1685.34C5799.61 1682.36 5797.94 1678.58 5797.94 1674.02C5797.94 1668.48 5800.04 1664.18 5804.24 1661.13C5808.47 1658.04 5814.41 1656.5 5822.06 1656.5H5830.92V1652.32C5830.92 1649.13 5829.97 1646.61 5828.06 1644.74C5826.16 1642.83 5823.35 1641.88 5819.65 1641.88C5816.4 1641.88 5813.67 1642.7 5811.48 1644.34C5809.28 1645.98 5808.18 1647.97 5808.18 1650.3H5799.02C5799.02 1647.64 5799.96 1645.08 5801.83 1642.62C5803.73 1640.13 5806.29 1638.16 5809.51 1636.71C5812.76 1635.27 5816.32 1634.55 5820.19 1634.55C5826.32 1634.55 5831.13 1636.09 5834.61 1639.17C5838.09 1642.23 5839.89 1646.44 5840.02 1651.82V1676.33C5840.02 1681.22 5840.65 1685.11 5841.89 1688V1688.79H5832.34ZM5817.23 1681.85C5820.09 1681.85 5822.8 1681.11 5825.36 1679.63C5827.91 1678.16 5829.77 1676.24 5830.92 1673.87V1662.95H5823.78C5812.62 1662.95 5807.05 1666.21 5807.05 1672.74C5807.05 1675.6 5808 1677.83 5809.9 1679.44C5811.8 1681.04 5814.25 1681.85 5817.23 1681.85ZM5885.3 1674.66C5885.3 1672.2 5884.37 1670.3 5882.5 1668.95C5880.66 1667.57 5877.43 1666.39 5872.8 1665.41C5868.21 1664.42 5864.55 1663.24 5861.83 1661.86C5859.14 1660.49 5857.13 1658.85 5855.82 1656.94C5854.54 1655.04 5853.9 1652.77 5853.9 1650.15C5853.9 1645.79 5855.74 1642.09 5859.41 1639.08C5863.12 1636.06 5867.85 1634.55 5873.59 1634.55C5879.63 1634.55 5884.52 1636.11 5888.26 1639.22C5892.03 1642.34 5893.92 1646.33 5893.92 1651.18H5884.76C5884.76 1648.69 5883.7 1646.54 5881.56 1644.74C5879.46 1642.93 5876.81 1642.03 5873.59 1642.03C5870.28 1642.03 5867.68 1642.75 5865.81 1644.19C5863.94 1645.64 5863.01 1647.52 5863.01 1649.85C5863.01 1652.05 5863.88 1653.71 5865.62 1654.83C5867.36 1655.94 5870.49 1657.01 5875.02 1658.02C5879.58 1659.04 5883.27 1660.26 5886.09 1661.67C5888.91 1663.08 5891 1664.78 5892.34 1666.79C5893.72 1668.75 5894.41 1671.17 5894.41 1674.02C5894.41 1678.78 5892.51 1682.6 5888.7 1685.49C5884.89 1688.34 5879.96 1689.77 5873.89 1689.77C5869.62 1689.77 5865.85 1689.02 5862.56 1687.51C5859.28 1686 5856.71 1683.9 5854.84 1681.21C5853 1678.48 5852.08 1675.55 5852.08 1672.4H5861.19C5861.35 1675.45 5862.56 1677.88 5864.83 1679.68C5867.13 1681.45 5870.14 1682.34 5873.89 1682.34C5877.33 1682.34 5880.09 1681.65 5882.15 1680.27C5884.25 1678.86 5885.3 1676.99 5885.3 1674.66ZM5928.37 1689.77C5921.15 1689.77 5915.28 1687.41 5910.75 1682.68C5906.22 1677.93 5903.96 1671.58 5903.96 1663.64V1661.96C5903.96 1656.68 5904.96 1651.97 5906.96 1647.84C5908.99 1643.67 5911.82 1640.42 5915.43 1638.09C5919.07 1635.73 5923.01 1634.55 5927.24 1634.55C5934.16 1634.55 5939.54 1636.83 5943.38 1641.39C5947.22 1645.95 5949.14 1652.48 5949.14 1660.98V1664.77H5913.06C5913.19 1670.02 5914.72 1674.27 5917.64 1677.52C5920.59 1680.73 5924.33 1682.34 5928.86 1682.34C5932.08 1682.34 5934.8 1681.68 5937.03 1680.37C5939.26 1679.06 5941.22 1677.32 5942.89 1675.15L5948.45 1679.48C5943.99 1686.34 5937.3 1689.77 5928.37 1689.77ZM5927.24 1642.03C5923.56 1642.03 5920.48 1643.37 5917.99 1646.06C5915.49 1648.72 5913.95 1652.46 5913.36 1657.29H5940.04V1656.6C5939.77 1651.97 5938.53 1648.39 5936.29 1645.87C5934.06 1643.31 5931.04 1642.03 5927.24 1642.03Z" fill="white"/>
<path d="M6173.85 1470.65L6201.34 1498.15M6173.85 1498.15L6201.34 1470.65" stroke="white" stroke-width="9.16365"/>
<rect x="5316.07" y="1397.35" width="349.291" height="100.655" fill="black"/>
<path d="M5407.49 1450.7H5392.03V1466.67H5383.98V1427.58H5409.43V1434.11H5392.03V1444.2H5407.49V1450.7ZM5421.78 1466.67H5413.99V1437.62H5421.78V1466.67ZM5413.53 1430.11C5413.53 1428.94 5413.92 1427.99 5414.69 1427.24C5415.48 1426.48 5416.54 1426.11 5417.88 1426.11C5419.21 1426.11 5420.26 1426.48 5421.05 1427.24C5421.84 1427.99 5422.23 1428.94 5422.23 1430.11C5422.23 1431.29 5421.83 1432.26 5421.02 1433.01C5420.24 1433.76 5419.19 1434.13 5417.88 1434.13C5416.58 1434.13 5415.52 1433.76 5414.72 1433.01C5413.93 1432.26 5413.53 1431.29 5413.53 1430.11ZM5444.52 1444.9C5443.46 1444.76 5442.53 1444.69 5441.72 1444.69C5438.79 1444.69 5436.86 1445.68 5435.95 1447.67V1466.67H5428.19V1437.62H5435.52L5435.74 1441.09C5437.29 1438.42 5439.45 1437.09 5442.21 1437.09C5443.07 1437.09 5443.87 1437.2 5444.62 1437.44L5444.52 1444.9ZM5461.11 1467.21C5456.85 1467.21 5453.38 1465.9 5450.69 1463.29C5448.02 1460.68 5446.69 1457.2 5446.69 1452.85V1452.1C5446.69 1449.18 5447.25 1446.57 5448.38 1444.28C5449.51 1441.97 5451.1 1440.2 5453.16 1438.97C5455.24 1437.71 5457.6 1437.09 5460.25 1437.09C5464.22 1437.09 5467.34 1438.34 5469.62 1440.85C5471.91 1443.35 5473.05 1446.9 5473.05 1451.5V1454.67H5454.56C5454.81 1456.57 5455.56 1458.09 5456.81 1459.24C5458.08 1460.38 5459.68 1460.95 5461.62 1460.95C5464.61 1460.95 5466.94 1459.87 5468.62 1457.71L5472.44 1461.97C5471.27 1463.62 5469.7 1464.91 5467.71 1465.84C5465.72 1466.75 5463.52 1467.21 5461.11 1467.21ZM5460.22 1443.37C5458.68 1443.37 5457.43 1443.89 5456.46 1444.93C5455.51 1445.97 5454.91 1447.45 5454.64 1449.38H5465.43V1448.77C5465.39 1447.05 5464.93 1445.72 5464.03 1444.79C5463.14 1443.84 5461.87 1443.37 5460.22 1443.37ZM5493.22 1458.65C5493.22 1457.7 5492.74 1456.95 5491.79 1456.42C5490.86 1455.86 5489.36 1455.37 5487.28 1454.94C5480.37 1453.49 5476.92 1450.56 5476.92 1446.14C5476.92 1443.56 5477.98 1441.41 5480.11 1439.69C5482.26 1437.96 5485.06 1437.09 5488.52 1437.09C5492.2 1437.09 5495.15 1437.96 5497.35 1439.69C5499.57 1441.43 5500.68 1443.68 5500.68 1446.46H5492.92C5492.92 1445.35 5492.56 1444.43 5491.85 1443.72C5491.13 1442.99 5490.01 1442.62 5488.49 1442.62C5487.18 1442.62 5486.17 1442.91 5485.46 1443.5C5484.74 1444.09 5484.38 1444.85 5484.38 1445.76C5484.38 1446.62 5484.79 1447.32 5485.59 1447.85C5486.41 1448.37 5487.79 1448.83 5489.73 1449.22C5491.66 1449.6 5493.29 1450.03 5494.61 1450.51C5498.71 1452.01 5500.76 1454.62 5500.76 1458.32C5500.76 1460.97 5499.62 1463.12 5497.35 1464.77C5495.08 1466.4 5492.14 1467.21 5488.54 1467.21C5486.11 1467.21 5483.94 1466.78 5482.05 1465.92C5480.17 1465.04 5478.69 1463.85 5477.62 1462.35C5476.54 1460.83 5476.01 1459.19 5476.01 1457.44H5483.36C5483.43 1458.82 5483.94 1459.87 5484.89 1460.61C5485.84 1461.34 5487.11 1461.71 5488.71 1461.71C5490.19 1461.71 5491.31 1461.43 5492.06 1460.87C5492.83 1460.3 5493.22 1459.56 5493.22 1458.65ZM5515.07 1430.48V1437.62H5520.04V1443.32H5515.07V1457.81C5515.07 1458.89 5515.27 1459.66 5515.69 1460.12C5516.1 1460.59 5516.89 1460.82 5518.05 1460.82C5518.91 1460.82 5519.67 1460.76 5520.33 1460.63V1466.51C5518.81 1466.98 5517.24 1467.21 5515.63 1467.21C5510.19 1467.21 5507.42 1464.46 5507.31 1458.97V1443.32H5503.07V1437.62H5507.31V1430.48H5515.07ZM5522.34 1451.88C5522.34 1449 5522.9 1446.43 5524.01 1444.18C5525.12 1441.92 5526.71 1440.18 5528.79 1438.94C5530.88 1437.71 5533.31 1437.09 5536.06 1437.09C5539.98 1437.09 5543.18 1438.29 5545.65 1440.69C5548.13 1443.08 5549.52 1446.34 5549.81 1450.46L5549.86 1452.44C5549.86 1456.9 5548.62 1460.48 5546.13 1463.18C5543.64 1465.87 5540.3 1467.21 5536.12 1467.21C5531.93 1467.21 5528.58 1465.87 5526.08 1463.18C5523.59 1460.5 5522.34 1456.85 5522.34 1452.23V1451.88ZM5530.1 1452.44C5530.1 1455.2 5530.62 1457.31 5531.66 1458.78C5532.7 1460.23 5534.18 1460.95 5536.12 1460.95C5538 1460.95 5539.46 1460.24 5540.52 1458.81C5541.58 1457.36 5542.1 1455.05 5542.1 1451.88C5542.1 1449.18 5541.58 1447.08 5540.52 1445.6C5539.46 1444.11 5537.98 1443.37 5536.06 1443.37C5534.17 1443.37 5532.7 1444.11 5531.66 1445.6C5530.62 1447.07 5530.1 1449.35 5530.1 1452.44ZM5570.96 1444.9C5569.91 1444.76 5568.98 1444.69 5568.17 1444.69C5565.24 1444.69 5563.31 1445.68 5562.4 1447.67V1466.67H5554.64V1437.62H5561.97L5562.18 1441.09C5563.74 1438.42 5565.9 1437.09 5568.65 1437.09C5569.51 1437.09 5570.32 1437.2 5571.07 1437.44L5570.96 1444.9ZM5587.55 1467.21C5583.29 1467.21 5579.82 1465.9 5577.14 1463.29C5574.47 1460.68 5573.14 1457.2 5573.14 1452.85V1452.1C5573.14 1449.18 5573.7 1446.57 5574.83 1444.28C5575.96 1441.97 5577.55 1440.2 5579.61 1438.97C5581.68 1437.71 5584.05 1437.09 5586.7 1437.09C5590.67 1437.09 5593.79 1438.34 5596.06 1440.85C5598.36 1443.35 5599.5 1446.9 5599.5 1451.5V1454.67H5581C5581.25 1456.57 5582.01 1458.09 5583.26 1459.24C5584.53 1460.38 5586.13 1460.95 5588.06 1460.95C5591.05 1460.95 5593.39 1459.87 5595.07 1457.71L5598.88 1461.97C5597.72 1463.62 5596.15 1464.91 5594.16 1465.84C5592.17 1466.75 5589.97 1467.21 5587.55 1467.21ZM5586.67 1443.37C5585.13 1443.37 5583.88 1443.89 5582.91 1444.93C5581.96 1445.97 5581.35 1447.45 5581.08 1449.38H5591.88V1448.77C5591.84 1447.05 5591.38 1445.72 5590.48 1444.79C5589.59 1443.84 5588.32 1443.37 5586.67 1443.37Z" fill="white"/>
<rect x="5316.07" y="1397.35" width="349.291" height="100.655" stroke="white" stroke-width="9.16365"/>
<path fill-rule="evenodd" clip-rule="evenodd" d="M1295.25 1725.71H2330.15V1720.5H1295.39C1295.39 1720.85 1295.39 1721.2 1295.39 1721.54C1295.39 1722.95 1295.35 1724.33 1295.25 1725.71ZM1173.03 1725.71C1172.94 1724.33 1172.89 1722.95 1172.89 1721.54C1172.89 1721.2 1172.89 1720.85 1172.9 1720.5H1060.82V1725.71H1173.03Z" fill="black"/>
<path d="M2269.87 1660.55L2332.42 1723.11L2269.87 1785.66" stroke="black" stroke-width="5.21285"/>
<circle cx="1234.14" cy="1721.54" r="50.8253" stroke="black" stroke-width="5.21285"/>
<path d="M1209.38 1722.85L1225.02 1738.49L1256.3 1707.21" stroke="black" stroke-width="5.21285"/>
<rect width="666.771" height="224.386" transform="translate(1180.71 1602.95)" fill="#003245"/>
<path d="M1362.29 1723.45C1362.29 1721.86 1361.73 1720.65 1360.61 1719.81C1359.49 1718.95 1357.47 1718.06 1354.56 1717.12C1351.65 1716.17 1349.34 1715.24 1347.64 1714.32C1343.02 1711.82 1340.7 1708.45 1340.7 1704.21C1340.7 1702.01 1341.32 1700.05 1342.55 1698.33C1343.8 1696.6 1345.58 1695.25 1347.9 1694.27C1350.23 1693.3 1352.84 1692.82 1355.74 1692.82C1358.65 1692.82 1361.24 1693.35 1363.52 1694.41C1365.8 1695.46 1367.56 1696.94 1368.81 1698.87C1370.08 1700.79 1370.72 1702.97 1370.72 1705.42H1362.32C1362.32 1703.55 1361.73 1702.11 1360.55 1701.08C1359.38 1700.03 1357.72 1699.51 1355.6 1699.51C1353.54 1699.51 1351.95 1699.95 1350.81 1700.83C1349.67 1701.69 1349.1 1702.82 1349.1 1704.24C1349.1 1705.57 1349.76 1706.68 1351.09 1707.57C1352.43 1708.47 1354.4 1709.31 1357 1710.09C1361.77 1711.53 1365.26 1713.31 1367.44 1715.44C1369.62 1717.57 1370.72 1720.22 1370.72 1723.39C1370.72 1726.92 1369.38 1729.69 1366.71 1731.71C1364.04 1733.71 1360.45 1734.7 1355.93 1734.7C1352.8 1734.7 1349.94 1734.14 1347.36 1733C1344.79 1731.84 1342.82 1730.26 1341.46 1728.27C1340.11 1726.27 1339.44 1723.95 1339.44 1721.32H1347.87C1347.87 1725.82 1350.56 1728.07 1355.93 1728.07C1357.93 1728.07 1359.49 1727.67 1360.61 1726.87C1361.73 1726.04 1362.29 1724.91 1362.29 1723.45ZM1376.43 1734.15V1693.38H1388.97C1392.55 1693.38 1395.76 1694.19 1398.57 1695.81C1401.41 1697.42 1403.62 1699.72 1405.21 1702.7C1406.8 1705.67 1407.59 1709.05 1407.59 1712.84V1714.71C1407.59 1718.5 1406.81 1721.87 1405.24 1724.82C1403.69 1727.77 1401.5 1730.06 1398.66 1731.68C1395.82 1733.31 1392.62 1734.13 1389.05 1734.15H1376.43ZM1384.83 1700.18V1727.4H1388.89C1392.17 1727.4 1394.68 1726.32 1396.42 1724.18C1398.15 1722.03 1399.04 1718.96 1399.08 1714.97V1712.81C1399.08 1708.67 1398.22 1705.53 1396.5 1703.4C1394.78 1701.26 1392.27 1700.18 1388.97 1700.18H1384.83ZM1426.49 1717.79L1422.12 1722.5V1734.15H1413.72V1693.38H1422.12V1711.86L1425.82 1706.79L1436.2 1693.38H1446.54L1432.06 1711.49L1446.96 1734.15H1436.96L1426.49 1717.79ZM1488.93 1717.49H1472.8V1734.15H1464.4V1693.38H1490.94V1700.18H1472.8V1710.71H1488.93V1717.49ZM1503.82 1734.15H1495.7V1703.85H1503.82V1734.15ZM1495.23 1696.01C1495.23 1694.8 1495.63 1693.8 1496.43 1693.01C1497.25 1692.23 1498.36 1691.84 1499.76 1691.84C1501.14 1691.84 1502.24 1692.23 1503.07 1693.01C1503.89 1693.8 1504.3 1694.8 1504.3 1696.01C1504.3 1697.24 1503.88 1698.25 1503.04 1699.03C1502.22 1699.82 1501.12 1700.21 1499.76 1700.21C1498.4 1700.21 1497.3 1699.82 1496.46 1699.03C1495.64 1698.25 1495.23 1697.24 1495.23 1696.01ZM1527.54 1711.44C1526.43 1711.29 1525.46 1711.21 1524.62 1711.21C1521.56 1711.21 1519.56 1712.25 1518.6 1714.32V1734.15H1510.51V1703.85H1518.16L1518.38 1707.46C1520 1704.68 1522.25 1703.29 1525.13 1703.29C1526.02 1703.29 1526.86 1703.41 1527.65 1703.65L1527.54 1711.44ZM1544.84 1734.7C1540.4 1734.7 1536.78 1733.34 1533.98 1730.62C1531.19 1727.89 1529.8 1724.26 1529.8 1719.73V1718.94C1529.8 1715.9 1530.39 1713.18 1531.57 1710.79C1532.74 1708.39 1534.41 1706.54 1536.55 1705.25C1538.72 1703.94 1541.18 1703.29 1543.94 1703.29C1548.09 1703.29 1551.34 1704.6 1553.71 1707.21C1556.1 1709.82 1557.3 1713.53 1557.3 1718.33V1721.63H1538.01C1538.27 1723.61 1539.05 1725.19 1540.36 1726.39C1541.68 1727.58 1543.36 1728.18 1545.37 1728.18C1548.49 1728.18 1550.92 1727.05 1552.68 1724.79L1556.65 1729.25C1555.44 1730.96 1553.8 1732.31 1551.73 1733.28C1549.66 1734.23 1547.36 1734.7 1544.84 1734.7ZM1543.92 1709.84C1542.31 1709.84 1541 1710.38 1540 1711.47C1539.01 1712.55 1538.37 1714.1 1538.09 1716.11H1549.35V1715.47C1549.31 1713.68 1548.82 1712.3 1547.89 1711.33C1546.96 1710.34 1545.63 1709.84 1543.92 1709.84ZM1578.33 1725.77C1578.33 1724.78 1577.83 1724.01 1576.84 1723.45C1575.87 1722.87 1574.3 1722.36 1572.14 1721.91C1564.93 1720.4 1561.33 1717.34 1561.33 1712.73C1561.33 1710.04 1562.44 1707.8 1564.66 1706.01C1566.9 1704.2 1569.82 1703.29 1573.43 1703.29C1577.27 1703.29 1580.34 1704.2 1582.64 1706.01C1584.95 1707.82 1586.11 1710.17 1586.11 1713.06H1578.02C1578.02 1711.9 1577.64 1710.95 1576.9 1710.21C1576.15 1709.44 1574.98 1709.06 1573.4 1709.06C1572.04 1709.06 1570.98 1709.37 1570.23 1709.98C1569.49 1710.6 1569.11 1711.38 1569.11 1712.33C1569.11 1713.23 1569.53 1713.96 1570.37 1714.52C1571.23 1715.06 1572.67 1715.54 1574.69 1715.95C1576.7 1716.34 1578.4 1716.79 1579.78 1717.29C1584.06 1718.86 1586.19 1721.57 1586.19 1725.44C1586.19 1728.2 1585.01 1730.44 1582.64 1732.16C1580.27 1733.86 1577.21 1734.7 1573.45 1734.7C1570.92 1734.7 1568.66 1734.26 1566.68 1733.36C1564.72 1732.45 1563.18 1731.21 1562.06 1729.64C1560.94 1728.05 1560.38 1726.34 1560.38 1724.51H1568.05C1568.12 1725.95 1568.66 1727.05 1569.65 1727.82C1570.64 1728.58 1571.96 1728.97 1573.62 1728.97C1575.17 1728.97 1576.34 1728.68 1577.12 1728.1C1577.92 1727.5 1578.33 1726.73 1578.33 1725.77ZM1601.12 1696.4V1703.85H1606.3V1709.79H1601.12V1724.91C1601.12 1726.03 1601.33 1726.83 1601.76 1727.31C1602.19 1727.8 1603.01 1728.04 1604.22 1728.04C1605.12 1728.04 1605.91 1727.98 1606.6 1727.85V1733.98C1605.02 1734.46 1603.38 1734.7 1601.7 1734.7C1596.03 1734.7 1593.14 1731.84 1593.03 1726.11V1709.79H1588.6V1703.85H1593.03V1696.4H1601.12ZM1608.7 1718.72C1608.7 1715.71 1609.28 1713.03 1610.44 1710.68C1611.6 1708.33 1613.26 1706.51 1615.42 1705.22C1617.61 1703.93 1620.14 1703.29 1623.01 1703.29C1627.1 1703.29 1630.43 1704.54 1633.01 1707.04C1635.6 1709.54 1637.05 1712.94 1637.35 1717.23L1637.4 1719.31C1637.4 1723.95 1636.11 1727.69 1633.51 1730.51C1630.92 1733.31 1627.44 1734.7 1623.07 1734.7C1618.7 1734.7 1615.21 1733.31 1612.6 1730.51C1610 1727.71 1608.7 1723.9 1608.7 1719.08V1718.72ZM1616.8 1719.31C1616.8 1722.18 1617.34 1724.38 1618.42 1725.91C1619.5 1727.43 1621.05 1728.18 1623.07 1728.18C1625.03 1728.18 1626.56 1727.43 1627.66 1725.94C1628.76 1724.43 1629.31 1722.02 1629.31 1718.72C1629.31 1715.9 1628.76 1713.72 1627.66 1712.17C1626.56 1710.62 1625.01 1709.84 1623.01 1709.84C1621.03 1709.84 1619.5 1710.62 1618.42 1712.17C1617.34 1713.7 1616.8 1716.08 1616.8 1719.31ZM1659.41 1711.44C1658.31 1711.29 1657.34 1711.21 1656.5 1711.21C1653.44 1711.21 1651.43 1712.25 1650.48 1714.32V1734.15H1642.39V1703.85H1650.03L1650.25 1707.46C1651.88 1704.68 1654.13 1703.29 1657 1703.29C1657.9 1703.29 1658.74 1703.41 1659.52 1703.65L1659.41 1711.44ZM1676.71 1734.7C1672.27 1734.7 1668.65 1733.34 1665.85 1730.62C1663.07 1727.89 1661.68 1724.26 1661.68 1719.73V1718.94C1661.68 1715.9 1662.27 1713.18 1663.44 1710.79C1664.62 1708.39 1666.28 1706.54 1668.43 1705.25C1670.59 1703.94 1673.05 1703.29 1675.82 1703.29C1679.96 1703.29 1683.22 1704.6 1685.59 1707.21C1687.98 1709.82 1689.17 1713.53 1689.17 1718.33V1721.63H1669.88C1670.14 1723.61 1670.93 1725.19 1672.23 1726.39C1673.56 1727.58 1675.23 1728.18 1677.25 1728.18C1680.36 1728.18 1682.8 1727.05 1684.55 1724.79L1688.53 1729.25C1687.32 1730.96 1685.67 1732.31 1683.6 1733.28C1681.53 1734.23 1679.23 1734.7 1676.71 1734.7ZM1675.79 1709.84C1674.18 1709.84 1672.88 1710.38 1671.87 1711.47C1670.88 1712.55 1670.25 1714.1 1669.97 1716.11H1681.22V1715.47C1681.18 1713.68 1680.7 1712.3 1679.77 1711.33C1678.83 1710.34 1677.51 1709.84 1675.79 1709.84Z" fill="white"/>
<path fill-rule="evenodd" clip-rule="evenodd" d="M5088.56 1709.61L3321 1709.61V1704.39L5088.43 1704.39C5088.42 1704.74 5088.42 1705.09 5088.42 1705.44C5088.42 1706.84 5088.47 1708.23 5088.56 1709.61ZM5210.78 1709.61C5210.88 1708.23 5210.92 1706.84 5210.92 1705.44C5210.92 1705.09 5210.92 1704.74 5210.91 1704.39H5323V1709.61H5210.78Z" fill="black"/>
<path d="M3380.95 1644.45L3318.39 1707L3380.95 1769.55" stroke="black" stroke-width="5.21285"/>
<circle r="50.8253" transform="matrix(-1 0 0 1 5149.67 1705.44)" stroke="black" stroke-width="5.21285"/>
<path d="M5174.43 1706.74L5158.8 1722.38L5127.52 1691.1" stroke="black" stroke-width="5.21285"/>
<rect width="641.606" height="224.386" transform="translate(4594 1577)" fill="#003245"/>
<path d="M4775.58 1697.5C4775.58 1695.91 4775.02 1694.7 4773.9 1693.86C4772.78 1693 4770.76 1692.1 4767.85 1691.17C4764.94 1690.22 4762.63 1689.28 4760.93 1688.37C4756.3 1685.87 4753.99 1682.5 4753.99 1678.26C4753.99 1676.06 4754.61 1674.1 4755.84 1672.38C4757.09 1670.65 4758.87 1669.29 4761.19 1668.32C4763.52 1667.35 4766.13 1666.87 4769.02 1666.87C4771.94 1666.87 4774.53 1667.4 4776.81 1668.46C4779.09 1669.51 4780.85 1670.99 4782.1 1672.91C4783.37 1674.84 4784 1677.02 4784 1679.47H4775.6C4775.6 1677.6 4775.02 1676.15 4773.84 1675.13C4772.66 1674.08 4771.01 1673.56 4768.88 1673.56C4766.83 1673.56 4765.24 1674 4764.1 1674.87C4762.96 1675.73 4762.39 1676.87 4762.39 1678.29C4762.39 1679.62 4763.05 1680.73 4764.38 1681.62C4765.72 1682.52 4767.69 1683.36 4770.28 1684.14C4775.06 1685.58 4778.54 1687.36 4780.73 1689.49C4782.91 1691.62 4784 1694.27 4784 1697.44C4784 1700.97 4782.67 1703.74 4780 1705.76C4777.33 1707.75 4773.74 1708.75 4769.22 1708.75C4766.09 1708.75 4763.23 1708.18 4760.65 1707.04C4758.08 1705.89 4756.11 1704.31 4754.75 1702.31C4753.4 1700.32 4752.73 1698 4752.73 1695.37H4761.16C4761.16 1699.87 4763.85 1702.12 4769.22 1702.12C4771.22 1702.12 4772.78 1701.72 4773.9 1700.91C4775.02 1700.09 4775.58 1698.95 4775.58 1697.5ZM4789.72 1708.19V1667.43H4802.26C4805.84 1667.43 4809.04 1668.24 4811.86 1669.86C4814.7 1671.47 4816.91 1673.76 4818.5 1676.75C4820.09 1679.72 4820.88 1683.1 4820.88 1686.89V1688.76C4820.88 1692.55 4820.09 1695.92 4818.53 1698.87C4816.98 1701.82 4814.78 1704.11 4811.95 1705.73C4809.11 1707.35 4805.91 1708.17 4802.34 1708.19H4789.72ZM4798.12 1674.23V1701.45H4802.18C4805.46 1701.45 4807.97 1700.37 4809.71 1698.23C4811.44 1696.08 4812.33 1693.01 4812.37 1689.01V1686.86C4812.37 1682.71 4811.51 1679.58 4809.79 1677.45C4808.07 1675.3 4805.56 1674.23 4802.26 1674.23H4798.12ZM4839.78 1691.84L4835.41 1696.55V1708.19H4827.01V1667.43H4835.41V1685.91L4839.11 1680.84L4849.49 1667.43H4859.82L4845.35 1685.54L4860.24 1708.19H4850.25L4839.78 1691.84ZM4902.21 1691.53H4886.09V1708.19H4877.69V1667.43H4904.23V1674.23H4886.09V1684.76H4902.21V1691.53ZM4917.11 1708.19H4908.99V1677.9H4917.11V1708.19ZM4908.51 1670.06C4908.51 1668.85 4908.92 1667.85 4909.72 1667.06C4910.54 1666.28 4911.65 1665.89 4913.05 1665.89C4914.43 1665.89 4915.53 1666.28 4916.35 1667.06C4917.18 1667.85 4917.59 1668.85 4917.59 1670.06C4917.59 1671.29 4917.17 1672.3 4916.33 1673.08C4915.5 1673.87 4914.41 1674.26 4913.05 1674.26C4911.69 1674.26 4910.59 1673.87 4909.75 1673.08C4908.93 1672.3 4908.51 1671.29 4908.51 1670.06ZM4940.83 1685.49C4939.72 1685.34 4938.75 1685.26 4937.91 1685.26C4934.85 1685.26 4932.85 1686.3 4931.89 1688.37V1708.19H4923.8V1677.9H4931.45L4931.67 1681.51C4933.29 1678.73 4935.54 1677.34 4938.42 1677.34C4939.31 1677.34 4940.15 1677.46 4940.94 1677.7L4940.83 1685.49ZM4958.13 1708.75C4953.69 1708.75 4950.06 1707.39 4947.26 1704.67C4944.48 1701.94 4943.09 1698.31 4943.09 1693.77V1692.99C4943.09 1689.95 4943.68 1687.23 4944.86 1684.84C4946.03 1682.43 4947.69 1680.59 4949.84 1679.3C4952.01 1677.99 4954.47 1677.34 4957.23 1677.34C4961.38 1677.34 4964.63 1678.64 4967 1681.26C4969.39 1683.87 4970.59 1687.58 4970.59 1692.37V1695.68H4951.3C4951.56 1697.66 4952.34 1699.24 4953.65 1700.44C4954.97 1701.63 4956.64 1702.23 4958.66 1702.23C4961.78 1702.23 4964.21 1701.1 4965.97 1698.84L4969.94 1703.29C4968.73 1705.01 4967.09 1706.35 4965.02 1707.32C4962.94 1708.28 4960.65 1708.75 4958.13 1708.75ZM4957.2 1683.89C4955.6 1683.89 4954.29 1684.43 4953.28 1685.51C4952.3 1686.6 4951.66 1688.15 4951.38 1690.16H4962.64V1689.52C4962.6 1687.73 4962.11 1686.34 4961.18 1685.37C4960.25 1684.38 4958.92 1683.89 4957.2 1683.89ZM4991.61 1699.82C4991.61 1698.83 4991.12 1698.06 4990.13 1697.5C4989.16 1696.92 4987.59 1696.41 4985.43 1695.96C4978.22 1694.45 4974.62 1691.38 4974.62 1686.77C4974.62 1684.09 4975.73 1681.85 4977.95 1680.05C4980.19 1678.24 4983.11 1677.34 4986.72 1677.34C4990.56 1677.34 4993.63 1678.24 4995.93 1680.05C4998.24 1681.86 4999.4 1684.22 4999.4 1687.11H4991.31C4991.31 1685.95 4990.93 1685 4990.19 1684.25C4989.44 1683.49 4988.27 1683.11 4986.69 1683.11C4985.32 1683.11 4984.27 1683.41 4983.52 1684.03C4982.78 1684.65 4982.4 1685.43 4982.4 1686.38C4982.4 1687.28 4982.82 1688.01 4983.66 1688.57C4984.52 1689.11 4985.96 1689.58 4987.97 1689.99C4989.99 1690.39 4991.69 1690.83 4993.07 1691.34C4997.35 1692.91 4999.48 1695.62 4999.48 1699.49C4999.48 1702.25 4998.3 1704.49 4995.93 1706.2C4993.56 1707.9 4990.49 1708.75 4986.74 1708.75C4984.2 1708.75 4981.95 1708.3 4979.97 1707.41C4978.01 1706.49 4976.47 1705.25 4975.35 1703.69C4974.23 1702.1 4973.67 1700.39 4973.67 1698.56H4981.34C4981.41 1700 4981.95 1701.1 4982.94 1701.87C4983.92 1702.63 4985.25 1703.01 4986.91 1703.01C4988.46 1703.01 4989.63 1702.72 4990.41 1702.15C4991.21 1701.55 4991.61 1700.77 4991.61 1699.82ZM5014.41 1670.45V1677.9H5019.59V1683.83H5014.41V1698.95C5014.41 1700.07 5014.62 1700.88 5015.05 1701.36C5015.48 1701.85 5016.3 1702.09 5017.51 1702.09C5018.41 1702.09 5019.2 1702.02 5019.89 1701.89V1708.02C5018.31 1708.51 5016.67 1708.75 5014.99 1708.75C5009.32 1708.75 5006.43 1705.89 5006.31 1700.16V1683.83H5001.89V1677.9H5006.31V1670.45H5014.41ZM5021.99 1692.77C5021.99 1689.76 5022.57 1687.08 5023.73 1684.73C5024.89 1682.38 5026.55 1680.56 5028.71 1679.27C5030.9 1677.98 5033.43 1677.34 5036.3 1677.34C5040.39 1677.34 5043.72 1678.59 5046.3 1681.09C5048.89 1683.59 5050.34 1686.99 5050.64 1691.28L5050.69 1693.35C5050.69 1698 5049.39 1701.73 5046.8 1704.55C5044.21 1707.35 5040.72 1708.75 5036.36 1708.75C5031.99 1708.75 5028.5 1707.35 5025.89 1704.55C5023.29 1701.75 5021.99 1697.95 5021.99 1693.13V1692.77ZM5030.09 1693.35C5030.09 1696.23 5030.63 1698.43 5031.71 1699.96C5032.79 1701.47 5034.34 1702.23 5036.36 1702.23C5038.32 1702.23 5039.85 1701.48 5040.95 1699.99C5042.05 1698.48 5042.6 1696.07 5042.6 1692.77C5042.6 1689.95 5042.05 1687.76 5040.95 1686.21C5039.85 1684.66 5038.3 1683.89 5036.3 1683.89C5034.32 1683.89 5032.79 1684.66 5031.71 1686.21C5030.63 1687.74 5030.09 1690.12 5030.09 1693.35ZM5072.7 1685.49C5071.6 1685.34 5070.63 1685.26 5069.79 1685.26C5066.73 1685.26 5064.72 1686.3 5063.77 1688.37V1708.19H5055.68V1677.9H5063.32L5063.54 1681.51C5065.17 1678.73 5067.42 1677.34 5070.29 1677.34C5071.19 1677.34 5072.03 1677.46 5072.81 1677.7L5072.7 1685.49ZM5090 1708.75C5085.56 1708.75 5081.94 1707.39 5079.14 1704.67C5076.36 1701.94 5074.97 1698.31 5074.97 1693.77V1692.99C5074.97 1689.95 5075.55 1687.23 5076.73 1684.84C5077.91 1682.43 5079.57 1680.59 5081.71 1679.3C5083.88 1677.99 5086.34 1677.34 5089.11 1677.34C5093.25 1677.34 5096.51 1678.64 5098.88 1681.26C5101.27 1683.87 5102.46 1687.58 5102.46 1692.37V1695.68H5083.17C5083.43 1697.66 5084.22 1699.24 5085.52 1700.44C5086.85 1701.63 5088.52 1702.23 5090.53 1702.23C5093.65 1702.23 5096.09 1701.1 5097.84 1698.84L5101.82 1703.29C5100.6 1705.01 5098.96 1706.35 5096.89 1707.32C5094.82 1708.28 5092.52 1708.75 5090 1708.75ZM5089.08 1683.89C5087.47 1683.89 5086.17 1684.43 5085.16 1685.51C5084.17 1686.6 5083.53 1688.15 5083.25 1690.16H5094.51V1689.52C5094.47 1687.73 5093.99 1686.34 5093.05 1685.37C5092.12 1684.38 5090.8 1683.89 5089.08 1683.89Z" fill="white"/>
<path d="M5761 1439V1196.19C5761 1153.01 5725.99 1118 5682.81 1118L3222 1118L761.193 1118C718.008 1118 683 1153.01 683 1196.19V1469.01" stroke="black" stroke-width="5.21285"/>
<path d="M2995 1218L3019 1242L3043 1218" stroke="black" stroke-width="2"/>
<ellipse rx="13.0488" ry="14.874" transform="matrix(0 1 1 0 683 1480.76)" fill="black"/>
<rect width="740.872" height="285.936" transform="translate(2512.2 985.229)" fill="#003245"/>
<path d="M2732.51 1145.57C2734.42 1145.57 2735.97 1145.05 2737.16 1144C2738.35 1142.95 2738.97 1141.55 2739.02 1139.81H2748.72C2748.7 1142.43 2747.98 1144.84 2746.57 1147.04C2745.17 1149.21 2743.23 1150.91 2740.78 1152.12C2738.34 1153.32 2735.65 1153.91 2732.69 1153.91C2727.15 1153.91 2722.78 1152.16 2719.58 1148.65C2716.39 1145.12 2714.79 1140.25 2714.79 1134.05V1133.37C2714.79 1127.4 2716.38 1122.64 2719.55 1119.08C2722.72 1115.53 2727.08 1113.75 2732.61 1113.75C2737.46 1113.75 2741.34 1115.13 2744.25 1117.9C2747.18 1120.65 2748.67 1124.31 2748.72 1128.89H2739.02C2738.97 1126.89 2738.35 1125.26 2737.16 1124.02C2735.97 1122.76 2734.39 1122.13 2732.44 1122.13C2730.03 1122.13 2728.2 1123.01 2726.96 1124.78C2725.74 1126.52 2725.13 1129.36 2725.13 1133.29V1134.37C2725.13 1138.35 2725.74 1141.22 2726.96 1142.96C2728.18 1144.7 2730.03 1145.57 2732.51 1145.57ZM2753.02 1133.47C2753.02 1129.63 2753.76 1126.21 2755.24 1123.2C2756.72 1120.19 2758.84 1117.87 2761.61 1116.22C2764.4 1114.57 2767.63 1113.75 2771.31 1113.75C2776.54 1113.75 2780.8 1115.35 2784.09 1118.55C2787.41 1121.74 2789.26 1126.09 2789.64 1131.58L2789.71 1134.23C2789.71 1140.17 2788.05 1144.94 2784.73 1148.54C2781.42 1152.12 2776.97 1153.91 2771.38 1153.91C2765.8 1153.91 2761.33 1152.12 2757.99 1148.54C2754.68 1144.96 2753.02 1140.1 2753.02 1133.94V1133.47ZM2763.36 1134.23C2763.36 1137.9 2764.06 1140.72 2765.44 1142.67C2766.82 1144.61 2768.8 1145.57 2771.38 1145.57C2773.89 1145.57 2775.84 1144.62 2777.25 1142.71C2778.66 1140.78 2779.36 1137.7 2779.36 1133.47C2779.36 1129.87 2778.66 1127.08 2777.25 1125.1C2775.84 1123.12 2773.86 1122.13 2771.31 1122.13C2768.78 1122.13 2766.82 1123.12 2765.44 1125.1C2764.06 1127.05 2763.36 1130.1 2763.36 1134.23ZM2805.6 1114.47L2805.92 1118.94C2808.69 1115.48 2812.4 1113.75 2817.06 1113.75C2821.16 1113.75 2824.22 1114.96 2826.22 1117.37C2828.23 1119.78 2829.25 1123.38 2829.3 1128.18V1153.2H2818.95V1128.43C2818.95 1126.23 2818.48 1124.64 2817.52 1123.67C2816.57 1122.66 2814.98 1122.16 2812.76 1122.16C2809.85 1122.16 2807.67 1123.4 2806.21 1125.89V1153.2H2795.87V1114.47H2805.6ZM2858.15 1142.49C2858.15 1141.23 2857.52 1140.24 2856.25 1139.52C2855.01 1138.78 2853.01 1138.13 2850.24 1137.55C2841.03 1135.62 2836.42 1131.71 2836.42 1125.81C2836.42 1122.38 2837.84 1119.51 2840.68 1117.22C2843.55 1114.91 2847.28 1113.75 2851.89 1113.75C2856.8 1113.75 2860.73 1114.91 2863.66 1117.22C2866.62 1119.54 2868.1 1122.54 2868.1 1126.24H2857.76C2857.76 1124.76 2857.28 1123.55 2856.32 1122.59C2855.37 1121.61 2853.88 1121.12 2851.85 1121.12C2850.11 1121.12 2848.76 1121.52 2847.81 1122.31C2846.85 1123.09 2846.37 1124.1 2846.37 1125.31C2846.37 1126.46 2846.91 1127.39 2847.98 1128.1C2849.08 1128.8 2850.92 1129.4 2853.5 1129.93C2856.07 1130.43 2858.25 1131 2860.01 1131.65C2865.48 1133.65 2868.21 1137.12 2868.21 1142.06C2868.21 1145.6 2866.69 1148.46 2863.66 1150.66C2860.63 1152.83 2856.72 1153.91 2851.92 1153.91C2848.68 1153.91 2845.79 1153.34 2843.26 1152.19C2840.75 1151.03 2838.78 1149.44 2837.35 1147.43C2835.92 1145.41 2835.21 1143.22 2835.21 1140.88H2845.01C2845.11 1142.72 2845.79 1144.13 2847.05 1145.11C2848.32 1146.09 2850.01 1146.58 2852.14 1146.58C2854.12 1146.58 2855.61 1146.21 2856.61 1145.47C2857.64 1144.7 2858.15 1143.71 2858.15 1142.49ZM2898.1 1149.26C2895.55 1152.36 2892.01 1153.91 2887.5 1153.91C2883.35 1153.91 2880.18 1152.72 2877.98 1150.33C2875.81 1147.95 2874.7 1144.45 2874.65 1139.85V1114.47H2885V1139.49C2885 1143.52 2886.83 1145.54 2890.51 1145.54C2894.02 1145.54 2896.43 1144.32 2897.74 1141.89V1114.47H2908.12V1153.2H2898.38L2898.1 1149.26ZM2925.63 1114.47L2925.95 1118.8C2928.69 1115.43 2932.4 1113.75 2937.08 1113.75C2942.07 1113.75 2945.49 1115.72 2947.35 1119.66C2950.07 1115.72 2953.95 1113.75 2958.99 1113.75C2963.19 1113.75 2966.31 1114.98 2968.37 1117.44C2970.42 1119.87 2971.44 1123.55 2971.44 1128.46V1153.2H2961.06V1128.5C2961.06 1126.3 2960.63 1124.7 2959.77 1123.7C2958.92 1122.68 2957.4 1122.16 2955.23 1122.16C2952.13 1122.16 2949.98 1123.64 2948.79 1126.6L2948.82 1153.2H2938.48V1128.53C2938.48 1126.29 2938.03 1124.67 2937.15 1123.67C2936.27 1122.66 2934.77 1122.16 2932.64 1122.16C2929.71 1122.16 2927.58 1123.38 2926.27 1125.81V1153.2H2915.92V1114.47H2925.63ZM2997.25 1153.91C2991.57 1153.91 2986.94 1152.17 2983.36 1148.69C2979.81 1145.2 2978.03 1140.56 2978.03 1134.76V1133.76C2978.03 1129.87 2978.78 1126.4 2980.29 1123.34C2981.79 1120.27 2983.91 1117.9 2986.66 1116.26C2989.43 1114.59 2992.58 1113.75 2996.11 1113.75C3001.41 1113.75 3005.57 1115.42 3008.6 1118.76C3011.65 1122.1 3013.18 1126.84 3013.18 1132.97V1137.2H2988.52C2988.85 1139.73 2989.86 1141.75 2991.53 1143.28C2993.22 1144.81 2995.36 1145.57 2997.93 1145.57C3001.92 1145.57 3005.03 1144.13 3007.28 1141.24L3012.36 1146.93C3010.81 1149.13 3008.71 1150.85 3006.06 1152.09C3003.41 1153.3 3000.47 1153.91 2997.25 1153.91ZM2996.07 1122.13C2994.02 1122.13 2992.35 1122.82 2991.06 1124.2C2989.8 1125.59 2988.98 1127.57 2988.63 1130.14H3003.02V1129.32C3002.97 1127.03 3002.35 1125.26 3001.15 1124.02C2999.96 1122.76 2998.27 1122.13 2996.07 1122.13ZM3040.06 1142.49C3040.06 1141.23 3039.43 1140.24 3038.17 1139.52C3036.93 1138.78 3034.92 1138.13 3032.15 1137.55C3022.94 1135.62 3018.34 1131.71 3018.34 1125.81C3018.34 1122.38 3019.76 1119.51 3022.6 1117.22C3025.46 1114.91 3029.19 1113.75 3033.8 1113.75C3038.72 1113.75 3042.64 1114.91 3045.58 1117.22C3048.54 1119.54 3050.02 1122.54 3050.02 1126.24H3039.67C3039.67 1124.76 3039.19 1123.55 3038.24 1122.59C3037.28 1121.61 3035.79 1121.12 3033.76 1121.12C3032.02 1121.12 3030.67 1121.52 3029.72 1122.31C3028.77 1123.09 3028.29 1124.1 3028.29 1125.31C3028.29 1126.46 3028.82 1127.39 3029.9 1128.1C3031 1128.8 3032.83 1129.4 3035.41 1129.93C3037.99 1130.43 3040.16 1131 3041.93 1131.65C3047.39 1133.65 3050.12 1137.12 3050.12 1142.06C3050.12 1145.6 3048.61 1148.46 3045.58 1150.66C3042.55 1152.83 3038.63 1153.91 3033.84 1153.91C3030.59 1153.91 3027.7 1153.34 3025.17 1152.19C3022.67 1151.03 3020.7 1149.44 3019.27 1147.43C3017.84 1145.41 3017.12 1143.22 3017.12 1140.88H3026.93C3027.02 1142.72 3027.7 1144.13 3028.97 1145.11C3030.23 1146.09 3031.93 1146.58 3034.05 1146.58C3036.03 1146.58 3037.52 1146.21 3038.53 1145.47C3039.55 1144.7 3040.06 1143.71 3040.06 1142.49Z" fill="white"/>
<path d="M3096.5 381.839H3049.92L3039.46 410.855H3024.34L3066.8 299.675H3079.62L3122.16 410.855H3107.11L3096.5 381.839ZM3054.35 369.774H3092.15L3073.21 317.772L3054.35 369.774ZM3174.85 340.91C3172.71 340.553 3170.39 340.375 3167.9 340.375C3158.63 340.375 3152.34 344.32 3149.04 352.211V410.855H3134.91V328.234H3148.65L3148.88 337.779C3153.52 330.397 3160.08 326.707 3168.58 326.707C3171.33 326.707 3173.42 327.063 3174.85 327.776V340.91ZM3219.52 400.852C3224.56 400.852 3228.96 399.325 3232.73 396.271C3236.49 393.216 3238.58 389.398 3238.99 384.817H3252.35C3252.1 389.551 3250.47 394.056 3247.46 398.332C3244.46 402.609 3240.44 406.019 3235.4 408.565C3230.41 411.11 3225.12 412.383 3219.52 412.383C3208.27 412.383 3199.31 408.641 3192.64 401.158C3186.02 393.624 3182.71 383.34 3182.71 370.308V367.941C3182.71 359.898 3184.19 352.745 3187.14 346.484C3190.09 340.222 3194.32 335.361 3199.82 331.899C3205.36 328.437 3211.91 326.707 3219.44 326.707C3228.7 326.707 3236.39 329.481 3242.5 335.03C3248.66 340.579 3251.94 347.782 3252.35 356.64H3238.99C3238.58 351.295 3236.54 346.917 3232.88 343.506C3229.26 340.044 3224.78 338.313 3219.44 338.313C3212.26 338.313 3206.69 340.91 3202.72 346.102C3198.8 351.244 3196.84 358.701 3196.84 368.476V371.148C3196.84 380.668 3198.8 387.998 3202.72 393.14C3206.64 398.281 3212.24 400.852 3219.52 400.852ZM3282.36 338.237C3288.62 330.55 3296.77 326.707 3306.8 326.707C3324.26 326.707 3333.06 336.557 3333.22 356.258V410.855H3319.09V356.182C3319.04 350.225 3317.66 345.822 3314.97 342.971C3312.32 340.121 3308.17 338.695 3302.52 338.695C3297.94 338.695 3293.92 339.917 3290.45 342.36C3286.99 344.804 3284.29 348.011 3282.36 351.982V410.855H3268.23V293.566H3282.36V338.237ZM3369.72 410.855H3355.59V328.234H3369.72V410.855ZM3354.44 306.318C3354.44 304.028 3355.13 302.093 3356.51 300.515C3357.93 298.937 3360.02 298.148 3362.77 298.148C3365.52 298.148 3367.6 298.937 3369.03 300.515C3370.45 302.093 3371.17 304.028 3371.17 306.318C3371.17 308.609 3370.45 310.518 3369.03 312.045C3367.6 313.573 3365.52 314.336 3362.77 314.336C3360.02 314.336 3357.93 313.573 3356.51 312.045C3355.13 310.518 3354.44 308.609 3354.44 306.318ZM3411.56 308.227V328.234H3426.99V339.153H3411.56V390.391C3411.56 393.7 3412.25 396.194 3413.62 397.874C3415 399.503 3417.34 400.318 3420.65 400.318C3422.28 400.318 3424.52 400.012 3427.37 399.401V410.855C3423.65 411.874 3420.04 412.383 3416.53 412.383C3410.21 412.383 3405.45 410.474 3402.25 406.656C3399.04 402.838 3397.44 397.416 3397.44 390.391V339.153H3382.39V328.234H3397.44V308.227H3411.56ZM3477.84 412.383C3466.64 412.383 3457.53 408.717 3450.51 401.387C3443.48 394.005 3439.97 384.155 3439.97 371.835V369.239C3439.97 361.043 3441.52 353.738 3444.63 347.324C3447.78 340.859 3452.16 335.819 3457.76 332.204C3463.41 328.539 3469.52 326.707 3476.09 326.707C3486.83 326.707 3495.18 330.245 3501.13 337.321C3507.09 344.397 3510.07 354.527 3510.07 367.712V373.592H3454.09C3454.3 381.737 3456.67 388.329 3461.2 393.369C3465.78 398.358 3471.58 400.852 3478.61 400.852C3483.59 400.852 3487.82 399.834 3491.28 397.798C3494.74 395.762 3497.77 393.064 3500.37 389.704L3509 396.423C3502.07 407.063 3491.69 412.383 3477.84 412.383ZM3476.09 338.313C3470.38 338.313 3465.6 340.4 3461.73 344.575C3457.86 348.698 3455.47 354.502 3454.55 361.985H3495.94V360.916C3495.53 353.738 3493.6 348.189 3490.14 344.269C3486.67 340.299 3481.99 338.313 3476.09 338.313ZM3559.62 400.852C3564.66 400.852 3569.07 399.325 3572.83 396.271C3576.6 393.216 3578.69 389.398 3579.1 384.817H3592.46C3592.2 389.551 3590.58 394.056 3587.57 398.332C3584.57 402.609 3580.55 406.019 3575.51 408.565C3570.52 411.11 3565.22 412.383 3559.62 412.383C3548.37 412.383 3539.41 408.641 3532.75 401.158C3526.13 393.624 3522.82 383.34 3522.82 370.308V367.941C3522.82 359.898 3524.29 352.745 3527.25 346.484C3530.2 340.222 3534.43 335.361 3539.92 331.899C3545.47 328.437 3552.01 326.707 3559.55 326.707C3568.81 326.707 3576.5 329.481 3582.61 335.03C3588.77 340.579 3592.05 347.782 3592.46 356.64H3579.1C3578.69 351.295 3576.65 346.917 3572.99 343.506C3569.37 340.044 3564.89 338.313 3559.55 338.313C3552.37 338.313 3546.8 340.91 3542.82 346.102C3538.91 351.244 3536.95 358.701 3536.95 368.476V371.148C3536.95 380.668 3538.91 387.998 3542.82 393.14C3546.74 398.281 3552.34 400.852 3559.62 400.852ZM3627.51 308.227V328.234H3642.93V339.153H3627.51V390.391C3627.51 393.7 3628.2 396.194 3629.57 397.874C3630.94 399.503 3633.29 400.318 3636.6 400.318C3638.22 400.318 3640.46 400.012 3643.31 399.401V410.855C3639.6 411.874 3635.98 412.383 3632.47 412.383C3626.16 412.383 3621.4 410.474 3618.19 406.656C3614.99 402.838 3613.38 397.416 3613.38 390.391V339.153H3598.34V328.234H3613.38V308.227H3627.51ZM3710.51 402.685C3705.01 409.15 3696.95 412.383 3686.31 412.383C3677.5 412.383 3670.78 409.837 3666.15 404.747C3661.57 399.605 3659.25 392.02 3659.2 381.991V328.234H3673.32V381.61C3673.32 394.133 3678.42 400.394 3688.6 400.394C3699.39 400.394 3706.57 396.372 3710.13 388.329V328.234H3724.26V410.855H3710.82L3710.51 402.685ZM3785.73 340.91C3783.59 340.553 3781.27 340.375 3778.78 340.375C3769.51 340.375 3763.23 344.32 3759.92 352.211V410.855H3745.79V328.234H3759.54L3759.76 337.779C3764.4 330.397 3770.96 326.707 3779.47 326.707C3782.21 326.707 3784.3 327.063 3785.73 327.776V340.91ZM3831.54 412.383C3820.34 412.383 3811.23 408.717 3804.21 401.387C3797.18 394.005 3793.67 384.155 3793.67 371.835V369.239C3793.67 361.043 3795.22 353.738 3798.33 347.324C3801.48 340.859 3805.86 335.819 3811.46 332.204C3817.11 328.539 3823.22 326.707 3829.79 326.707C3840.53 326.707 3848.88 330.245 3854.83 337.321C3860.79 344.397 3863.77 354.527 3863.77 367.712V373.592H3807.79C3808 381.737 3810.37 388.329 3814.9 393.369C3819.48 398.358 3825.28 400.852 3832.31 400.852C3837.3 400.852 3841.52 399.834 3844.98 397.798C3848.44 395.762 3851.47 393.064 3854.07 389.704L3862.7 396.423C3855.77 407.063 3845.39 412.383 3831.54 412.383ZM3829.79 338.313C3824.08 338.313 3819.3 340.4 3815.43 344.575C3811.56 348.698 3809.17 354.502 3808.25 361.985H3849.64V360.916C3849.23 353.738 3847.3 348.189 3843.84 344.269C3840.38 340.299 3835.69 338.313 3829.79 338.313Z" fill="black"/>
<path d="M5204.94 997.328C5204.02 1005.22 5201.1 1011.32 5196.18 1015.62C5191.3 1019.89 5184.79 1022.02 5176.66 1022.02C5167.85 1022.02 5160.78 1018.87 5155.45 1012.55C5150.15 1006.23 5147.5 997.772 5147.5 987.183V980.01C5147.5 973.076 5148.73 966.979 5151.19 961.718C5153.69 956.458 5157.21 952.427 5161.75 949.626C5166.29 946.791 5171.55 945.374 5177.53 945.374C5185.45 945.374 5191.81 947.594 5196.59 952.035C5201.37 956.441 5204.16 962.555 5204.94 970.378H5195.05C5194.2 964.434 5192.34 960.13 5189.47 957.466C5186.63 954.801 5182.65 953.469 5177.53 953.469C5171.24 953.469 5166.31 955.792 5162.72 960.437C5159.17 965.083 5157.39 971.693 5157.39 980.266V987.491C5157.39 995.586 5159.08 1002.03 5162.47 1006.81C5165.85 1011.59 5170.58 1013.98 5176.66 1013.98C5182.12 1013.98 5186.31 1012.75 5189.21 1010.29C5192.15 1007.8 5194.1 1003.48 5195.05 997.328H5204.94ZM5227.23 1021H5217.75V942.299H5227.23V1021ZM5239.94 992.768C5239.94 987.337 5241 982.452 5243.11 978.114C5245.27 973.776 5248.24 970.429 5252.03 968.072C5255.85 965.715 5260.21 964.536 5265.09 964.536C5272.64 964.536 5278.74 967.15 5283.39 972.376C5288.07 977.602 5290.41 984.553 5290.41 993.229V993.895C5290.41 999.292 5289.36 1004.14 5287.28 1008.45C5285.23 1012.72 5282.28 1016.05 5278.42 1018.44C5274.59 1020.83 5270.18 1022.02 5265.2 1022.02C5257.68 1022.02 5251.59 1019.41 5246.91 1014.19C5242.26 1008.96 5239.94 1002.04 5239.94 993.434V992.768ZM5249.47 993.895C5249.47 1000.04 5250.88 1004.98 5253.72 1008.7C5256.59 1012.43 5260.41 1014.29 5265.2 1014.29C5270.01 1014.29 5273.84 1012.41 5276.67 1008.65C5279.51 1004.86 5280.93 999.566 5280.93 992.768C5280.93 986.688 5279.48 981.769 5276.57 978.012C5273.7 974.22 5269.88 972.325 5265.09 972.325C5260.41 972.325 5256.64 974.186 5253.77 977.909C5250.9 981.633 5249.47 986.961 5249.47 993.895ZM5336.52 1015.52C5332.83 1019.86 5327.42 1022.02 5320.28 1022.02C5314.37 1022.02 5309.86 1020.32 5306.75 1016.9C5303.68 1013.45 5302.12 1008.36 5302.09 1001.63V965.561H5311.57V1001.38C5311.57 1009.78 5314.98 1013.98 5321.81 1013.98C5329.06 1013.98 5333.87 1011.28 5336.26 1005.88V965.561H5345.74V1021H5336.72L5336.52 1015.52ZM5357.89 992.819C5357.89 984.314 5359.9 977.482 5363.93 972.325C5367.96 967.132 5373.24 964.536 5379.76 964.536C5386.25 964.536 5391.39 966.757 5395.19 971.197V942.299H5404.67V1021H5395.95L5395.49 1015.06C5391.7 1019.7 5386.42 1022.02 5379.66 1022.02C5373.24 1022.02 5368 1019.39 5363.93 1014.13C5359.9 1008.87 5357.89 1002.01 5357.89 993.537V992.819ZM5367.36 993.895C5367.36 1000.18 5368.66 1005.1 5371.26 1008.65C5373.85 1012.2 5377.44 1013.98 5382.02 1013.98C5388.03 1013.98 5392.42 1011.28 5395.19 1005.88V980.42C5392.35 975.194 5388 972.581 5382.12 972.581C5377.48 972.581 5373.85 974.374 5371.26 977.961C5368.66 981.547 5367.36 986.859 5367.36 993.895ZM5446.94 1021V946.398H5471.32C5479.42 946.398 5485.5 948.072 5489.57 951.42C5493.66 954.767 5495.71 959.72 5495.71 966.279C5495.71 969.763 5494.72 972.854 5492.74 975.552C5490.76 978.217 5488.06 980.283 5484.65 981.752C5488.68 982.879 5491.85 985.031 5494.18 988.208C5496.53 991.351 5497.71 995.108 5497.71 999.48C5497.71 1006.18 5495.54 1011.44 5491.2 1015.26C5486.87 1019.09 5480.74 1021 5472.81 1021H5446.94ZM5456.77 986.107V1012.96H5473.02C5477.59 1012.96 5481.2 1011.78 5483.83 1009.42C5486.49 1007.03 5487.82 1003.75 5487.82 999.583C5487.82 990.599 5482.94 986.107 5473.17 986.107H5456.77ZM5456.77 978.217H5471.63C5475.94 978.217 5479.37 977.141 5481.93 974.989C5484.53 972.837 5485.83 969.916 5485.83 966.227C5485.83 962.128 5484.63 959.157 5482.24 957.312C5479.85 955.433 5476.21 954.494 5471.32 954.494H5456.77V978.217ZM5545.06 1021C5544.51 1019.91 5544.06 1017.96 5543.72 1015.16C5539.32 1019.74 5534.06 1022.02 5527.94 1022.02C5522.48 1022.02 5517.99 1020.49 5514.47 1017.41C5510.98 1014.3 5509.24 1010.38 5509.24 1005.63C5509.24 999.856 5511.43 995.381 5515.8 992.205C5520.21 988.994 5526.39 987.388 5534.35 987.388H5543.57V983.033C5543.57 979.72 5542.58 977.09 5540.6 975.143C5538.62 973.161 5535.7 972.171 5531.84 972.171C5528.45 972.171 5525.62 973.025 5523.33 974.733C5521.04 976.441 5519.9 978.507 5519.9 980.932H5510.37C5510.37 978.166 5511.34 975.501 5513.29 972.939C5515.27 970.343 5517.93 968.294 5521.28 966.791C5524.66 965.288 5528.37 964.536 5532.4 964.536C5538.79 964.536 5543.79 966.142 5547.41 969.353C5551.03 972.529 5552.91 976.919 5553.05 982.521V1008.04C5553.05 1013.13 5553.7 1017.17 5555 1020.18V1021H5545.06ZM5529.33 1013.78C5532.3 1013.78 5535.12 1013.01 5537.78 1011.47C5540.44 1009.93 5542.37 1007.93 5543.57 1005.48V994.1H5536.14C5524.53 994.1 5518.72 997.499 5518.72 1004.3C5518.72 1007.27 5519.71 1009.59 5521.69 1011.26C5523.67 1012.94 5526.22 1013.78 5529.33 1013.78ZM5590.14 1014.29C5593.53 1014.29 5596.48 1013.26 5599.01 1011.21C5601.54 1009.16 5602.94 1006.6 5603.21 1003.53H5612.18C5612.01 1006.7 5610.91 1009.73 5608.9 1012.6C5606.88 1015.47 5604.18 1017.75 5600.8 1019.46C5597.45 1021.17 5593.9 1022.02 5590.14 1022.02C5582.6 1022.02 5576.58 1019.51 5572.11 1014.49C5567.67 1009.44 5565.45 1002.54 5565.45 993.793V992.205C5565.45 986.808 5566.44 982.008 5568.42 977.807C5570.4 973.605 5573.24 970.343 5576.93 968.021C5580.65 965.698 5585.04 964.536 5590.09 964.536C5596.31 964.536 5601.47 966.398 5605.57 970.121C5609.7 973.845 5611.9 978.678 5612.18 984.621H5603.21C5602.94 981.035 5601.57 978.097 5599.11 975.809C5596.69 973.486 5593.68 972.325 5590.09 972.325C5585.28 972.325 5581.54 974.067 5578.87 977.551C5576.24 981.001 5574.93 986.005 5574.93 992.563V994.357C5574.93 1000.74 5576.24 1005.66 5578.87 1009.11C5581.5 1012.56 5585.26 1014.29 5590.14 1014.29ZM5638.31 995.33L5632.36 1001.53V1021H5622.88V942.299H5632.36V989.899L5637.44 983.802L5654.7 965.561H5666.23L5644.66 988.72L5668.74 1021H5657.62L5638.31 995.33ZM5698 1022.02C5690.48 1022.02 5684.37 1019.57 5679.66 1014.65C5674.94 1009.69 5672.59 1003.08 5672.59 994.818V993.076C5672.59 987.576 5673.63 982.674 5675.71 978.371C5677.83 974.032 5680.77 970.651 5684.52 968.226C5688.32 965.766 5692.41 964.536 5696.82 964.536C5704.03 964.536 5709.63 966.91 5713.63 971.658C5717.62 976.406 5719.62 983.204 5719.62 992.051V995.996H5682.06C5682.2 1001.46 5683.79 1005.88 5686.83 1009.27C5689.9 1012.61 5693.8 1014.29 5698.51 1014.29C5701.86 1014.29 5704.69 1013.6 5707.02 1012.24C5709.34 1010.87 5711.37 1009.06 5713.11 1006.81L5718.9 1011.32C5714.26 1018.46 5707.29 1022.02 5698 1022.02ZM5696.82 972.325C5692.99 972.325 5689.78 973.725 5687.19 976.526C5684.59 979.293 5682.99 983.187 5682.37 988.208H5710.14V987.491C5709.87 982.674 5708.57 978.951 5706.25 976.321C5703.93 973.657 5700.78 972.325 5696.82 972.325ZM5739.6 965.561L5739.91 972.529C5744.15 967.201 5749.68 964.536 5756.51 964.536C5768.23 964.536 5774.14 971.146 5774.24 984.365V1021H5764.76V984.314C5764.73 980.318 5763.8 977.363 5761.99 975.45C5760.22 973.537 5757.43 972.581 5753.64 972.581C5750.57 972.581 5747.87 973.401 5745.55 975.04C5743.22 976.68 5741.41 978.832 5740.12 981.496V1021H5730.64V965.561H5739.6ZM5786.23 992.819C5786.23 984.314 5788.24 977.482 5792.28 972.325C5796.31 967.132 5801.58 964.536 5808.11 964.536C5814.6 964.536 5819.74 966.757 5823.53 971.197V942.299H5833.01V1021H5824.3L5823.84 1015.06C5820.05 1019.7 5814.77 1022.02 5808.01 1022.02C5801.58 1022.02 5796.34 1019.39 5792.28 1014.13C5788.24 1008.87 5786.23 1002.01 5786.23 993.537V992.819ZM5795.71 993.895C5795.71 1000.18 5797.01 1005.1 5799.6 1008.65C5802.2 1012.2 5805.79 1013.98 5810.36 1013.98C5816.37 1013.98 5820.76 1011.28 5823.53 1005.88V980.42C5820.7 975.194 5816.34 972.581 5810.46 972.581C5805.82 972.581 5802.2 974.374 5799.6 977.961C5797.01 981.547 5795.71 986.859 5795.71 993.895Z" fill="black"/>
</svg>
