<svg width="6511" height="2511" viewBox="0 0 6511 2511" fill="none" xmlns="http://www.w3.org/2000/svg">
<rect width="6511" height="2511" fill="#E5E5E5"/>
<rect width="6511" height="2511" fill="white"/>
<rect x="492.445" y="1498.06" width="944.789" height="426.11" fill="black" stroke="white" stroke-width="9.16365"/>
<path d="M766.878 1676.61V1748.27H757.378V1676.61H766.878ZM796.901 1708.84V1716.62H764.81V1708.84H796.901ZM801.774 1676.61V1684.38H764.81V1676.61H801.774ZM819.542 1703.38V1748.27H810.436V1695.01H819.296L819.542 1703.38ZM836.178 1694.72L836.128 1703.18C835.374 1703.02 834.652 1702.92 833.963 1702.89C833.307 1702.82 832.552 1702.79 831.699 1702.79C829.599 1702.79 827.745 1703.12 826.137 1703.77C824.529 1704.43 823.167 1705.35 822.052 1706.53C820.936 1707.71 820.05 1709.12 819.394 1710.76C818.771 1712.37 818.36 1714.14 818.164 1716.08L815.604 1717.56C815.604 1714.34 815.916 1711.32 816.539 1708.5C817.196 1705.68 818.196 1703.18 819.542 1701.02C820.887 1698.82 822.593 1697.11 824.66 1695.9C826.76 1694.65 829.254 1694.03 832.142 1694.03C832.798 1694.03 833.553 1694.11 834.406 1694.28C835.259 1694.41 835.849 1694.55 836.178 1694.72ZM841.198 1722.23V1721.1C841.198 1717.26 841.756 1713.7 842.871 1710.42C843.987 1707.11 845.595 1704.23 847.695 1701.81C849.795 1699.35 852.338 1697.44 855.324 1696.1C858.31 1694.72 861.657 1694.03 865.364 1694.03C869.105 1694.03 872.468 1694.72 875.454 1696.1C878.473 1697.44 881.032 1699.35 883.132 1701.81C885.265 1704.23 886.889 1707.11 888.005 1710.42C889.121 1713.7 889.678 1717.26 889.678 1721.1V1722.23C889.678 1726.07 889.121 1729.63 888.005 1732.91C886.889 1736.19 885.265 1739.06 883.132 1741.53C881.032 1743.95 878.489 1745.86 875.503 1747.23C872.55 1748.58 869.203 1749.25 865.463 1749.25C861.722 1749.25 858.359 1748.58 855.373 1747.23C852.387 1745.86 849.828 1743.95 847.695 1741.53C845.595 1739.06 843.987 1736.19 842.871 1732.91C841.756 1729.63 841.198 1726.07 841.198 1722.23ZM850.303 1721.1V1722.23C850.303 1724.89 850.615 1727.4 851.239 1729.76C851.862 1732.09 852.797 1734.16 854.044 1735.96C855.324 1737.77 856.915 1739.2 858.818 1740.25C860.721 1741.26 862.936 1741.77 865.463 1741.77C867.957 1741.77 870.139 1741.26 872.009 1740.25C873.912 1739.2 875.487 1737.77 876.734 1735.96C877.981 1734.16 878.916 1732.09 879.539 1729.76C880.196 1727.4 880.524 1724.89 880.524 1722.23V1721.1C880.524 1718.47 880.196 1716 879.539 1713.67C878.916 1711.31 877.964 1709.22 876.685 1707.42C875.438 1705.58 873.863 1704.14 871.96 1703.09C870.089 1702.04 867.891 1701.51 865.364 1701.51C862.871 1701.51 860.672 1702.04 858.769 1703.09C856.899 1704.14 855.324 1705.58 854.044 1707.42C852.797 1709.22 851.862 1711.31 851.239 1713.67C850.615 1716 850.303 1718.47 850.303 1721.1ZM910.203 1706.38V1748.27H901.097V1695.01H909.711L910.203 1706.38ZM908.037 1719.62L904.247 1719.48C904.28 1715.83 904.821 1712.47 905.871 1709.39C906.921 1706.27 908.398 1703.56 910.301 1701.26C912.204 1698.97 914.468 1697.2 917.093 1695.95C919.751 1694.67 922.688 1694.03 925.904 1694.03C928.529 1694.03 930.891 1694.39 932.991 1695.11C935.091 1695.8 936.879 1696.92 938.356 1698.46C939.865 1700 941.014 1702 941.801 1704.46C942.589 1706.89 942.982 1709.86 942.982 1713.37V1748.27H933.828V1713.27C933.828 1710.48 933.418 1708.25 932.597 1706.58C931.777 1704.87 930.579 1703.64 929.004 1702.89C927.429 1702.1 925.493 1701.71 923.196 1701.71C920.932 1701.71 918.865 1702.18 916.995 1703.13C915.157 1704.09 913.566 1705.4 912.221 1707.07C910.908 1708.75 909.875 1710.67 909.12 1712.83C908.398 1714.96 908.037 1717.23 908.037 1719.62ZM979.109 1695.01V1702H950.316V1695.01H979.109ZM960.061 1682.07H969.167V1735.08C969.167 1736.88 969.446 1738.24 970.004 1739.16C970.561 1740.08 971.283 1740.69 972.169 1740.98C973.055 1741.28 974.007 1741.43 975.024 1741.43C975.779 1741.43 976.566 1741.36 977.386 1741.23C978.24 1741.07 978.879 1740.93 979.306 1740.84L979.355 1748.27C978.633 1748.5 977.682 1748.71 976.5 1748.91C975.352 1749.14 973.957 1749.25 972.317 1749.25C970.086 1749.25 968.035 1748.81 966.165 1747.92C964.294 1747.04 962.801 1745.56 961.686 1743.49C960.603 1741.39 960.061 1738.57 960.061 1735.03V1682.07ZM1008.74 1714.06V1721.54H984.72V1714.06H1008.74ZM1064.55 1740.54V1748.27H1026.61V1740.54H1064.55ZM1028.52 1676.61V1748.27H1019.03V1676.61H1028.52ZM1059.53 1707.42V1715.14H1026.61V1707.42H1059.53ZM1064.06 1676.61V1684.38H1026.61V1676.61H1064.06ZM1084.04 1706.38V1748.27H1074.94V1695.01H1083.55L1084.04 1706.38ZM1081.88 1719.62L1078.09 1719.48C1078.12 1715.83 1078.66 1712.47 1079.71 1709.39C1080.76 1706.27 1082.24 1703.56 1084.14 1701.26C1086.05 1698.97 1088.31 1697.2 1090.93 1695.95C1093.59 1694.67 1096.53 1694.03 1099.74 1694.03C1102.37 1694.03 1104.73 1694.39 1106.83 1695.11C1108.93 1695.8 1110.72 1696.92 1112.2 1698.46C1113.71 1700 1114.85 1702 1115.64 1704.46C1116.43 1706.89 1116.82 1709.86 1116.82 1713.37V1748.27H1107.67V1713.27C1107.67 1710.48 1107.26 1708.25 1106.44 1706.58C1105.62 1704.87 1104.42 1703.64 1102.85 1702.89C1101.27 1702.1 1099.33 1701.71 1097.04 1701.71C1094.77 1701.71 1092.71 1702.18 1090.84 1703.13C1089 1704.09 1087.41 1705.4 1086.06 1707.07C1084.75 1708.75 1083.72 1710.67 1082.96 1712.83C1082.24 1714.96 1081.88 1717.23 1081.88 1719.62ZM1164.22 1737.93V1672.67H1173.38V1748.27H1165.01L1164.22 1737.93ZM1128.39 1722.23V1721.2C1128.39 1717.13 1128.88 1713.44 1129.87 1710.12C1130.88 1706.78 1132.31 1703.91 1134.15 1701.51C1136.02 1699.12 1138.23 1697.28 1140.79 1696C1143.39 1694.69 1146.27 1694.03 1149.46 1694.03C1152.8 1694.03 1155.72 1694.62 1158.22 1695.8C1160.74 1696.95 1162.88 1698.64 1164.61 1700.87C1166.39 1703.07 1167.78 1705.73 1168.8 1708.84C1169.82 1711.96 1170.52 1715.49 1170.91 1719.43V1723.95C1170.55 1727.86 1169.85 1731.37 1168.8 1734.49C1167.78 1737.6 1166.39 1740.26 1164.61 1742.46C1162.88 1744.66 1160.74 1746.35 1158.22 1747.53C1155.69 1748.68 1152.74 1749.25 1149.36 1749.25C1146.24 1749.25 1143.39 1748.58 1140.79 1747.23C1138.23 1745.89 1136.02 1744 1134.15 1741.57C1132.31 1739.15 1130.88 1736.29 1129.87 1733.01C1128.88 1729.7 1128.39 1726.1 1128.39 1722.23ZM1137.54 1721.2V1722.23C1137.54 1724.89 1137.81 1727.38 1138.33 1729.71C1138.89 1732.04 1139.74 1734.09 1140.89 1735.87C1142.04 1737.64 1143.5 1739.03 1145.27 1740.05C1147.04 1741.03 1149.16 1741.53 1151.62 1741.53C1154.64 1741.53 1157.12 1740.89 1159.05 1739.61C1161.02 1738.33 1162.6 1736.64 1163.78 1734.54C1164.96 1732.44 1165.88 1730.16 1166.53 1727.7V1715.83C1166.14 1714.03 1165.57 1712.29 1164.81 1710.62C1164.09 1708.91 1163.14 1707.4 1161.96 1706.09C1160.81 1704.74 1159.38 1703.68 1157.67 1702.89C1156 1702.1 1154.02 1701.71 1151.72 1701.71C1149.23 1701.71 1147.08 1702.23 1145.27 1703.28C1143.5 1704.3 1142.04 1705.71 1140.89 1707.52C1139.74 1709.29 1138.89 1711.35 1138.33 1713.72C1137.81 1716.05 1137.54 1718.54 1137.54 1721.2Z" fill="white"/>
<path d="M1377.72 1530.14L1405.21 1557.63M1377.72 1557.63L1405.21 1530.14" stroke="white" stroke-width="9.16365"/>
<rect x="519.935" y="1456.83" width="270.291" height="100.655" fill="black"/>
<path d="M587.749 1487.07H602.326C605.315 1487.07 607.884 1487.51 610.031 1488.41C612.197 1489.3 613.862 1490.63 615.025 1492.38C616.188 1494.14 616.77 1496.29 616.77 1498.85C616.77 1500.95 616.412 1502.75 615.696 1504.25C614.998 1505.73 614.005 1506.98 612.716 1507.98C611.445 1508.96 609.951 1509.75 608.233 1510.34L605.682 1511.68H593.011L592.957 1505.4H602.38C603.794 1505.4 604.966 1505.15 605.897 1504.65C606.828 1504.15 607.526 1503.45 607.991 1502.56C608.474 1501.66 608.716 1500.62 608.716 1499.44C608.716 1498.19 608.483 1497.11 608.018 1496.19C607.553 1495.28 606.846 1494.58 605.897 1494.1C604.948 1493.62 603.758 1493.38 602.326 1493.38H595.803V1526.16H587.749V1487.07ZM609.602 1526.16L600.689 1508.73L609.199 1508.68L618.22 1525.78V1526.16H609.602ZM635.858 1526.69C633.603 1526.69 631.58 1526.33 629.791 1525.62C628.001 1524.88 626.479 1523.87 625.227 1522.58C623.992 1521.3 623.043 1519.8 622.381 1518.1C621.719 1516.38 621.388 1514.56 621.388 1512.62V1511.55C621.388 1509.35 621.701 1507.34 622.327 1505.51C622.954 1503.68 623.849 1502.1 625.012 1500.76C626.193 1499.42 627.625 1498.39 629.307 1497.67C630.99 1496.94 632.887 1496.57 634.999 1496.57C637.057 1496.57 638.883 1496.91 640.476 1497.59C642.068 1498.27 643.402 1499.24 644.476 1500.49C645.567 1501.74 646.391 1503.25 646.946 1505C647.5 1506.74 647.778 1508.67 647.778 1510.8V1514.02H624.69V1508.87H640.18V1508.28C640.18 1507.2 639.983 1506.24 639.59 1505.4C639.214 1504.54 638.641 1503.86 637.871 1503.36C637.102 1502.86 636.117 1502.61 634.918 1502.61C633.898 1502.61 633.021 1502.83 632.287 1503.28C631.553 1503.73 630.954 1504.36 630.489 1505.16C630.041 1505.97 629.701 1506.92 629.468 1508.01C629.254 1509.08 629.146 1510.26 629.146 1511.55V1512.62C629.146 1513.79 629.307 1514.86 629.629 1515.85C629.97 1516.83 630.444 1517.68 631.052 1518.4C631.679 1519.11 632.43 1519.67 633.307 1520.06C634.202 1520.45 635.214 1520.65 636.341 1520.65C637.737 1520.65 639.035 1520.38 640.234 1519.85C641.451 1519.29 642.498 1518.46 643.375 1517.35L647.133 1521.43C646.525 1522.31 645.693 1523.15 644.637 1523.95C643.599 1524.76 642.346 1525.42 640.878 1525.94C639.411 1526.44 637.737 1526.69 635.858 1526.69ZM667.859 1519.6V1506.66C667.859 1505.73 667.707 1504.94 667.403 1504.28C667.098 1503.6 666.624 1503.07 665.98 1502.69C665.353 1502.32 664.539 1502.13 663.537 1502.13C662.678 1502.13 661.935 1502.28 661.308 1502.58C660.682 1502.87 660.199 1503.29 659.859 1503.85C659.519 1504.38 659.349 1505.02 659.349 1505.75H651.617C651.617 1504.52 651.903 1503.34 652.476 1502.23C653.049 1501.13 653.881 1500.15 654.973 1499.31C656.064 1498.45 657.362 1497.78 658.865 1497.3C660.387 1496.81 662.087 1496.57 663.966 1496.57C666.221 1496.57 668.226 1496.95 669.98 1497.7C671.734 1498.45 673.112 1499.58 674.114 1501.08C675.135 1502.58 675.645 1504.46 675.645 1506.72V1519.15C675.645 1520.74 675.743 1522.05 675.94 1523.07C676.137 1524.07 676.423 1524.95 676.799 1525.7V1526.16H668.987C668.611 1525.37 668.324 1524.38 668.128 1523.2C667.949 1522 667.859 1520.8 667.859 1519.6ZM668.879 1508.46L668.933 1512.84H664.611C663.59 1512.84 662.705 1512.96 661.953 1513.19C661.201 1513.42 660.584 1513.75 660.1 1514.18C659.617 1514.59 659.259 1515.08 659.027 1515.63C658.812 1516.19 658.704 1516.79 658.704 1517.46C658.704 1518.12 658.857 1518.72 659.161 1519.26C659.465 1519.77 659.904 1520.19 660.476 1520.49C661.049 1520.78 661.72 1520.92 662.49 1520.92C663.653 1520.92 664.664 1520.69 665.523 1520.22C666.383 1519.76 667.045 1519.18 667.51 1518.5C667.993 1517.82 668.244 1517.18 668.262 1516.57L670.302 1519.85C670.016 1520.58 669.622 1521.34 669.121 1522.13C668.638 1522.92 668.02 1523.66 667.268 1524.36C666.517 1525.04 665.613 1525.6 664.557 1526.05C663.501 1526.48 662.248 1526.69 660.798 1526.69C658.955 1526.69 657.282 1526.33 655.778 1525.59C654.293 1524.84 653.111 1523.81 652.234 1522.5C651.375 1521.18 650.946 1519.68 650.946 1517.99C650.946 1516.47 651.232 1515.12 651.805 1513.94C652.378 1512.76 653.219 1511.77 654.328 1510.96C655.456 1510.14 656.861 1509.52 658.543 1509.11C660.226 1508.68 662.177 1508.46 664.396 1508.46H668.879ZM693.605 1520.65C694.554 1520.65 695.395 1520.47 696.129 1520.11C696.862 1519.74 697.435 1519.22 697.847 1518.56C698.276 1517.88 698.5 1517.08 698.518 1516.17H705.793C705.775 1518.21 705.23 1520.03 704.156 1521.62C703.082 1523.19 701.641 1524.44 699.833 1525.35C698.026 1526.24 696.003 1526.69 693.766 1526.69C691.511 1526.69 689.542 1526.32 687.86 1525.56C686.195 1524.81 684.808 1523.77 683.699 1522.45C682.589 1521.11 681.757 1519.55 681.202 1517.78C680.647 1515.99 680.37 1514.07 680.37 1512.03V1511.26C680.37 1509.2 680.647 1507.28 681.202 1505.51C681.757 1503.72 682.589 1502.16 683.699 1500.84C684.808 1499.5 686.195 1498.45 687.86 1497.7C689.524 1496.95 691.475 1496.57 693.712 1496.57C696.093 1496.57 698.178 1497.03 699.968 1497.94C701.775 1498.85 703.189 1500.16 704.209 1501.86C705.247 1503.54 705.775 1505.54 705.793 1507.85H698.518C698.5 1506.88 698.294 1506 697.9 1505.21C697.525 1504.43 696.97 1503.8 696.236 1503.34C695.52 1502.85 694.634 1502.61 693.578 1502.61C692.451 1502.61 691.529 1502.85 690.813 1503.34C690.097 1503.8 689.542 1504.45 689.148 1505.27C688.755 1506.07 688.477 1507 688.316 1508.03C688.173 1509.05 688.101 1510.13 688.101 1511.26V1512.03C688.101 1513.16 688.173 1514.24 688.316 1515.28C688.459 1516.32 688.728 1517.24 689.122 1518.05C689.533 1518.85 690.097 1519.49 690.813 1519.95C691.529 1520.42 692.46 1520.65 693.605 1520.65ZM724.505 1497.11V1502.58H707.592V1497.11H724.505ZM711.78 1489.94H719.512V1517.4C719.512 1518.24 719.619 1518.89 719.834 1519.34C720.067 1519.78 720.407 1520.1 720.854 1520.28C721.302 1520.44 721.866 1520.52 722.546 1520.52C723.029 1520.52 723.458 1520.5 723.834 1520.46C724.228 1520.41 724.559 1520.36 724.828 1520.3L724.854 1525.99C724.192 1526.21 723.476 1526.38 722.707 1526.5C721.937 1526.63 721.087 1526.69 720.156 1526.69C718.456 1526.69 716.971 1526.41 715.7 1525.86C714.447 1525.29 713.48 1524.37 712.8 1523.12C712.12 1521.87 711.78 1520.22 711.78 1518.18V1489.94Z" fill="white"/>
<rect x="519.935" y="1456.83" width="270.291" height="100.655" stroke="white" stroke-width="9.16365"/>
<rect x="2726.15" y="1479.82" width="944.789" height="426.11" fill="black" stroke="white" stroke-width="9.16365"/>
<path d="M3049.41 1711.91C3049.41 1710.24 3049.15 1708.76 3048.62 1707.48C3048.13 1706.17 3047.25 1704.99 3045.97 1703.94C3044.72 1702.89 3042.98 1701.89 3040.75 1700.94C3038.55 1699.98 3035.76 1699.02 3032.38 1698.03C3028.84 1696.98 3025.64 1695.82 3022.78 1694.54C3019.93 1693.22 3017.48 1691.73 3015.45 1690.06C3013.42 1688.38 3011.86 1686.46 3010.77 1684.3C3009.69 1682.13 3009.15 1679.66 3009.15 1676.87C3009.15 1674.08 3009.72 1671.5 3010.87 1669.14C3012.02 1666.78 3013.66 1664.73 3015.8 1662.99C3017.96 1661.22 3020.54 1659.84 3023.52 1658.85C3026.51 1657.87 3029.84 1657.38 3033.51 1657.38C3038.9 1657.38 3043.46 1658.41 3047.2 1660.48C3050.97 1662.51 3053.84 1665.19 3055.81 1668.5C3057.78 1671.78 3058.76 1675.29 3058.76 1679.03H3049.31C3049.31 1676.34 3048.74 1673.96 3047.59 1671.9C3046.44 1669.8 3044.7 1668.16 3042.37 1666.97C3040.04 1665.76 3037.09 1665.15 3033.51 1665.15C3030.13 1665.15 3027.35 1665.66 3025.15 1666.68C3022.95 1667.7 3021.31 1669.07 3020.22 1670.81C3019.17 1672.55 3018.65 1674.54 3018.65 1676.77C3018.65 1678.28 3018.96 1679.66 3019.58 1680.9C3020.24 1682.12 3021.24 1683.25 3022.59 1684.3C3023.97 1685.35 3025.7 1686.32 3027.8 1687.2C3029.94 1688.09 3032.48 1688.94 3035.43 1689.76C3039.5 1690.91 3043.01 1692.19 3045.97 1693.6C3048.92 1695.01 3051.35 1696.6 3053.25 1698.38C3055.19 1700.11 3056.61 1702.1 3057.53 1704.33C3058.48 1706.53 3058.96 1709.02 3058.96 1711.81C3058.96 1714.73 3058.37 1717.37 3057.19 1719.74C3056.01 1722.1 3054.32 1724.12 3052.12 1725.79C3049.92 1727.46 3047.28 1728.76 3044.19 1729.68C3041.14 1730.56 3037.73 1731.01 3033.96 1731.01C3030.64 1731.01 3027.38 1730.55 3024.16 1729.63C3020.98 1728.71 3018.08 1727.33 3015.45 1725.5C3012.86 1723.66 3010.77 1721.39 3009.2 1718.7C3007.66 1715.98 3006.89 1712.83 3006.89 1709.25H3016.34C3016.34 1711.71 3016.81 1713.83 3017.76 1715.6C3018.72 1717.34 3020.01 1718.79 3021.65 1719.93C3023.33 1721.08 3025.21 1721.94 3027.31 1722.49C3029.45 1723.02 3031.66 1723.28 3033.96 1723.28C3037.27 1723.28 3040.08 1722.82 3042.37 1721.9C3044.67 1720.98 3046.41 1719.67 3047.59 1717.96C3048.8 1716.26 3049.41 1714.24 3049.41 1711.91ZM3083.18 1720.57L3096.86 1676.77H3102.86L3101.68 1685.48L3087.75 1730.02H3081.9L3083.18 1720.57ZM3073.97 1676.77L3085.64 1721.07L3086.47 1730.02H3080.32L3064.87 1676.77H3073.97ZM3115.96 1720.72L3127.08 1676.77H3136.14L3120.68 1730.02H3114.58L3115.96 1720.72ZM3104.19 1676.77L3117.58 1719.84L3119.11 1730.02H3113.3L3098.97 1685.38L3097.79 1676.77H3104.19ZM3176.89 1720.92V1693.5C3176.89 1691.4 3176.46 1689.58 3175.61 1688.04C3174.79 1686.46 3173.54 1685.25 3171.87 1684.4C3170.19 1683.54 3168.13 1683.12 3165.67 1683.12C3163.37 1683.12 3161.35 1683.51 3159.61 1684.3C3157.91 1685.09 3156.56 1686.12 3155.58 1687.4C3154.62 1688.68 3154.15 1690.06 3154.15 1691.53H3145.04C3145.04 1689.63 3145.54 1687.74 3146.52 1685.87C3147.5 1684 3148.92 1682.31 3150.75 1680.8C3152.62 1679.26 3154.85 1678.05 3157.45 1677.16C3160.07 1676.24 3162.99 1675.78 3166.21 1675.78C3170.08 1675.78 3173.49 1676.44 3176.45 1677.75C3179.43 1679.07 3181.76 1681.05 3183.43 1683.71C3185.14 1686.33 3185.99 1689.63 3185.99 1693.6V1718.41C3185.99 1720.18 3186.14 1722.07 3186.44 1724.07C3186.76 1726.07 3187.24 1727.79 3187.86 1729.24V1730.02H3178.36C3177.91 1728.97 3177.54 1727.58 3177.28 1725.84C3177.02 1724.07 3176.89 1722.43 3176.89 1720.92ZM3178.46 1697.74L3178.56 1704.13H3169.36C3166.77 1704.13 3164.45 1704.35 3162.42 1704.77C3160.38 1705.17 3158.68 1705.77 3157.3 1706.6C3155.92 1707.42 3154.87 1708.45 3154.15 1709.7C3153.43 1710.91 3153.07 1712.34 3153.07 1713.98C3153.07 1715.65 3153.44 1717.18 3154.2 1718.56C3154.95 1719.93 3156.09 1721.03 3157.59 1721.85C3159.14 1722.64 3161.02 1723.03 3163.25 1723.03C3166.04 1723.03 3168.5 1722.44 3170.64 1721.26C3172.77 1720.08 3174.46 1718.64 3175.71 1716.93C3176.99 1715.22 3177.68 1713.57 3177.77 1711.96L3181.66 1716.34C3181.43 1717.72 3180.81 1719.24 3179.79 1720.92C3178.78 1722.59 3177.41 1724.2 3175.71 1725.74C3174.03 1727.25 3172.03 1728.51 3169.7 1729.53C3167.41 1730.52 3164.81 1731.01 3161.93 1731.01C3158.32 1731.01 3155.15 1730.3 3152.43 1728.89C3149.74 1727.48 3147.64 1725.59 3146.13 1723.23C3144.65 1720.84 3143.91 1718.16 3143.91 1715.21C3143.91 1712.35 3144.47 1709.84 3145.59 1707.68C3146.7 1705.48 3148.31 1703.66 3150.41 1702.21C3152.51 1700.74 3155.04 1699.62 3157.99 1698.87C3160.94 1698.11 3164.24 1697.74 3167.88 1697.74H3178.46ZM3234.82 1676.77H3243.09V1728.89C3243.09 1733.58 3242.14 1737.59 3240.23 1740.9C3238.33 1744.21 3235.67 1746.73 3232.26 1748.43C3228.88 1750.17 3224.98 1751.04 3220.55 1751.04C3218.71 1751.04 3216.54 1750.74 3214.05 1750.15C3211.59 1749.6 3209.16 1748.63 3206.76 1747.25C3204.4 1745.9 3202.42 1744.08 3200.81 1741.79L3205.58 1736.37C3207.81 1739.06 3210.14 1740.93 3212.57 1741.98C3215.03 1743.03 3217.46 1743.56 3219.86 1743.56C3222.74 1743.56 3225.24 1743.02 3227.34 1741.93C3229.44 1740.85 3231.06 1739.24 3232.21 1737.11C3233.39 1735.01 3233.98 1732.42 3233.98 1729.33V1688.48L3234.82 1676.77ZM3198.15 1703.99V1702.95C3198.15 1698.88 3198.63 1695.19 3199.58 1691.88C3200.56 1688.53 3201.96 1685.66 3203.76 1683.27C3205.6 1680.87 3207.81 1679.03 3210.41 1677.75C3213 1676.44 3215.92 1675.78 3219.17 1675.78C3222.51 1675.78 3225.43 1676.37 3227.93 1677.56C3230.45 1678.7 3232.59 1680.39 3234.33 1682.63C3236.1 1684.82 3237.49 1687.48 3238.51 1690.6C3239.53 1693.72 3240.23 1697.24 3240.63 1701.18V1705.71C3240.27 1709.61 3239.56 1713.12 3238.51 1716.24C3237.49 1719.36 3236.1 1722.02 3234.33 1724.22C3232.59 1726.41 3230.45 1728.1 3227.93 1729.29C3225.4 1730.43 3222.45 1731.01 3219.07 1731.01C3215.89 1731.01 3213 1730.34 3210.41 1728.99C3207.85 1727.64 3205.65 1725.76 3203.81 1723.33C3201.97 1720.9 3200.56 1718.05 3199.58 1714.77C3198.63 1711.45 3198.15 1707.86 3198.15 1703.99ZM3207.26 1702.95V1703.99C3207.26 1706.64 3207.52 1709.14 3208.04 1711.47C3208.6 1713.8 3209.44 1715.85 3210.55 1717.62C3211.7 1719.39 3213.16 1720.79 3214.93 1721.8C3216.71 1722.79 3218.82 1723.28 3221.28 1723.28C3224.3 1723.28 3226.8 1722.64 3228.76 1721.36C3230.73 1720.08 3232.29 1718.39 3233.44 1716.29C3234.62 1714.19 3235.54 1711.91 3236.2 1709.45V1697.59C3235.84 1695.78 3235.28 1694.04 3234.52 1692.37C3233.8 1690.66 3232.85 1689.16 3231.67 1687.84C3230.52 1686.5 3229.09 1685.43 3227.39 1684.64C3225.68 1683.86 3223.68 1683.46 3221.38 1683.46C3218.89 1683.46 3216.74 1683.99 3214.93 1685.04C3213.16 1686.05 3211.7 1687.47 3210.55 1689.27C3209.44 1691.04 3208.6 1693.11 3208.04 1695.47C3207.52 1697.8 3207.26 1700.3 3207.26 1702.95ZM3291.42 1676.77H3299.69V1728.89C3299.69 1733.58 3298.74 1737.59 3296.83 1740.9C3294.93 1744.21 3292.27 1746.73 3288.86 1748.43C3285.48 1750.17 3281.58 1751.04 3277.15 1751.04C3275.31 1751.04 3273.14 1750.74 3270.65 1750.15C3268.19 1749.6 3265.76 1748.63 3263.37 1747.25C3261 1745.9 3259.02 1744.08 3257.41 1741.79L3262.18 1736.37C3264.42 1739.06 3266.75 1740.93 3269.17 1741.98C3271.63 1743.03 3274.06 1743.56 3276.46 1743.56C3279.35 1743.56 3281.84 1743.02 3283.94 1741.93C3286.04 1740.85 3287.66 1739.24 3288.81 1737.11C3289.99 1735.01 3290.58 1732.42 3290.58 1729.33V1688.48L3291.42 1676.77ZM3254.75 1703.99V1702.95C3254.75 1698.88 3255.23 1695.19 3256.18 1691.88C3257.16 1688.53 3258.56 1685.66 3260.36 1683.27C3262.2 1680.87 3264.42 1679.03 3267.01 1677.75C3269.6 1676.44 3272.52 1675.78 3275.77 1675.78C3279.12 1675.78 3282.04 1676.37 3284.53 1677.56C3287.06 1678.7 3289.19 1680.39 3290.93 1682.63C3292.7 1684.82 3294.09 1687.48 3295.11 1690.6C3296.13 1693.72 3296.83 1697.24 3297.23 1701.18V1705.71C3296.87 1709.61 3296.16 1713.12 3295.11 1716.24C3294.09 1719.36 3292.7 1722.02 3290.93 1724.22C3289.19 1726.41 3287.06 1728.1 3284.53 1729.29C3282 1730.43 3279.05 1731.01 3275.67 1731.01C3272.49 1731.01 3269.6 1730.34 3267.01 1728.99C3264.45 1727.64 3262.25 1725.76 3260.41 1723.33C3258.58 1720.9 3257.16 1718.05 3256.18 1714.77C3255.23 1711.45 3254.75 1707.86 3254.75 1703.99ZM3263.86 1702.95V1703.99C3263.86 1706.64 3264.12 1709.14 3264.65 1711.47C3265.2 1713.8 3266.04 1715.85 3267.16 1717.62C3268.3 1719.39 3269.76 1720.79 3271.54 1721.8C3273.31 1722.79 3275.42 1723.28 3277.89 1723.28C3280.9 1723.28 3283.4 1722.64 3285.37 1721.36C3287.34 1720.08 3288.89 1718.39 3290.04 1716.29C3291.22 1714.19 3292.14 1711.91 3292.8 1709.45V1697.59C3292.44 1695.78 3291.88 1694.04 3291.13 1692.37C3290.4 1690.66 3289.45 1689.16 3288.27 1687.84C3287.12 1686.5 3285.69 1685.43 3283.99 1684.64C3282.28 1683.86 3280.28 1683.46 3277.98 1683.46C3275.49 1683.46 3273.34 1683.99 3271.54 1685.04C3269.76 1686.05 3268.3 1687.47 3267.16 1689.27C3266.04 1691.04 3265.2 1693.11 3264.65 1695.47C3264.12 1697.8 3263.86 1700.3 3263.86 1702.95ZM3335.62 1731.01C3331.91 1731.01 3328.55 1730.38 3325.53 1729.14C3322.54 1727.86 3319.97 1726.07 3317.8 1723.77C3315.67 1721.48 3314.03 1718.75 3312.88 1715.6C3311.73 1712.45 3311.16 1709.01 3311.16 1705.27V1703.2C3311.16 1698.87 3311.8 1695.01 3313.08 1691.63C3314.36 1688.22 3316.1 1685.33 3318.29 1682.97C3320.49 1680.61 3322.99 1678.82 3325.78 1677.61C3328.56 1676.39 3331.45 1675.78 3334.44 1675.78C3338.24 1675.78 3341.53 1676.44 3344.28 1677.75C3347.07 1679.07 3349.35 1680.9 3351.12 1683.27C3352.89 1685.6 3354.21 1688.35 3355.06 1691.53C3355.91 1694.68 3356.34 1698.13 3356.34 1701.87V1705.96H3316.57V1698.52H3347.23V1697.83C3347.1 1695.47 3346.61 1693.17 3345.76 1690.94C3344.94 1688.71 3343.63 1686.87 3341.82 1685.43C3340.02 1683.99 3337.55 1683.27 3334.44 1683.27C3332.37 1683.27 3330.47 1683.71 3328.73 1684.59C3326.99 1685.45 3325.5 1686.73 3324.25 1688.43C3323 1690.14 3322.03 1692.22 3321.35 1694.68C3320.66 1697.15 3320.31 1699.98 3320.31 1703.2V1705.27C3320.31 1707.79 3320.66 1710.17 3321.35 1712.4C3322.07 1714.6 3323.1 1716.54 3324.45 1718.21C3325.82 1719.88 3327.48 1721.2 3329.42 1722.15C3331.39 1723.1 3333.62 1723.58 3336.11 1723.58C3339.33 1723.58 3342.05 1722.92 3344.28 1721.61C3346.51 1720.29 3348.47 1718.54 3350.14 1716.34L3355.65 1720.72C3354.5 1722.46 3353.04 1724.12 3351.27 1725.69C3349.5 1727.27 3347.32 1728.55 3344.72 1729.53C3342.17 1730.52 3339.13 1731.01 3335.62 1731.01ZM3376.08 1685.14V1730.02H3366.97V1676.77H3375.83L3376.08 1685.14ZM3392.71 1676.47L3392.66 1684.94C3391.91 1684.77 3391.19 1684.68 3390.5 1684.64C3389.84 1684.58 3389.09 1684.55 3388.23 1684.55C3386.13 1684.55 3384.28 1684.87 3382.67 1685.53C3381.06 1686.19 3379.7 1687.1 3378.59 1688.29C3377.47 1689.47 3376.59 1690.88 3375.93 1692.52C3375.31 1694.13 3374.9 1695.9 3374.7 1697.83L3372.14 1699.31C3372.14 1696.1 3372.45 1693.08 3373.07 1690.25C3373.73 1687.43 3374.73 1684.94 3376.08 1682.77C3377.42 1680.57 3379.13 1678.87 3381.2 1677.65C3383.3 1676.41 3385.79 1675.78 3388.68 1675.78C3389.33 1675.78 3390.09 1675.87 3390.94 1676.03C3391.79 1676.16 3392.38 1676.31 3392.71 1676.47Z" fill="white"/>
<path d="M3611.43 1511.89L3638.92 1539.38M3611.43 1539.38L3638.92 1511.89" stroke="white" stroke-width="9.16365"/>
<rect x="2753.64" y="1438.58" width="361.291" height="100.655" fill="black"/>
<path d="M2853.86 1487.45V1489.31C2853.86 1492.28 2853.45 1494.94 2852.65 1497.31C2851.84 1499.67 2850.71 1501.68 2849.24 1503.35C2847.77 1504.99 2846.02 1506.25 2843.98 1507.13C2841.95 1508.01 2839.71 1508.45 2837.24 1508.45C2834.79 1508.45 2832.54 1508.01 2830.5 1507.13C2828.48 1506.25 2826.72 1504.99 2825.24 1503.35C2823.75 1501.68 2822.6 1499.67 2821.77 1497.31C2820.97 1494.94 2820.57 1492.28 2820.57 1489.31V1487.45C2820.57 1484.46 2820.97 1481.8 2821.77 1479.45C2822.58 1477.09 2823.72 1475.08 2825.18 1473.41C2826.67 1471.75 2828.42 1470.48 2830.45 1469.6C2832.49 1468.72 2834.73 1468.28 2837.18 1468.28C2839.65 1468.28 2841.9 1468.72 2843.92 1469.6C2845.96 1470.48 2847.72 1471.75 2849.19 1473.41C2850.67 1475.08 2851.82 1477.09 2852.62 1479.45C2853.44 1481.8 2853.86 1484.46 2853.86 1487.45ZM2845.72 1489.31V1487.4C2845.72 1485.32 2845.53 1483.5 2845.16 1481.92C2844.78 1480.35 2844.23 1479.02 2843.49 1477.95C2842.76 1476.88 2841.87 1476.07 2840.81 1475.53C2839.75 1474.98 2838.55 1474.7 2837.18 1474.7C2835.82 1474.7 2834.62 1474.98 2833.56 1475.53C2832.52 1476.07 2831.64 1476.88 2830.9 1477.95C2830.19 1479.02 2829.64 1480.35 2829.27 1481.92C2828.89 1483.5 2828.7 1485.32 2828.7 1487.4V1489.31C2828.7 1491.36 2828.89 1493.19 2829.27 1494.78C2829.64 1496.36 2830.2 1497.69 2830.93 1498.78C2831.66 1499.86 2832.56 1500.67 2833.61 1501.23C2834.67 1501.78 2835.88 1502.06 2837.24 1502.06C2838.6 1502.06 2839.81 1501.78 2840.86 1501.23C2841.92 1500.67 2842.8 1499.86 2843.52 1498.78C2844.24 1497.69 2844.78 1496.36 2845.16 1494.78C2845.53 1493.19 2845.72 1491.36 2845.72 1489.31ZM2874.88 1493.98H2864.92V1487.69H2874.88C2876.42 1487.69 2877.67 1487.44 2878.64 1486.94C2879.6 1486.42 2880.31 1485.71 2880.76 1484.8C2881.2 1483.88 2881.43 1482.85 2881.43 1481.71C2881.43 1480.54 2881.2 1479.46 2880.76 1478.46C2880.31 1477.46 2879.6 1476.65 2878.64 1476.04C2877.67 1475.43 2876.42 1475.13 2874.88 1475.13H2867.71V1507.91H2859.66V1468.82H2874.88C2877.94 1468.82 2880.56 1469.38 2882.74 1470.49C2884.94 1471.58 2886.63 1473.09 2887.79 1475.02C2888.95 1476.96 2889.54 1479.17 2889.54 1481.65C2889.54 1484.18 2888.95 1486.36 2887.79 1488.2C2886.63 1490.05 2884.94 1491.47 2882.74 1492.47C2880.56 1493.48 2877.94 1493.98 2874.88 1493.98ZM2921.32 1501.63V1507.91H2900.52V1501.63H2921.32ZM2903.15 1468.82V1507.91H2895.09V1468.82H2903.15ZM2918.61 1484.74V1490.86H2900.52V1484.74H2918.61ZM2921.3 1468.82V1475.13H2900.52V1468.82H2921.3ZM2957.83 1468.82V1507.91H2949.78L2934.07 1481.71V1507.91H2926.02V1468.82H2934.07L2949.81 1495.05V1468.82H2957.83ZM2981.22 1475.51L2970.59 1507.91H2962.02L2976.55 1468.82H2982L2981.22 1475.51ZM2990.05 1507.91L2979.39 1475.51L2978.53 1468.82H2984.04L2998.64 1507.91H2990.05ZM2989.57 1493.36V1499.67H2968.92V1493.36H2989.57ZM3017.49 1493.98H3007.53V1487.69H3017.49C3019.03 1487.69 3020.28 1487.44 3021.25 1486.94C3022.21 1486.42 3022.92 1485.71 3023.37 1484.8C3023.81 1483.88 3024.04 1482.85 3024.04 1481.71C3024.04 1480.54 3023.81 1479.46 3023.37 1478.46C3022.92 1477.46 3022.21 1476.65 3021.25 1476.04C3020.28 1475.43 3019.03 1475.13 3017.49 1475.13H3010.32V1507.91H3002.26V1468.82H3017.49C3020.55 1468.82 3023.17 1469.38 3025.35 1470.49C3027.55 1471.58 3029.24 1473.09 3030.4 1475.02C3031.56 1476.96 3032.15 1479.17 3032.15 1481.65C3032.15 1484.18 3031.56 1486.36 3030.4 1488.2C3029.24 1490.05 3027.55 1491.47 3025.35 1492.47C3023.17 1493.48 3020.55 1493.98 3017.49 1493.98ZM3046.27 1468.82V1507.91H3038.24V1468.82H3046.27Z" fill="white"/>
<rect x="2753.64" y="1438.58" width="361.291" height="100.655" stroke="white" stroke-width="9.16365"/>
<rect x="4975.5" y="1461.57" width="944.789" height="426.11" fill="black" stroke="white" stroke-width="9.16365"/>
<path d="M5352.36 1693.67C5352.36 1691.99 5352.09 1690.52 5351.57 1689.24C5351.08 1687.92 5350.19 1686.74 5348.91 1685.69C5347.66 1684.64 5345.93 1683.64 5343.69 1682.69C5341.5 1681.74 5338.71 1680.77 5335.33 1679.79C5331.78 1678.74 5328.58 1677.57 5325.73 1676.29C5322.87 1674.98 5320.43 1673.49 5318.4 1671.81C5316.36 1670.14 5314.8 1668.22 5313.72 1666.05C5312.64 1663.89 5312.1 1661.41 5312.1 1658.62C5312.1 1655.83 5312.67 1653.26 5313.82 1650.89C5314.97 1648.53 5316.61 1646.48 5318.74 1644.74C5320.91 1642.97 5323.48 1641.59 5326.47 1640.61C5329.45 1639.62 5332.78 1639.13 5336.46 1639.13C5341.84 1639.13 5346.4 1640.16 5350.14 1642.23C5353.92 1644.27 5356.79 1646.94 5358.76 1650.25C5360.72 1653.54 5361.71 1657.05 5361.71 1660.79H5352.26C5352.26 1658.1 5351.68 1655.72 5350.54 1653.65C5349.39 1651.55 5347.65 1649.91 5345.32 1648.73C5342.99 1647.51 5340.04 1646.91 5336.46 1646.91C5333.08 1646.91 5330.29 1647.42 5328.09 1648.43C5325.89 1649.45 5324.25 1650.83 5323.17 1652.57C5322.12 1654.31 5321.59 1656.29 5321.59 1658.52C5321.59 1660.03 5321.91 1661.41 5322.53 1662.66C5323.19 1663.87 5324.19 1665 5325.53 1666.05C5326.91 1667.1 5328.65 1668.07 5330.75 1668.96C5332.88 1669.84 5335.43 1670.7 5338.38 1671.52C5342.45 1672.67 5345.96 1673.95 5348.91 1675.36C5351.86 1676.77 5354.29 1678.36 5356.2 1680.13C5358.13 1681.87 5359.56 1683.85 5360.48 1686.09C5361.43 1688.28 5361.91 1690.78 5361.91 1693.57C5361.91 1696.49 5361.31 1699.13 5360.13 1701.49C5358.95 1703.85 5357.26 1705.87 5355.06 1707.55C5352.87 1709.22 5350.22 1710.52 5347.14 1711.43C5344.09 1712.32 5340.68 1712.76 5336.9 1712.76C5333.59 1712.76 5330.32 1712.3 5327.11 1711.38C5323.92 1710.47 5321.02 1709.09 5318.4 1707.25C5315.8 1705.41 5313.72 1703.15 5312.14 1700.46C5310.6 1697.73 5309.83 1694.58 5309.83 1691.01H5319.28C5319.28 1693.47 5319.76 1695.59 5320.71 1697.36C5321.66 1699.1 5322.96 1700.54 5324.6 1701.69C5326.27 1702.84 5328.16 1703.69 5330.26 1704.25C5332.39 1704.77 5334.6 1705.04 5336.9 1705.04C5340.22 1705.04 5343.02 1704.58 5345.32 1703.66C5347.62 1702.74 5349.35 1701.43 5350.54 1699.72C5351.75 1698.01 5352.36 1696 5352.36 1693.67ZM5394.73 1712.76C5391.03 1712.76 5387.66 1712.14 5384.64 1710.89C5381.66 1709.61 5379.08 1707.82 5376.92 1705.53C5374.78 1703.23 5373.14 1700.51 5371.99 1697.36C5370.85 1694.21 5370.27 1690.76 5370.27 1687.02V1684.95C5370.27 1680.62 5370.91 1676.77 5372.19 1673.39C5373.47 1669.98 5375.21 1667.09 5377.41 1664.73C5379.61 1662.36 5382.1 1660.57 5384.89 1659.36C5387.68 1658.15 5390.57 1657.54 5393.55 1657.54C5397.36 1657.54 5400.64 1658.2 5403.4 1659.51C5406.19 1660.82 5408.47 1662.66 5410.24 1665.02C5412.01 1667.35 5413.32 1670.11 5414.18 1673.29C5415.03 1676.44 5415.46 1679.88 5415.46 1683.63V1687.71H5375.69V1680.28H5406.35V1679.59C5406.22 1677.23 5405.73 1674.93 5404.87 1672.7C5404.05 1670.47 5402.74 1668.63 5400.94 1667.19C5399.13 1665.74 5396.67 1665.02 5393.55 1665.02C5391.49 1665.02 5389.58 1665.46 5387.84 1666.35C5386.1 1667.2 5384.61 1668.48 5383.36 1670.19C5382.12 1671.89 5381.15 1673.98 5380.46 1676.44C5379.77 1678.9 5379.43 1681.74 5379.43 1684.95V1687.02C5379.43 1689.55 5379.77 1691.93 5380.46 1694.16C5381.18 1696.36 5382.22 1698.29 5383.56 1699.97C5384.94 1701.64 5386.6 1702.95 5388.53 1703.9C5390.5 1704.85 5392.73 1705.33 5395.23 1705.33C5398.44 1705.33 5401.17 1704.67 5403.4 1703.36C5405.63 1702.05 5407.58 1700.29 5409.25 1698.1L5414.77 1702.48C5413.62 1704.22 5412.16 1705.87 5410.39 1707.45C5408.61 1709.02 5406.43 1710.3 5403.84 1711.29C5401.28 1712.27 5398.24 1712.76 5394.73 1712.76ZM5435.19 1666.89V1711.78H5426.09V1658.52H5434.95L5435.19 1666.89ZM5451.83 1658.23L5451.78 1666.69C5451.02 1666.53 5450.3 1666.43 5449.61 1666.4C5448.96 1666.33 5448.2 1666.3 5447.35 1666.3C5445.25 1666.3 5443.39 1666.63 5441.79 1667.28C5440.18 1667.94 5438.82 1668.86 5437.7 1670.04C5436.59 1671.22 5435.7 1672.63 5435.04 1674.27C5434.42 1675.88 5434.01 1677.65 5433.81 1679.59L5431.25 1681.07C5431.25 1677.85 5431.57 1674.83 5432.19 1672.01C5432.85 1669.19 5433.85 1666.69 5435.19 1664.53C5436.54 1662.33 5438.24 1660.62 5440.31 1659.41C5442.41 1658.16 5444.9 1657.54 5447.79 1657.54C5448.45 1657.54 5449.2 1657.62 5450.06 1657.79C5450.91 1657.92 5451.5 1658.06 5451.83 1658.23ZM5477.32 1703.56L5491.89 1658.52H5501.19L5482.05 1711.78H5475.95L5477.32 1703.56ZM5465.17 1658.52L5480.18 1703.8L5481.21 1711.78H5475.11L5455.81 1658.52H5465.17ZM5531.37 1712.76C5527.66 1712.76 5524.29 1712.14 5521.28 1710.89C5518.29 1709.61 5515.71 1707.82 5513.55 1705.53C5511.42 1703.23 5509.77 1700.51 5508.63 1697.36C5507.48 1694.21 5506.9 1690.76 5506.9 1687.02V1684.95C5506.9 1680.62 5507.54 1676.77 5508.82 1673.39C5510.1 1669.98 5511.84 1667.09 5514.04 1664.73C5516.24 1662.36 5518.73 1660.57 5521.52 1659.36C5524.31 1658.15 5527.2 1657.54 5530.18 1657.54C5533.99 1657.54 5537.27 1658.2 5540.03 1659.51C5542.82 1660.82 5545.1 1662.66 5546.87 1665.02C5548.64 1667.35 5549.95 1670.11 5550.81 1673.29C5551.66 1676.44 5552.09 1679.88 5552.09 1683.63V1687.71H5512.32V1680.28H5542.98V1679.59C5542.85 1677.23 5542.36 1674.93 5541.5 1672.7C5540.68 1670.47 5539.37 1668.63 5537.57 1667.19C5535.76 1665.74 5533.3 1665.02 5530.18 1665.02C5528.12 1665.02 5526.21 1665.46 5524.47 1666.35C5522.74 1667.2 5521.24 1668.48 5520 1670.19C5518.75 1671.89 5517.78 1673.98 5517.09 1676.44C5516.4 1678.9 5516.06 1681.74 5516.06 1684.95V1687.02C5516.06 1689.55 5516.4 1691.93 5517.09 1694.16C5517.81 1696.36 5518.85 1698.29 5520.19 1699.97C5521.57 1701.64 5523.23 1702.95 5525.16 1703.9C5527.13 1704.85 5529.36 1705.33 5531.86 1705.33C5535.07 1705.33 5537.8 1704.67 5540.03 1703.36C5542.26 1702.05 5544.21 1700.29 5545.88 1698.1L5551.4 1702.48C5550.25 1704.22 5548.79 1705.87 5547.02 1707.45C5545.25 1709.02 5543.06 1710.3 5540.47 1711.29C5537.91 1712.27 5534.88 1712.76 5531.37 1712.76ZM5571.82 1666.89V1711.78H5562.72V1658.52H5571.58L5571.82 1666.89ZM5588.46 1658.23L5588.41 1666.69C5587.66 1666.53 5586.93 1666.43 5586.24 1666.4C5585.59 1666.33 5584.83 1666.3 5583.98 1666.3C5581.88 1666.3 5580.03 1666.63 5578.42 1667.28C5576.81 1667.94 5575.45 1668.86 5574.33 1670.04C5573.22 1671.22 5572.33 1672.63 5571.68 1674.27C5571.05 1675.88 5570.64 1677.65 5570.45 1679.59L5567.89 1681.07C5567.89 1677.85 5568.2 1674.83 5568.82 1672.01C5569.48 1669.19 5570.48 1666.69 5571.82 1664.53C5573.17 1662.33 5574.87 1660.62 5576.94 1659.41C5579.04 1658.16 5581.54 1657.54 5584.42 1657.54C5585.08 1657.54 5585.83 1657.62 5586.69 1657.79C5587.54 1657.92 5588.13 1658.06 5588.46 1658.23Z" fill="white"/>
<path d="M5860.78 1493.65L5888.27 1521.14M5860.78 1521.14L5888.27 1493.65" stroke="white" stroke-width="9.16365"/>
<rect x="5002.99" y="1420.34" width="324.291" height="100.655" fill="black"/>
<path d="M5097.05 1483.38V1489.67H5076.25V1483.38H5097.05ZM5078.88 1450.58V1489.67H5070.82V1450.58H5078.88ZM5094.34 1466.5V1472.62H5076.25V1466.5H5094.34ZM5097.02 1450.58V1456.89H5076.25V1450.58H5097.02ZM5107.5 1460.62L5112.3 1469.45L5117.24 1460.62H5125.48L5117.27 1474.82L5125.86 1489.67H5117.59L5112.35 1480.32L5107.12 1489.67H5098.85L5107.44 1474.82L5099.23 1460.62H5107.5ZM5136.97 1466.2V1500.83H5129.24V1460.62H5136.41L5136.97 1466.2ZM5155.36 1474.82V1475.38C5155.36 1477.49 5155.11 1479.45 5154.61 1481.26C5154.13 1483.07 5153.41 1484.64 5152.46 1485.99C5151.51 1487.31 5150.33 1488.35 5148.92 1489.1C5147.52 1489.84 5145.91 1490.2 5144.09 1490.2C5142.32 1490.2 5140.78 1489.84 5139.47 1489.13C5138.16 1488.41 5137.06 1487.41 5136.17 1486.12C5135.29 1484.81 5134.58 1483.3 5134.05 1481.58C5133.51 1479.87 5133.1 1478.02 5132.81 1476.05V1474.58C5133.1 1472.47 5133.51 1470.53 5134.05 1468.78C5134.58 1467.01 5135.29 1465.48 5136.17 1464.19C5137.06 1462.88 5138.15 1461.87 5139.44 1461.15C5140.75 1460.44 5142.28 1460.08 5144.03 1460.08C5145.88 1460.08 5147.5 1460.43 5148.89 1461.13C5150.31 1461.83 5151.49 1462.83 5152.44 1464.13C5153.4 1465.44 5154.13 1467 5154.61 1468.81C5155.11 1470.61 5155.36 1472.62 5155.36 1474.82ZM5147.6 1475.38V1474.82C5147.6 1473.58 5147.5 1472.45 5147.28 1471.41C5147.08 1470.35 5146.76 1469.43 5146.32 1468.64C5145.89 1467.86 5145.31 1467.25 5144.6 1466.82C5143.9 1466.37 5143.05 1466.15 5142.05 1466.15C5140.99 1466.15 5140.09 1466.32 5139.34 1466.66C5138.6 1467 5138 1467.49 5137.54 1468.13C5137.07 1468.78 5136.72 1469.55 5136.49 1470.44C5136.26 1471.34 5136.11 1472.35 5136.06 1473.48V1477.21C5136.15 1478.53 5136.4 1479.72 5136.81 1480.78C5137.22 1481.82 5137.86 1482.64 5138.72 1483.25C5139.58 1483.86 5140.7 1484.16 5142.1 1484.16C5143.12 1484.16 5143.98 1483.94 5144.68 1483.49C5145.38 1483.02 5145.94 1482.39 5146.37 1481.58C5146.82 1480.78 5147.13 1479.85 5147.31 1478.79C5147.51 1477.74 5147.6 1476.6 5147.6 1475.38ZM5167.9 1466.95V1489.67H5160.17V1460.62H5167.44L5167.9 1466.95ZM5176.65 1460.43L5176.52 1467.6C5176.14 1467.54 5175.69 1467.5 5175.15 1467.46C5174.63 1467.41 5174.16 1467.38 5173.73 1467.38C5172.63 1467.38 5171.69 1467.53 5170.88 1467.81C5170.09 1468.08 5169.43 1468.48 5168.89 1469.02C5168.37 1469.56 5167.98 1470.21 5167.71 1470.98C5167.46 1471.75 5167.32 1472.63 5167.28 1473.61L5165.73 1473.13C5165.73 1471.25 5165.91 1469.52 5166.29 1467.95C5166.67 1466.35 5167.21 1464.97 5167.93 1463.78C5168.66 1462.6 5169.56 1461.69 5170.61 1461.05C5171.67 1460.4 5172.88 1460.08 5174.24 1460.08C5174.67 1460.08 5175.1 1460.12 5175.55 1460.19C5176 1460.24 5176.37 1460.32 5176.65 1460.43ZM5193.14 1490.2C5190.88 1490.2 5188.86 1489.84 5187.07 1489.13C5185.28 1488.39 5183.76 1487.38 5182.5 1486.09C5181.27 1484.81 5180.32 1483.31 5179.66 1481.61C5179 1479.89 5178.67 1478.07 5178.67 1476.13V1475.06C5178.67 1472.86 5178.98 1470.85 5179.61 1469.02C5180.23 1467.19 5181.13 1465.61 5182.29 1464.27C5183.47 1462.93 5184.9 1461.9 5186.59 1461.18C5188.27 1460.45 5190.16 1460.08 5192.28 1460.08C5194.33 1460.08 5196.16 1460.42 5197.75 1461.1C5199.35 1461.78 5200.68 1462.75 5201.75 1464C5202.85 1465.25 5203.67 1466.76 5204.22 1468.51C5204.78 1470.25 5205.06 1472.18 5205.06 1474.31V1477.53H5181.97V1472.38H5197.46V1471.79C5197.46 1470.71 5197.26 1469.75 5196.87 1468.91C5196.49 1468.05 5195.92 1467.37 5195.15 1466.87C5194.38 1466.37 5193.4 1466.12 5192.2 1466.12C5191.18 1466.12 5190.3 1466.34 5189.57 1466.79C5188.83 1467.24 5188.23 1467.87 5187.77 1468.67C5187.32 1469.48 5186.98 1470.42 5186.75 1471.52C5186.53 1472.59 5186.42 1473.77 5186.42 1475.06V1476.13C5186.42 1477.3 5186.59 1478.37 5186.91 1479.36C5187.25 1480.34 5187.72 1481.19 5188.33 1481.91C5188.96 1482.62 5189.71 1483.18 5190.59 1483.57C5191.48 1483.96 5192.49 1484.16 5193.62 1484.16C5195.02 1484.16 5196.31 1483.89 5197.51 1483.36C5198.73 1482.8 5199.78 1481.97 5200.65 1480.86L5204.41 1484.94C5203.8 1485.82 5202.97 1486.66 5201.91 1487.46C5200.88 1488.27 5199.62 1488.93 5198.16 1489.45C5196.69 1489.95 5195.02 1490.2 5193.14 1490.2ZM5225.16 1481.64C5225.16 1481.08 5225 1480.58 5224.68 1480.13C5224.36 1479.69 5223.76 1479.28 5222.88 1478.9C5222.02 1478.51 5220.78 1478.15 5219.15 1477.83C5217.68 1477.5 5216.31 1477.1 5215.04 1476.62C5213.79 1476.12 5212.7 1475.52 5211.77 1474.82C5210.85 1474.12 5210.14 1473.3 5209.62 1472.35C5209.1 1471.38 5208.84 1470.28 5208.84 1469.05C5208.84 1467.83 5209.1 1466.68 5209.62 1465.61C5210.16 1464.54 5210.92 1463.59 5211.9 1462.76C5212.9 1461.92 5214.12 1461.27 5215.55 1460.8C5217 1460.32 5218.63 1460.08 5220.44 1460.08C5222.96 1460.08 5225.13 1460.48 5226.94 1461.29C5228.76 1462.09 5230.16 1463.2 5231.12 1464.62C5232.11 1466.01 5232.6 1467.61 5232.6 1469.4H5224.87C5224.87 1468.64 5224.71 1467.97 5224.39 1467.38C5224.08 1466.77 5223.6 1466.3 5222.94 1465.96C5222.29 1465.6 5221.45 1465.42 5220.41 1465.42C5219.55 1465.42 5218.81 1465.57 5218.18 1465.88C5217.56 1466.17 5217.07 1466.56 5216.73 1467.06C5216.41 1467.54 5216.25 1468.08 5216.25 1468.67C5216.25 1469.12 5216.34 1469.52 5216.52 1469.88C5216.72 1470.22 5217.03 1470.53 5217.46 1470.82C5217.89 1471.11 5218.44 1471.37 5219.12 1471.62C5219.82 1471.86 5220.68 1472.07 5221.7 1472.27C5223.79 1472.7 5225.66 1473.26 5227.31 1473.96C5228.96 1474.64 5230.26 1475.57 5231.23 1476.75C5232.2 1477.92 5232.68 1479.45 5232.68 1481.34C5232.68 1482.63 5232.39 1483.81 5231.82 1484.89C5231.25 1485.96 5230.43 1486.9 5229.35 1487.71C5228.28 1488.49 5226.99 1489.11 5225.49 1489.56C5224 1489.99 5222.33 1490.2 5220.47 1490.2C5217.76 1490.2 5215.47 1489.72 5213.59 1488.75C5211.73 1487.79 5210.32 1486.56 5209.35 1485.07C5208.4 1483.57 5207.93 1482.03 5207.93 1480.46H5215.26C5215.29 1481.51 5215.56 1482.36 5216.06 1483.01C5216.58 1483.65 5217.24 1484.12 5218.02 1484.4C5218.83 1484.69 5219.7 1484.83 5220.63 1484.83C5221.63 1484.83 5222.46 1484.7 5223.12 1484.43C5223.79 1484.14 5224.29 1483.77 5224.63 1483.3C5224.98 1482.82 5225.16 1482.26 5225.16 1481.64ZM5253.41 1481.64C5253.41 1481.08 5253.25 1480.58 5252.92 1480.13C5252.6 1479.69 5252 1479.28 5251.12 1478.9C5250.27 1478.51 5249.02 1478.15 5247.39 1477.83C5245.93 1477.5 5244.56 1477.1 5243.29 1476.62C5242.03 1476.12 5240.94 1475.52 5240.01 1474.82C5239.1 1474.12 5238.38 1473.3 5237.86 1472.35C5237.34 1471.38 5237.08 1470.28 5237.08 1469.05C5237.08 1467.83 5237.34 1466.68 5237.86 1465.61C5238.4 1464.54 5239.16 1463.59 5240.14 1462.76C5241.15 1461.92 5242.36 1461.27 5243.8 1460.8C5245.25 1460.32 5246.87 1460.08 5248.68 1460.08C5251.21 1460.08 5253.37 1460.48 5255.18 1461.29C5257 1462.09 5258.4 1463.2 5259.37 1464.62C5260.35 1466.01 5260.84 1467.61 5260.84 1469.4H5253.11C5253.11 1468.64 5252.95 1467.97 5252.63 1467.38C5252.32 1466.77 5251.84 1466.3 5251.18 1465.96C5250.53 1465.6 5249.69 1465.42 5248.65 1465.42C5247.8 1465.42 5247.05 1465.57 5246.43 1465.88C5245.8 1466.17 5245.32 1466.56 5244.98 1467.06C5244.65 1467.54 5244.49 1468.08 5244.49 1468.67C5244.49 1469.12 5244.58 1469.52 5244.76 1469.88C5244.96 1470.22 5245.27 1470.53 5245.7 1470.82C5246.13 1471.11 5246.69 1471.37 5247.37 1471.62C5248.06 1471.86 5248.92 1472.07 5249.94 1472.27C5252.04 1472.7 5253.91 1473.26 5255.55 1473.96C5257.2 1474.64 5258.51 1475.57 5259.47 1476.75C5260.44 1477.92 5260.92 1479.45 5260.92 1481.34C5260.92 1482.63 5260.64 1483.81 5260.06 1484.89C5259.49 1485.96 5258.67 1486.9 5257.59 1487.71C5256.52 1488.49 5255.23 1489.11 5253.73 1489.56C5252.24 1489.99 5250.57 1490.2 5248.71 1490.2C5246.01 1490.2 5243.71 1489.72 5241.84 1488.75C5239.97 1487.79 5238.56 1486.56 5237.59 1485.07C5236.65 1483.57 5236.17 1482.03 5236.17 1480.46H5243.5C5243.54 1481.51 5243.8 1482.36 5244.31 1483.01C5244.82 1483.65 5245.48 1484.12 5246.27 1484.4C5247.07 1484.69 5247.94 1484.83 5248.87 1484.83C5249.87 1484.83 5250.7 1484.7 5251.37 1484.43C5252.03 1484.14 5252.53 1483.77 5252.87 1483.3C5253.23 1482.82 5253.41 1482.26 5253.41 1481.64Z" fill="white"/>
<rect x="5002.99" y="1420.34" width="324.291" height="100.655" stroke="white" stroke-width="9.16365"/>
<path fill-rule="evenodd" clip-rule="evenodd" d="M1676.26 1725.71H2711.15V1720.5H1676.39C1676.39 1720.85 1676.39 1721.2 1676.39 1721.55C1676.39 1722.95 1676.35 1724.33 1676.26 1725.71ZM1554.03 1725.71C1553.94 1724.33 1553.89 1722.95 1553.89 1721.55C1553.89 1721.2 1553.9 1720.85 1553.9 1720.5H1441.82V1725.71H1554.03Z" fill="black"/>
<path d="M2650.87 1660.55L2713.42 1723.11L2650.87 1785.66" stroke="black" stroke-width="5.21285"/>
<circle cx="1615.14" cy="1721.55" r="50.8253" stroke="black" stroke-width="5.21285"/>
<path d="M1590.38 1722.85L1606.02 1738.49L1637.3 1707.21" stroke="black" stroke-width="5.21285"/>
<rect width="609.771" height="224.386" transform="translate(1561.71 1602.95)" fill="#003245"/>
<path d="M1738.36 1700.35L1727.27 1734.14H1718.34L1733.49 1693.38H1739.17L1738.36 1700.35ZM1747.57 1734.14L1736.46 1700.35L1735.56 1693.38H1741.3L1756.53 1734.14H1747.57ZM1747.07 1718.97V1725.55H1725.54V1718.97H1747.07ZM1776.19 1719.61H1765.8V1713.06H1776.19C1777.79 1713.06 1779.1 1712.8 1780.11 1712.28C1781.12 1711.74 1781.85 1710.99 1782.32 1710.04C1782.79 1709.09 1783.02 1708.01 1783.02 1706.82C1783.02 1705.6 1782.79 1704.48 1782.32 1703.43C1781.85 1702.38 1781.12 1701.54 1780.11 1700.91C1779.1 1700.28 1777.79 1699.96 1776.19 1699.96H1768.71V1734.14H1760.31V1693.38H1776.19C1779.38 1693.38 1782.11 1693.96 1784.39 1695.11C1786.69 1696.25 1788.44 1697.83 1789.66 1699.85C1790.87 1701.86 1791.48 1704.17 1791.48 1706.76C1791.48 1709.39 1790.87 1711.67 1789.66 1713.59C1788.44 1715.52 1786.69 1717 1784.39 1718.05C1782.11 1719.09 1779.38 1719.61 1776.19 1719.61ZM1806.2 1693.38V1734.14H1797.83V1693.38H1806.2ZM1832.19 1693.38H1839.3L1849.77 1723.31L1860.24 1693.38H1867.35L1852.62 1734.14H1846.91L1832.19 1693.38ZM1828.35 1693.38H1835.43L1836.72 1722.55V1734.14H1828.35V1693.38ZM1864.1 1693.38H1871.22V1734.14H1862.82V1722.55L1864.1 1693.38ZM1912.07 1712.81V1714.74C1912.07 1717.84 1911.65 1720.62 1910.81 1723.09C1909.97 1725.55 1908.78 1727.65 1907.25 1729.38C1905.72 1731.1 1903.89 1732.42 1901.76 1733.33C1899.65 1734.25 1897.31 1734.7 1894.73 1734.7C1892.18 1734.7 1889.83 1734.25 1887.71 1733.33C1885.6 1732.42 1883.77 1731.1 1882.22 1729.38C1880.67 1727.65 1879.47 1725.55 1878.61 1723.09C1877.77 1720.62 1877.35 1717.84 1877.35 1714.74V1712.81C1877.35 1709.69 1877.77 1706.91 1878.61 1704.47C1879.45 1702 1880.63 1699.9 1882.16 1698.17C1883.71 1696.43 1885.54 1695.1 1887.65 1694.19C1889.78 1693.28 1892.12 1692.82 1894.68 1692.82C1897.25 1692.82 1899.6 1693.28 1901.71 1694.19C1903.83 1695.1 1905.66 1696.43 1907.19 1698.17C1908.74 1699.9 1909.94 1702 1910.78 1704.47C1911.64 1706.91 1912.07 1709.69 1912.07 1712.81ZM1903.58 1714.74V1712.75C1903.58 1710.59 1903.39 1708.68 1902.99 1707.04C1902.6 1705.4 1902.02 1704.02 1901.26 1702.9C1900.49 1701.78 1899.56 1700.94 1898.46 1700.38C1897.36 1699.8 1896.1 1699.51 1894.68 1699.51C1893.26 1699.51 1892 1699.8 1890.9 1700.38C1889.82 1700.94 1888.89 1701.78 1888.13 1702.9C1887.38 1704.02 1886.81 1705.4 1886.42 1707.04C1886.03 1708.68 1885.83 1710.59 1885.83 1712.75V1714.74C1885.83 1716.89 1886.03 1718.79 1886.42 1720.45C1886.81 1722.1 1887.39 1723.49 1888.15 1724.62C1888.92 1725.74 1889.85 1726.59 1890.95 1727.17C1892.06 1727.75 1893.32 1728.04 1894.73 1728.04C1896.15 1728.04 1897.41 1727.75 1898.51 1727.17C1899.62 1726.59 1900.54 1725.74 1901.29 1724.62C1902.03 1723.49 1902.6 1722.1 1902.99 1720.45C1903.39 1718.79 1903.58 1716.89 1903.58 1714.74ZM1930.63 1734.14H1921.75L1921.81 1727.59H1930.63C1932.83 1727.59 1934.69 1727.1 1936.2 1726.11C1937.71 1725.1 1938.85 1723.64 1939.62 1721.71C1940.4 1719.79 1940.79 1717.47 1940.79 1714.74V1712.75C1940.79 1710.66 1940.57 1708.82 1940.12 1707.24C1939.69 1705.65 1939.05 1704.32 1938.19 1703.23C1937.33 1702.15 1936.28 1701.34 1935.02 1700.8C1933.77 1700.24 1932.34 1699.96 1930.71 1699.96H1921.59V1693.38H1930.71C1933.44 1693.38 1935.93 1693.85 1938.19 1694.78C1940.47 1695.69 1942.43 1697.01 1944.1 1698.73C1945.76 1700.44 1947.04 1702.5 1947.93 1704.89C1948.85 1707.26 1949.3 1709.9 1949.3 1712.81V1714.74C1949.3 1717.63 1948.85 1720.28 1947.93 1722.67C1947.04 1725.05 1945.76 1727.11 1944.1 1728.82C1942.45 1730.52 1940.48 1731.84 1938.19 1732.77C1935.91 1733.69 1933.39 1734.14 1930.63 1734.14ZM1926.51 1693.38V1734.14H1918.11V1693.38H1926.51ZM1982.76 1727.59V1734.14H1961.06V1727.59H1982.76ZM1963.81 1693.38V1734.14H1955.41V1693.38H1963.81ZM1979.93 1709.98V1716.37H1961.06V1709.98H1979.93ZM1982.73 1693.38V1699.96H1961.06V1693.38H1982.73ZM2013.87 1727.59V1734.14H1993.35V1727.59H2013.87ZM1996.06 1693.38V1734.14H1987.66V1693.38H1996.06Z" fill="white"/>
<path fill-rule="evenodd" clip-rule="evenodd" d="M4736.48 1710.07H3701.59V1704.86H4736.35C4736.34 1705.21 4736.34 1705.56 4736.34 1705.91C4736.34 1707.31 4736.39 1708.7 4736.48 1710.07ZM4858.7 1710.07C4858.79 1708.7 4858.84 1707.31 4858.84 1705.91C4858.84 1705.56 4858.84 1705.21 4858.83 1704.86H4970.92V1710.07H4858.7Z" fill="black"/>
<path d="M3761.87 1644.91L3699.31 1707.47L3761.87 1770.02" stroke="black" stroke-width="5.21285"/>
<circle r="50.8253" transform="matrix(-1 0 0 1 4797.59 1705.91)" stroke="black" stroke-width="5.21285"/>
<path d="M4822.35 1707.21L4806.71 1722.85L4775.44 1691.57" stroke="black" stroke-width="5.21285"/>
<rect width="609.771" height="224.386" transform="translate(4241.59 1587.31)" fill="#003245"/>
<path d="M4418.24 1684.71L4407.15 1718.51H4398.22L4413.36 1677.74H4419.05L4418.24 1684.71ZM4427.45 1718.51L4416.33 1684.71L4415.44 1677.74H4421.18L4436.41 1718.51H4427.45ZM4426.94 1703.33V1709.91H4405.41V1703.33H4426.94ZM4456.06 1703.98H4445.68V1697.42H4456.06C4457.67 1697.42 4458.97 1697.16 4459.98 1696.64C4460.99 1696.1 4461.73 1695.35 4462.19 1694.4C4462.66 1693.45 4462.89 1692.37 4462.89 1691.18C4462.89 1689.97 4462.66 1688.84 4462.19 1687.79C4461.73 1686.75 4460.99 1685.91 4459.98 1685.27C4458.97 1684.64 4457.67 1684.32 4456.06 1684.32H4448.59V1718.51H4440.19V1677.74H4456.06C4459.25 1677.74 4461.99 1678.32 4464.27 1679.48C4466.56 1680.62 4468.32 1682.19 4469.53 1684.21C4470.74 1686.22 4471.35 1688.53 4471.35 1691.12C4471.35 1693.76 4470.74 1696.03 4469.53 1697.96C4468.32 1699.88 4466.56 1701.36 4464.27 1702.41C4461.99 1703.45 4459.25 1703.98 4456.06 1703.98ZM4486.08 1677.74V1718.51H4477.71V1677.74H4486.08ZM4512.06 1677.74H4519.17L4529.64 1707.67L4540.11 1677.74H4547.23L4532.5 1718.51H4526.79L4512.06 1677.74ZM4508.22 1677.74H4515.31L4516.6 1706.92V1718.51H4508.22V1677.74ZM4543.98 1677.74H4551.09V1718.51H4542.69V1706.92L4543.98 1677.74ZM4591.94 1697.17V1699.1C4591.94 1702.2 4591.52 1704.98 4590.68 1707.45C4589.84 1709.91 4588.66 1712.01 4587.12 1713.75C4585.59 1715.46 4583.77 1716.78 4581.64 1717.69C4579.53 1718.61 4577.19 1719.07 4574.61 1719.07C4572.05 1719.07 4569.71 1718.61 4567.58 1717.69C4565.47 1716.78 4563.64 1715.46 4562.09 1713.75C4560.54 1712.01 4559.34 1709.91 4558.48 1707.45C4557.64 1704.98 4557.22 1702.2 4557.22 1699.1V1697.17C4557.22 1694.05 4557.64 1691.27 4558.48 1688.83C4559.32 1686.36 4560.51 1684.26 4562.04 1682.53C4563.59 1680.79 4565.42 1679.47 4567.53 1678.55C4569.65 1677.64 4572 1677.18 4574.55 1677.18C4577.13 1677.18 4579.47 1677.64 4581.58 1678.55C4583.71 1679.47 4585.54 1680.79 4587.07 1682.53C4588.62 1684.26 4589.81 1686.36 4590.65 1688.83C4591.51 1691.27 4591.94 1694.05 4591.94 1697.17ZM4583.46 1699.1V1697.12C4583.46 1694.95 4583.26 1693.05 4582.87 1691.4C4582.48 1689.76 4581.9 1688.38 4581.13 1687.26C4580.37 1686.14 4579.43 1685.3 4578.33 1684.74C4577.23 1684.16 4575.97 1683.87 4574.55 1683.87C4573.13 1683.87 4571.87 1684.16 4570.77 1684.74C4569.69 1685.3 4568.77 1686.14 4568 1687.26C4567.26 1688.38 4566.69 1689.76 4566.29 1691.4C4565.9 1693.05 4565.71 1694.95 4565.71 1697.12V1699.1C4565.71 1701.25 4565.9 1703.15 4566.29 1704.82C4566.69 1706.46 4567.26 1707.85 4568.03 1708.99C4568.8 1710.11 4569.73 1710.96 4570.83 1711.54C4571.93 1712.11 4573.19 1712.4 4574.61 1712.4C4576.03 1712.4 4577.29 1712.11 4578.39 1711.54C4579.49 1710.96 4580.41 1710.11 4581.16 1708.99C4581.91 1707.85 4582.48 1706.46 4582.87 1704.82C4583.26 1703.15 4583.46 1701.25 4583.46 1699.1ZM4610.5 1718.51H4601.63L4601.68 1711.96H4610.5C4612.71 1711.96 4614.56 1711.46 4616.08 1710.47C4617.59 1709.46 4618.73 1708 4619.49 1706.08C4620.28 1704.15 4620.67 1701.83 4620.67 1699.1V1697.12C4620.67 1695.03 4620.44 1693.19 4620 1691.6C4619.57 1690.01 4618.92 1688.68 4618.06 1687.6C4617.2 1686.51 4616.15 1685.7 4614.9 1685.16C4613.65 1684.6 4612.21 1684.32 4610.59 1684.32H4601.46V1677.74H4610.59C4613.31 1677.74 4615.8 1678.21 4618.06 1679.14C4620.34 1680.06 4622.31 1681.37 4623.97 1683.09C4625.63 1684.81 4626.91 1686.86 4627.81 1689.25C4628.72 1691.62 4629.18 1694.26 4629.18 1697.17V1699.1C4629.18 1702 4628.72 1704.64 4627.81 1707.03C4626.91 1709.42 4625.63 1711.47 4623.97 1713.19C4622.33 1714.89 4620.36 1716.2 4618.06 1717.13C4615.79 1718.05 4613.27 1718.51 4610.5 1718.51ZM4606.39 1677.74V1718.51H4597.99V1677.74H4606.39ZM4662.64 1711.96V1718.51H4640.94V1711.96H4662.64ZM4643.68 1677.74V1718.51H4635.28V1677.74H4643.68ZM4659.81 1694.34V1700.73H4640.94V1694.34H4659.81ZM4662.61 1677.74V1684.32H4640.94V1677.74H4662.61ZM4693.74 1711.96V1718.51H4673.22V1711.96H4693.74ZM4675.94 1677.74V1718.51H4667.54V1677.74H4675.94Z" fill="white"/>
<path d="M5513.06 1438.75V1196.35C5513.06 1153.17 5478.05 1118.16 5434.86 1118.16L3288.47 1118.16L1142.08 1118.16C1098.89 1118.16 1063.89 1153.17 1063.89 1196.35V1468.72" stroke="black" stroke-width="5.21285"/>
<path d="M2746.88 1218.16L2770.88 1242.16L2794.88 1218.16" stroke="black" stroke-width="2"/>
<circle r="13.0321" transform="matrix(0 1 1 0 1063.88 1480.45)" fill="black"/>
<rect width="740.872" height="285.936" transform="translate(2893.2 985.229)" fill="#003245"/>
<path d="M3113.54 1145.86C3114.81 1145.86 3115.93 1145.62 3116.91 1145.14C3117.89 1144.64 3118.65 1143.95 3119.2 1143.07C3119.77 1142.16 3120.07 1141.1 3120.09 1139.88H3129.79C3129.77 1142.6 3129.04 1145.02 3127.61 1147.15C3126.18 1149.25 3124.26 1150.91 3121.85 1152.12C3119.44 1153.32 3116.74 1153.91 3113.76 1153.91C3110.75 1153.91 3108.13 1153.41 3105.88 1152.41C3103.66 1151.41 3101.81 1150.02 3100.33 1148.26C3098.85 1146.47 3097.74 1144.39 3097.01 1142.03C3096.27 1139.64 3095.9 1137.09 3095.9 1134.37V1133.33C3095.9 1130.59 3096.27 1128.03 3097.01 1125.67C3097.74 1123.28 3098.85 1121.21 3100.33 1119.44C3101.81 1117.65 3103.66 1116.26 3105.88 1115.25C3108.1 1114.25 3110.7 1113.75 3113.69 1113.75C3116.86 1113.75 3119.64 1114.36 3122.03 1115.58C3124.44 1116.79 3126.32 1118.53 3127.68 1120.8C3129.07 1123.05 3129.77 1125.71 3129.79 1128.78H3120.09C3120.07 1127.5 3119.8 1126.33 3119.27 1125.28C3118.77 1124.23 3118.03 1123.39 3117.05 1122.77C3116.1 1122.13 3114.91 1121.8 3113.51 1121.8C3112 1121.8 3110.77 1122.13 3109.82 1122.77C3108.87 1123.39 3108.13 1124.25 3107.6 1125.35C3107.08 1126.42 3106.71 1127.65 3106.49 1129.04C3106.3 1130.4 3106.2 1131.83 3106.2 1133.33V1134.37C3106.2 1135.87 3106.3 1137.32 3106.49 1138.7C3106.68 1140.08 3107.04 1141.31 3107.56 1142.39C3108.11 1143.46 3108.87 1144.31 3109.82 1144.93C3110.77 1145.55 3112.02 1145.86 3113.54 1145.86ZM3134.13 1134.23V1133.47C3134.13 1130.63 3134.53 1128.02 3135.34 1125.63C3136.15 1123.22 3137.34 1121.14 3138.89 1119.37C3140.44 1117.6 3142.35 1116.23 3144.61 1115.25C3146.88 1114.25 3149.48 1113.75 3152.42 1113.75C3155.35 1113.75 3157.97 1114.25 3160.26 1115.25C3162.55 1116.23 3164.47 1117.6 3166.02 1119.37C3167.59 1121.14 3168.79 1123.22 3169.6 1125.63C3170.41 1128.02 3170.82 1130.63 3170.82 1133.47V1134.23C3170.82 1137.04 3170.41 1139.65 3169.6 1142.06C3168.79 1144.45 3167.59 1146.54 3166.02 1148.33C3164.47 1150.09 3162.56 1151.47 3160.29 1152.45C3158.03 1153.42 3155.42 1153.91 3152.49 1153.91C3149.55 1153.91 3146.94 1153.42 3144.65 1152.45C3142.38 1151.47 3140.46 1150.09 3138.89 1148.33C3137.34 1146.54 3136.15 1144.45 3135.34 1142.06C3134.53 1139.65 3134.13 1137.04 3134.13 1134.23ZM3144.43 1133.47V1134.23C3144.43 1135.85 3144.58 1137.36 3144.86 1138.77C3145.15 1140.18 3145.6 1141.42 3146.22 1142.49C3146.87 1143.54 3147.7 1144.37 3148.73 1144.96C3149.76 1145.56 3151.01 1145.86 3152.49 1145.86C3153.92 1145.86 3155.15 1145.56 3156.18 1144.96C3157.2 1144.37 3158.03 1143.54 3158.65 1142.49C3159.27 1141.42 3159.72 1140.18 3160.01 1138.77C3160.32 1137.36 3160.47 1135.85 3160.47 1134.23V1133.47C3160.47 1131.9 3160.32 1130.42 3160.01 1129.04C3159.72 1127.63 3159.25 1126.39 3158.61 1125.31C3157.99 1124.21 3157.17 1123.36 3156.14 1122.74C3155.11 1122.11 3153.87 1121.8 3152.42 1121.8C3150.96 1121.8 3149.72 1122.11 3148.69 1122.74C3147.69 1123.36 3146.87 1124.21 3146.22 1125.31C3145.6 1126.39 3145.15 1127.63 3144.86 1129.04C3144.58 1130.42 3144.43 1131.9 3144.43 1133.47ZM3187.25 1122.74V1153.2H3176.94V1114.47H3186.6L3187.25 1122.74ZM3185.74 1132.47H3182.95C3182.95 1129.61 3183.32 1127.03 3184.06 1124.74C3184.8 1122.42 3185.84 1120.46 3187.17 1118.83C3188.51 1117.19 3190.1 1115.93 3191.94 1115.07C3193.8 1114.19 3195.87 1113.75 3198.16 1113.75C3199.98 1113.75 3201.64 1114.01 3203.14 1114.54C3204.64 1115.06 3205.93 1115.9 3207.01 1117.04C3208.1 1118.19 3208.94 1119.7 3209.51 1121.59C3210.11 1123.47 3210.41 1125.78 3210.41 1128.5V1153.2H3200.03V1128.46C3200.03 1126.74 3199.79 1125.41 3199.31 1124.45C3198.83 1123.5 3198.13 1122.83 3197.2 1122.45C3196.29 1122.04 3195.17 1121.84 3193.83 1121.84C3192.45 1121.84 3191.24 1122.11 3190.22 1122.66C3189.22 1123.21 3188.38 1123.98 3187.71 1124.95C3187.07 1125.91 3186.58 1127.03 3186.24 1128.32C3185.91 1129.61 3185.74 1130.99 3185.74 1132.47ZM3239.19 1142.49C3239.19 1141.75 3238.97 1141.09 3238.54 1140.49C3238.11 1139.89 3237.31 1139.34 3236.14 1138.84C3235 1138.32 3233.34 1137.84 3231.17 1137.41C3229.21 1136.98 3227.39 1136.44 3225.69 1135.8C3224.02 1135.13 3222.57 1134.33 3221.32 1133.4C3220.11 1132.47 3219.15 1131.37 3218.46 1130.11C3217.77 1128.82 3217.42 1127.35 3217.42 1125.71C3217.42 1124.08 3217.77 1122.56 3218.46 1121.12C3219.18 1119.69 3220.19 1118.43 3221.5 1117.33C3222.84 1116.21 3224.46 1115.34 3226.37 1114.72C3228.3 1114.07 3230.48 1113.75 3232.89 1113.75C3236.25 1113.75 3239.14 1114.29 3241.55 1115.36C3243.98 1116.43 3245.84 1117.91 3247.13 1119.8C3248.45 1121.66 3249.1 1123.79 3249.1 1126.17H3238.79C3238.79 1125.17 3238.58 1124.27 3238.15 1123.49C3237.74 1122.68 3237.1 1122.04 3236.22 1121.59C3235.36 1121.11 3234.23 1120.87 3232.85 1120.87C3231.7 1120.87 3230.71 1121.08 3229.88 1121.48C3229.04 1121.86 3228.4 1122.39 3227.95 1123.06C3227.52 1123.7 3227.3 1124.42 3227.3 1125.2C3227.3 1125.8 3227.42 1126.34 3227.66 1126.82C3227.92 1127.27 3228.34 1127.69 3228.91 1128.07C3229.49 1128.45 3230.23 1128.81 3231.13 1129.14C3232.06 1129.45 3233.21 1129.74 3234.57 1130C3237.36 1130.57 3239.85 1131.33 3242.05 1132.26C3244.25 1133.16 3245.99 1134.4 3247.28 1135.98C3248.56 1137.53 3249.21 1139.57 3249.21 1142.1C3249.21 1143.82 3248.83 1145.39 3248.06 1146.83C3247.3 1148.26 3246.2 1149.51 3244.77 1150.58C3243.34 1151.63 3241.62 1152.46 3239.62 1153.05C3237.64 1153.63 3235.4 1153.91 3232.92 1153.91C3229.32 1153.91 3226.26 1153.27 3223.76 1151.98C3221.28 1150.69 3219.39 1149.06 3218.1 1147.08C3216.84 1145.07 3216.21 1143.02 3216.21 1140.92H3225.98C3226.03 1142.33 3226.38 1143.46 3227.05 1144.32C3227.74 1145.18 3228.61 1145.8 3229.66 1146.18C3230.74 1146.56 3231.9 1146.75 3233.14 1146.75C3234.47 1146.75 3235.58 1146.58 3236.47 1146.22C3237.35 1145.84 3238.02 1145.33 3238.47 1144.71C3238.95 1144.07 3239.19 1143.33 3239.19 1142.49ZM3278.81 1143.93V1114.47H3289.12V1153.2H3279.42L3278.81 1143.93ZM3279.96 1135.98L3283 1135.91C3283 1138.49 3282.7 1140.88 3282.11 1143.1C3281.51 1145.3 3280.61 1147.21 3279.42 1148.83C3278.23 1150.43 3276.72 1151.68 3274.91 1152.59C3273.1 1153.47 3270.96 1153.91 3268.5 1153.91C3266.62 1153.91 3264.88 1153.65 3263.28 1153.13C3261.7 1152.58 3260.34 1151.73 3259.2 1150.58C3258.07 1149.41 3257.19 1147.92 3256.55 1146.11C3255.93 1144.27 3255.62 1142.06 3255.62 1139.49V1114.47H3265.93V1139.56C3265.93 1140.7 3266.06 1141.67 3266.32 1142.46C3266.61 1143.25 3267 1143.89 3267.5 1144.39C3268 1144.89 3268.59 1145.25 3269.25 1145.47C3269.95 1145.68 3270.71 1145.79 3271.55 1145.79C3273.67 1145.79 3275.34 1145.36 3276.56 1144.5C3277.8 1143.64 3278.67 1142.47 3279.17 1140.99C3279.7 1139.49 3279.96 1137.82 3279.96 1135.98ZM3307.31 1122.48V1153.2H3296.96V1114.47H3306.66L3307.31 1122.48ZM3305.87 1132.47H3303.01C3303.01 1129.77 3303.33 1127.29 3303.98 1125.03C3304.64 1122.74 3305.61 1120.75 3306.88 1119.08C3308.16 1117.39 3309.75 1116.08 3311.64 1115.15C3313.52 1114.22 3315.71 1113.75 3318.19 1113.75C3319.91 1113.75 3321.48 1114.01 3322.91 1114.54C3324.34 1115.04 3325.57 1115.84 3326.6 1116.94C3327.65 1118.01 3328.46 1119.42 3329.03 1121.16C3329.61 1122.88 3329.89 1124.94 3329.89 1127.35V1153.2H3319.58V1128.5C3319.58 1126.73 3319.35 1125.37 3318.87 1124.42C3318.39 1123.46 3317.71 1122.79 3316.83 1122.41C3315.97 1122.03 3314.93 1121.84 3313.71 1121.84C3312.38 1121.84 3311.21 1122.11 3310.21 1122.66C3309.23 1123.21 3308.42 1123.98 3307.77 1124.95C3307.13 1125.91 3306.65 1127.03 3306.34 1128.32C3306.03 1129.61 3305.87 1130.99 3305.87 1132.47ZM3328.93 1131.29L3325.24 1131.76C3325.24 1129.23 3325.55 1126.88 3326.17 1124.7C3326.81 1122.53 3327.76 1120.62 3329 1118.98C3330.26 1117.33 3331.83 1116.05 3333.69 1115.15C3335.55 1114.22 3337.7 1113.75 3340.13 1113.75C3341.99 1113.75 3343.69 1114.02 3345.21 1114.57C3346.74 1115.1 3348.04 1115.95 3349.12 1117.12C3350.21 1118.26 3351.05 1119.76 3351.62 1121.63C3352.22 1123.49 3352.52 1125.77 3352.52 1128.46V1153.2H3342.17V1128.46C3342.17 1126.67 3341.93 1125.31 3341.45 1124.38C3341 1123.43 3340.33 1122.77 3339.45 1122.41C3338.59 1122.03 3337.57 1121.84 3336.37 1121.84C3335.13 1121.84 3334.05 1122.09 3333.11 1122.59C3332.18 1123.07 3331.41 1123.74 3330.79 1124.6C3330.17 1125.46 3329.7 1126.46 3329.39 1127.6C3329.08 1128.72 3328.93 1129.95 3328.93 1131.29ZM3378.32 1153.91C3375.32 1153.91 3372.62 1153.44 3370.23 1152.48C3367.85 1151.5 3365.82 1150.15 3364.15 1148.44C3362.5 1146.72 3361.24 1144.73 3360.36 1142.46C3359.47 1140.17 3359.03 1137.73 3359.03 1135.16V1133.72C3359.03 1130.79 3359.45 1128.1 3360.28 1125.67C3361.12 1123.24 3362.31 1121.12 3363.86 1119.33C3365.44 1117.54 3367.35 1116.17 3369.59 1115.22C3371.83 1114.24 3374.36 1113.75 3377.18 1113.75C3379.92 1113.75 3382.36 1114.2 3384.48 1115.11C3386.61 1116.02 3388.38 1117.31 3389.82 1118.98C3391.27 1120.65 3392.37 1122.65 3393.11 1124.99C3393.85 1127.3 3394.22 1129.88 3394.22 1132.72V1137.02H3363.43V1130.14H3384.09V1129.36C3384.09 1127.93 3383.83 1126.65 3383.3 1125.53C3382.8 1124.38 3382.04 1123.47 3381.01 1122.81C3379.98 1122.14 3378.67 1121.8 3377.07 1121.8C3375.71 1121.8 3374.54 1122.1 3373.56 1122.7C3372.59 1123.3 3371.79 1124.13 3371.17 1125.2C3370.57 1126.28 3370.12 1127.54 3369.81 1129C3369.52 1130.43 3369.38 1132.01 3369.38 1133.72V1135.16C3369.38 1136.71 3369.59 1138.14 3370.02 1139.45C3370.47 1140.76 3371.11 1141.9 3371.92 1142.85C3372.75 1143.81 3373.75 1144.55 3374.92 1145.07C3376.12 1145.6 3377.47 1145.86 3378.97 1145.86C3380.83 1145.86 3382.56 1145.5 3384.16 1144.79C3385.78 1144.05 3387.18 1142.94 3388.35 1141.46L3393.36 1146.9C3392.55 1148.07 3391.44 1149.19 3390.03 1150.26C3388.65 1151.34 3386.98 1152.22 3385.02 1152.91C3383.06 1153.58 3380.83 1153.91 3378.32 1153.91ZM3421.03 1142.49C3421.03 1141.75 3420.81 1141.09 3420.38 1140.49C3419.96 1139.89 3419.16 1139.34 3417.99 1138.84C3416.84 1138.32 3415.18 1137.84 3413.01 1137.41C3411.05 1136.98 3409.23 1136.44 3407.53 1135.8C3405.86 1135.13 3404.41 1134.33 3403.17 1133.4C3401.95 1132.47 3401 1131.37 3400.3 1130.11C3399.61 1128.82 3399.27 1127.35 3399.27 1125.71C3399.27 1124.08 3399.61 1122.56 3400.3 1121.12C3401.02 1119.69 3402.03 1118.43 3403.35 1117.33C3404.68 1116.21 3406.31 1115.34 3408.21 1114.72C3410.15 1114.07 3412.32 1113.75 3414.73 1113.75C3418.09 1113.75 3420.98 1114.29 3423.39 1115.36C3425.83 1116.43 3427.69 1117.91 3428.98 1119.8C3430.29 1121.66 3430.94 1123.79 3430.94 1126.17H3420.64C3420.64 1125.17 3420.42 1124.27 3419.99 1123.49C3419.59 1122.68 3418.94 1122.04 3418.06 1121.59C3417.2 1121.11 3416.08 1120.87 3414.69 1120.87C3413.55 1120.87 3412.56 1121.08 3411.72 1121.48C3410.89 1121.86 3410.24 1122.39 3409.79 1123.06C3409.36 1123.7 3409.14 1124.42 3409.14 1125.2C3409.14 1125.8 3409.26 1126.34 3409.5 1126.82C3409.77 1127.27 3410.18 1127.69 3410.76 1128.07C3411.33 1128.45 3412.07 1128.81 3412.98 1129.14C3413.91 1129.45 3415.05 1129.74 3416.41 1130C3419.2 1130.57 3421.7 1131.33 3423.89 1132.26C3426.09 1133.16 3427.83 1134.4 3429.12 1135.98C3430.41 1137.53 3431.05 1139.57 3431.05 1142.1C3431.05 1143.82 3430.67 1145.39 3429.91 1146.83C3429.14 1148.26 3428.05 1149.51 3426.61 1150.58C3425.18 1151.63 3423.46 1152.46 3421.46 1153.05C3419.48 1153.63 3417.25 1153.91 3414.76 1153.91C3411.16 1153.91 3408.11 1153.27 3405.6 1151.98C3403.12 1150.69 3401.23 1149.06 3399.95 1147.08C3398.68 1145.07 3398.05 1143.02 3398.05 1140.92H3407.82C3407.87 1142.33 3408.23 1143.46 3408.89 1144.32C3409.59 1145.18 3410.46 1145.8 3411.51 1146.18C3412.58 1146.56 3413.74 1146.75 3414.98 1146.75C3416.32 1146.75 3417.43 1146.58 3418.31 1146.22C3419.19 1145.84 3419.86 1145.33 3420.31 1144.71C3420.79 1144.07 3421.03 1143.33 3421.03 1142.49Z" fill="white"/>
<path d="M2937.96 410.855V299.675H2974.31C2986.37 299.675 2995.44 302.169 3001.49 307.158C3007.6 312.147 3010.66 319.529 3010.66 329.303C3010.66 334.495 3009.18 339.102 3006.23 343.124C3003.28 347.095 2999.25 350.175 2994.16 352.364C3000.17 354.044 3004.9 357.251 3008.37 361.985C3011.88 366.668 3013.64 372.268 3013.64 378.784C3013.64 388.762 3010.4 396.602 3003.94 402.303C2997.47 408.005 2988.33 410.855 2976.52 410.855H2937.96ZM2952.62 358.854V398.867H2976.83C2983.65 398.867 2989.02 397.111 2992.94 393.598C2996.91 390.035 2998.9 385.148 2998.9 378.937C2998.9 365.548 2991.62 358.854 2977.06 358.854H2952.62ZM2952.62 347.095H2974.77C2981.18 347.095 2986.3 345.491 2990.12 342.284C2993.99 339.077 2995.92 334.724 2995.92 329.226C2995.92 323.118 2994.14 318.689 2990.57 315.94C2987.01 313.14 2981.59 311.74 2974.31 311.74H2952.62V347.095ZM3084.19 410.855C3083.38 409.226 3082.72 406.325 3082.21 402.15C3075.64 408.972 3067.8 412.383 3058.69 412.383C3050.54 412.383 3043.85 410.092 3038.61 405.51C3033.41 400.878 3030.82 395.023 3030.82 387.947C3030.82 379.344 3034.07 372.675 3040.59 367.941C3047.16 363.156 3056.37 360.763 3068.23 360.763H3081.98V354.273C3081.98 349.335 3080.5 345.415 3077.55 342.513C3074.6 339.561 3070.24 338.084 3064.49 338.084C3059.45 338.084 3055.23 339.357 3051.82 341.902C3048.4 344.448 3046.7 347.527 3046.7 351.142H3032.5C3032.5 347.018 3033.95 343.048 3036.85 339.23C3039.8 335.361 3043.77 332.306 3048.76 330.066C3053.8 327.827 3059.32 326.707 3065.33 326.707C3074.85 326.707 3082.31 329.099 3087.7 333.884C3093.1 338.619 3095.9 345.16 3096.1 353.509V391.536C3096.1 399.121 3097.07 405.154 3099.01 409.634V410.855H3084.19ZM3060.75 400.089C3065.18 400.089 3069.38 398.943 3073.35 396.652C3077.32 394.362 3080.2 391.384 3081.98 387.718V370.766H3070.91C3053.6 370.766 3044.94 375.832 3044.94 385.962C3044.94 390.391 3046.42 393.853 3049.37 396.347C3052.32 398.841 3056.12 400.089 3060.75 400.089ZM3151.39 400.852C3156.43 400.852 3160.83 399.325 3164.6 396.271C3168.37 393.216 3170.45 389.398 3170.86 384.817H3184.22C3183.97 389.551 3182.34 394.056 3179.34 398.332C3176.33 402.609 3172.31 406.019 3167.27 408.565C3162.28 411.11 3156.99 412.383 3151.39 412.383C3140.14 412.383 3131.18 408.641 3124.51 401.158C3117.89 393.624 3114.58 383.34 3114.58 370.308V367.941C3114.58 359.898 3116.06 352.745 3119.01 346.484C3121.96 340.222 3126.19 335.361 3131.69 331.899C3137.24 328.437 3143.78 326.707 3151.31 326.707C3160.58 326.707 3168.26 329.481 3174.37 335.03C3180.53 340.579 3183.82 347.782 3184.22 356.64H3170.86C3170.45 351.295 3168.42 346.917 3164.75 343.506C3161.14 340.044 3156.66 338.313 3151.31 338.313C3144.13 338.313 3138.56 340.91 3134.59 346.102C3130.67 351.244 3128.71 358.701 3128.71 368.476V371.148C3128.71 380.668 3130.67 387.998 3134.59 393.14C3138.51 398.281 3144.11 400.852 3151.39 400.852ZM3223.17 372.599L3214.31 381.839V410.855H3200.18V293.566H3214.31V364.505L3221.87 355.418L3247.6 328.234H3264.78L3232.64 362.749L3268.53 410.855H3251.96L3223.17 372.599ZM3312.13 412.383C3300.93 412.383 3291.82 408.717 3284.79 401.387C3277.77 394.005 3274.25 384.155 3274.25 371.835V369.239C3274.25 361.043 3275.81 353.738 3278.91 347.324C3282.07 340.859 3286.44 335.819 3292.04 332.204C3297.7 328.539 3303.8 326.707 3310.37 326.707C3321.11 326.707 3329.46 330.245 3335.42 337.321C3341.37 344.397 3344.35 354.527 3344.35 367.712V373.592H3288.38C3288.58 381.737 3290.95 388.329 3295.48 393.369C3300.06 398.358 3305.87 400.852 3312.89 400.852C3317.88 400.852 3322.1 399.834 3325.57 397.798C3329.03 395.762 3332.06 393.064 3334.65 389.704L3343.28 396.423C3336.36 407.063 3325.97 412.383 3312.13 412.383ZM3310.37 338.313C3304.67 338.313 3299.88 340.4 3296.02 344.575C3292.15 348.698 3289.75 354.502 3288.84 361.985H3330.22V360.916C3329.82 353.738 3327.88 348.189 3324.42 344.269C3320.96 340.299 3316.28 338.313 3310.37 338.313ZM3374.13 328.234L3374.59 338.619C3380.9 330.677 3389.15 326.707 3399.33 326.707C3416.79 326.707 3425.6 336.557 3425.75 356.258V410.855H3411.62V356.182C3411.57 350.225 3410.2 345.822 3407.5 342.971C3404.85 340.121 3400.71 338.695 3395.05 338.695C3390.47 338.695 3386.45 339.917 3382.99 342.36C3379.53 344.804 3376.83 348.011 3374.9 351.982V410.855H3360.77V328.234H3374.13ZM3443.62 368.857C3443.62 356.182 3446.62 346 3452.63 338.313C3458.64 330.575 3466.5 326.707 3476.23 326.707C3485.9 326.707 3493.56 330.016 3499.21 336.633V293.566H3513.34V410.855H3500.36L3499.67 401.998C3494.02 408.921 3486.15 412.383 3476.07 412.383C3466.5 412.383 3458.69 408.463 3452.63 400.623C3446.62 392.784 3443.62 382.551 3443.62 369.926V368.857ZM3457.75 370.461C3457.75 379.828 3459.68 387.158 3463.55 392.453C3467.42 397.747 3472.76 400.394 3479.59 400.394C3488.54 400.394 3495.09 396.372 3499.21 388.329V350.378C3494.98 342.589 3488.49 338.695 3479.74 338.695C3472.81 338.695 3467.42 341.368 3463.55 346.713C3459.68 352.058 3457.75 359.974 3457.75 370.461Z" fill="black"/>
<rect width="471.435" height="179.218" transform="translate(5421 1790)" fill="#003245"/>
<path d="M5552.4 1862.97H5558.1L5566.48 1886.93L5574.87 1862.97H5580.56L5568.77 1895.61H5564.2L5552.4 1862.97ZM5549.33 1862.97H5555L5556.04 1886.33V1895.61H5549.33V1862.97ZM5577.96 1862.97H5583.65V1895.61H5576.93V1886.33L5577.96 1862.97ZM5588.12 1883.73V1883.26C5588.12 1881.48 5588.37 1879.84 5588.88 1878.35C5589.39 1876.84 5590.13 1875.53 5591.1 1874.42C5592.07 1873.32 5593.26 1872.46 5594.68 1871.84C5596.1 1871.22 5597.73 1870.9 5599.57 1870.9C5601.41 1870.9 5603.05 1871.22 5604.48 1871.84C5605.92 1872.46 5607.12 1873.32 5608.09 1874.42C5609.08 1875.53 5609.82 1876.84 5610.33 1878.35C5610.84 1879.84 5611.1 1881.48 5611.1 1883.26V1883.73C5611.1 1885.49 5610.84 1887.13 5610.33 1888.64C5609.82 1890.13 5609.08 1891.44 5608.09 1892.56C5607.12 1893.67 5605.92 1894.52 5604.5 1895.14C5603.08 1895.75 5601.46 1896.06 5599.62 1896.06C5597.78 1896.06 5596.14 1895.75 5594.71 1895.14C5593.29 1894.52 5592.08 1893.67 5591.1 1892.56C5590.13 1891.44 5589.39 1890.13 5588.88 1888.64C5588.37 1887.13 5588.12 1885.49 5588.12 1883.73ZM5594.57 1883.26V1883.73C5594.57 1884.74 5594.66 1885.69 5594.84 1886.57C5595.02 1887.46 5595.3 1888.23 5595.69 1888.91C5596.1 1889.56 5596.62 1890.08 5597.26 1890.45C5597.91 1890.83 5598.69 1891.01 5599.62 1891.01C5600.51 1891.01 5601.28 1890.83 5601.93 1890.45C5602.57 1890.08 5603.08 1889.56 5603.47 1888.91C5603.86 1888.23 5604.15 1887.46 5604.32 1886.57C5604.52 1885.69 5604.62 1884.74 5604.62 1883.73V1883.26C5604.62 1882.27 5604.52 1881.34 5604.32 1880.48C5604.15 1879.59 5603.85 1878.82 5603.45 1878.14C5603.06 1877.46 5602.55 1876.92 5601.9 1876.53C5601.26 1876.14 5600.48 1875.95 5599.57 1875.95C5598.66 1875.95 5597.88 1876.14 5597.24 1876.53C5596.61 1876.92 5596.1 1877.46 5595.69 1878.14C5595.3 1878.82 5595.02 1879.59 5594.84 1880.48C5594.66 1881.34 5594.57 1882.27 5594.57 1883.26ZM5625.08 1891.01C5625.88 1891.01 5626.58 1890.86 5627.19 1890.56C5627.8 1890.25 5628.28 1889.82 5628.63 1889.26C5628.99 1888.7 5629.17 1888.03 5629.19 1887.27H5635.26C5635.25 1888.97 5634.79 1890.49 5633.89 1891.82C5633 1893.13 5631.79 1894.17 5630.29 1894.94C5628.78 1895.68 5627.09 1896.06 5625.22 1896.06C5623.34 1896.06 5621.69 1895.74 5620.29 1895.12C5618.9 1894.49 5617.74 1893.62 5616.81 1892.51C5615.89 1891.39 5615.19 1890.09 5614.73 1888.61C5614.26 1887.12 5614.03 1885.52 5614.03 1883.82V1883.17C5614.03 1881.45 5614.26 1879.85 5614.73 1878.37C5615.19 1876.87 5615.89 1875.57 5616.81 1874.47C5617.74 1873.35 5618.9 1872.47 5620.29 1871.84C5621.68 1871.22 5623.31 1870.9 5625.17 1870.9C5627.16 1870.9 5628.9 1871.28 5630.4 1872.05C5631.91 1872.81 5633.09 1873.9 5633.94 1875.32C5634.81 1876.72 5635.25 1878.39 5635.26 1880.32H5629.19C5629.17 1879.51 5629 1878.78 5628.67 1878.12C5628.36 1877.46 5627.89 1876.94 5627.28 1876.55C5626.68 1876.15 5625.94 1875.95 5625.06 1875.95C5624.12 1875.95 5623.35 1876.15 5622.75 1876.55C5622.15 1876.94 5621.69 1877.48 5621.36 1878.17C5621.03 1878.84 5620.8 1879.61 5620.67 1880.48C5620.55 1881.33 5620.49 1882.22 5620.49 1883.17V1883.82C5620.49 1884.76 5620.55 1885.66 5620.67 1886.53C5620.79 1887.4 5621.01 1888.17 5621.34 1888.84C5621.68 1889.51 5622.15 1890.04 5622.75 1890.43C5623.35 1890.82 5624.13 1891.01 5625.08 1891.01ZM5645.46 1861.15V1895.61H5639.01V1861.15H5645.46ZM5660.75 1871.35L5650.22 1883.37L5644.57 1889.08L5642.21 1884.42L5646.7 1878.73L5653 1871.35H5660.75ZM5654.05 1895.61L5646.88 1884.4L5651.34 1880.5L5661.49 1895.61H5654.05ZM5685.39 1895.61H5678.28L5678.33 1890.36H5685.39C5687.15 1890.36 5688.64 1889.97 5689.85 1889.17C5691.06 1888.37 5691.97 1887.19 5692.59 1885.65C5693.21 1884.12 5693.53 1882.25 5693.53 1880.07V1878.48C5693.53 1876.81 5693.35 1875.33 5692.99 1874.06C5692.65 1872.79 5692.13 1871.73 5691.44 1870.86C5690.76 1869.99 5689.91 1869.34 5688.91 1868.91C5687.91 1868.46 5686.76 1868.24 5685.46 1868.24H5678.15V1862.97H5685.46C5687.64 1862.97 5689.63 1863.34 5691.44 1864.09C5693.27 1864.82 5694.84 1865.87 5696.17 1867.25C5697.5 1868.62 5698.53 1870.27 5699.24 1872.18C5699.98 1874.08 5700.34 1876.19 5700.34 1878.53V1880.07C5700.34 1882.39 5699.98 1884.5 5699.24 1886.42C5698.53 1888.33 5697.5 1889.97 5696.17 1891.35C5694.86 1892.71 5693.28 1893.76 5691.44 1894.51C5689.62 1895.24 5687.6 1895.61 5685.39 1895.61ZM5682.09 1862.97V1895.61H5675.37V1862.97H5682.09ZM5717.92 1890.14V1879.33C5717.92 1878.56 5717.79 1877.89 5717.54 1877.34C5717.28 1876.77 5716.89 1876.33 5716.35 1876.01C5715.83 1875.7 5715.15 1875.54 5714.31 1875.54C5713.59 1875.54 5712.97 1875.67 5712.45 1875.92C5711.93 1876.16 5711.52 1876.52 5711.24 1876.98C5710.95 1877.43 5710.81 1877.96 5710.81 1878.57H5704.36C5704.36 1877.54 5704.6 1876.56 5705.07 1875.63C5705.55 1874.71 5706.25 1873.89 5707.16 1873.19C5708.07 1872.47 5709.15 1871.91 5710.41 1871.51C5711.68 1871.1 5713.1 1870.9 5714.67 1870.9C5716.55 1870.9 5718.23 1871.22 5719.69 1871.84C5721.16 1872.47 5722.31 1873.41 5723.14 1874.67C5723.99 1875.92 5724.42 1877.49 5724.42 1879.38V1889.76C5724.42 1891.09 5724.5 1892.18 5724.67 1893.03C5724.83 1893.87 5725.07 1894.6 5725.38 1895.23V1895.61H5718.86C5718.55 1894.95 5718.31 1894.13 5718.14 1893.14C5717.99 1892.14 5717.92 1891.14 5717.92 1890.14ZM5718.77 1880.83L5718.82 1884.49H5715.21C5714.35 1884.49 5713.62 1884.59 5712.99 1884.78C5712.36 1884.97 5711.84 1885.25 5711.44 1885.61C5711.04 1885.95 5710.74 1886.36 5710.54 1886.82C5710.36 1887.28 5710.27 1887.79 5710.27 1888.34C5710.27 1888.9 5710.4 1889.4 5710.66 1889.85C5710.91 1890.28 5711.28 1890.62 5711.75 1890.88C5712.23 1891.12 5712.79 1891.24 5713.44 1891.24C5714.41 1891.24 5715.25 1891.04 5715.97 1890.65C5716.69 1890.27 5717.24 1889.79 5717.63 1889.22C5718.03 1888.65 5718.24 1888.11 5718.26 1887.6L5719.96 1890.34C5719.72 1890.95 5719.39 1891.59 5718.97 1892.25C5718.57 1892.9 5718.05 1893.52 5717.43 1894.11C5716.8 1894.67 5716.04 1895.15 5715.16 1895.52C5714.28 1895.88 5713.23 1896.06 5712.02 1896.06C5710.48 1896.06 5709.09 1895.75 5707.83 1895.14C5706.59 1894.51 5705.6 1893.65 5704.87 1892.56C5704.15 1891.45 5703.8 1890.2 5703.8 1888.79C5703.8 1887.52 5704.03 1886.39 5704.51 1885.41C5704.99 1884.42 5705.69 1883.59 5706.62 1882.92C5707.56 1882.23 5708.74 1881.72 5710.14 1881.37C5711.55 1881.01 5713.17 1880.83 5715.03 1880.83H5718.77ZM5741.28 1871.35V1875.92H5727.16V1871.35H5741.28ZM5730.65 1865.37H5737.11V1888.3C5737.11 1889 5737.2 1889.54 5737.38 1889.91C5737.57 1890.29 5737.86 1890.55 5738.23 1890.7C5738.6 1890.83 5739.08 1890.9 5739.64 1890.9C5740.05 1890.9 5740.41 1890.89 5740.72 1890.86C5741.05 1890.81 5741.32 1890.77 5741.55 1890.72L5741.57 1895.47C5741.02 1895.65 5740.42 1895.8 5739.78 1895.9C5739.13 1896 5738.42 1896.06 5737.65 1896.06C5736.23 1896.06 5734.99 1895.83 5733.93 1895.36C5732.88 1894.88 5732.07 1894.12 5731.51 1893.08C5730.94 1892.03 5730.65 1890.65 5730.65 1888.95V1865.37ZM5758.05 1890.14V1879.33C5758.05 1878.56 5757.92 1877.89 5757.67 1877.34C5757.41 1876.77 5757.02 1876.33 5756.48 1876.01C5755.96 1875.7 5755.28 1875.54 5754.44 1875.54C5753.72 1875.54 5753.1 1875.67 5752.58 1875.92C5752.06 1876.16 5751.65 1876.52 5751.37 1876.98C5751.08 1877.43 5750.94 1877.96 5750.94 1878.57H5744.49C5744.49 1877.54 5744.72 1876.56 5745.2 1875.63C5745.68 1874.71 5746.38 1873.89 5747.29 1873.19C5748.2 1872.47 5749.28 1871.91 5750.54 1871.51C5751.81 1871.1 5753.23 1870.9 5754.8 1870.9C5756.68 1870.9 5758.35 1871.22 5759.82 1871.84C5761.28 1872.47 5762.44 1873.41 5763.27 1874.67C5764.12 1875.92 5764.55 1877.49 5764.55 1879.38V1889.76C5764.55 1891.09 5764.63 1892.18 5764.8 1893.03C5764.96 1893.87 5765.2 1894.6 5765.51 1895.23V1895.61H5758.99C5758.68 1894.95 5758.44 1894.13 5758.27 1893.14C5758.12 1892.14 5758.05 1891.14 5758.05 1890.14ZM5758.9 1880.83L5758.95 1884.49H5755.34C5754.48 1884.49 5753.74 1884.59 5753.12 1884.78C5752.49 1884.97 5751.97 1885.25 5751.57 1885.61C5751.17 1885.95 5750.87 1886.36 5750.67 1886.82C5750.49 1887.28 5750.4 1887.79 5750.4 1888.34C5750.4 1888.9 5750.53 1889.4 5750.78 1889.85C5751.04 1890.28 5751.41 1890.62 5751.88 1890.88C5752.36 1891.12 5752.92 1891.24 5753.56 1891.24C5754.54 1891.24 5755.38 1891.04 5756.1 1890.65C5756.82 1890.27 5757.37 1889.79 5757.76 1889.22C5758.16 1888.65 5758.37 1888.11 5758.38 1887.6L5760.09 1890.34C5759.85 1890.95 5759.52 1891.59 5759.1 1892.25C5758.7 1892.9 5758.18 1893.52 5757.56 1894.11C5756.93 1894.67 5756.17 1895.15 5755.29 1895.52C5754.41 1895.88 5753.36 1896.06 5752.15 1896.06C5750.61 1896.06 5749.22 1895.75 5747.96 1895.14C5746.72 1894.51 5745.73 1893.65 5745 1892.56C5744.28 1891.45 5743.92 1890.2 5743.92 1888.79C5743.92 1887.52 5744.16 1886.39 5744.64 1885.41C5745.12 1884.42 5745.82 1883.59 5746.75 1882.92C5747.69 1882.23 5748.86 1881.72 5750.27 1881.37C5751.67 1881.01 5753.3 1880.83 5755.16 1880.83H5758.9Z" fill="white"/>
<rect x="329" y="925" width="1339.69" height="1166.63" fill="#3350E8" fill-opacity="0.1"/>
<path d="M941.153 1033.76H934.441L908.953 994.741V1033.76H902.242V983.126H908.953L934.511 1022.32V983.126H941.153V1033.76ZM967.615 1034.45C962.515 1034.45 958.365 1032.78 955.166 1029.44C951.967 1026.08 950.367 1021.6 950.367 1015.99V1014.8C950.367 1011.07 951.075 1007.75 952.489 1004.82C953.926 1001.88 955.92 999.586 958.47 997.94C961.043 996.271 963.825 995.436 966.815 995.436C971.707 995.436 975.508 997.047 978.221 1000.27C980.933 1003.49 982.289 1008.1 982.289 1014.11V1016.79H956.8C956.893 1020.5 957.971 1023.5 960.034 1025.79C962.121 1028.06 964.763 1029.2 967.963 1029.2C970.234 1029.2 972.159 1028.74 973.735 1027.81C975.311 1026.88 976.691 1025.65 977.873 1024.12L981.802 1027.18C978.65 1032.03 973.92 1034.45 967.615 1034.45ZM966.815 1000.72C964.219 1000.72 962.04 1001.67 960.278 1003.57C958.516 1005.45 957.426 1008.09 957.009 1011.5H975.856V1011.01C975.671 1007.75 974.79 1005.22 973.213 1003.43C971.637 1001.63 969.504 1000.72 966.815 1000.72ZM998.493 987.021V996.131H1005.52V1001.1H998.493V1024.44C998.493 1025.94 998.806 1027.08 999.432 1027.84C1000.06 1028.59 1001.12 1028.96 1002.63 1028.96C1003.37 1028.96 1004.39 1028.82 1005.69 1028.54V1033.76C1004 1034.22 1002.35 1034.45 1000.75 1034.45C997.879 1034.45 995.711 1033.58 994.251 1031.84C992.791 1030.1 992.06 1027.64 992.06 1024.44V1001.1H985.21V996.131H992.06V987.021H998.493ZM1020.05 1033.76H1013.62V980.345H1020.05V1033.76ZM1037.37 1033.76H1030.94V996.131H1037.37V1033.76ZM1030.41 986.152C1030.41 985.108 1030.73 984.228 1031.35 983.509C1032 982.79 1032.95 982.431 1034.21 982.431C1035.46 982.431 1036.41 982.79 1037.06 983.509C1037.71 984.228 1038.03 985.108 1038.03 986.152C1038.03 987.195 1037.71 988.064 1037.06 988.76C1036.41 989.455 1035.46 989.803 1034.21 989.803C1032.95 989.803 1032 989.455 1031.35 988.76C1030.73 988.064 1030.41 987.195 1030.41 986.152ZM1050.86 1033.76V1001.1H1044.92V996.131H1050.86V992.272C1050.86 988.238 1051.94 985.12 1054.1 982.918C1056.25 980.715 1059.3 979.614 1063.24 979.614C1064.72 979.614 1066.2 979.811 1067.66 980.205L1067.31 985.421C1066.22 985.213 1065.06 985.108 1063.83 985.108C1061.75 985.108 1060.13 985.723 1059 986.951C1057.86 988.157 1057.29 989.896 1057.29 992.167V996.131H1065.33V1001.1H1057.29V1033.76H1050.86ZM1084.77 1024.33L1093.53 996.131H1100.41L1085.29 1039.56C1082.95 1045.82 1079.22 1048.95 1074.12 1048.95L1072.91 1048.85L1070.51 1048.4V1043.18L1072.25 1043.32C1074.43 1043.32 1076.12 1042.88 1077.32 1042C1078.55 1041.12 1079.56 1039.5 1080.35 1037.16L1081.77 1033.34L1068.35 996.131H1075.38L1084.77 1024.33Z" fill="black"/>
<rect x="4775" y="925" width="1339.69" height="1166.63" fill="#33B6E8" fill-opacity="0.1"/>
<path d="M5339.17 983.126H5355.93C5359.73 983.126 5362.94 983.706 5365.56 984.865C5368.2 986.024 5370.21 987.74 5371.57 990.011C5372.97 992.26 5373.66 995.03 5373.66 998.322C5373.66 1000.64 5373.19 1002.76 5372.24 1004.69C5371.31 1006.59 5369.96 1008.21 5368.2 1009.55C5366.46 1010.88 5364.38 1011.86 5361.94 1012.51L5360.06 1013.24H5344.31L5344.24 1007.78H5356.14C5358.55 1007.78 5360.55 1007.36 5362.15 1006.53C5363.75 1005.67 5364.96 1004.52 5365.77 1003.09C5366.58 1001.65 5366.98 1000.06 5366.98 998.322C5366.98 996.375 5366.6 994.671 5365.84 993.211C5365.07 991.75 5363.87 990.626 5362.22 989.838C5360.6 989.026 5358.5 988.621 5355.93 988.621H5345.88V1033.76H5339.17V983.126ZM5368.76 1033.76L5356.45 1010.81L5363.44 1010.77L5375.92 1033.34V1033.76H5368.76ZM5397.69 1034.45C5395.07 1034.45 5392.69 1034.01 5390.56 1033.13C5388.45 1032.23 5386.63 1030.96 5385.1 1029.34C5383.59 1027.72 5382.44 1025.79 5381.62 1023.57C5380.81 1021.34 5380.41 1018.91 5380.41 1016.27V1014.8C5380.41 1011.74 5380.86 1009.02 5381.76 1006.63C5382.67 1004.22 5383.9 1002.18 5385.45 1000.51C5387 998.844 5388.76 997.58 5390.73 996.723C5392.7 995.865 5394.74 995.436 5396.85 995.436C5399.54 995.436 5401.86 995.9 5403.81 996.827C5405.78 997.754 5407.39 999.052 5408.64 1000.72C5409.89 1002.37 5410.82 1004.31 5411.42 1006.56C5412.03 1008.79 5412.33 1011.22 5412.33 1013.87V1016.75H5384.23V1011.5H5405.9V1011.01C5405.8 1009.35 5405.45 1007.72 5404.85 1006.15C5404.27 1004.57 5403.35 1003.27 5402.07 1002.25C5400.8 1001.23 5399.06 1000.72 5396.85 1000.72C5395.39 1000.72 5394.05 1001.03 5392.82 1001.66C5391.59 1002.26 5390.54 1003.17 5389.66 1004.37C5388.78 1005.58 5388.09 1007.05 5387.6 1008.79C5387.12 1010.53 5386.87 1012.53 5386.87 1014.8V1016.27C5386.87 1018.05 5387.12 1019.73 5387.6 1021.31C5388.11 1022.86 5388.84 1024.23 5389.8 1025.41C5390.77 1026.59 5391.94 1027.52 5393.31 1028.19C5394.7 1028.86 5396.27 1029.2 5398.04 1029.2C5400.31 1029.2 5402.23 1028.74 5403.81 1027.81C5405.39 1026.88 5406.76 1025.64 5407.95 1024.09L5411.84 1027.18C5411.03 1028.41 5410 1029.58 5408.75 1030.7C5407.49 1031.81 5405.95 1032.71 5404.12 1033.41C5402.31 1034.1 5400.17 1034.45 5397.69 1034.45ZM5426.27 1004.16V1033.76H5419.84V996.131H5425.92L5426.27 1004.16ZM5424.74 1013.52L5422.06 1013.41C5422.09 1010.84 5422.47 1008.46 5423.21 1006.29C5423.95 1004.08 5425 1002.17 5426.34 1000.55C5427.69 998.925 5429.29 997.673 5431.14 996.792C5433.02 995.888 5435.09 995.436 5437.36 995.436C5439.22 995.436 5440.89 995.691 5442.37 996.201C5443.86 996.688 5445.12 997.476 5446.16 998.566C5447.23 999.655 5448.04 1001.07 5448.6 1002.81C5449.15 1004.52 5449.43 1006.62 5449.43 1009.1V1033.76H5442.96V1009.03C5442.96 1007.06 5442.67 1005.49 5442.09 1004.3C5441.51 1003.1 5440.67 1002.23 5439.56 1001.7C5438.44 1001.14 5437.08 1000.86 5435.45 1000.86C5433.85 1000.86 5432.39 1001.2 5431.07 1001.87C5429.77 1002.54 5428.65 1003.47 5427.7 1004.65C5426.77 1005.83 5426.04 1007.19 5425.51 1008.72C5425 1010.23 5424.74 1011.83 5424.74 1013.52ZM5482.92 1026.45V980.345H5489.39V1033.76H5483.47L5482.92 1026.45ZM5457.6 1015.36V1014.63C5457.6 1011.76 5457.95 1009.15 5458.65 1006.81C5459.36 1004.44 5460.37 1002.41 5461.67 1000.72C5462.99 999.029 5464.56 997.731 5466.37 996.827C5468.2 995.9 5470.24 995.436 5472.49 995.436C5474.85 995.436 5476.91 995.853 5478.68 996.688C5480.46 997.499 5481.97 998.693 5483.2 1000.27C5484.45 1001.82 5485.43 1003.7 5486.15 1005.9C5486.87 1008.1 5487.37 1010.6 5487.65 1013.38V1016.58C5487.39 1019.34 5486.89 1021.82 5486.15 1024.02C5485.43 1026.22 5484.45 1028.1 5483.2 1029.65C5481.97 1031.21 5480.46 1032.4 5478.68 1033.23C5476.89 1034.05 5474.8 1034.45 5472.42 1034.45C5470.21 1034.45 5468.2 1033.98 5466.37 1033.03C5464.56 1032.08 5462.99 1030.74 5461.67 1029.03C5460.37 1027.31 5459.36 1025.29 5458.65 1022.98C5457.95 1020.63 5457.6 1018.1 5457.6 1015.36ZM5464.07 1014.63V1015.36C5464.07 1017.24 5464.26 1019 5464.63 1020.65C5465.02 1022.29 5465.62 1023.74 5466.44 1024.99C5467.25 1026.24 5468.28 1027.23 5469.53 1027.95C5470.78 1028.64 5472.28 1028.99 5474.02 1028.99C5476.15 1028.99 5477.9 1028.54 5479.27 1027.64C5480.66 1026.73 5481.77 1025.54 5482.6 1024.05C5483.44 1022.57 5484.09 1020.96 5484.55 1019.22V1010.84C5484.27 1009.57 5483.87 1008.34 5483.33 1007.15C5482.82 1005.95 5482.15 1004.88 5481.32 1003.96C5480.51 1003 5479.5 1002.25 5478.29 1001.7C5477.11 1001.14 5475.71 1000.86 5474.09 1000.86C5472.32 1000.86 5470.8 1001.23 5469.53 1001.97C5468.28 1002.69 5467.25 1003.69 5466.44 1004.96C5465.62 1006.22 5465.02 1007.68 5464.63 1009.35C5464.26 1010.99 5464.07 1012.75 5464.07 1014.63ZM5515.01 1034.45C5512.39 1034.45 5510.02 1034.01 5507.88 1033.13C5505.77 1032.23 5503.96 1030.96 5502.43 1029.34C5500.92 1027.72 5499.76 1025.79 5498.95 1023.57C5498.14 1021.34 5497.73 1018.91 5497.73 1016.27V1014.8C5497.73 1011.74 5498.18 1009.02 5499.09 1006.63C5499.99 1004.22 5501.22 1002.18 5502.77 1000.51C5504.33 998.844 5506.09 997.58 5508.06 996.723C5510.03 995.865 5512.07 995.436 5514.18 995.436C5516.87 995.436 5519.19 995.9 5521.13 996.827C5523.1 997.754 5524.71 999.052 5525.97 1000.72C5527.22 1002.37 5528.15 1004.31 5528.75 1006.56C5529.35 1008.79 5529.65 1011.22 5529.65 1013.87V1016.75H5501.56V1011.5H5523.22V1011.01C5523.13 1009.35 5522.78 1007.72 5522.18 1006.15C5521.6 1004.57 5520.67 1003.27 5519.39 1002.25C5518.12 1001.23 5516.38 1000.72 5514.18 1000.72C5512.72 1000.72 5511.37 1001.03 5510.14 1001.66C5508.92 1002.26 5507.86 1003.17 5506.98 1004.37C5506.1 1005.58 5505.42 1007.05 5504.93 1008.79C5504.44 1010.53 5504.2 1012.53 5504.2 1014.8V1016.27C5504.2 1018.05 5504.44 1019.73 5504.93 1021.31C5505.44 1022.86 5506.17 1024.23 5507.12 1025.41C5508.09 1026.59 5509.26 1027.52 5510.63 1028.19C5512.02 1028.86 5513.6 1029.2 5515.36 1029.2C5517.63 1029.2 5519.56 1028.74 5521.13 1027.81C5522.71 1026.88 5524.09 1025.64 5525.27 1024.09L5529.17 1027.18C5528.35 1028.41 5527.32 1029.58 5526.07 1030.7C5524.82 1031.81 5523.28 1032.71 5521.45 1033.41C5519.64 1034.1 5517.49 1034.45 5515.01 1034.45ZM5543.6 1002.04V1033.76H5537.16V996.131H5543.42L5543.6 1002.04ZM5555.35 995.923L5555.31 1001.9C5554.78 1001.79 5554.27 1001.72 5553.78 1001.7C5553.32 1001.65 5552.79 1001.63 5552.19 1001.63C5550.7 1001.63 5549.39 1001.86 5548.26 1002.32C5547.12 1002.78 5546.16 1003.43 5545.37 1004.27C5544.58 1005.1 5543.96 1006.1 5543.49 1007.26C5543.05 1008.39 5542.76 1009.65 5542.62 1011.01L5540.81 1012.06C5540.81 1009.79 5541.03 1007.65 5541.48 1005.66C5541.94 1003.67 5542.65 1001.9 5543.6 1000.37C5544.55 998.821 5545.75 997.615 5547.21 996.757C5548.7 995.876 5550.46 995.436 5552.5 995.436C5552.96 995.436 5553.5 995.494 5554.1 995.61C5554.7 995.703 5555.12 995.807 5555.35 995.923Z" fill="black"/>
</svg>
