<svg width="6511" height="2511" viewBox="0 0 6511 2511" fill="none" xmlns="http://www.w3.org/2000/svg">
<rect width="6511" height="2511" fill="#E5E5E5"/>
<rect width="6511" height="2511" fill="white"/>
<rect x="492.445" y="1498.06" width="944.789" height="426.11" fill="black" stroke="white" stroke-width="9.16365"/>
<path d="M796.999 1716.62H766.927V1748.27H757.477V1676.61H801.872V1684.38H766.927V1708.89H796.999V1716.62ZM836.227 1703.18C834.849 1702.95 833.356 1702.84 831.748 1702.84C825.776 1702.84 821.724 1705.38 819.591 1710.47V1748.27H810.485V1695.01H819.345L819.492 1701.17C822.478 1696.41 826.711 1694.03 832.191 1694.03C833.963 1694.03 835.308 1694.26 836.227 1694.72V1703.18ZM841.247 1721.15C841.247 1715.93 842.264 1711.24 844.299 1707.07C846.366 1702.91 849.221 1699.69 852.863 1697.43C856.538 1695.16 860.721 1694.03 865.414 1694.03C872.665 1694.03 878.522 1696.54 882.985 1701.56C887.48 1706.58 889.728 1713.26 889.728 1721.59V1722.23C889.728 1727.42 888.727 1732.08 886.725 1736.21C884.757 1740.31 881.918 1743.51 878.21 1745.81C874.535 1748.1 870.303 1749.25 865.512 1749.25C858.293 1749.25 852.436 1746.74 847.941 1741.72C843.478 1736.7 841.247 1730.06 841.247 1721.79V1721.15ZM850.402 1722.23C850.402 1728.14 851.764 1732.88 854.487 1736.46C857.243 1740.03 860.918 1741.82 865.512 1741.82C870.139 1741.82 873.814 1740.02 876.537 1736.41C879.26 1732.76 880.622 1727.68 880.622 1721.15C880.622 1715.31 879.228 1710.58 876.439 1706.97C873.682 1703.33 870.007 1701.51 865.414 1701.51C860.918 1701.51 857.292 1703.3 854.536 1706.88C851.78 1710.45 850.402 1715.57 850.402 1722.23ZM909.76 1695.01L910.055 1701.71C914.124 1696.59 919.439 1694.03 926.002 1694.03C937.257 1694.03 942.933 1700.38 943.032 1713.08V1748.27H933.926V1713.03C933.893 1709.19 933.007 1706.35 931.268 1704.51C929.562 1702.68 926.888 1701.76 923.246 1701.76C920.293 1701.76 917.7 1702.54 915.469 1704.12C913.238 1705.69 911.499 1707.76 910.252 1710.32V1748.27H901.146V1695.01H909.76ZM969.118 1682.12V1695.01H979.06V1702.05H969.118V1735.08C969.118 1737.21 969.561 1738.82 970.447 1739.9C971.332 1740.95 972.842 1741.48 974.975 1741.48C976.025 1741.48 977.468 1741.28 979.306 1740.89V1748.27C976.911 1748.92 974.581 1749.25 972.317 1749.25C968.248 1749.25 965.18 1748.02 963.113 1745.56C961.046 1743.1 960.012 1739.61 960.012 1735.08V1702.05H950.316V1695.01H960.012V1682.12H969.118ZM1008.69 1721.54H984.671V1714.11H1008.69V1721.54ZM1059.53 1715.14H1028.48V1740.54H1064.55V1748.27H1019.03V1676.61H1064.06V1684.38H1028.48V1707.42H1059.53V1715.14ZM1083.5 1695.01L1083.8 1701.71C1087.87 1696.59 1093.18 1694.03 1099.74 1694.03C1111 1694.03 1116.68 1700.38 1116.77 1713.08V1748.27H1107.67V1713.03C1107.64 1709.19 1106.75 1706.35 1105.01 1704.51C1103.3 1702.68 1100.63 1701.76 1096.99 1701.76C1094.03 1701.76 1091.44 1702.54 1089.21 1704.12C1086.98 1705.69 1085.24 1707.76 1083.99 1710.32V1748.27H1074.89V1695.01H1083.5ZM1128.29 1721.2C1128.29 1713.03 1130.23 1706.47 1134.1 1701.51C1137.97 1696.52 1143.04 1694.03 1149.31 1694.03C1155.54 1694.03 1160.48 1696.16 1164.12 1700.43V1672.67H1173.23V1748.27H1164.86L1164.42 1742.56C1160.78 1747.02 1155.71 1749.25 1149.21 1749.25C1143.04 1749.25 1138 1746.73 1134.1 1741.67C1130.23 1736.62 1128.29 1730.02 1128.29 1721.89V1721.2ZM1137.4 1722.23C1137.4 1728.27 1138.64 1732.99 1141.14 1736.41C1143.63 1739.82 1147.08 1741.53 1151.47 1741.53C1157.25 1741.53 1161.46 1738.93 1164.12 1733.75V1709.29C1161.4 1704.27 1157.22 1701.76 1151.57 1701.76C1147.11 1701.76 1143.63 1703.48 1141.14 1706.92C1138.64 1710.37 1137.4 1715.47 1137.4 1722.23Z" fill="white"/>
<path d="M1377.72 1530.14L1405.21 1557.63M1377.72 1557.63L1405.21 1530.14" stroke="white" stroke-width="9.16365"/>
<rect x="519.935" y="1456.83" width="270.291" height="100.655" fill="black"/>
<path d="M602.246 1511.85H595.83V1526.16H587.776V1487.07H602.3C606.917 1487.07 610.479 1488.1 612.985 1490.15C615.49 1492.21 616.743 1495.12 616.743 1498.88C616.743 1501.55 616.161 1503.77 614.998 1505.56C613.853 1507.34 612.108 1508.75 609.763 1509.81L618.22 1525.78V1526.16H609.575L602.246 1511.85ZM595.83 1505.32H602.326C604.349 1505.32 605.915 1504.81 607.025 1503.79C608.134 1502.75 608.689 1501.33 608.689 1499.52C608.689 1497.68 608.161 1496.23 607.105 1495.17C606.067 1494.12 604.465 1493.59 602.3 1493.59H595.83V1505.32ZM635.751 1526.69C631.491 1526.69 628.019 1525.39 625.334 1522.77C622.667 1520.16 621.334 1516.68 621.334 1512.33V1511.58C621.334 1508.66 621.898 1506.06 623.025 1503.77C624.153 1501.46 625.746 1499.68 627.804 1498.45C629.88 1497.2 632.243 1496.57 634.891 1496.57C638.865 1496.57 641.988 1497.82 644.261 1500.33C646.552 1502.83 647.697 1506.39 647.697 1510.99V1514.15H629.2C629.45 1516.05 630.202 1517.57 631.455 1518.72C632.726 1519.86 634.328 1520.44 636.261 1520.44C639.25 1520.44 641.585 1519.35 643.268 1517.19L647.08 1521.46C645.916 1523.1 644.341 1524.39 642.355 1525.32C640.368 1526.24 638.167 1526.69 635.751 1526.69ZM634.865 1502.85C633.325 1502.85 632.073 1503.37 631.106 1504.41C630.157 1505.45 629.549 1506.93 629.28 1508.87H640.073V1508.25C640.037 1506.53 639.572 1505.21 638.677 1504.28C637.782 1503.33 636.511 1502.85 634.865 1502.85ZM668.96 1526.16C668.602 1525.46 668.342 1524.59 668.181 1523.55C666.302 1525.65 663.859 1526.69 660.852 1526.69C658.006 1526.69 655.644 1525.87 653.765 1524.22C651.903 1522.58 650.973 1520.5 650.973 1517.99C650.973 1514.92 652.109 1512.55 654.382 1510.91C656.673 1509.26 659.975 1508.43 664.288 1508.41H667.859V1506.75C667.859 1505.4 667.51 1504.33 666.812 1503.52C666.132 1502.72 665.049 1502.32 663.564 1502.32C662.257 1502.32 661.228 1502.63 660.476 1503.26C659.742 1503.88 659.376 1504.74 659.376 1505.83H651.617C651.617 1504.15 652.136 1502.59 653.174 1501.16C654.212 1499.73 655.68 1498.61 657.577 1497.81C659.474 1496.98 661.604 1496.57 663.966 1496.57C667.546 1496.57 670.383 1497.47 672.477 1499.28C674.589 1501.07 675.645 1503.6 675.645 1506.85V1519.44C675.662 1522.2 676.047 1524.28 676.799 1525.7V1526.16H668.96ZM662.543 1520.76C663.689 1520.76 664.745 1520.51 665.711 1520.01C666.678 1519.49 667.394 1518.8 667.859 1517.94V1512.95H664.96C661.076 1512.95 659.009 1514.29 658.758 1516.97L658.731 1517.43C658.731 1518.4 659.071 1519.19 659.751 1519.82C660.432 1520.45 661.362 1520.76 662.543 1520.76ZM693.686 1520.44C695.117 1520.44 696.281 1520.04 697.176 1519.26C698.07 1518.47 698.536 1517.42 698.572 1516.11H705.847C705.829 1518.08 705.292 1519.89 704.236 1521.54C703.18 1523.17 701.731 1524.44 699.887 1525.35C698.062 1526.24 696.039 1526.69 693.82 1526.69C689.667 1526.69 686.392 1525.38 683.994 1522.75C681.596 1520.1 680.396 1516.45 680.396 1511.79V1511.28C680.396 1506.81 681.587 1503.24 683.967 1500.57C686.347 1497.9 689.614 1496.57 693.766 1496.57C697.399 1496.57 700.308 1497.61 702.491 1499.68C704.693 1501.74 705.811 1504.49 705.847 1507.93H698.572C698.536 1506.42 698.07 1505.21 697.176 1504.28C696.281 1503.33 695.099 1502.85 693.632 1502.85C691.824 1502.85 690.455 1503.51 689.524 1504.84C688.612 1506.15 688.155 1508.28 688.155 1511.23V1512.03C688.155 1515.02 688.612 1517.17 689.524 1518.48C690.437 1519.78 691.824 1520.44 693.686 1520.44ZM719.566 1489.97V1497.11H724.532V1502.8H719.566V1517.3C719.566 1518.37 719.772 1519.14 720.183 1519.6C720.595 1520.07 721.382 1520.3 722.546 1520.3C723.405 1520.3 724.165 1520.24 724.828 1520.11V1525.99C723.306 1526.46 721.74 1526.69 720.129 1526.69C714.689 1526.69 711.914 1523.94 711.807 1518.45V1502.8H707.565V1497.11H711.807V1489.97H719.566Z" fill="white"/>
<rect x="519.935" y="1456.83" width="270.291" height="100.655" stroke="white" stroke-width="9.16365"/>
<rect x="2726.15" y="1479.82" width="944.789" height="426.11" fill="black" stroke="white" stroke-width="9.16365"/>
<path d="M3032.33 1698.08C3024.23 1695.75 3018.32 1692.9 3014.61 1689.52C3010.94 1686.1 3009.1 1681.9 3009.1 1676.92C3009.1 1671.27 3011.35 1666.61 3015.84 1662.94C3020.37 1659.23 3026.25 1657.38 3033.46 1657.38C3038.39 1657.38 3042.77 1658.33 3046.61 1660.23C3050.48 1662.13 3053.46 1664.76 3055.56 1668.11C3057.7 1671.45 3058.76 1675.11 3058.76 1679.08H3049.26C3049.26 1674.75 3047.89 1671.35 3045.13 1668.89C3042.37 1666.4 3038.48 1665.15 3033.46 1665.15C3028.81 1665.15 3025.16 1666.19 3022.54 1668.25C3019.95 1670.29 3018.65 1673.13 3018.65 1676.77C3018.65 1679.69 3019.88 1682.17 3022.34 1684.2C3024.83 1686.2 3029.05 1688.04 3034.99 1689.71C3040.96 1691.39 3045.62 1693.24 3048.97 1695.27C3052.35 1697.28 3054.84 1699.62 3056.45 1702.31C3058.09 1705 3058.91 1708.17 3058.91 1711.81C3058.91 1717.62 3056.65 1722.28 3052.12 1725.79C3047.59 1729.27 3041.54 1731.01 3033.96 1731.01C3029.03 1731.01 3024.44 1730.07 3020.18 1728.2C3015.91 1726.3 3012.61 1723.71 3010.28 1720.43C3007.99 1717.14 3006.84 1713.42 3006.84 1709.25H3016.34C3016.34 1713.58 3017.93 1717.01 3021.11 1719.54C3024.33 1722.03 3028.61 1723.28 3033.96 1723.28C3038.94 1723.28 3042.77 1722.26 3045.42 1720.23C3048.08 1718.19 3049.41 1715.42 3049.41 1711.91C3049.41 1708.4 3048.18 1705.69 3045.72 1703.79C3043.26 1701.85 3038.8 1699.95 3032.33 1698.08ZM3116.79 1717.47L3127.03 1676.77H3136.14L3120.63 1730.02H3113.25L3100.3 1689.66L3087.7 1730.02H3080.32L3064.87 1676.77H3073.92L3084.41 1716.64L3096.81 1676.77H3104.14L3116.79 1717.47ZM3178.32 1730.02C3177.79 1728.97 3177.36 1727.1 3177.04 1724.41C3172.8 1728.81 3167.75 1731.01 3161.88 1731.01C3156.63 1731.01 3152.31 1729.53 3148.93 1726.58C3145.59 1723.59 3143.91 1719.82 3143.91 1715.26C3143.91 1709.71 3146.01 1705.41 3150.21 1702.36C3154.44 1699.28 3160.38 1697.74 3168.03 1697.74H3176.89V1693.55C3176.89 1690.37 3175.94 1687.84 3174.03 1685.97C3172.13 1684.07 3169.33 1683.12 3165.62 1683.12C3162.37 1683.12 3159.65 1683.94 3157.45 1685.58C3155.25 1687.22 3154.15 1689.2 3154.15 1691.53H3144.99C3144.99 1688.88 3145.93 1686.32 3147.8 1683.86C3149.7 1681.36 3152.26 1679.39 3155.48 1677.95C3158.73 1676.51 3162.29 1675.78 3166.16 1675.78C3172.29 1675.78 3177.1 1677.33 3180.58 1680.41C3184.06 1683.46 3185.86 1687.68 3185.99 1693.06V1717.57C3185.99 1722.46 3186.62 1726.35 3187.86 1729.24V1730.02H3178.32ZM3163.21 1723.08C3166.06 1723.08 3168.77 1722.35 3171.33 1720.87C3173.89 1719.39 3175.74 1717.47 3176.89 1715.11V1704.18H3169.75C3158.6 1704.18 3153.02 1707.45 3153.02 1713.98C3153.02 1716.83 3153.97 1719.06 3155.87 1720.67C3157.77 1722.28 3160.22 1723.08 3163.21 1723.08ZM3198.1 1702.95C3198.1 1694.65 3200.02 1688.06 3203.86 1683.17C3207.7 1678.25 3212.79 1675.78 3219.12 1675.78C3225.61 1675.78 3230.68 1678.08 3234.33 1682.67L3234.77 1676.77H3243.09V1728.74C3243.09 1735.63 3241.04 1741.06 3236.94 1745.04C3232.87 1749.01 3227.39 1750.99 3220.5 1750.99C3216.66 1750.99 3212.9 1750.17 3209.23 1748.53C3205.55 1746.89 3202.74 1744.64 3200.81 1741.79L3205.53 1736.32C3209.44 1741.15 3214.21 1743.56 3219.86 1743.56C3224.29 1743.56 3227.73 1742.31 3230.19 1739.82C3232.69 1737.32 3233.93 1733.81 3233.93 1729.29V1724.71C3230.29 1728.91 3225.32 1731.01 3219.02 1731.01C3212.79 1731.01 3207.73 1728.5 3203.86 1723.48C3200.02 1718.46 3198.1 1711.62 3198.1 1702.95ZM3207.26 1703.99C3207.26 1709.99 3208.49 1714.72 3210.95 1718.16C3213.41 1721.57 3216.85 1723.28 3221.28 1723.28C3227.03 1723.28 3231.24 1720.67 3233.93 1715.45V1691.14C3231.14 1686.05 3226.96 1683.51 3221.38 1683.51C3216.95 1683.51 3213.49 1685.23 3211 1688.68C3208.5 1692.12 3207.26 1697.23 3207.26 1703.99ZM3254.7 1702.95C3254.7 1694.65 3256.62 1688.06 3260.46 1683.17C3264.3 1678.25 3269.39 1675.78 3275.72 1675.78C3282.22 1675.78 3287.29 1678.08 3290.93 1682.67L3291.37 1676.77H3299.69V1728.74C3299.69 1735.63 3297.64 1741.06 3293.54 1745.04C3289.47 1749.01 3283.99 1750.99 3277.1 1750.99C3273.26 1750.99 3269.5 1750.17 3265.83 1748.53C3262.15 1746.89 3259.35 1744.64 3257.41 1741.79L3262.14 1736.32C3266.04 1741.15 3270.81 1743.56 3276.46 1743.56C3280.89 1743.56 3284.33 1742.31 3286.79 1739.82C3289.29 1737.32 3290.53 1733.81 3290.53 1729.29V1724.71C3286.89 1728.91 3281.92 1731.01 3275.62 1731.01C3269.39 1731.01 3264.33 1728.5 3260.46 1723.48C3256.62 1718.46 3254.7 1711.62 3254.7 1702.95ZM3263.86 1703.99C3263.86 1709.99 3265.09 1714.72 3267.55 1718.16C3270.01 1721.57 3273.46 1723.28 3277.89 1723.28C3283.63 1723.28 3287.84 1720.67 3290.53 1715.45V1691.14C3287.75 1686.05 3283.56 1683.51 3277.98 1683.51C3273.55 1683.51 3270.09 1685.23 3267.6 1688.68C3265.1 1692.12 3263.86 1697.23 3263.86 1703.99ZM3335.57 1731.01C3328.35 1731.01 3322.48 1728.65 3317.95 1723.92C3313.42 1719.16 3311.16 1712.81 3311.16 1704.87V1703.2C3311.16 1697.92 3312.16 1693.21 3314.16 1689.07C3316.19 1684.91 3319.02 1681.66 3322.63 1679.33C3326.27 1676.97 3330.2 1675.78 3334.44 1675.78C3341.36 1675.78 3346.74 1678.06 3350.58 1682.63C3354.42 1687.19 3356.34 1693.72 3356.34 1702.21V1706H3320.26C3320.39 1711.25 3321.92 1715.5 3324.84 1718.75C3327.79 1721.97 3331.53 1723.58 3336.06 1723.58C3339.28 1723.58 3342 1722.92 3344.23 1721.61C3346.46 1720.29 3348.42 1718.56 3350.09 1716.39L3355.65 1720.72C3351.19 1727.58 3344.49 1731.01 3335.57 1731.01ZM3334.44 1683.27C3330.76 1683.27 3327.68 1684.61 3325.18 1687.3C3322.69 1689.96 3321.15 1693.7 3320.56 1698.52H3347.23V1697.83C3346.97 1693.21 3345.73 1689.63 3343.49 1687.1C3341.26 1684.55 3338.24 1683.27 3334.44 1683.27ZM3392.66 1684.94C3391.29 1684.71 3389.79 1684.59 3388.18 1684.59C3382.21 1684.59 3378.16 1687.14 3376.03 1692.22V1730.02H3366.92V1676.77H3375.78L3375.93 1682.92C3378.92 1678.16 3383.15 1675.78 3388.63 1675.78C3390.4 1675.78 3391.74 1676.01 3392.66 1676.47V1684.94Z" fill="white"/>
<path d="M3611.43 1511.89L3638.92 1539.38M3611.43 1539.38L3638.92 1511.89" stroke="white" stroke-width="9.16365"/>
<rect x="2753.64" y="1438.58" width="361.291" height="100.655" fill="black"/>
<path d="M2853.78 1489.25C2853.78 1493.1 2853.1 1496.47 2851.74 1499.37C2850.38 1502.27 2848.42 1504.51 2845.88 1506.08C2843.36 1507.66 2840.46 1508.45 2837.18 1508.45C2833.95 1508.45 2831.05 1507.67 2828.51 1506.11C2825.97 1504.55 2824 1502.34 2822.61 1499.45C2821.21 1496.55 2820.5 1493.23 2820.49 1489.47V1487.53C2820.49 1483.69 2821.18 1480.3 2822.55 1477.39C2823.95 1474.45 2825.91 1472.2 2828.43 1470.65C2830.97 1469.07 2833.87 1468.28 2837.13 1468.28C2840.39 1468.28 2843.28 1469.07 2845.8 1470.65C2848.34 1472.2 2850.3 1474.45 2851.68 1477.39C2853.08 1480.3 2853.78 1483.68 2853.78 1487.51V1489.25ZM2845.61 1487.48C2845.61 1483.38 2844.88 1480.27 2843.41 1478.14C2841.95 1476.01 2839.85 1474.94 2837.13 1474.94C2834.43 1474.94 2832.34 1476 2830.88 1478.11C2829.41 1480.2 2828.67 1483.28 2828.65 1487.35V1489.25C2828.65 1493.24 2829.38 1496.34 2830.85 1498.54C2832.32 1500.74 2834.43 1501.84 2837.18 1501.84C2839.89 1501.84 2841.96 1500.79 2843.41 1498.67C2844.86 1496.55 2845.6 1493.45 2845.61 1489.39V1487.48ZM2867.68 1494.14V1507.91H2859.63V1468.82H2874.88C2877.81 1468.82 2880.39 1469.36 2882.61 1470.43C2884.85 1471.51 2886.56 1473.04 2887.76 1475.02C2888.96 1476.99 2889.56 1479.24 2889.56 1481.76C2889.56 1485.59 2888.25 1488.62 2885.62 1490.84C2883 1493.04 2879.38 1494.14 2874.74 1494.14H2867.68ZM2867.68 1487.61H2874.88C2877.01 1487.61 2878.63 1487.11 2879.74 1486.11C2880.86 1485.11 2881.43 1483.68 2881.43 1481.82C2881.43 1479.9 2880.86 1478.35 2879.74 1477.17C2878.61 1475.99 2877.05 1475.38 2875.07 1475.35H2867.68V1487.61ZM2918.64 1490.97H2903.17V1501.44H2921.32V1507.91H2895.12V1468.82H2921.27V1475.35H2903.17V1484.66H2918.64V1490.97ZM2957.83 1507.91H2949.78L2934.1 1482.19V1507.91H2926.05V1468.82H2934.1L2949.81 1494.59V1468.82H2957.83V1507.91ZM2987.42 1499.86H2973.3L2970.61 1507.91H2962.05L2976.6 1468.82H2984.06L2998.69 1507.91H2990.13L2987.42 1499.86ZM2975.47 1493.33H2985.24L2980.33 1478.7L2975.47 1493.33ZM3010.4 1494.14V1507.91H3002.35V1468.82H3017.59C3020.53 1468.82 3023.11 1469.36 3025.33 1470.43C3027.56 1471.51 3029.28 1473.04 3030.48 1475.02C3031.68 1476.99 3032.28 1479.24 3032.28 1481.76C3032.28 1485.59 3030.96 1488.62 3028.33 1490.84C3025.72 1493.04 3022.1 1494.14 3017.46 1494.14H3010.4ZM3010.4 1487.61H3017.59C3019.72 1487.61 3021.34 1487.11 3022.45 1486.11C3023.58 1485.11 3024.14 1483.68 3024.14 1481.82C3024.14 1479.9 3023.58 1478.35 3022.45 1477.17C3021.33 1475.99 3019.77 1475.38 3017.78 1475.35H3010.4V1487.61ZM3046.4 1507.91H3038.35V1468.82H3046.4V1507.91Z" fill="white"/>
<rect x="2753.64" y="1438.58" width="361.291" height="100.655" stroke="white" stroke-width="9.16365"/>
<rect x="4975.5" y="1461.57" width="944.789" height="426.11" fill="black" stroke="white" stroke-width="9.16365"/>
<path d="M5335.28 1679.84C5327.17 1677.51 5321.27 1674.65 5317.56 1671.27C5313.88 1667.86 5312.05 1663.66 5312.05 1658.67C5312.05 1653.03 5314.29 1648.37 5318.79 1644.69C5323.32 1640.99 5329.19 1639.13 5336.41 1639.13C5341.33 1639.13 5345.71 1640.08 5349.55 1641.99C5353.42 1643.89 5356.41 1646.51 5358.51 1649.86C5360.64 1653.21 5361.71 1656.87 5361.71 1660.84H5352.21C5352.21 1656.51 5350.83 1653.11 5348.07 1650.65C5345.32 1648.15 5341.43 1646.91 5336.41 1646.91C5331.75 1646.91 5328.11 1647.94 5325.48 1650.01C5322.89 1652.04 5321.59 1654.88 5321.59 1658.52C5321.59 1661.44 5322.83 1663.92 5325.29 1665.96C5327.78 1667.96 5332 1669.79 5337.94 1671.47C5343.91 1673.14 5348.57 1675 5351.91 1677.03C5355.29 1679.03 5357.79 1681.38 5359.39 1684.07C5361.04 1686.76 5361.86 1689.93 5361.86 1693.57C5361.86 1699.38 5359.59 1704.03 5355.06 1707.55C5350.54 1711.02 5344.48 1712.76 5336.9 1712.76C5331.98 1712.76 5327.39 1711.83 5323.12 1709.96C5318.85 1708.05 5315.56 1705.46 5313.23 1702.18C5310.93 1698.9 5309.78 1695.18 5309.78 1691.01H5319.28C5319.28 1695.34 5320.87 1698.77 5324.06 1701.29C5327.27 1703.79 5331.55 1705.04 5336.9 1705.04C5341.89 1705.04 5345.71 1704.02 5348.37 1701.98C5351.03 1699.95 5352.36 1697.18 5352.36 1693.67C5352.36 1690.15 5351.13 1687.45 5348.67 1685.54C5346.2 1683.61 5341.74 1681.71 5335.28 1679.84ZM5394.68 1712.76C5387.47 1712.76 5381.59 1710.4 5377.06 1705.68C5372.54 1700.92 5370.27 1694.57 5370.27 1686.63V1684.95C5370.27 1679.67 5371.27 1674.96 5373.27 1670.83C5375.31 1666.66 5378.13 1663.41 5381.74 1661.08C5385.38 1658.72 5389.32 1657.54 5393.55 1657.54C5400.48 1657.54 5405.86 1659.82 5409.7 1664.38C5413.54 1668.94 5415.46 1675.47 5415.46 1683.97V1687.76H5379.38C5379.51 1693.01 5381.03 1697.26 5383.96 1700.51C5386.91 1703.72 5390.65 1705.33 5395.18 1705.33C5398.39 1705.33 5401.12 1704.67 5403.35 1703.36C5405.58 1702.05 5407.53 1700.31 5409.2 1698.14L5414.77 1702.48C5410.3 1709.33 5403.61 1712.76 5394.68 1712.76ZM5393.55 1665.02C5389.88 1665.02 5386.79 1666.37 5384.3 1669.06C5381.81 1671.71 5380.26 1675.45 5379.67 1680.28H5406.35V1679.59C5406.09 1674.96 5404.84 1671.39 5402.61 1668.86C5400.38 1666.3 5397.36 1665.02 5393.55 1665.02ZM5451.78 1666.69C5450.4 1666.46 5448.91 1666.35 5447.3 1666.35C5441.33 1666.35 5437.28 1668.89 5435.14 1673.98V1711.78H5426.04V1658.52H5434.9L5435.04 1664.68C5438.03 1659.92 5442.26 1657.54 5447.74 1657.54C5449.51 1657.54 5450.86 1657.77 5451.78 1658.23V1666.69ZM5478.65 1699.42L5491.84 1658.52H5501.15L5482.05 1711.78H5475.11L5455.81 1658.52H5465.12L5478.65 1699.42ZM5531.32 1712.76C5524.1 1712.76 5518.22 1710.4 5513.7 1705.68C5509.17 1700.92 5506.9 1694.57 5506.9 1686.63V1684.95C5506.9 1679.67 5507.9 1674.96 5509.91 1670.83C5511.94 1666.66 5514.76 1663.41 5518.37 1661.08C5522.01 1658.72 5525.95 1657.54 5530.18 1657.54C5537.11 1657.54 5542.49 1659.82 5546.33 1664.38C5550.17 1668.94 5552.09 1675.47 5552.09 1683.97V1687.76H5516.01C5516.14 1693.01 5517.67 1697.26 5520.59 1700.51C5523.54 1703.72 5527.28 1705.33 5531.81 1705.33C5535.02 1705.33 5537.75 1704.67 5539.98 1703.36C5542.21 1702.05 5544.16 1700.31 5545.84 1698.14L5551.4 1702.48C5546.93 1709.33 5540.24 1712.76 5531.32 1712.76ZM5530.18 1665.02C5526.51 1665.02 5523.42 1666.37 5520.93 1669.06C5518.44 1671.71 5516.9 1675.45 5516.3 1680.28H5542.98V1679.59C5542.72 1674.96 5541.47 1671.39 5539.24 1668.86C5537.01 1666.3 5533.99 1665.02 5530.18 1665.02ZM5588.41 1666.69C5587.03 1666.46 5585.54 1666.35 5583.93 1666.35C5577.96 1666.35 5573.91 1668.89 5571.77 1673.98V1711.78H5562.67V1658.52H5571.53L5571.68 1664.68C5574.66 1659.92 5578.89 1657.54 5584.37 1657.54C5586.15 1657.54 5587.49 1657.77 5588.41 1658.23V1666.69Z" fill="white"/>
<path d="M5860.78 1493.65L5888.27 1521.14M5860.78 1521.14L5888.27 1493.65" stroke="white" stroke-width="9.16365"/>
<rect x="5002.99" y="1420.34" width="324.291" height="100.655" fill="black"/>
<path d="M5094.26 1472.72H5078.8V1483.2H5096.94V1489.67H5070.74V1450.58H5096.89V1457.1H5078.8V1466.42H5094.26V1472.72ZM5112.22 1469.29L5117.11 1460.62H5125.4L5117.13 1474.85L5125.75 1489.67H5117.43L5112.25 1480.54L5107.09 1489.67H5098.74L5107.36 1474.85L5099.12 1460.62H5107.44L5112.22 1469.29ZM5155.28 1475.41C5155.28 1479.88 5154.26 1483.47 5152.22 1486.17C5150.2 1488.86 5147.46 1490.2 5144.01 1490.2C5141.07 1490.2 5138.7 1489.18 5136.89 1487.14V1500.83H5129.13V1460.62H5136.33L5136.6 1463.46C5138.48 1461.21 5140.93 1460.08 5143.95 1460.08C5147.53 1460.08 5150.32 1461.4 5152.3 1464.05C5154.29 1466.7 5155.28 1470.35 5155.28 1475.01V1475.41ZM5147.52 1474.85C5147.52 1472.14 5147.04 1470.06 5146.07 1468.59C5145.13 1467.12 5143.74 1466.39 5141.91 1466.39C5139.48 1466.39 5137.8 1467.32 5136.89 1469.18V1481.07C5137.84 1482.99 5139.53 1483.95 5141.97 1483.95C5145.67 1483.95 5147.52 1480.91 5147.52 1474.85ZM5176.44 1467.89C5175.38 1467.75 5174.45 1467.68 5173.65 1467.68C5170.71 1467.68 5168.79 1468.67 5167.87 1470.66V1489.67H5160.11V1460.62H5167.44L5167.66 1464.08C5169.22 1461.41 5171.37 1460.08 5174.13 1460.08C5174.99 1460.08 5175.79 1460.2 5176.54 1460.43L5176.44 1467.89ZM5193.03 1490.2C5188.77 1490.2 5185.3 1488.9 5182.61 1486.28C5179.95 1483.67 5178.61 1480.19 5178.61 1475.84V1475.09C5178.61 1472.17 5179.18 1469.57 5180.3 1467.27C5181.43 1464.97 5183.02 1463.19 5185.08 1461.96C5187.16 1460.71 5189.52 1460.08 5192.17 1460.08C5196.14 1460.08 5199.27 1461.33 5201.54 1463.84C5203.83 1466.34 5204.98 1469.9 5204.98 1474.5V1477.66H5186.48C5186.73 1479.56 5187.48 1481.08 5188.73 1482.23C5190 1483.37 5191.61 1483.95 5193.54 1483.95C5196.53 1483.95 5198.86 1482.86 5200.55 1480.7L5204.36 1484.97C5203.19 1486.61 5201.62 1487.9 5199.63 1488.83C5197.65 1489.75 5195.44 1490.2 5193.03 1490.2ZM5192.14 1466.36C5190.6 1466.36 5189.35 1466.88 5188.38 1467.92C5187.44 1468.96 5186.83 1470.44 5186.56 1472.38H5197.35V1471.76C5197.31 1470.04 5196.85 1468.72 5195.95 1467.79C5195.06 1466.84 5193.79 1466.36 5192.14 1466.36ZM5225.14 1481.64C5225.14 1480.69 5224.66 1479.95 5223.71 1479.41C5222.78 1478.85 5221.28 1478.36 5219.2 1477.93C5212.3 1476.48 5208.84 1473.55 5208.84 1469.13C5208.84 1466.55 5209.91 1464.4 5212.04 1462.68C5214.18 1460.95 5216.98 1460.08 5220.44 1460.08C5224.13 1460.08 5227.07 1460.95 5229.27 1462.68C5231.49 1464.42 5232.6 1466.68 5232.6 1469.45H5224.84C5224.84 1468.34 5224.48 1467.43 5223.77 1466.71C5223.05 1465.98 5221.93 1465.61 5220.41 1465.61C5219.11 1465.61 5218.09 1465.91 5217.38 1466.5C5216.66 1467.09 5216.3 1467.84 5216.3 1468.75C5216.3 1469.61 5216.71 1470.31 5217.51 1470.85C5218.34 1471.36 5219.71 1471.82 5221.65 1472.21C5223.58 1472.59 5225.21 1473.02 5226.53 1473.5C5230.63 1475.01 5232.68 1477.61 5232.68 1481.32C5232.68 1483.96 5231.54 1486.11 5229.27 1487.76C5227 1489.39 5224.06 1490.2 5220.47 1490.2C5218.03 1490.2 5215.87 1489.77 5213.97 1488.91C5212.09 1488.04 5210.61 1486.85 5209.54 1485.34C5208.47 1483.82 5207.93 1482.18 5207.93 1480.43H5215.28C5215.36 1481.81 5215.87 1482.86 5216.81 1483.6C5217.76 1484.33 5219.03 1484.7 5220.63 1484.7C5222.11 1484.7 5223.23 1484.42 5223.98 1483.87C5224.75 1483.29 5225.14 1482.55 5225.14 1481.64ZM5253.43 1481.64C5253.43 1480.69 5252.96 1479.95 5252.01 1479.41C5251.08 1478.85 5249.58 1478.36 5247.5 1477.93C5240.59 1476.48 5237.14 1473.55 5237.14 1469.13C5237.14 1466.55 5238.2 1464.4 5240.33 1462.68C5242.48 1460.95 5245.28 1460.08 5248.74 1460.08C5252.42 1460.08 5255.37 1460.95 5257.57 1462.68C5259.79 1464.42 5260.9 1466.68 5260.9 1469.45H5253.14C5253.14 1468.34 5252.78 1467.43 5252.06 1466.71C5251.35 1465.98 5250.23 1465.61 5248.71 1465.61C5247.4 1465.61 5246.39 1465.91 5245.67 1466.5C5244.96 1467.09 5244.6 1467.84 5244.6 1468.75C5244.6 1469.61 5245 1470.31 5245.81 1470.85C5246.63 1471.36 5248.01 1471.82 5249.94 1472.21C5251.88 1472.59 5253.5 1473.02 5254.83 1473.5C5258.93 1475.01 5260.98 1477.61 5260.98 1481.32C5260.98 1483.96 5259.84 1486.11 5257.57 1487.76C5255.29 1489.39 5252.36 1490.2 5248.76 1490.2C5246.33 1490.2 5244.16 1489.77 5242.27 1488.91C5240.39 1488.04 5238.91 1486.85 5237.84 1485.34C5236.76 1483.82 5236.22 1482.18 5236.22 1480.43H5243.58C5243.65 1481.81 5244.16 1482.86 5245.11 1483.6C5246.06 1484.33 5247.33 1484.7 5248.92 1484.7C5250.41 1484.7 5251.53 1484.42 5252.28 1483.87C5253.05 1483.29 5253.43 1482.55 5253.43 1481.64Z" fill="white"/>
<rect x="5002.99" y="1420.34" width="324.291" height="100.655" stroke="white" stroke-width="9.16365"/>
<path fill-rule="evenodd" clip-rule="evenodd" d="M1676.26 1725.71H2711.15V1720.5H1676.39C1676.39 1720.85 1676.39 1721.2 1676.39 1721.55C1676.39 1722.95 1676.35 1724.33 1676.26 1725.71ZM1554.03 1725.71C1553.94 1724.33 1553.89 1722.95 1553.89 1721.55C1553.89 1721.2 1553.9 1720.85 1553.9 1720.5H1441.82V1725.71H1554.03Z" fill="black"/>
<path d="M2650.87 1660.55L2713.42 1723.11L2650.87 1785.66" stroke="black" stroke-width="5.21285"/>
<circle cx="1615.14" cy="1721.55" r="50.8253" stroke="black" stroke-width="5.21285"/>
<path d="M1590.38 1722.85L1606.02 1738.49L1637.3 1707.21" stroke="black" stroke-width="5.21285"/>
<rect width="610.771" height="224.386" transform="translate(1561.71 1602.95)" fill="#003245"/>
<path d="M1745.22 1725.74H1730.49L1727.69 1734.14H1718.76L1733.93 1693.38H1741.72L1756.98 1734.14H1748.05L1745.22 1725.74ZM1732.76 1718.94H1742.95L1737.83 1703.68L1732.76 1718.94ZM1769.18 1719.78V1734.14H1760.78V1693.38H1776.69C1779.75 1693.38 1782.44 1693.94 1784.75 1695.06C1787.08 1696.18 1788.88 1697.77 1790.13 1699.85C1791.38 1701.9 1792 1704.24 1792 1706.87C1792 1710.87 1790.63 1714.02 1787.89 1716.34C1785.16 1718.63 1781.38 1719.78 1776.55 1719.78H1769.18ZM1769.18 1712.98H1776.69C1778.91 1712.98 1780.6 1712.45 1781.76 1711.41C1782.93 1710.36 1783.52 1708.87 1783.52 1706.93C1783.52 1704.93 1782.93 1703.32 1781.76 1702.09C1780.58 1700.85 1778.96 1700.22 1776.88 1700.18H1769.18V1712.98ZM1806.73 1734.14H1798.33V1693.38H1806.73V1734.14ZM1839.8 1693.38L1850.27 1722.95L1860.68 1693.38H1871.72V1734.14H1863.29V1723L1864.13 1703.77L1853.12 1734.14H1847.36L1836.38 1703.79L1837.22 1723V1734.14H1828.82V1693.38H1839.8ZM1912.54 1714.69C1912.54 1718.7 1911.83 1722.22 1910.41 1725.24C1908.99 1728.26 1906.96 1730.6 1904.31 1732.24C1901.67 1733.88 1898.65 1734.7 1895.23 1734.7C1891.86 1734.7 1888.84 1733.89 1886.19 1732.27C1883.54 1730.64 1881.49 1728.33 1880.03 1725.32C1878.58 1722.3 1877.84 1718.83 1877.82 1714.91V1712.89C1877.82 1708.88 1878.54 1705.35 1879.98 1702.31C1881.43 1699.25 1883.47 1696.91 1886.11 1695.28C1888.76 1693.64 1891.78 1692.82 1895.18 1692.82C1898.58 1692.82 1901.59 1693.64 1904.22 1695.28C1906.87 1696.91 1908.92 1699.25 1910.35 1702.31C1911.81 1705.35 1912.54 1708.87 1912.54 1712.87V1714.69ZM1904.03 1712.84C1904.03 1708.56 1903.26 1705.32 1901.73 1703.09C1900.2 1700.87 1898.02 1699.76 1895.18 1699.76C1892.36 1699.76 1890.19 1700.86 1888.65 1703.07C1887.12 1705.25 1886.35 1708.46 1886.33 1712.7V1714.69C1886.33 1718.85 1887.1 1722.08 1888.63 1724.37C1890.16 1726.67 1892.36 1727.82 1895.23 1727.82C1898.05 1727.82 1900.22 1726.72 1901.73 1724.51C1903.24 1722.29 1904.01 1719.06 1904.03 1714.83V1712.84ZM1918.64 1734.14V1693.38H1931.18C1934.77 1693.38 1937.97 1694.19 1940.79 1695.81C1943.63 1697.42 1945.84 1699.72 1947.42 1702.7C1949.01 1705.67 1949.8 1709.05 1949.8 1712.84V1714.71C1949.8 1718.5 1949.02 1721.87 1947.45 1724.82C1945.9 1727.77 1943.71 1730.06 1940.87 1731.68C1938.04 1733.3 1934.83 1734.13 1931.27 1734.14H1918.64ZM1927.04 1700.18V1727.4H1931.1C1934.39 1727.4 1936.9 1726.32 1938.63 1724.18C1940.37 1722.03 1941.25 1718.96 1941.29 1714.97V1712.81C1941.29 1708.67 1940.43 1705.53 1938.72 1703.4C1937 1701.26 1934.49 1700.18 1931.18 1700.18H1927.04ZM1980.46 1716.48H1964.34V1727.4H1983.26V1734.14H1955.94V1693.38H1983.21V1700.18H1964.34V1709.9H1980.46V1716.48ZM1996.59 1727.4H2014.42V1734.14H1988.19V1693.38H1996.59V1727.4Z" fill="white"/>
<path fill-rule="evenodd" clip-rule="evenodd" d="M4736.48 1710.07H3701.59V1704.86H4736.35C4736.34 1705.21 4736.34 1705.56 4736.34 1705.91C4736.34 1707.31 4736.39 1708.7 4736.48 1710.07ZM4858.7 1710.07C4858.79 1708.7 4858.84 1707.31 4858.84 1705.91C4858.84 1705.56 4858.84 1705.21 4858.83 1704.86H4970.92V1710.07H4858.7Z" fill="black"/>
<path d="M3761.87 1644.91L3699.31 1707.47L3761.87 1770.02" stroke="black" stroke-width="5.21285"/>
<circle r="50.8253" transform="matrix(-1 0 0 1 4797.59 1705.91)" stroke="black" stroke-width="5.21285"/>
<path d="M4822.35 1707.21L4806.71 1722.85L4775.44 1691.57" stroke="black" stroke-width="5.21285"/>
<rect width="610.771" height="224.386" transform="translate(4240.59 1587.31)" fill="#003245"/>
<path d="M4424.09 1710.11H4409.36L4406.57 1718.51H4397.63L4412.81 1677.74H4420.59L4435.85 1718.51H4426.92L4424.09 1710.11ZM4411.63 1703.3H4421.82L4416.7 1688.04L4411.63 1703.3ZM4448.06 1704.14V1718.51H4439.66V1677.74H4455.56C4458.62 1677.74 4461.31 1678.3 4463.63 1679.42C4465.96 1680.54 4467.75 1682.14 4469 1684.21C4470.25 1686.26 4470.88 1688.6 4470.88 1691.24C4470.88 1695.23 4469.51 1698.39 4466.76 1700.7C4464.04 1703 4460.26 1704.14 4455.42 1704.14H4448.06ZM4448.06 1697.34H4455.56C4457.78 1697.34 4459.47 1696.82 4460.63 1695.77C4461.81 1694.73 4462.39 1693.23 4462.39 1691.29C4462.39 1689.29 4461.81 1687.68 4460.63 1686.45C4459.45 1685.22 4457.83 1684.58 4455.76 1684.54H4448.06V1697.34ZM4485.61 1718.51H4477.21V1677.74H4485.61V1718.51ZM4518.67 1677.74L4529.14 1707.31L4539.56 1677.74H4550.59V1718.51H4542.16V1707.36L4543 1688.13L4532 1718.51H4526.23L4515.26 1688.16L4516.1 1707.36V1718.51H4507.7V1677.74H4518.67ZM4591.41 1699.05C4591.41 1703.06 4590.7 1706.58 4589.28 1709.6C4587.87 1712.63 4585.83 1714.96 4583.18 1716.6C4580.55 1718.25 4577.53 1719.07 4574.11 1719.07C4570.73 1719.07 4567.72 1718.25 4565.07 1716.63C4562.42 1715.01 4560.36 1712.69 4558.91 1709.69C4557.45 1706.66 4556.71 1703.19 4556.69 1699.27V1697.26C4556.69 1693.24 4557.41 1689.71 4558.85 1686.67C4560.31 1683.61 4562.35 1681.27 4564.98 1679.64C4567.63 1678 4570.66 1677.18 4574.05 1677.18C4577.45 1677.18 4580.47 1678 4583.1 1679.64C4585.75 1681.27 4587.79 1683.61 4589.23 1686.67C4590.68 1689.71 4591.41 1693.23 4591.41 1697.23V1699.05ZM4582.9 1697.2C4582.9 1692.93 4582.14 1689.68 4580.61 1687.46C4579.07 1685.24 4576.89 1684.12 4574.05 1684.12C4571.23 1684.12 4569.06 1685.23 4567.53 1687.43C4566 1689.61 4565.22 1692.82 4565.21 1697.06V1699.05C4565.21 1703.21 4565.97 1706.44 4567.5 1708.74C4569.03 1711.03 4571.23 1712.18 4574.11 1712.18C4576.93 1712.18 4579.09 1711.08 4580.61 1708.88C4582.12 1706.65 4582.88 1703.42 4582.9 1699.19V1697.2ZM4597.52 1718.51V1677.74H4610.06C4613.64 1677.74 4616.84 1678.55 4619.66 1680.18C4622.5 1681.78 4624.71 1684.08 4626.3 1687.06C4627.89 1690.03 4628.68 1693.41 4628.68 1697.2V1699.08C4628.68 1702.86 4627.89 1706.23 4626.33 1709.18C4624.78 1712.13 4622.58 1714.42 4619.75 1716.04C4616.91 1717.67 4613.71 1718.49 4610.14 1718.51H4597.52ZM4605.92 1684.54V1711.76H4609.98C4613.26 1711.76 4615.77 1710.69 4617.51 1708.54C4619.24 1706.39 4620.13 1703.32 4620.17 1699.33V1697.17C4620.17 1693.03 4619.31 1689.89 4617.59 1687.76C4615.87 1685.62 4613.36 1684.54 4610.06 1684.54H4605.92ZM4659.34 1700.84H4643.21V1711.76H4662.14V1718.51H4634.81V1677.74H4662.08V1684.54H4643.21V1694.26H4659.34V1700.84ZM4675.46 1711.76H4693.3V1718.51H4667.07V1677.74H4675.46V1711.76Z" fill="white"/>
<path d="M5513.06 1438.75V1196.35C5513.06 1153.17 5478.05 1118.16 5434.86 1118.16L3288.47 1118.16L1142.08 1118.16C1098.89 1118.16 1063.89 1153.17 1063.89 1196.35V1468.72" stroke="black" stroke-width="5.21285"/>
<path d="M2746.88 1218.16L2770.88 1242.16L2794.88 1218.16" stroke="black" stroke-width="2"/>
<circle r="13.0321" transform="matrix(0 1 1 0 1063.88 1480.45)" fill="black"/>
<rect width="740.872" height="285.936" transform="translate(2893.2 985.229)" fill="#003245"/>
<path d="M3113.51 1145.57C3115.42 1145.57 3116.97 1145.05 3118.16 1144C3119.35 1142.95 3119.97 1141.55 3120.02 1139.81H3129.72C3129.7 1142.43 3128.98 1144.84 3127.57 1147.04C3126.17 1149.21 3124.23 1150.91 3121.78 1152.12C3119.34 1153.32 3116.65 1153.91 3113.69 1153.91C3108.15 1153.91 3103.78 1152.16 3100.58 1148.65C3097.39 1145.12 3095.79 1140.25 3095.79 1134.05V1133.37C3095.79 1127.4 3097.38 1122.64 3100.55 1119.08C3103.72 1115.53 3108.08 1113.75 3113.61 1113.75C3118.46 1113.75 3122.34 1115.13 3125.25 1117.9C3128.18 1120.65 3129.67 1124.31 3129.72 1128.89H3120.02C3119.97 1126.89 3119.35 1125.26 3118.16 1124.02C3116.97 1122.76 3115.39 1122.13 3113.44 1122.13C3111.03 1122.13 3109.2 1123.01 3107.96 1124.78C3106.74 1126.52 3106.13 1129.36 3106.13 1133.29V1134.37C3106.13 1138.35 3106.74 1141.22 3107.96 1142.96C3109.18 1144.7 3111.03 1145.57 3113.51 1145.57ZM3134.02 1133.47C3134.02 1129.63 3134.76 1126.21 3136.24 1123.2C3137.72 1120.19 3139.84 1117.87 3142.61 1116.22C3145.4 1114.57 3148.63 1113.75 3152.31 1113.75C3157.54 1113.75 3161.8 1115.35 3165.09 1118.55C3168.41 1121.74 3170.26 1126.09 3170.64 1131.58L3170.71 1134.23C3170.71 1140.17 3169.05 1144.94 3165.73 1148.54C3162.42 1152.12 3157.97 1153.91 3152.38 1153.91C3146.8 1153.91 3142.33 1152.12 3138.99 1148.54C3135.68 1144.96 3134.02 1140.1 3134.02 1133.94V1133.47ZM3144.36 1134.23C3144.36 1137.9 3145.06 1140.72 3146.44 1142.67C3147.82 1144.61 3149.8 1145.57 3152.38 1145.57C3154.89 1145.57 3156.84 1144.62 3158.25 1142.71C3159.66 1140.78 3160.36 1137.7 3160.36 1133.47C3160.36 1129.87 3159.66 1127.08 3158.25 1125.1C3156.84 1123.12 3154.86 1122.13 3152.31 1122.13C3149.78 1122.13 3147.82 1123.12 3146.44 1125.1C3145.06 1127.05 3144.36 1130.1 3144.36 1134.23ZM3186.6 1114.47L3186.92 1118.94C3189.69 1115.48 3193.4 1113.75 3198.06 1113.75C3202.16 1113.75 3205.22 1114.96 3207.22 1117.37C3209.23 1119.78 3210.25 1123.38 3210.3 1128.18V1153.2H3199.95V1128.43C3199.95 1126.23 3199.48 1124.64 3198.52 1123.67C3197.57 1122.66 3195.98 1122.16 3193.76 1122.16C3190.85 1122.16 3188.67 1123.4 3187.21 1125.89V1153.2H3176.87V1114.47H3186.6ZM3239.15 1142.49C3239.15 1141.23 3238.52 1140.24 3237.25 1139.52C3236.01 1138.78 3234.01 1138.13 3231.24 1137.55C3222.03 1135.62 3217.42 1131.71 3217.42 1125.81C3217.42 1122.38 3218.84 1119.51 3221.68 1117.22C3224.55 1114.91 3228.28 1113.75 3232.89 1113.75C3237.8 1113.75 3241.73 1114.91 3244.66 1117.22C3247.62 1119.54 3249.1 1122.54 3249.1 1126.24H3238.76C3238.76 1124.76 3238.28 1123.55 3237.32 1122.59C3236.37 1121.61 3234.88 1121.12 3232.85 1121.12C3231.11 1121.12 3229.76 1121.52 3228.81 1122.31C3227.85 1123.09 3227.37 1124.1 3227.37 1125.31C3227.37 1126.46 3227.91 1127.39 3228.98 1128.1C3230.08 1128.8 3231.92 1129.4 3234.5 1129.93C3237.07 1130.43 3239.25 1131 3241.01 1131.65C3246.48 1133.65 3249.21 1137.12 3249.21 1142.06C3249.21 1145.6 3247.69 1148.46 3244.66 1150.66C3241.63 1152.83 3237.72 1153.91 3232.92 1153.91C3229.68 1153.91 3226.79 1153.34 3224.26 1152.19C3221.75 1151.03 3219.78 1149.44 3218.35 1147.43C3216.92 1145.41 3216.21 1143.22 3216.21 1140.88H3226.01C3226.11 1142.72 3226.79 1144.13 3228.05 1145.11C3229.32 1146.09 3231.01 1146.58 3233.14 1146.58C3235.12 1146.58 3236.61 1146.21 3237.61 1145.47C3238.64 1144.7 3239.15 1143.71 3239.15 1142.49ZM3279.1 1149.26C3276.55 1152.36 3273.01 1153.91 3268.5 1153.91C3264.35 1153.91 3261.18 1152.72 3258.98 1150.33C3256.81 1147.95 3255.7 1144.45 3255.65 1139.85V1114.47H3266V1139.49C3266 1143.52 3267.83 1145.54 3271.51 1145.54C3275.02 1145.54 3277.43 1144.32 3278.74 1141.89V1114.47H3289.12V1153.2H3279.38L3279.1 1149.26ZM3306.63 1114.47L3306.95 1118.8C3309.69 1115.43 3313.4 1113.75 3318.08 1113.75C3323.07 1113.75 3326.49 1115.72 3328.35 1119.66C3331.07 1115.72 3334.95 1113.75 3339.99 1113.75C3344.19 1113.75 3347.31 1114.98 3349.37 1117.44C3351.42 1119.87 3352.44 1123.55 3352.44 1128.46V1153.2H3342.06V1128.5C3342.06 1126.3 3341.63 1124.7 3340.77 1123.7C3339.92 1122.68 3338.4 1122.16 3336.23 1122.16C3333.13 1122.16 3330.98 1123.64 3329.79 1126.6L3329.82 1153.2H3319.48V1128.53C3319.48 1126.29 3319.03 1124.67 3318.15 1123.67C3317.27 1122.66 3315.77 1122.16 3313.64 1122.16C3310.71 1122.16 3308.58 1123.38 3307.27 1125.81V1153.2H3296.92V1114.47H3306.63ZM3378.25 1153.91C3372.57 1153.91 3367.94 1152.17 3364.36 1148.69C3360.81 1145.2 3359.03 1140.56 3359.03 1134.76V1133.76C3359.03 1129.87 3359.78 1126.4 3361.29 1123.34C3362.79 1120.27 3364.91 1117.9 3367.66 1116.26C3370.43 1114.59 3373.58 1113.75 3377.11 1113.75C3382.41 1113.75 3386.57 1115.42 3389.6 1118.76C3392.65 1122.1 3394.18 1126.84 3394.18 1132.97V1137.2H3369.52C3369.85 1139.73 3370.86 1141.75 3372.53 1143.28C3374.22 1144.81 3376.36 1145.57 3378.93 1145.57C3382.92 1145.57 3386.03 1144.13 3388.28 1141.24L3393.36 1146.93C3391.81 1149.13 3389.71 1150.85 3387.06 1152.09C3384.41 1153.3 3381.47 1153.91 3378.25 1153.91ZM3377.07 1122.13C3375.02 1122.13 3373.35 1122.82 3372.06 1124.2C3370.8 1125.59 3369.98 1127.57 3369.63 1130.14H3384.02V1129.32C3383.97 1127.03 3383.35 1125.26 3382.15 1124.02C3380.96 1122.76 3379.27 1122.13 3377.07 1122.13ZM3421.06 1142.49C3421.06 1141.23 3420.43 1140.24 3419.17 1139.52C3417.93 1138.78 3415.92 1138.13 3413.15 1137.55C3403.94 1135.62 3399.34 1131.71 3399.34 1125.81C3399.34 1122.38 3400.76 1119.51 3403.6 1117.22C3406.46 1114.91 3410.19 1113.75 3414.8 1113.75C3419.72 1113.75 3423.64 1114.91 3426.58 1117.22C3429.54 1119.54 3431.02 1122.54 3431.02 1126.24H3420.67C3420.67 1124.76 3420.19 1123.55 3419.24 1122.59C3418.28 1121.61 3416.79 1121.12 3414.76 1121.12C3413.02 1121.12 3411.67 1121.52 3410.72 1122.31C3409.77 1123.09 3409.29 1124.1 3409.29 1125.31C3409.29 1126.46 3409.82 1127.39 3410.9 1128.1C3412 1128.8 3413.83 1129.4 3416.41 1129.93C3418.99 1130.43 3421.16 1131 3422.93 1131.65C3428.39 1133.65 3431.12 1137.12 3431.12 1142.06C3431.12 1145.6 3429.61 1148.46 3426.58 1150.66C3423.55 1152.83 3419.63 1153.91 3414.84 1153.91C3411.59 1153.91 3408.7 1153.34 3406.17 1152.19C3403.67 1151.03 3401.7 1149.44 3400.27 1147.43C3398.84 1145.41 3398.12 1143.22 3398.12 1140.88H3407.93C3408.02 1142.72 3408.7 1144.13 3409.97 1145.11C3411.23 1146.09 3412.93 1146.58 3415.05 1146.58C3417.03 1146.58 3418.52 1146.21 3419.53 1145.47C3420.55 1144.7 3421.06 1143.71 3421.06 1142.49Z" fill="white"/>
<path d="M2937.96 410.855V299.675H2974.31C2986.37 299.675 2995.44 302.169 3001.49 307.158C3007.6 312.147 3010.66 319.529 3010.66 329.303C3010.66 334.495 3009.18 339.102 3006.23 343.124C3003.28 347.095 2999.25 350.175 2994.16 352.364C3000.17 354.044 3004.9 357.251 3008.37 361.985C3011.88 366.668 3013.64 372.268 3013.64 378.784C3013.64 388.762 3010.4 396.602 3003.94 402.303C2997.47 408.005 2988.33 410.855 2976.52 410.855H2937.96ZM2952.62 358.854V398.867H2976.83C2983.65 398.867 2989.02 397.111 2992.94 393.598C2996.91 390.035 2998.9 385.148 2998.9 378.937C2998.9 365.548 2991.62 358.854 2977.06 358.854H2952.62ZM2952.62 347.095H2974.77C2981.18 347.095 2986.3 345.491 2990.12 342.284C2993.99 339.077 2995.92 334.724 2995.92 329.226C2995.92 323.118 2994.14 318.689 2990.57 315.94C2987.01 313.14 2981.59 311.74 2974.31 311.74H2952.62V347.095ZM3084.19 410.855C3083.38 409.226 3082.72 406.325 3082.21 402.15C3075.64 408.972 3067.8 412.383 3058.69 412.383C3050.54 412.383 3043.85 410.092 3038.61 405.51C3033.41 400.878 3030.82 395.023 3030.82 387.947C3030.82 379.344 3034.07 372.675 3040.59 367.941C3047.16 363.156 3056.37 360.763 3068.23 360.763H3081.98V354.273C3081.98 349.335 3080.5 345.415 3077.55 342.513C3074.6 339.561 3070.24 338.084 3064.49 338.084C3059.45 338.084 3055.23 339.357 3051.82 341.902C3048.4 344.448 3046.7 347.527 3046.7 351.142H3032.5C3032.5 347.018 3033.95 343.048 3036.85 339.23C3039.8 335.361 3043.77 332.306 3048.76 330.066C3053.8 327.827 3059.32 326.707 3065.33 326.707C3074.85 326.707 3082.31 329.099 3087.7 333.884C3093.1 338.619 3095.9 345.16 3096.1 353.509V391.536C3096.1 399.121 3097.07 405.154 3099.01 409.634V410.855H3084.19ZM3060.75 400.089C3065.18 400.089 3069.38 398.943 3073.35 396.652C3077.32 394.362 3080.2 391.384 3081.98 387.718V370.766H3070.91C3053.6 370.766 3044.94 375.832 3044.94 385.962C3044.94 390.391 3046.42 393.853 3049.37 396.347C3052.32 398.841 3056.12 400.089 3060.75 400.089ZM3151.39 400.852C3156.43 400.852 3160.83 399.325 3164.6 396.271C3168.37 393.216 3170.45 389.398 3170.86 384.817H3184.22C3183.97 389.551 3182.34 394.056 3179.34 398.332C3176.33 402.609 3172.31 406.019 3167.27 408.565C3162.28 411.11 3156.99 412.383 3151.39 412.383C3140.14 412.383 3131.18 408.641 3124.51 401.158C3117.89 393.624 3114.58 383.34 3114.58 370.308V367.941C3114.58 359.898 3116.06 352.745 3119.01 346.484C3121.96 340.222 3126.19 335.361 3131.69 331.899C3137.24 328.437 3143.78 326.707 3151.31 326.707C3160.58 326.707 3168.26 329.481 3174.37 335.03C3180.53 340.579 3183.82 347.782 3184.22 356.64H3170.86C3170.45 351.295 3168.42 346.917 3164.75 343.506C3161.14 340.044 3156.66 338.313 3151.31 338.313C3144.13 338.313 3138.56 340.91 3134.59 346.102C3130.67 351.244 3128.71 358.701 3128.71 368.476V371.148C3128.71 380.668 3130.67 387.998 3134.59 393.14C3138.51 398.281 3144.11 400.852 3151.39 400.852ZM3223.17 372.599L3214.31 381.839V410.855H3200.18V293.566H3214.31V364.505L3221.87 355.418L3247.6 328.234H3264.78L3232.64 362.749L3268.53 410.855H3251.96L3223.17 372.599ZM3312.13 412.383C3300.93 412.383 3291.82 408.717 3284.79 401.387C3277.77 394.005 3274.25 384.155 3274.25 371.835V369.239C3274.25 361.043 3275.81 353.738 3278.91 347.324C3282.07 340.859 3286.44 335.819 3292.04 332.204C3297.7 328.539 3303.8 326.707 3310.37 326.707C3321.11 326.707 3329.46 330.245 3335.42 337.321C3341.37 344.397 3344.35 354.527 3344.35 367.712V373.592H3288.38C3288.58 381.737 3290.95 388.329 3295.48 393.369C3300.06 398.358 3305.87 400.852 3312.89 400.852C3317.88 400.852 3322.1 399.834 3325.57 397.798C3329.03 395.762 3332.06 393.064 3334.65 389.704L3343.28 396.423C3336.36 407.063 3325.97 412.383 3312.13 412.383ZM3310.37 338.313C3304.67 338.313 3299.88 340.4 3296.02 344.575C3292.15 348.698 3289.75 354.502 3288.84 361.985H3330.22V360.916C3329.82 353.738 3327.88 348.189 3324.42 344.269C3320.96 340.299 3316.28 338.313 3310.37 338.313ZM3374.13 328.234L3374.59 338.619C3380.9 330.677 3389.15 326.707 3399.33 326.707C3416.79 326.707 3425.6 336.557 3425.75 356.258V410.855H3411.62V356.182C3411.57 350.225 3410.2 345.822 3407.5 342.971C3404.85 340.121 3400.71 338.695 3395.05 338.695C3390.47 338.695 3386.45 339.917 3382.99 342.36C3379.53 344.804 3376.83 348.011 3374.9 351.982V410.855H3360.77V328.234H3374.13ZM3443.62 368.857C3443.62 356.182 3446.62 346 3452.63 338.313C3458.64 330.575 3466.5 326.707 3476.23 326.707C3485.9 326.707 3493.56 330.016 3499.21 336.633V293.566H3513.34V410.855H3500.36L3499.67 401.998C3494.02 408.921 3486.15 412.383 3476.07 412.383C3466.5 412.383 3458.69 408.463 3452.63 400.623C3446.62 392.784 3443.62 382.551 3443.62 369.926V368.857ZM3457.75 370.461C3457.75 379.828 3459.68 387.158 3463.55 392.453C3467.42 397.747 3472.76 400.394 3479.59 400.394C3488.54 400.394 3495.09 396.372 3499.21 388.329V350.378C3494.98 342.589 3488.49 338.695 3479.74 338.695C3472.81 338.695 3467.42 341.368 3463.55 346.713C3459.68 352.058 3457.75 359.974 3457.75 370.461Z" fill="black"/>
<rect width="471.435" height="179.218" transform="translate(5421 1790)" fill="#003245"/>
<path d="M5558.08 1862.97L5566.46 1886.64L5574.8 1862.97H5583.63V1895.61H5576.88V1886.69L5577.56 1871.28L5568.75 1895.61H5564.13L5555.34 1871.31L5556.01 1886.69V1895.61H5549.29V1862.97H5558.08ZM5588.07 1883.26C5588.07 1880.85 5588.53 1878.7 5589.46 1876.82C5590.39 1874.94 5591.72 1873.48 5593.45 1872.45C5595.2 1871.42 5597.23 1870.9 5599.53 1870.9C5602.8 1870.9 5605.47 1871.9 5607.53 1873.91C5609.61 1875.91 5610.77 1878.63 5611.01 1882.07L5611.05 1883.73C5611.05 1887.45 5610.01 1890.44 5607.93 1892.69C5605.86 1894.94 5603.07 1896.06 5599.57 1896.06C5596.07 1896.06 5593.28 1894.94 5591.19 1892.69C5589.11 1890.45 5588.07 1887.4 5588.07 1883.55V1883.26ZM5594.55 1883.73C5594.55 1886.03 5594.98 1887.79 5595.85 1889.02C5596.72 1890.23 5597.96 1890.83 5599.57 1890.83C5601.14 1890.83 5602.37 1890.24 5603.25 1889.04C5604.13 1887.83 5604.57 1885.9 5604.57 1883.26C5604.57 1881 5604.13 1879.25 5603.25 1878.01C5602.37 1876.77 5601.13 1876.15 5599.53 1876.15C5597.94 1876.15 5596.72 1876.77 5595.85 1878.01C5594.98 1879.24 5594.55 1881.14 5594.55 1883.73ZM5625.13 1890.83C5626.32 1890.83 5627.3 1890.5 5628.04 1889.85C5628.79 1889.19 5629.18 1888.31 5629.21 1887.22H5635.28C5635.27 1888.87 5634.82 1890.38 5633.94 1891.75C5633.06 1893.11 5631.85 1894.17 5630.31 1894.94C5628.78 1895.68 5627.09 1896.06 5625.24 1896.06C5621.77 1896.06 5619.04 1894.96 5617.04 1892.76C5615.03 1890.55 5614.03 1887.5 5614.03 1883.61V1883.19C5614.03 1879.45 5615.03 1876.47 5617.01 1874.24C5619 1872.02 5621.73 1870.9 5625.2 1870.9C5628.23 1870.9 5630.66 1871.77 5632.48 1873.5C5634.32 1875.22 5635.25 1877.52 5635.28 1880.39H5629.21C5629.18 1879.13 5628.79 1878.11 5628.04 1877.34C5627.3 1876.55 5626.31 1876.15 5625.08 1876.15C5623.57 1876.15 5622.43 1876.7 5621.65 1877.81C5620.89 1878.9 5620.51 1880.68 5620.51 1883.14V1883.82C5620.51 1886.31 5620.89 1888.11 5621.65 1889.2C5622.42 1890.29 5623.57 1890.83 5625.13 1890.83ZM5647.79 1885.88L5645.46 1888.21V1895.61H5638.98V1861.17H5645.46V1880.25L5646.72 1878.64L5652.93 1871.35H5660.71L5651.94 1881.46L5661.47 1895.61H5654.03L5647.79 1885.88ZM5675.37 1895.61V1862.97H5685.41C5688.28 1862.97 5690.85 1863.62 5693.1 1864.92C5695.37 1866.2 5697.14 1868.04 5698.42 1870.43C5699.69 1872.81 5700.32 1875.51 5700.32 1878.55V1880.05C5700.32 1883.08 5699.69 1885.78 5698.44 1888.14C5697.2 1890.5 5695.44 1892.34 5693.17 1893.64C5690.9 1894.94 5688.33 1895.59 5685.48 1895.61H5675.37ZM5682.09 1868.41V1890.21H5685.35C5687.98 1890.21 5689.99 1889.35 5691.38 1887.63C5692.77 1885.91 5693.48 1883.45 5693.51 1880.25V1878.53C5693.51 1875.21 5692.82 1872.7 5691.44 1870.99C5690.07 1869.27 5688.06 1868.41 5685.41 1868.41H5682.09ZM5718.86 1895.61C5718.56 1895.03 5718.35 1894.3 5718.21 1893.43C5716.64 1895.18 5714.6 1896.06 5712.09 1896.06C5709.71 1896.06 5707.74 1895.37 5706.17 1893.99C5704.62 1892.62 5703.84 1890.89 5703.84 1888.79C5703.84 1886.22 5704.79 1884.25 5706.69 1882.87C5708.6 1881.5 5711.36 1880.8 5714.96 1880.79H5717.94V1879.4C5717.94 1878.28 5717.65 1877.38 5717.07 1876.71C5716.5 1876.04 5715.6 1875.7 5714.35 1875.7C5713.26 1875.7 5712.4 1875.96 5711.78 1876.49C5711.16 1877.01 5710.86 1877.73 5710.86 1878.64H5704.38C5704.38 1877.23 5704.81 1875.93 5705.68 1874.74C5706.55 1873.54 5707.77 1872.61 5709.36 1871.93C5710.94 1871.25 5712.72 1870.9 5714.69 1870.9C5717.68 1870.9 5720.05 1871.66 5721.8 1873.17C5723.56 1874.66 5724.44 1876.77 5724.44 1879.49V1890C5724.46 1892.31 5724.78 1894.05 5725.41 1895.23V1895.61H5718.86ZM5713.5 1891.1C5714.46 1891.1 5715.34 1890.89 5716.15 1890.47C5716.96 1890.04 5717.55 1889.47 5717.94 1888.75V1884.58H5715.52C5712.28 1884.58 5710.55 1885.7 5710.34 1887.94L5710.32 1888.32C5710.32 1889.13 5710.6 1889.79 5711.17 1890.32C5711.74 1890.84 5712.52 1891.1 5713.5 1891.1ZM5737.18 1865.39V1871.35H5741.32V1876.1H5737.18V1888.21C5737.18 1889.11 5737.35 1889.75 5737.69 1890.14C5738.04 1890.53 5738.69 1890.72 5739.67 1890.72C5740.38 1890.72 5741.02 1890.67 5741.57 1890.56V1895.47C5740.3 1895.86 5738.99 1896.06 5737.65 1896.06C5733.1 1896.06 5730.79 1893.76 5730.7 1889.17V1876.1H5727.16V1871.35H5730.7V1865.39H5737.18ZM5758.99 1895.61C5758.69 1895.03 5758.47 1894.3 5758.34 1893.43C5756.77 1895.18 5754.73 1896.06 5752.22 1896.06C5749.84 1896.06 5747.87 1895.37 5746.3 1893.99C5744.75 1892.62 5743.97 1890.89 5743.97 1888.79C5743.97 1886.22 5744.92 1884.25 5746.82 1882.87C5748.73 1881.5 5751.49 1880.8 5755.09 1880.79H5758.07V1879.4C5758.07 1878.28 5757.78 1877.38 5757.2 1876.71C5756.63 1876.04 5755.72 1875.7 5754.48 1875.7C5753.39 1875.7 5752.53 1875.96 5751.91 1876.49C5751.29 1877.01 5750.99 1877.73 5750.99 1878.64H5744.51C5744.51 1877.23 5744.94 1875.93 5745.81 1874.74C5746.67 1873.54 5747.9 1872.61 5749.48 1871.93C5751.07 1871.25 5752.85 1870.9 5754.82 1870.9C5757.81 1870.9 5760.18 1871.66 5761.93 1873.17C5763.69 1874.66 5764.57 1876.77 5764.57 1879.49V1890C5764.59 1892.31 5764.91 1894.05 5765.54 1895.23V1895.61H5758.99ZM5753.63 1891.1C5754.59 1891.1 5755.47 1890.89 5756.28 1890.47C5757.08 1890.04 5757.68 1889.47 5758.07 1888.75V1884.58H5755.65C5752.41 1884.58 5750.68 1885.7 5750.47 1887.94L5750.45 1888.32C5750.45 1889.13 5750.73 1889.79 5751.3 1890.32C5751.87 1890.84 5752.65 1891.1 5753.63 1891.1Z" fill="white"/>
<rect x="329" y="925" width="1339.69" height="1166.63" fill="#3350E8" fill-opacity="0.1"/>
<path d="M941.153 1033.76H934.441L908.953 994.741V1033.76H902.242V983.126H908.953L934.511 1022.32V983.126H941.153V1033.76ZM967.615 1034.45C962.515 1034.45 958.365 1032.78 955.166 1029.44C951.967 1026.08 950.367 1021.6 950.367 1015.99V1014.8C950.367 1011.07 951.075 1007.75 952.489 1004.82C953.926 1001.88 955.92 999.586 958.47 997.94C961.043 996.271 963.825 995.436 966.815 995.436C971.707 995.436 975.508 997.047 978.221 1000.27C980.933 1003.49 982.289 1008.1 982.289 1014.11V1016.79H956.8C956.893 1020.5 957.971 1023.5 960.034 1025.79C962.121 1028.06 964.763 1029.2 967.963 1029.2C970.234 1029.2 972.159 1028.74 973.735 1027.81C975.311 1026.88 976.691 1025.65 977.873 1024.12L981.802 1027.18C978.65 1032.03 973.92 1034.45 967.615 1034.45ZM966.815 1000.72C964.219 1000.72 962.04 1001.67 960.278 1003.57C958.516 1005.45 957.426 1008.09 957.009 1011.5H975.856V1011.01C975.671 1007.75 974.79 1005.22 973.213 1003.43C971.637 1001.63 969.504 1000.72 966.815 1000.72ZM998.493 987.021V996.131H1005.52V1001.1H998.493V1024.44C998.493 1025.94 998.806 1027.08 999.432 1027.84C1000.06 1028.59 1001.12 1028.96 1002.63 1028.96C1003.37 1028.96 1004.39 1028.82 1005.69 1028.54V1033.76C1004 1034.22 1002.35 1034.45 1000.75 1034.45C997.879 1034.45 995.711 1033.58 994.251 1031.84C992.791 1030.1 992.06 1027.64 992.06 1024.44V1001.1H985.21V996.131H992.06V987.021H998.493ZM1020.05 1033.76H1013.62V980.345H1020.05V1033.76ZM1037.37 1033.76H1030.94V996.131H1037.37V1033.76ZM1030.41 986.152C1030.41 985.108 1030.73 984.228 1031.35 983.509C1032 982.79 1032.95 982.431 1034.21 982.431C1035.46 982.431 1036.41 982.79 1037.06 983.509C1037.71 984.228 1038.03 985.108 1038.03 986.152C1038.03 987.195 1037.71 988.064 1037.06 988.76C1036.41 989.455 1035.46 989.803 1034.21 989.803C1032.95 989.803 1032 989.455 1031.35 988.76C1030.73 988.064 1030.41 987.195 1030.41 986.152ZM1050.86 1033.76V1001.1H1044.92V996.131H1050.86V992.272C1050.86 988.238 1051.94 985.12 1054.1 982.918C1056.25 980.715 1059.3 979.614 1063.24 979.614C1064.72 979.614 1066.2 979.811 1067.66 980.205L1067.31 985.421C1066.22 985.213 1065.06 985.108 1063.83 985.108C1061.75 985.108 1060.13 985.723 1059 986.951C1057.86 988.157 1057.29 989.896 1057.29 992.167V996.131H1065.33V1001.1H1057.29V1033.76H1050.86ZM1084.77 1024.33L1093.53 996.131H1100.41L1085.29 1039.56C1082.95 1045.82 1079.22 1048.95 1074.12 1048.95L1072.91 1048.85L1070.51 1048.4V1043.18L1072.25 1043.32C1074.43 1043.32 1076.12 1042.88 1077.32 1042C1078.55 1041.12 1079.56 1039.5 1080.35 1037.16L1081.77 1033.34L1068.35 996.131H1075.38L1084.77 1024.33Z" fill="black"/>
<rect x="4775" y="925" width="1339.69" height="1166.63" fill="#33B6E8" fill-opacity="0.1"/>
<path d="M5375.64 1033.76H5368.93V1010.35H5343.41V1033.76H5336.73V983.126H5343.41V1004.89H5368.93V983.126H5375.64V1033.76ZM5402.11 1034.45C5397 1034.45 5392.86 1032.78 5389.66 1029.44C5386.46 1026.08 5384.86 1021.6 5384.86 1015.99V1014.8C5384.86 1011.07 5385.56 1007.75 5386.98 1004.82C5388.42 1001.88 5390.41 999.586 5392.96 997.94C5395.53 996.271 5398.31 995.436 5401.31 995.436C5406.2 995.436 5410 997.047 5412.71 1000.27C5415.42 1003.49 5416.78 1008.1 5416.78 1014.11V1016.79H5391.29C5391.38 1020.5 5392.46 1023.5 5394.52 1025.79C5396.61 1028.06 5399.25 1029.2 5402.45 1029.2C5404.72 1029.2 5406.65 1028.74 5408.23 1027.81C5409.8 1026.88 5411.18 1025.65 5412.36 1024.12L5416.29 1027.18C5413.14 1032.03 5408.41 1034.45 5402.11 1034.45ZM5401.31 1000.72C5398.71 1000.72 5396.53 1001.67 5394.77 1003.57C5393.01 1005.45 5391.92 1008.09 5391.5 1011.5H5410.35V1011.01C5410.16 1007.75 5409.28 1005.22 5407.7 1003.43C5406.13 1001.63 5403.99 1000.72 5401.31 1000.72ZM5442.44 1001.9C5441.47 1001.74 5440.41 1001.66 5439.28 1001.66C5435.06 1001.66 5432.2 1003.46 5430.69 1007.05V1033.76H5424.26V996.131H5430.51L5430.62 1000.48C5432.73 997.117 5435.72 995.436 5439.59 995.436C5440.84 995.436 5441.79 995.598 5442.44 995.923V1001.9ZM5445.99 1014.6C5445.99 1010.91 5446.71 1007.59 5448.14 1004.65C5449.6 1001.71 5451.62 999.435 5454.19 997.835C5456.79 996.236 5459.75 995.436 5463.06 995.436C5468.19 995.436 5472.32 997.209 5475.48 1000.76C5478.65 1004.3 5480.24 1009.02 5480.24 1014.91V1015.36C5480.24 1019.02 5479.53 1022.32 5478.12 1025.24C5476.73 1028.13 5474.72 1030.39 5472.1 1032.02C5469.51 1033.64 5466.52 1034.45 5463.13 1034.45C5458.03 1034.45 5453.89 1032.68 5450.72 1029.13C5447.56 1025.58 5445.99 1020.89 5445.99 1015.05V1014.6ZM5452.46 1015.36C5452.46 1019.53 5453.42 1022.88 5455.34 1025.41C5457.29 1027.94 5459.89 1029.2 5463.13 1029.2C5466.4 1029.2 5469 1027.93 5470.92 1025.38C5472.84 1022.8 5473.81 1019.21 5473.81 1014.6C5473.81 1010.47 5472.82 1007.13 5470.85 1004.58C5468.9 1002.01 5466.31 1000.72 5463.06 1000.72C5459.89 1000.72 5457.32 1001.98 5455.38 1004.51C5453.43 1007.04 5452.46 1010.65 5452.46 1015.36ZM5498.81 1016.33L5494.78 1020.54V1033.76H5488.34V980.345H5494.78V1012.65L5498.22 1008.51L5509.94 996.131H5517.76L5503.12 1011.85L5519.46 1033.76H5511.92L5498.81 1016.33ZM5547.63 1030.04C5545.13 1032.98 5541.45 1034.45 5536.61 1034.45C5532.6 1034.45 5529.54 1033.29 5527.43 1030.97C5525.34 1028.63 5524.29 1025.18 5524.26 1020.61V996.131H5530.7V1020.44C5530.7 1026.14 5533.01 1028.99 5537.65 1028.99C5542.56 1028.99 5545.83 1027.16 5547.46 1023.5V996.131H5553.89V1033.76H5547.77L5547.63 1030.04Z" fill="black"/>
</svg>
