<svg width="8713" height="3027" viewBox="0 0 8713 3027" fill="none" xmlns="http://www.w3.org/2000/svg">
<rect width="8713" height="3027" fill="#E5E5E5"/>
<g clip-path="url(#clip0_110_53)">
<rect width="8713" height="3027" fill="white"/>
<rect x="632.445" y="1498.06" width="944.789" height="426.11" fill="black" stroke="white" stroke-width="9.16365"/>
<path d="M937.003 1716.62H906.931V1748.27H897.481V1676.61H941.876V1684.38H906.931V1708.89H937.003V1716.62ZM976.231 1703.18C974.853 1702.95 973.36 1702.84 971.752 1702.84C965.78 1702.84 961.728 1705.38 959.595 1710.47V1748.27H950.489V1695.01H959.349L959.496 1701.17C962.482 1696.41 966.715 1694.03 972.195 1694.03C973.967 1694.03 975.312 1694.26 976.231 1694.72V1703.18ZM981.251 1721.15C981.251 1715.93 982.268 1711.24 984.303 1707.07C986.37 1702.91 989.225 1699.69 992.867 1697.43C996.542 1695.16 1000.73 1694.03 1005.42 1694.03C1012.67 1694.03 1018.53 1696.54 1022.99 1701.56C1027.48 1706.58 1029.73 1713.26 1029.73 1721.59V1722.23C1029.73 1727.42 1028.73 1732.08 1026.73 1736.21C1024.76 1740.31 1021.92 1743.51 1018.21 1745.81C1014.54 1748.1 1010.31 1749.25 1005.52 1749.25C998.297 1749.25 992.44 1746.74 987.945 1741.72C983.482 1736.7 981.251 1730.06 981.251 1721.79V1721.15ZM990.406 1722.23C990.406 1728.14 991.767 1732.88 994.491 1736.46C997.247 1740.03 1000.92 1741.82 1005.52 1741.82C1010.14 1741.82 1013.82 1740.02 1016.54 1736.41C1019.26 1732.76 1020.63 1727.68 1020.63 1721.15C1020.63 1715.31 1019.23 1710.58 1016.44 1706.97C1013.69 1703.33 1010.01 1701.51 1005.42 1701.51C1000.92 1701.51 997.296 1703.3 994.54 1706.88C991.784 1710.45 990.406 1715.57 990.406 1722.23ZM1049.76 1695.01L1050.06 1701.71C1054.13 1696.59 1059.44 1694.03 1066.01 1694.03C1077.26 1694.03 1082.94 1700.38 1083.04 1713.08V1748.27H1073.93V1713.03C1073.9 1709.19 1073.01 1706.35 1071.27 1704.51C1069.57 1702.68 1066.89 1701.76 1063.25 1701.76C1060.3 1701.76 1057.7 1702.54 1055.47 1704.12C1053.24 1705.69 1051.5 1707.76 1050.26 1710.32V1748.27H1041.15V1695.01H1049.76ZM1109.12 1682.12V1695.01H1119.06V1702.05H1109.12V1735.08C1109.12 1737.21 1109.56 1738.82 1110.45 1739.9C1111.34 1740.95 1112.85 1741.48 1114.98 1741.48C1116.03 1741.48 1117.47 1741.28 1119.31 1740.89V1748.27C1116.91 1748.92 1114.58 1749.25 1112.32 1749.25C1108.25 1749.25 1105.18 1748.02 1103.12 1745.56C1101.05 1743.1 1100.02 1739.61 1100.02 1735.08V1702.05H1090.32V1695.01H1100.02V1682.12H1109.12ZM1148.69 1721.54H1124.67V1714.11H1148.69V1721.54ZM1199.54 1715.14H1168.48V1740.54H1204.56V1748.27H1159.03V1676.61H1204.06V1684.38H1168.48V1707.42H1199.54V1715.14ZM1223.51 1695.01L1223.8 1701.71C1227.87 1696.59 1233.19 1694.03 1239.75 1694.03C1251 1694.03 1256.68 1700.38 1256.78 1713.08V1748.27H1247.67V1713.03C1247.64 1709.19 1246.75 1706.35 1245.01 1704.51C1243.31 1702.68 1240.63 1701.76 1236.99 1701.76C1234.04 1701.76 1231.45 1702.54 1229.22 1704.12C1226.98 1705.69 1225.25 1707.76 1224 1710.32V1748.27H1214.89V1695.01H1223.51ZM1268.3 1721.2C1268.3 1713.03 1270.23 1706.47 1274.1 1701.51C1277.97 1696.52 1283.04 1694.03 1289.31 1694.03C1295.55 1694.03 1300.48 1696.16 1304.13 1700.43V1672.67H1313.23V1748.27H1304.86L1304.42 1742.56C1300.78 1747.02 1295.71 1749.25 1289.21 1749.25C1283.04 1749.25 1278.01 1746.73 1274.1 1741.67C1270.23 1736.62 1268.3 1730.02 1268.3 1721.89V1721.2ZM1277.4 1722.23C1277.4 1728.27 1278.65 1732.99 1281.14 1736.41C1283.64 1739.82 1287.08 1741.53 1291.48 1741.53C1297.25 1741.53 1301.47 1738.93 1304.13 1733.75V1709.29C1301.4 1704.27 1297.22 1701.76 1291.58 1701.76C1287.11 1701.76 1283.64 1703.48 1281.14 1706.92C1278.65 1710.37 1277.4 1715.47 1277.4 1722.23Z" fill="white"/>
<path d="M1517.72 1530.14L1545.21 1557.63M1517.72 1557.63L1545.21 1530.14" stroke="white" stroke-width="9.16365"/>
<rect x="659.936" y="1456.83" width="270.291" height="100.655" fill="black"/>
<path d="M742.248 1511.85H735.832V1526.16H727.778V1487.07H742.302C746.919 1487.07 750.481 1488.1 752.987 1490.15C755.492 1492.21 756.745 1495.12 756.745 1498.88C756.745 1501.55 756.163 1503.77 755 1505.56C753.855 1507.34 752.11 1508.75 749.765 1509.81L758.222 1525.78V1526.16H749.577L742.248 1511.85ZM735.832 1505.32H742.328C744.351 1505.32 745.917 1504.81 747.027 1503.79C748.136 1502.75 748.691 1501.33 748.691 1499.52C748.691 1497.68 748.163 1496.23 747.107 1495.17C746.069 1494.12 744.467 1493.59 742.302 1493.59H735.832V1505.32ZM775.752 1526.69C771.493 1526.69 768.021 1525.39 765.336 1522.77C762.669 1520.16 761.336 1516.68 761.336 1512.33V1511.58C761.336 1508.66 761.9 1506.06 763.027 1503.77C764.155 1501.46 765.748 1499.68 767.806 1498.45C769.882 1497.2 772.244 1496.57 774.893 1496.57C778.867 1496.57 781.99 1497.82 784.263 1500.33C786.554 1502.83 787.699 1506.39 787.699 1510.99V1514.15H769.202C769.452 1516.05 770.204 1517.57 771.457 1518.72C772.728 1519.86 774.33 1520.44 776.263 1520.44C779.251 1520.44 781.587 1519.35 783.27 1517.19L787.082 1521.46C785.918 1523.1 784.343 1524.39 782.357 1525.32C780.37 1526.24 778.169 1526.69 775.752 1526.69ZM774.867 1502.85C773.327 1502.85 772.074 1503.37 771.108 1504.41C770.159 1505.45 769.551 1506.93 769.282 1508.87H780.075V1508.25C780.039 1506.53 779.574 1505.21 778.679 1504.28C777.784 1503.33 776.513 1502.85 774.867 1502.85ZM808.962 1526.16C808.604 1525.46 808.344 1524.59 808.183 1523.55C806.304 1525.65 803.861 1526.69 800.854 1526.69C798.008 1526.69 795.646 1525.87 793.767 1524.22C791.905 1522.58 790.974 1520.5 790.974 1517.99C790.974 1514.92 792.111 1512.55 794.384 1510.91C796.675 1509.26 799.977 1508.43 804.29 1508.41H807.861V1506.75C807.861 1505.4 807.512 1504.33 806.814 1503.52C806.134 1502.72 805.051 1502.32 803.566 1502.32C802.259 1502.32 801.23 1502.63 800.478 1503.26C799.744 1503.88 799.377 1504.74 799.377 1505.83H791.619C791.619 1504.15 792.138 1502.59 793.176 1501.16C794.214 1499.73 795.682 1498.61 797.579 1497.81C799.476 1496.98 801.606 1496.57 803.968 1496.57C807.548 1496.57 810.385 1497.47 812.479 1499.28C814.591 1501.07 815.647 1503.6 815.647 1506.85V1519.44C815.664 1522.2 816.049 1524.28 816.801 1525.7V1526.16H808.962ZM802.545 1520.76C803.691 1520.76 804.747 1520.51 805.713 1520.01C806.68 1519.49 807.396 1518.8 807.861 1517.94V1512.95H804.962C801.078 1512.95 799.011 1514.29 798.76 1516.97L798.733 1517.43C798.733 1518.4 799.073 1519.19 799.753 1519.82C800.433 1520.45 801.364 1520.76 802.545 1520.76ZM833.687 1520.44C835.119 1520.44 836.283 1520.04 837.178 1519.26C838.072 1518.47 838.538 1517.42 838.574 1516.11H845.849C845.831 1518.08 845.294 1519.89 844.238 1521.54C843.182 1523.17 841.733 1524.44 839.889 1525.35C838.063 1526.24 836.041 1526.69 833.822 1526.69C829.669 1526.69 826.394 1525.38 823.996 1522.75C821.598 1520.1 820.398 1516.45 820.398 1511.79V1511.28C820.398 1506.81 821.589 1503.24 823.969 1500.57C826.349 1497.9 829.616 1496.57 833.768 1496.57C837.401 1496.57 840.31 1497.61 842.493 1499.68C844.695 1501.74 845.813 1504.49 845.849 1507.93H838.574C838.538 1506.42 838.072 1505.21 837.178 1504.28C836.283 1503.33 835.101 1502.85 833.634 1502.85C831.826 1502.85 830.457 1503.51 829.526 1504.84C828.613 1506.15 828.157 1508.28 828.157 1511.23V1512.03C828.157 1515.02 828.613 1517.17 829.526 1518.48C830.439 1519.78 831.826 1520.44 833.687 1520.44ZM859.568 1489.97V1497.11H864.534V1502.8H859.568V1517.3C859.568 1518.37 859.773 1519.14 860.185 1519.6C860.597 1520.07 861.384 1520.3 862.548 1520.3C863.407 1520.3 864.167 1520.24 864.83 1520.11V1525.99C863.308 1526.46 861.742 1526.69 860.131 1526.69C854.69 1526.69 851.916 1523.94 851.809 1518.45V1502.8H847.567V1497.11H851.809V1489.97H859.568Z" fill="white"/>
<rect x="659.936" y="1456.83" width="270.291" height="100.655" stroke="white" stroke-width="9.16365"/>
<rect x="2866.15" y="1479.82" width="944.789" height="426.11" fill="black" stroke="white" stroke-width="9.16365"/>
<path d="M3172.34 1698.08C3164.23 1695.75 3158.32 1692.9 3154.62 1689.52C3150.94 1686.1 3149.1 1681.9 3149.1 1676.92C3149.1 1671.27 3151.35 1666.61 3155.85 1662.94C3160.38 1659.23 3166.25 1657.38 3173.47 1657.38C3178.39 1657.38 3182.77 1658.33 3186.61 1660.23C3190.48 1662.14 3193.47 1664.76 3195.57 1668.11C3197.7 1671.45 3198.77 1675.11 3198.77 1679.08H3189.27C3189.27 1674.75 3187.89 1671.36 3185.13 1668.89C3182.38 1666.4 3178.49 1665.15 3173.47 1665.15C3168.81 1665.15 3165.17 1666.19 3162.54 1668.25C3159.95 1670.29 3158.65 1673.13 3158.65 1676.77C3158.65 1679.69 3159.88 1682.17 3162.34 1684.2C3164.84 1686.2 3169.05 1688.04 3174.99 1689.71C3180.97 1691.39 3185.62 1693.24 3188.97 1695.28C3192.35 1697.28 3194.84 1699.62 3196.45 1702.31C3198.09 1705 3198.91 1708.17 3198.91 1711.81C3198.91 1717.62 3196.65 1722.28 3192.12 1725.79C3187.59 1729.27 3181.54 1731.01 3173.96 1731.01C3169.04 1731.01 3164.44 1730.07 3160.18 1728.2C3155.91 1726.3 3152.62 1723.71 3150.29 1720.43C3147.99 1717.15 3146.84 1713.42 3146.84 1709.25H3156.34C3156.34 1713.59 3157.93 1717.01 3161.11 1719.54C3164.33 1722.03 3168.61 1723.28 3173.96 1723.28C3178.95 1723.28 3182.77 1722.26 3185.43 1720.23C3188.09 1718.2 3189.41 1715.42 3189.41 1711.91C3189.41 1708.4 3188.18 1705.69 3185.72 1703.79C3183.26 1701.85 3178.8 1699.95 3172.34 1698.08ZM3256.8 1717.47L3267.03 1676.77H3276.14L3260.63 1730.02H3253.25L3240.31 1689.66L3227.71 1730.02H3220.32L3204.87 1676.77H3213.93L3224.41 1716.64L3236.81 1676.77H3244.15L3256.8 1717.47ZM3318.32 1730.02C3317.79 1728.97 3317.37 1727.1 3317.04 1724.41C3312.81 1728.81 3307.75 1731.01 3301.88 1731.01C3296.63 1731.01 3292.31 1729.53 3288.93 1726.58C3285.59 1723.59 3283.91 1719.82 3283.91 1715.26C3283.91 1709.71 3286.01 1705.42 3290.21 1702.36C3294.45 1699.28 3300.39 1697.74 3308.03 1697.74H3316.89V1693.55C3316.89 1690.37 3315.94 1687.84 3314.04 1685.97C3312.13 1684.07 3309.33 1683.12 3305.62 1683.12C3302.37 1683.12 3299.65 1683.94 3297.45 1685.58C3295.25 1687.22 3294.15 1689.21 3294.15 1691.54H3285C3285 1688.88 3285.93 1686.32 3287.8 1683.86C3289.71 1681.36 3292.27 1679.39 3295.48 1677.95C3298.73 1676.51 3302.29 1675.79 3306.16 1675.79C3312.3 1675.79 3317.1 1677.33 3320.58 1680.41C3324.06 1683.46 3325.87 1687.68 3326 1693.06V1717.57C3326 1722.46 3326.62 1726.35 3327.87 1729.24V1730.02H3318.32ZM3303.21 1723.08C3306.06 1723.08 3308.77 1722.35 3311.33 1720.87C3313.89 1719.39 3315.74 1717.47 3316.89 1715.11V1704.18H3309.75C3298.6 1704.18 3293.02 1707.45 3293.02 1713.98C3293.02 1716.83 3293.97 1719.07 3295.87 1720.67C3297.78 1722.28 3300.22 1723.08 3303.21 1723.08ZM3338.1 1702.95C3338.1 1694.65 3340.02 1688.06 3343.86 1683.17C3347.7 1678.25 3352.79 1675.79 3359.12 1675.79C3365.62 1675.79 3370.69 1678.08 3374.33 1682.68L3374.77 1676.77H3383.09V1728.74C3383.09 1735.64 3381.04 1741.07 3376.94 1745.04C3372.87 1749.01 3367.39 1750.99 3360.5 1750.99C3356.66 1750.99 3352.9 1750.17 3349.23 1748.53C3345.55 1746.89 3342.75 1744.64 3340.81 1741.79L3345.54 1736.32C3349.44 1741.15 3354.22 1743.56 3359.86 1743.56C3364.29 1743.56 3367.73 1742.31 3370.2 1739.82C3372.69 1737.33 3373.94 1733.81 3373.94 1729.29V1724.71C3370.29 1728.91 3365.32 1731.01 3359.02 1731.01C3352.79 1731.01 3347.74 1728.5 3343.86 1723.48C3340.02 1718.46 3338.1 1711.62 3338.1 1702.95ZM3347.26 1703.99C3347.26 1709.99 3348.49 1714.72 3350.95 1718.16C3353.41 1721.58 3356.86 1723.28 3361.29 1723.28C3367.03 1723.28 3371.25 1720.67 3373.94 1715.46V1691.14C3371.15 1686.06 3366.96 1683.51 3361.39 1683.51C3356.96 1683.51 3353.49 1685.24 3351 1688.68C3348.51 1692.13 3347.26 1697.23 3347.26 1703.99ZM3394.71 1702.95C3394.71 1694.65 3396.63 1688.06 3400.46 1683.17C3404.3 1678.25 3409.39 1675.79 3415.72 1675.79C3422.22 1675.79 3427.29 1678.08 3430.93 1682.68L3431.37 1676.77H3439.69V1728.74C3439.69 1735.64 3437.64 1741.07 3433.54 1745.04C3429.47 1749.01 3423.99 1750.99 3417.1 1750.99C3413.26 1750.99 3409.5 1750.17 3405.83 1748.53C3402.15 1746.89 3399.35 1744.64 3397.41 1741.79L3402.14 1736.32C3406.04 1741.15 3410.82 1743.56 3416.46 1743.56C3420.89 1743.56 3424.34 1742.31 3426.8 1739.82C3429.29 1737.33 3430.54 1733.81 3430.54 1729.29V1724.71C3426.9 1728.91 3421.92 1731.01 3415.62 1731.01C3409.39 1731.01 3404.34 1728.5 3400.46 1723.48C3396.63 1718.46 3394.71 1711.62 3394.71 1702.95ZM3403.86 1703.99C3403.86 1709.99 3405.09 1714.72 3407.55 1718.16C3410.01 1721.58 3413.46 1723.28 3417.89 1723.28C3423.63 1723.28 3427.85 1720.67 3430.54 1715.46V1691.14C3427.75 1686.06 3423.56 1683.51 3417.99 1683.51C3413.56 1683.51 3410.1 1685.24 3407.6 1688.68C3405.11 1692.13 3403.86 1697.23 3403.86 1703.99ZM3475.57 1731.01C3468.35 1731.01 3462.48 1728.65 3457.95 1723.92C3453.42 1719.16 3451.16 1712.81 3451.16 1704.87V1703.2C3451.16 1697.92 3452.16 1693.21 3454.16 1689.07C3456.2 1684.91 3459.02 1681.66 3462.63 1679.33C3466.27 1676.97 3470.21 1675.79 3474.44 1675.79C3481.36 1675.79 3486.75 1678.07 3490.58 1682.63C3494.42 1687.19 3496.34 1693.72 3496.34 1702.22V1706.01H3460.27C3460.4 1711.26 3461.92 1715.5 3464.84 1718.75C3467.8 1721.97 3471.54 1723.58 3476.06 1723.58C3479.28 1723.58 3482 1722.92 3484.24 1721.61C3486.47 1720.3 3488.42 1718.56 3490.09 1716.39L3495.65 1720.72C3491.19 1727.58 3484.5 1731.01 3475.57 1731.01ZM3474.44 1683.27C3470.77 1683.27 3467.68 1684.61 3465.19 1687.3C3462.69 1689.96 3461.15 1693.7 3460.56 1698.52H3487.24V1697.84C3486.98 1693.21 3485.73 1689.63 3483.5 1687.11C3481.27 1684.55 3478.25 1683.27 3474.44 1683.27ZM3532.67 1684.94C3531.29 1684.71 3529.8 1684.6 3528.19 1684.6C3522.22 1684.6 3518.16 1687.14 3516.03 1692.22V1730.02H3506.93V1676.77H3515.78L3515.93 1682.92C3518.92 1678.16 3523.15 1675.79 3528.63 1675.79C3530.4 1675.79 3531.75 1676.01 3532.67 1676.47V1684.94Z" fill="white"/>
<path d="M3751.43 1511.89L3778.92 1539.38M3751.43 1539.38L3778.92 1511.89" stroke="white" stroke-width="9.16365"/>
<rect x="2893.64" y="1438.58" width="361.291" height="100.655" fill="black"/>
<path d="M2993.78 1489.25C2993.78 1493.1 2993.1 1496.47 2991.74 1499.37C2990.38 1502.27 2988.43 1504.51 2985.88 1506.09C2983.36 1507.66 2980.46 1508.45 2977.19 1508.45C2973.95 1508.45 2971.06 1507.67 2968.51 1506.11C2965.97 1504.56 2964 1502.34 2962.61 1499.45C2961.21 1496.56 2960.51 1493.23 2960.49 1489.47V1487.53C2960.49 1483.69 2961.18 1480.3 2962.55 1477.39C2963.95 1474.45 2965.91 1472.21 2968.43 1470.65C2970.98 1469.07 2973.87 1468.29 2977.13 1468.29C2980.39 1468.29 2983.28 1469.07 2985.8 1470.65C2988.35 1472.21 2990.3 1474.45 2991.68 1477.39C2993.08 1480.3 2993.78 1483.68 2993.78 1487.51V1489.25ZM2985.62 1487.48C2985.62 1483.38 2984.88 1480.27 2983.41 1478.14C2981.95 1476.01 2979.85 1474.94 2977.13 1474.94C2974.43 1474.94 2972.34 1476 2970.88 1478.11C2969.41 1480.21 2968.67 1483.28 2968.65 1487.35V1489.25C2968.65 1493.24 2969.38 1496.34 2970.85 1498.54C2972.32 1500.74 2974.43 1501.84 2977.19 1501.84C2979.89 1501.84 2981.96 1500.79 2983.41 1498.68C2984.86 1496.55 2985.6 1493.45 2985.62 1489.39V1487.48ZM3007.68 1494.14V1507.91H2999.63V1468.82H3014.88C3017.81 1468.82 3020.39 1469.36 3022.61 1470.43C3024.85 1471.51 3026.57 1473.04 3027.76 1475.02C3028.96 1476.99 3029.56 1479.24 3029.56 1481.76C3029.56 1485.59 3028.25 1488.62 3025.62 1490.84C3023 1493.04 3019.38 1494.14 3014.74 1494.14H3007.68ZM3007.68 1487.62H3014.88C3017.01 1487.62 3018.63 1487.11 3019.74 1486.11C3020.87 1485.11 3021.43 1483.68 3021.43 1481.82C3021.43 1479.9 3020.87 1478.35 3019.74 1477.17C3018.61 1475.99 3017.05 1475.38 3015.07 1475.35H3007.68V1487.62ZM3058.64 1490.97H3043.17V1501.44H3061.32V1507.91H3035.12V1468.82H3061.27V1475.35H3043.17V1484.66H3058.64V1490.97ZM3097.83 1507.91H3089.78L3074.1 1482.19V1507.91H3066.05V1468.82H3074.1L3089.81 1494.6V1468.82H3097.83V1507.91ZM3127.42 1499.86H3113.3L3110.61 1507.91H3102.05L3116.6 1468.82H3124.06L3138.7 1507.91H3130.13L3127.42 1499.86ZM3115.47 1493.33H3125.24L3120.33 1478.7L3115.47 1493.33ZM3150.4 1494.14V1507.91H3142.35V1468.82H3157.6C3160.53 1468.82 3163.11 1469.36 3165.33 1470.43C3167.56 1471.51 3169.28 1473.04 3170.48 1475.02C3171.68 1476.99 3172.28 1479.24 3172.28 1481.76C3172.28 1485.59 3170.96 1488.62 3168.33 1490.84C3165.72 1493.04 3162.1 1494.14 3157.46 1494.14H3150.4ZM3150.4 1487.62H3157.6C3159.72 1487.62 3161.34 1487.11 3162.45 1486.11C3163.58 1485.11 3164.15 1483.68 3164.15 1481.82C3164.15 1479.9 3163.58 1478.35 3162.45 1477.17C3161.33 1475.99 3159.77 1475.38 3157.78 1475.35H3150.4V1487.62ZM3186.4 1507.91H3178.35V1468.82H3186.4V1507.91Z" fill="white"/>
<rect x="2893.64" y="1438.58" width="361.291" height="100.655" stroke="white" stroke-width="9.16365"/>
<rect x="5115.5" y="1461.57" width="944.789" height="426.11" fill="black" stroke="white" stroke-width="9.16365"/>
<path d="M5475.28 1679.84C5467.18 1677.51 5461.27 1674.65 5457.56 1671.27C5453.89 1667.86 5452.05 1663.66 5452.05 1658.67C5452.05 1653.03 5454.3 1648.37 5458.79 1644.69C5463.32 1640.99 5469.19 1639.13 5476.41 1639.13C5481.34 1639.13 5485.72 1640.08 5489.56 1641.99C5493.43 1643.89 5496.41 1646.51 5498.51 1649.86C5500.65 1653.21 5501.71 1656.87 5501.71 1660.84H5492.21C5492.21 1656.51 5490.83 1653.11 5488.08 1650.65C5485.32 1648.15 5481.43 1646.91 5476.41 1646.91C5471.75 1646.91 5468.11 1647.94 5465.49 1650.01C5462.89 1652.04 5461.6 1654.88 5461.6 1658.52C5461.6 1661.44 5462.83 1663.92 5465.29 1665.96C5467.78 1667.96 5472 1669.79 5477.94 1671.47C5483.91 1673.14 5488.57 1675 5491.92 1677.03C5495.3 1679.03 5497.79 1681.38 5499.4 1684.07C5501.04 1686.76 5501.86 1689.93 5501.86 1693.57C5501.86 1699.38 5499.6 1704.03 5495.07 1707.55C5490.54 1711.02 5484.49 1712.76 5476.91 1712.76C5471.98 1712.76 5467.39 1711.83 5463.12 1709.96C5458.86 1708.05 5455.56 1705.46 5453.23 1702.18C5450.93 1698.9 5449.79 1695.18 5449.79 1691.01H5459.29C5459.29 1695.34 5460.88 1698.77 5464.06 1701.29C5467.28 1703.79 5471.56 1705.04 5476.91 1705.04C5481.89 1705.04 5485.72 1704.02 5488.37 1701.98C5491.03 1699.95 5492.36 1697.18 5492.36 1693.67C5492.36 1690.15 5491.13 1687.45 5488.67 1685.54C5486.21 1683.61 5481.75 1681.71 5475.28 1679.84ZM5534.69 1712.76C5527.47 1712.76 5521.6 1710.4 5517.07 1705.68C5512.54 1700.92 5510.28 1694.57 5510.28 1686.63V1684.95C5510.28 1679.67 5511.28 1674.96 5513.28 1670.83C5515.31 1666.66 5518.13 1663.41 5521.74 1661.08C5525.39 1658.72 5529.32 1657.54 5533.56 1657.54C5540.48 1657.54 5545.86 1659.82 5549.7 1664.38C5553.54 1668.94 5555.46 1675.47 5555.46 1683.97V1687.76H5519.38C5519.51 1693.01 5521.04 1697.26 5523.96 1700.51C5526.91 1703.72 5530.65 1705.33 5535.18 1705.33C5538.4 1705.33 5541.12 1704.67 5543.35 1703.36C5545.58 1702.05 5547.53 1700.31 5549.21 1698.14L5554.77 1702.48C5550.31 1709.33 5543.61 1712.76 5534.69 1712.76ZM5533.56 1665.02C5529.88 1665.02 5526.8 1666.37 5524.3 1669.06C5521.81 1671.71 5520.27 1675.45 5519.68 1680.28H5546.35V1679.59C5546.09 1674.96 5544.84 1671.39 5542.61 1668.86C5540.38 1666.3 5537.36 1665.02 5533.56 1665.02ZM5591.78 1666.69C5590.4 1666.46 5588.91 1666.35 5587.3 1666.35C5581.33 1666.35 5577.28 1668.89 5575.15 1673.98V1711.78H5566.04V1658.52H5574.9L5575.05 1664.68C5578.03 1659.92 5582.27 1657.54 5587.75 1657.54C5589.52 1657.54 5590.86 1657.77 5591.78 1658.23V1666.69ZM5618.66 1699.42L5631.85 1658.52H5641.15L5622.05 1711.78H5615.11L5595.82 1658.52H5605.12L5618.66 1699.42ZM5671.32 1712.76C5664.1 1712.76 5658.23 1710.4 5653.7 1705.68C5649.17 1700.92 5646.91 1694.57 5646.91 1686.63V1684.95C5646.91 1679.67 5647.91 1674.96 5649.91 1670.83C5651.94 1666.66 5654.77 1663.41 5658.38 1661.08C5662.02 1658.72 5665.96 1657.54 5670.19 1657.54C5677.11 1657.54 5682.49 1659.82 5686.33 1664.38C5690.17 1668.94 5692.09 1675.47 5692.09 1683.97V1687.76H5656.01C5656.14 1693.01 5657.67 1697.26 5660.59 1700.51C5663.54 1703.72 5667.28 1705.33 5671.81 1705.33C5675.03 1705.33 5677.75 1704.67 5679.98 1703.36C5682.21 1702.05 5684.17 1700.31 5685.84 1698.14L5691.4 1702.48C5686.94 1709.33 5680.25 1712.76 5671.32 1712.76ZM5670.19 1665.02C5666.51 1665.02 5663.43 1666.37 5660.93 1669.06C5658.44 1671.71 5656.9 1675.45 5656.31 1680.28H5682.98V1679.59C5682.72 1674.96 5681.48 1671.39 5679.24 1668.86C5677.01 1666.3 5673.99 1665.02 5670.19 1665.02ZM5728.41 1666.69C5727.04 1666.46 5725.54 1666.35 5723.93 1666.35C5717.96 1666.35 5713.91 1668.89 5711.78 1673.98V1711.78H5702.67V1658.52H5711.53L5711.68 1664.68C5714.67 1659.92 5718.9 1657.54 5724.38 1657.54C5726.15 1657.54 5727.5 1657.77 5728.41 1658.23V1666.69Z" fill="white"/>
<path d="M6000.77 1493.65L6028.26 1521.14M6000.77 1521.14L6028.26 1493.65" stroke="white" stroke-width="9.16365"/>
<rect x="5142.99" y="1420.34" width="324.291" height="100.655" fill="black"/>
<path d="M5234.26 1472.72H5218.8V1483.2H5236.95V1489.67H5210.74V1450.58H5236.89V1457.1H5218.8V1466.42H5234.26V1472.72ZM5252.22 1469.29L5257.11 1460.62H5265.4L5257.13 1474.85L5265.75 1489.67H5257.43L5252.25 1480.54L5247.09 1489.67H5238.75L5247.36 1474.85L5239.12 1460.62H5247.44L5252.22 1469.29ZM5295.28 1475.41C5295.28 1479.88 5294.26 1483.47 5292.22 1486.17C5290.2 1488.86 5287.46 1490.2 5284.01 1490.2C5281.07 1490.2 5278.7 1489.18 5276.89 1487.14V1500.83H5269.14V1460.62H5276.33L5276.6 1463.46C5278.48 1461.21 5280.93 1460.08 5283.95 1460.08C5287.53 1460.08 5290.32 1461.4 5292.3 1464.05C5294.29 1466.7 5295.28 1470.35 5295.28 1475.01V1475.41ZM5287.53 1474.85C5287.53 1472.14 5287.04 1470.06 5286.08 1468.59C5285.13 1467.12 5283.74 1466.39 5281.91 1466.39C5279.48 1466.39 5277.81 1467.32 5276.89 1469.18V1481.07C5277.84 1482.99 5279.53 1483.95 5281.97 1483.95C5285.67 1483.95 5287.53 1480.91 5287.53 1474.85ZM5316.44 1467.89C5315.38 1467.75 5314.45 1467.68 5313.65 1467.68C5310.71 1467.68 5308.79 1468.67 5307.88 1470.66V1489.67H5300.12V1460.62H5307.45L5307.66 1464.08C5309.22 1461.41 5311.37 1460.08 5314.13 1460.08C5314.99 1460.08 5315.79 1460.2 5316.55 1460.43L5316.44 1467.89ZM5333.03 1490.2C5328.77 1490.2 5325.3 1488.9 5322.61 1486.28C5319.95 1483.67 5318.61 1480.19 5318.61 1475.84V1475.09C5318.61 1472.17 5319.18 1469.57 5320.31 1467.27C5321.43 1464.97 5323.03 1463.19 5325.08 1461.96C5327.16 1460.71 5329.52 1460.08 5332.17 1460.08C5336.14 1460.08 5339.27 1461.33 5341.54 1463.84C5343.83 1466.34 5344.98 1469.9 5344.98 1474.5V1477.66H5326.48C5326.73 1479.56 5327.48 1481.08 5328.73 1482.23C5330.01 1483.37 5331.61 1483.95 5333.54 1483.95C5336.53 1483.95 5338.87 1482.86 5340.55 1480.7L5344.36 1484.97C5343.2 1486.61 5341.62 1487.9 5339.63 1488.83C5337.65 1489.75 5335.45 1490.2 5333.03 1490.2ZM5332.14 1466.36C5330.61 1466.36 5329.35 1466.88 5328.39 1467.92C5327.44 1468.96 5326.83 1470.44 5326.56 1472.38H5337.35V1471.76C5337.32 1470.04 5336.85 1468.72 5335.96 1467.79C5335.06 1466.84 5333.79 1466.36 5332.14 1466.36ZM5365.14 1481.64C5365.14 1480.69 5364.66 1479.95 5363.72 1479.41C5362.79 1478.85 5361.28 1478.36 5359.21 1477.93C5352.3 1476.48 5348.84 1473.55 5348.84 1469.13C5348.84 1466.55 5349.91 1464.4 5352.04 1462.68C5354.19 1460.95 5356.99 1460.08 5360.44 1460.08C5364.13 1460.08 5367.07 1460.95 5369.27 1462.68C5371.49 1464.42 5372.6 1466.68 5372.6 1469.45H5364.84C5364.84 1468.34 5364.49 1467.43 5363.77 1466.71C5363.05 1465.98 5361.94 1465.61 5360.41 1465.61C5359.11 1465.61 5358.1 1465.91 5357.38 1466.5C5356.66 1467.09 5356.31 1467.84 5356.31 1468.75C5356.31 1469.61 5356.71 1470.31 5357.51 1470.85C5358.34 1471.36 5359.72 1471.82 5361.65 1472.21C5363.58 1472.59 5365.21 1473.02 5366.53 1473.5C5370.63 1475.01 5372.68 1477.61 5372.68 1481.32C5372.68 1483.96 5371.55 1486.11 5369.27 1487.76C5367 1489.39 5364.07 1490.2 5360.47 1490.2C5358.03 1490.2 5355.87 1489.77 5353.97 1488.91C5352.09 1488.04 5350.61 1486.85 5349.54 1485.34C5348.47 1483.82 5347.93 1482.18 5347.93 1480.43H5355.29C5355.36 1481.81 5355.87 1482.86 5356.82 1483.6C5357.77 1484.33 5359.04 1484.7 5360.63 1484.7C5362.11 1484.7 5363.23 1484.42 5363.98 1483.87C5364.75 1483.29 5365.14 1482.55 5365.14 1481.64ZM5393.44 1481.64C5393.44 1480.69 5392.96 1479.95 5392.01 1479.41C5391.08 1478.85 5389.58 1478.36 5387.5 1477.93C5380.59 1476.48 5377.14 1473.55 5377.14 1469.13C5377.14 1466.55 5378.2 1464.4 5380.33 1462.68C5382.48 1460.95 5385.28 1460.08 5388.74 1460.08C5392.42 1460.08 5395.37 1460.95 5397.57 1462.68C5399.79 1464.42 5400.9 1466.68 5400.9 1469.45H5393.14C5393.14 1468.34 5392.78 1467.43 5392.07 1466.71C5391.35 1465.98 5390.23 1465.61 5388.71 1465.61C5387.4 1465.61 5386.39 1465.91 5385.68 1466.5C5384.96 1467.09 5384.6 1467.84 5384.6 1468.75C5384.6 1469.61 5385.01 1470.31 5385.81 1470.85C5386.63 1471.36 5388.01 1471.82 5389.95 1472.21C5391.88 1472.59 5393.51 1473.02 5394.83 1473.5C5398.93 1475.01 5400.98 1477.61 5400.98 1481.32C5400.98 1483.96 5399.84 1486.11 5397.57 1487.76C5395.3 1489.39 5392.36 1490.2 5388.76 1490.2C5386.33 1490.2 5384.16 1489.77 5382.27 1488.91C5380.39 1488.04 5378.91 1486.85 5377.84 1485.34C5376.76 1483.82 5376.23 1482.18 5376.23 1480.43H5383.58C5383.65 1481.81 5384.16 1482.86 5385.11 1483.6C5386.06 1484.33 5387.33 1484.7 5388.93 1484.7C5390.41 1484.7 5391.53 1484.42 5392.28 1483.87C5393.05 1483.29 5393.44 1482.55 5393.44 1481.64Z" fill="white"/>
<rect x="5142.99" y="1420.34" width="324.291" height="100.655" stroke="white" stroke-width="9.16365"/>
<path fill-rule="evenodd" clip-rule="evenodd" d="M1816.25 1725.71H2851.15V1720.5H1816.39C1816.39 1720.85 1816.39 1721.2 1816.39 1721.55C1816.39 1722.95 1816.35 1724.33 1816.25 1725.71ZM1694.03 1725.71C1693.94 1724.33 1693.89 1722.95 1693.89 1721.55C1693.89 1721.2 1693.89 1720.85 1693.9 1720.5H1581.82V1725.71H1694.03Z" fill="black"/>
<path d="M2790.87 1660.55L2853.42 1723.11L2790.87 1785.66" stroke="black" stroke-width="5.21285"/>
<circle cx="1755.14" cy="1721.55" r="50.8253" stroke="black" stroke-width="5.21285"/>
<path d="M1730.38 1722.85L1746.02 1738.49L1777.3 1707.21" stroke="black" stroke-width="5.21285"/>
<rect width="610.771" height="224.386" transform="translate(1701.71 1602.95)" fill="#003245"/>
<path d="M1885.22 1725.74H1870.49L1867.69 1734.14H1858.76L1873.93 1693.38H1881.72L1896.98 1734.14H1888.05L1885.22 1725.74ZM1872.76 1718.94H1882.95L1877.83 1703.68L1872.76 1718.94ZM1909.19 1719.78V1734.14H1900.79V1693.38H1916.69C1919.75 1693.38 1922.44 1693.94 1924.75 1695.06C1927.09 1696.18 1928.88 1697.77 1930.13 1699.85C1931.38 1701.9 1932 1704.24 1932 1706.87C1932 1710.87 1930.63 1714.02 1927.89 1716.34C1925.16 1718.63 1921.38 1719.78 1916.55 1719.78H1909.19ZM1909.19 1712.98H1916.69C1918.91 1712.98 1920.6 1712.45 1921.76 1711.41C1922.93 1710.36 1923.52 1708.87 1923.52 1706.93C1923.52 1704.93 1922.93 1703.32 1921.76 1702.09C1920.58 1700.85 1918.96 1700.22 1916.88 1700.18H1909.19V1712.98ZM1946.73 1734.14H1938.33V1693.38H1946.73V1734.14ZM1979.8 1693.38L1990.27 1722.95L2000.68 1693.38H2011.72V1734.14H2003.29V1723L2004.13 1703.77L1993.13 1734.14H1987.36L1976.38 1703.79L1977.22 1723V1734.14H1968.82V1693.38H1979.8ZM2052.54 1714.69C2052.54 1718.7 2051.83 1722.22 2050.41 1725.24C2048.99 1728.26 2046.96 1730.6 2044.31 1732.24C2041.68 1733.88 2038.65 1734.7 2035.24 1734.7C2031.86 1734.7 2028.84 1733.89 2026.19 1732.27C2023.54 1730.64 2021.49 1728.33 2020.03 1725.32C2018.58 1722.3 2017.84 1718.83 2017.82 1714.91V1712.89C2017.82 1708.88 2018.54 1705.35 2019.98 1702.31C2021.43 1699.25 2023.48 1696.91 2026.11 1695.28C2028.76 1693.64 2031.78 1692.82 2035.18 1692.82C2038.58 1692.82 2041.59 1693.64 2044.22 1695.28C2046.87 1696.91 2048.92 1699.25 2050.35 1702.31C2051.81 1705.35 2052.54 1708.87 2052.54 1712.87V1714.69ZM2044.03 1712.84C2044.03 1708.56 2043.26 1705.32 2041.73 1703.09C2040.2 1700.87 2038.02 1699.76 2035.18 1699.76C2032.36 1699.76 2030.19 1700.86 2028.66 1703.07C2027.13 1705.25 2026.35 1708.46 2026.33 1712.7V1714.69C2026.33 1718.85 2027.1 1722.08 2028.63 1724.37C2030.16 1726.67 2032.36 1727.82 2035.24 1727.82C2038.05 1727.82 2040.22 1726.72 2041.73 1724.51C2043.24 1722.29 2044.01 1719.06 2044.03 1714.83V1712.84ZM2058.64 1734.14V1693.38H2071.19C2074.77 1693.38 2077.97 1694.19 2080.79 1695.81C2083.63 1697.42 2085.84 1699.72 2087.43 1702.7C2089.01 1705.67 2089.8 1709.05 2089.8 1712.84V1714.71C2089.8 1718.5 2089.02 1721.87 2087.45 1724.82C2085.9 1727.77 2083.71 1730.06 2080.87 1731.68C2078.04 1733.3 2074.83 1734.13 2071.27 1734.14H2058.64ZM2067.04 1700.18V1727.4H2071.1C2074.39 1727.4 2076.9 1726.32 2078.63 1724.18C2080.37 1722.03 2081.26 1718.96 2081.29 1714.97V1712.81C2081.29 1708.67 2080.43 1705.53 2078.72 1703.4C2077 1701.26 2074.49 1700.18 2071.19 1700.18H2067.04ZM2120.46 1716.48H2104.34V1727.4H2123.26V1734.14H2095.94V1693.38H2123.21V1700.18H2104.34V1709.9H2120.46V1716.48ZM2136.59 1727.4H2154.43V1734.14H2128.19V1693.38H2136.59V1727.4Z" fill="white"/>
<path fill-rule="evenodd" clip-rule="evenodd" d="M4876.48 1710.07H3841.59V1704.86H4876.35C4876.34 1705.21 4876.34 1705.56 4876.34 1705.91C4876.34 1707.31 4876.39 1708.7 4876.48 1710.07ZM4998.7 1710.07C4998.79 1708.7 4998.84 1707.31 4998.84 1705.91C4998.84 1705.56 4998.84 1705.21 4998.83 1704.86H5110.92V1710.07H4998.7Z" fill="black"/>
<path d="M3901.87 1644.91L3839.31 1707.47L3901.87 1770.02" stroke="black" stroke-width="5.21285"/>
<circle r="50.8253" transform="matrix(-1 0 0 1 4937.59 1705.91)" stroke="black" stroke-width="5.21285"/>
<path d="M4962.35 1707.21L4946.71 1722.85L4915.44 1691.57" stroke="black" stroke-width="5.21285"/>
<rect width="610.771" height="224.386" transform="translate(4380.59 1587.31)" fill="#003245"/>
<path d="M4564.09 1710.11H4549.37L4546.57 1718.51H4537.63L4552.81 1677.74H4560.59L4575.85 1718.51H4566.92L4564.09 1710.11ZM4551.63 1703.3H4561.83L4556.7 1688.04L4551.63 1703.3ZM4588.06 1704.14V1718.51H4579.66V1677.74H4595.56C4598.62 1677.74 4601.31 1678.3 4603.63 1679.42C4605.96 1680.54 4607.75 1682.14 4609 1684.21C4610.25 1686.26 4610.88 1688.6 4610.88 1691.24C4610.88 1695.23 4609.51 1698.39 4606.76 1700.7C4604.04 1703 4600.26 1704.14 4595.42 1704.14H4588.06ZM4588.06 1697.34H4595.56C4597.79 1697.34 4599.47 1696.82 4600.63 1695.77C4601.81 1694.73 4602.4 1693.23 4602.4 1691.29C4602.4 1689.29 4601.81 1687.68 4600.63 1686.45C4599.46 1685.22 4597.83 1684.58 4595.76 1684.54H4588.06V1697.34ZM4625.61 1718.51H4617.21V1677.74H4625.61V1718.51ZM4658.67 1677.74L4669.14 1707.31L4679.56 1677.74H4690.59V1718.51H4682.16V1707.36L4683 1688.13L4672 1718.51H4666.23L4655.26 1688.16L4656.1 1707.36V1718.51H4647.7V1677.74H4658.67ZM4731.41 1699.05C4731.41 1703.06 4730.7 1706.58 4729.29 1709.6C4727.87 1712.63 4725.83 1714.96 4723.18 1716.6C4720.55 1718.25 4717.53 1719.07 4714.11 1719.07C4710.73 1719.07 4707.72 1718.25 4705.07 1716.63C4702.42 1715.01 4700.36 1712.69 4698.91 1709.69C4697.45 1706.66 4696.71 1703.19 4696.7 1699.27V1697.26C4696.7 1693.24 4697.41 1689.71 4698.85 1686.67C4700.31 1683.61 4702.35 1681.27 4704.98 1679.64C4707.63 1678 4710.66 1677.18 4714.05 1677.18C4717.45 1677.18 4720.47 1678 4723.1 1679.64C4725.75 1681.27 4727.79 1683.61 4729.23 1686.67C4730.69 1689.71 4731.41 1693.23 4731.41 1697.23V1699.05ZM4722.9 1697.2C4722.9 1692.93 4722.14 1689.68 4720.61 1687.46C4719.08 1685.24 4716.89 1684.12 4714.05 1684.12C4711.24 1684.12 4709.06 1685.23 4707.53 1687.43C4706 1689.61 4705.23 1692.82 4705.21 1697.06V1699.05C4705.21 1703.21 4705.97 1706.44 4707.5 1708.74C4709.03 1711.03 4711.24 1712.18 4714.11 1712.18C4716.93 1712.18 4719.09 1711.08 4720.61 1708.88C4722.12 1706.65 4722.88 1703.42 4722.9 1699.19V1697.2ZM4737.52 1718.51V1677.74H4750.06C4753.64 1677.74 4756.85 1678.55 4759.66 1680.18C4762.5 1681.78 4764.71 1684.08 4766.3 1687.06C4767.89 1690.03 4768.68 1693.41 4768.68 1697.2V1699.08C4768.68 1702.86 4767.9 1706.23 4766.33 1709.18C4764.78 1712.13 4762.59 1714.42 4759.75 1716.04C4756.91 1717.67 4753.71 1718.49 4750.14 1718.51H4737.52ZM4745.92 1684.54V1711.76H4749.98C4753.26 1711.76 4755.77 1710.69 4757.51 1708.54C4759.24 1706.39 4760.13 1703.32 4760.17 1699.33V1697.17C4760.17 1693.03 4759.31 1689.89 4757.59 1687.76C4755.88 1685.62 4753.36 1684.54 4750.06 1684.54H4745.92ZM4799.34 1700.84H4783.21V1711.76H4802.14V1718.51H4774.81V1677.74H4802.08V1684.54H4783.21V1694.26H4799.34V1700.84ZM4815.47 1711.76H4833.3V1718.51H4807.07V1677.74H4815.47V1711.76Z" fill="white"/>
<path d="M5653.05 1438.75V1196.35C5653.05 1153.17 5618.05 1118.16 5574.86 1118.16L3428.47 1118.16L1282.08 1118.16C1238.89 1118.16 1203.88 1153.17 1203.88 1196.35V1468.72" stroke="black" stroke-width="5.21285"/>
<path d="M2886.88 1218.16L2910.88 1242.16L2934.88 1218.16" stroke="black" stroke-width="2"/>
<circle r="13.0321" transform="matrix(0 1 1 0 1203.88 1480.45)" fill="black"/>
<rect width="740.872" height="285.936" transform="translate(3033.2 985.229)" fill="#003245"/>
<path d="M3253.51 1145.57C3255.42 1145.57 3256.97 1145.05 3258.16 1144C3259.35 1142.95 3259.97 1141.55 3260.02 1139.81H3269.72C3269.7 1142.43 3268.98 1144.84 3267.57 1147.04C3266.17 1149.21 3264.23 1150.91 3261.78 1152.12C3259.34 1153.32 3256.65 1153.91 3253.69 1153.91C3248.15 1153.91 3243.78 1152.16 3240.58 1148.65C3237.39 1145.12 3235.79 1140.25 3235.79 1134.05V1133.37C3235.79 1127.4 3237.38 1122.64 3240.55 1119.08C3243.72 1115.53 3248.08 1113.75 3253.61 1113.75C3258.46 1113.75 3262.34 1115.13 3265.25 1117.9C3268.18 1120.65 3269.67 1124.31 3269.72 1128.89H3260.02C3259.97 1126.89 3259.35 1125.26 3258.16 1124.02C3256.97 1122.76 3255.39 1122.13 3253.44 1122.13C3251.03 1122.13 3249.2 1123.01 3247.96 1124.78C3246.74 1126.52 3246.13 1129.36 3246.13 1133.29V1134.37C3246.13 1138.35 3246.74 1141.22 3247.96 1142.96C3249.18 1144.7 3251.03 1145.57 3253.51 1145.57ZM3274.02 1133.47C3274.02 1129.63 3274.76 1126.21 3276.24 1123.2C3277.72 1120.19 3279.84 1117.87 3282.61 1116.22C3285.4 1114.57 3288.63 1113.75 3292.31 1113.75C3297.54 1113.75 3301.8 1115.35 3305.09 1118.55C3308.41 1121.74 3310.26 1126.09 3310.64 1131.58L3310.71 1134.23C3310.71 1140.17 3309.05 1144.94 3305.73 1148.54C3302.42 1152.12 3297.97 1153.91 3292.38 1153.91C3286.8 1153.91 3282.33 1152.12 3278.99 1148.54C3275.68 1144.96 3274.02 1140.1 3274.02 1133.94V1133.47ZM3284.36 1134.23C3284.36 1137.9 3285.06 1140.72 3286.44 1142.67C3287.82 1144.61 3289.8 1145.57 3292.38 1145.57C3294.89 1145.57 3296.84 1144.62 3298.25 1142.71C3299.66 1140.78 3300.36 1137.7 3300.36 1133.47C3300.36 1129.87 3299.66 1127.08 3298.25 1125.1C3296.84 1123.12 3294.86 1122.13 3292.31 1122.13C3289.78 1122.13 3287.82 1123.12 3286.44 1125.1C3285.06 1127.05 3284.36 1130.1 3284.36 1134.23ZM3326.6 1114.47L3326.92 1118.94C3329.69 1115.48 3333.4 1113.75 3338.06 1113.75C3342.16 1113.75 3345.22 1114.96 3347.22 1117.37C3349.23 1119.78 3350.25 1123.38 3350.3 1128.18V1153.2H3339.95V1128.43C3339.95 1126.23 3339.48 1124.64 3338.52 1123.67C3337.57 1122.66 3335.98 1122.16 3333.76 1122.16C3330.85 1122.16 3328.67 1123.4 3327.21 1125.89V1153.2H3316.87V1114.47H3326.6ZM3379.15 1142.49C3379.15 1141.23 3378.52 1140.24 3377.25 1139.52C3376.01 1138.78 3374.01 1138.13 3371.24 1137.55C3362.03 1135.62 3357.42 1131.71 3357.42 1125.81C3357.42 1122.38 3358.84 1119.51 3361.68 1117.22C3364.55 1114.91 3368.28 1113.75 3372.89 1113.75C3377.8 1113.75 3381.73 1114.91 3384.66 1117.22C3387.62 1119.54 3389.1 1122.54 3389.1 1126.24H3378.76C3378.76 1124.76 3378.28 1123.55 3377.32 1122.59C3376.37 1121.61 3374.88 1121.12 3372.85 1121.12C3371.11 1121.12 3369.76 1121.52 3368.81 1122.31C3367.85 1123.09 3367.37 1124.1 3367.37 1125.31C3367.37 1126.46 3367.91 1127.39 3368.98 1128.1C3370.08 1128.8 3371.92 1129.4 3374.5 1129.93C3377.07 1130.43 3379.25 1131 3381.01 1131.65C3386.48 1133.65 3389.21 1137.12 3389.21 1142.06C3389.21 1145.6 3387.69 1148.46 3384.66 1150.66C3381.63 1152.83 3377.72 1153.91 3372.92 1153.91C3369.68 1153.91 3366.79 1153.34 3364.26 1152.19C3361.75 1151.03 3359.78 1149.44 3358.35 1147.43C3356.92 1145.41 3356.21 1143.22 3356.21 1140.88H3366.01C3366.11 1142.72 3366.79 1144.13 3368.05 1145.11C3369.32 1146.09 3371.01 1146.58 3373.14 1146.58C3375.12 1146.58 3376.61 1146.21 3377.61 1145.47C3378.64 1144.7 3379.15 1143.71 3379.15 1142.49ZM3419.1 1149.26C3416.55 1152.36 3413.01 1153.91 3408.5 1153.91C3404.35 1153.91 3401.18 1152.72 3398.98 1150.33C3396.81 1147.95 3395.7 1144.45 3395.65 1139.85V1114.47H3406V1139.49C3406 1143.52 3407.83 1145.54 3411.51 1145.54C3415.02 1145.54 3417.43 1144.32 3418.74 1141.89V1114.47H3429.12V1153.2H3419.38L3419.1 1149.26ZM3446.63 1114.47L3446.95 1118.8C3449.69 1115.43 3453.4 1113.75 3458.08 1113.75C3463.07 1113.75 3466.49 1115.72 3468.35 1119.66C3471.07 1115.72 3474.95 1113.75 3479.99 1113.75C3484.19 1113.75 3487.31 1114.98 3489.37 1117.44C3491.42 1119.87 3492.44 1123.55 3492.44 1128.46V1153.2H3482.06V1128.5C3482.06 1126.3 3481.63 1124.7 3480.77 1123.7C3479.92 1122.68 3478.4 1122.16 3476.23 1122.16C3473.13 1122.16 3470.98 1123.64 3469.79 1126.6L3469.82 1153.2H3459.48V1128.53C3459.48 1126.29 3459.03 1124.67 3458.15 1123.67C3457.27 1122.66 3455.77 1122.16 3453.64 1122.16C3450.71 1122.16 3448.58 1123.38 3447.27 1125.81V1153.2H3436.92V1114.47H3446.63ZM3518.25 1153.91C3512.57 1153.91 3507.94 1152.17 3504.36 1148.69C3500.81 1145.2 3499.03 1140.56 3499.03 1134.76V1133.76C3499.03 1129.87 3499.78 1126.4 3501.29 1123.34C3502.79 1120.27 3504.91 1117.9 3507.66 1116.26C3510.43 1114.59 3513.58 1113.75 3517.11 1113.75C3522.41 1113.75 3526.57 1115.42 3529.6 1118.76C3532.65 1122.1 3534.18 1126.84 3534.18 1132.97V1137.2H3509.52C3509.85 1139.73 3510.86 1141.75 3512.53 1143.28C3514.22 1144.81 3516.36 1145.57 3518.93 1145.57C3522.92 1145.57 3526.03 1144.13 3528.28 1141.24L3533.36 1146.93C3531.81 1149.13 3529.71 1150.85 3527.06 1152.09C3524.41 1153.3 3521.47 1153.91 3518.25 1153.91ZM3517.07 1122.13C3515.02 1122.13 3513.35 1122.82 3512.06 1124.2C3510.8 1125.59 3509.98 1127.57 3509.63 1130.14H3524.02V1129.32C3523.97 1127.03 3523.35 1125.26 3522.15 1124.02C3520.96 1122.76 3519.27 1122.13 3517.07 1122.13ZM3561.06 1142.49C3561.06 1141.23 3560.43 1140.24 3559.17 1139.52C3557.93 1138.78 3555.92 1138.13 3553.15 1137.55C3543.94 1135.62 3539.34 1131.71 3539.34 1125.81C3539.34 1122.38 3540.76 1119.51 3543.6 1117.22C3546.46 1114.91 3550.19 1113.75 3554.8 1113.75C3559.72 1113.75 3563.64 1114.91 3566.58 1117.22C3569.54 1119.54 3571.02 1122.54 3571.02 1126.24H3560.67C3560.67 1124.76 3560.19 1123.55 3559.24 1122.59C3558.28 1121.61 3556.79 1121.12 3554.76 1121.12C3553.02 1121.12 3551.67 1121.52 3550.72 1122.31C3549.77 1123.09 3549.29 1124.1 3549.29 1125.31C3549.29 1126.46 3549.82 1127.39 3550.9 1128.1C3552 1128.8 3553.83 1129.4 3556.41 1129.93C3558.99 1130.43 3561.16 1131 3562.93 1131.65C3568.39 1133.65 3571.12 1137.12 3571.12 1142.06C3571.12 1145.6 3569.61 1148.46 3566.58 1150.66C3563.55 1152.83 3559.63 1153.91 3554.84 1153.91C3551.59 1153.91 3548.7 1153.34 3546.17 1152.19C3543.67 1151.03 3541.7 1149.44 3540.27 1147.43C3538.84 1145.41 3538.12 1143.22 3538.12 1140.88H3547.93C3548.02 1142.72 3548.7 1144.13 3549.97 1145.11C3551.23 1146.09 3552.93 1146.58 3555.05 1146.58C3557.03 1146.58 3558.52 1146.21 3559.53 1145.47C3560.55 1144.7 3561.06 1143.71 3561.06 1142.49Z" fill="white"/>
<path d="M6046 1697H7306" stroke="black" stroke-width="3.59831"/>
<path d="M7264.62 1653.82L7307.8 1697L7264.62 1740.18" stroke="black" stroke-width="3.59831"/>
<path d="M4007.5 381.839H3960.92L3950.46 410.855H3935.34L3977.8 299.675H3990.62L4033.16 410.855H4018.11L4007.5 381.839ZM3965.35 369.774H4003.15L3984.21 317.772L3965.35 369.774ZM4085.85 340.91C4083.71 340.553 4081.39 340.375 4078.9 340.375C4069.63 340.375 4063.34 344.32 4060.04 352.211V410.855H4045.91V328.234H4059.65L4059.88 337.779C4064.52 330.397 4071.08 326.707 4079.58 326.707C4082.33 326.707 4084.42 327.063 4085.85 327.776V340.91ZM4130.52 400.852C4135.56 400.852 4139.96 399.325 4143.73 396.271C4147.49 393.216 4149.58 389.398 4149.99 384.817H4163.35C4163.1 389.551 4161.47 394.056 4158.46 398.332C4155.46 402.609 4151.44 406.019 4146.4 408.565C4141.41 411.11 4136.12 412.383 4130.52 412.383C4119.27 412.383 4110.31 408.641 4103.64 401.158C4097.02 393.624 4093.71 383.34 4093.71 370.308V367.941C4093.71 359.898 4095.19 352.745 4098.14 346.484C4101.09 340.222 4105.32 335.361 4110.82 331.899C4116.36 328.437 4122.91 326.707 4130.44 326.707C4139.7 326.707 4147.39 329.481 4153.5 335.03C4159.66 340.579 4162.94 347.782 4163.35 356.64H4149.99C4149.58 351.295 4147.54 346.917 4143.88 343.506C4140.26 340.044 4135.78 338.313 4130.44 338.313C4123.26 338.313 4117.69 340.91 4113.72 346.102C4109.8 351.244 4107.84 358.701 4107.84 368.476V371.148C4107.84 380.668 4109.8 387.998 4113.72 393.14C4117.64 398.281 4123.24 400.852 4130.52 400.852ZM4193.36 338.237C4199.62 330.55 4207.77 326.707 4217.8 326.707C4235.26 326.707 4244.06 336.557 4244.22 356.258V410.855H4230.09V356.182C4230.04 350.225 4228.66 345.822 4225.97 342.971C4223.32 340.121 4219.17 338.695 4213.52 338.695C4208.94 338.695 4204.92 339.917 4201.45 342.36C4197.99 344.804 4195.29 348.011 4193.36 351.982V410.855H4179.23V293.566H4193.36V338.237ZM4280.72 410.855H4266.59V328.234H4280.72V410.855ZM4265.44 306.318C4265.44 304.028 4266.13 302.093 4267.51 300.515C4268.93 298.937 4271.02 298.148 4273.77 298.148C4276.52 298.148 4278.6 298.937 4280.03 300.515C4281.45 302.093 4282.17 304.028 4282.17 306.318C4282.17 308.609 4281.45 310.518 4280.03 312.045C4278.6 313.573 4276.52 314.336 4273.77 314.336C4271.02 314.336 4268.93 313.573 4267.51 312.045C4266.13 310.518 4265.44 308.609 4265.44 306.318ZM4322.56 308.227V328.234H4337.99V339.153H4322.56V390.391C4322.56 393.7 4323.25 396.194 4324.62 397.874C4326 399.503 4328.34 400.318 4331.65 400.318C4333.28 400.318 4335.52 400.012 4338.37 399.401V410.855C4334.65 411.874 4331.04 412.383 4327.53 412.383C4321.21 412.383 4316.45 410.474 4313.25 406.656C4310.04 402.838 4308.44 397.416 4308.44 390.391V339.153H4293.39V328.234H4308.44V308.227H4322.56ZM4388.84 412.383C4377.64 412.383 4368.53 408.717 4361.51 401.387C4354.48 394.005 4350.97 384.155 4350.97 371.835V369.239C4350.97 361.043 4352.52 353.738 4355.63 347.324C4358.78 340.859 4363.16 335.819 4368.76 332.204C4374.41 328.539 4380.52 326.707 4387.09 326.707C4397.83 326.707 4406.18 330.245 4412.13 337.321C4418.09 344.397 4421.07 354.527 4421.07 367.712V373.592H4365.09C4365.3 381.737 4367.67 388.329 4372.2 393.369C4376.78 398.358 4382.58 400.852 4389.61 400.852C4394.59 400.852 4398.82 399.834 4402.28 397.798C4405.74 395.762 4408.77 393.064 4411.37 389.704L4420 396.423C4413.07 407.063 4402.69 412.383 4388.84 412.383ZM4387.09 338.313C4381.38 338.313 4376.6 340.4 4372.73 344.575C4368.86 348.698 4366.47 354.502 4365.55 361.985H4406.94V360.916C4406.53 353.738 4404.6 348.189 4401.14 344.269C4397.67 340.299 4392.99 338.313 4387.09 338.313ZM4470.62 400.852C4475.66 400.852 4480.07 399.325 4483.83 396.271C4487.6 393.216 4489.69 389.398 4490.1 384.817H4503.46C4503.2 389.551 4501.58 394.056 4498.57 398.332C4495.57 402.609 4491.55 406.019 4486.51 408.565C4481.52 411.11 4476.22 412.383 4470.62 412.383C4459.37 412.383 4450.41 408.641 4443.75 401.158C4437.13 393.624 4433.82 383.34 4433.82 370.308V367.941C4433.82 359.898 4435.29 352.745 4438.25 346.484C4441.2 340.222 4445.43 335.361 4450.92 331.899C4456.47 328.437 4463.01 326.707 4470.55 326.707C4479.81 326.707 4487.5 329.481 4493.61 335.03C4499.77 340.579 4503.05 347.782 4503.46 356.64H4490.1C4489.69 351.295 4487.65 346.917 4483.99 343.506C4480.37 340.044 4475.89 338.313 4470.55 338.313C4463.37 338.313 4457.8 340.91 4453.82 346.102C4449.91 351.244 4447.95 358.701 4447.95 368.476V371.148C4447.95 380.668 4449.91 387.998 4453.82 393.14C4457.74 398.281 4463.34 400.852 4470.62 400.852ZM4538.51 308.227V328.234H4553.93V339.153H4538.51V390.391C4538.51 393.7 4539.2 396.194 4540.57 397.874C4541.94 399.503 4544.29 400.318 4547.6 400.318C4549.22 400.318 4551.46 400.012 4554.31 399.401V410.855C4550.6 411.874 4546.98 412.383 4543.47 412.383C4537.16 412.383 4532.4 410.474 4529.19 406.656C4525.99 402.838 4524.38 397.416 4524.38 390.391V339.153H4509.34V328.234H4524.38V308.227H4538.51ZM4621.51 402.685C4616.01 409.15 4607.95 412.383 4597.31 412.383C4588.5 412.383 4581.78 409.837 4577.15 404.747C4572.57 399.605 4570.25 392.02 4570.2 381.991V328.234H4584.32V381.61C4584.32 394.133 4589.42 400.394 4599.6 400.394C4610.39 400.394 4617.57 396.372 4621.13 388.329V328.234H4635.26V410.855H4621.82L4621.51 402.685ZM4696.73 340.91C4694.59 340.553 4692.27 340.375 4689.78 340.375C4680.51 340.375 4674.23 344.32 4670.92 352.211V410.855H4656.79V328.234H4670.54L4670.76 337.779C4675.4 330.397 4681.96 326.707 4690.47 326.707C4693.21 326.707 4695.3 327.063 4696.73 327.776V340.91ZM4742.54 412.383C4731.34 412.383 4722.23 408.717 4715.21 401.387C4708.18 394.005 4704.67 384.155 4704.67 371.835V369.239C4704.67 361.043 4706.22 353.738 4709.33 347.324C4712.48 340.859 4716.86 335.819 4722.46 332.204C4728.11 328.539 4734.22 326.707 4740.79 326.707C4751.53 326.707 4759.88 330.245 4765.83 337.321C4771.79 344.397 4774.77 354.527 4774.77 367.712V373.592H4718.79C4719 381.737 4721.37 388.329 4725.9 393.369C4730.48 398.358 4736.28 400.852 4743.31 400.852C4748.3 400.852 4752.52 399.834 4755.98 397.798C4759.44 395.762 4762.47 393.064 4765.07 389.704L4773.7 396.423C4766.77 407.063 4756.39 412.383 4742.54 412.383ZM4740.79 338.313C4735.08 338.313 4730.3 340.4 4726.43 344.575C4722.56 348.698 4720.17 354.502 4719.25 361.985H4760.64V360.916C4760.23 353.738 4758.3 348.189 4754.84 344.269C4751.38 340.299 4746.69 338.313 4740.79 338.313Z" fill="black"/>
<rect x="7309.42" y="1535.11" width="652.165" height="294.133" fill="black" stroke="white" stroke-width="6.32545"/>
<path d="M7536.27 1685.81C7530.67 1684.2 7526.6 1682.23 7524.04 1679.9C7521.5 1677.54 7520.23 1674.64 7520.23 1671.2C7520.23 1667.3 7521.78 1664.09 7524.89 1661.55C7528.01 1658.99 7532.07 1657.71 7537.05 1657.71C7540.45 1657.71 7543.47 1658.37 7546.12 1659.68C7548.79 1661 7550.85 1662.81 7552.3 1665.12C7553.78 1667.43 7554.51 1669.95 7554.51 1672.69H7547.95C7547.95 1669.7 7547 1667.36 7545.1 1665.66C7543.2 1663.94 7540.51 1663.08 7537.05 1663.08C7533.83 1663.08 7531.32 1663.79 7529.51 1665.22C7527.72 1666.62 7526.82 1668.58 7526.82 1671.1C7526.82 1673.11 7527.67 1674.82 7529.37 1676.23C7531.09 1677.61 7534 1678.88 7538.1 1680.03C7542.22 1681.19 7545.44 1682.47 7547.75 1683.87C7550.08 1685.25 7551.8 1686.87 7552.91 1688.73C7554.05 1690.59 7554.61 1692.77 7554.61 1695.29C7554.61 1699.3 7553.05 1702.51 7549.92 1704.94C7546.8 1707.34 7542.62 1708.54 7537.39 1708.54C7533.99 1708.54 7530.82 1707.89 7527.88 1706.6C7524.93 1705.29 7522.65 1703.5 7521.05 1701.23C7519.46 1698.97 7518.67 1696.4 7518.67 1693.52H7525.23C7525.23 1696.51 7526.32 1698.88 7528.52 1700.62C7530.74 1702.34 7533.7 1703.2 7537.39 1703.2C7540.83 1703.2 7543.47 1702.5 7545.3 1701.1C7547.14 1699.69 7548.06 1697.78 7548.06 1695.36C7548.06 1692.93 7547.21 1691.06 7545.51 1689.75C7543.81 1688.41 7540.73 1687.1 7536.27 1685.81ZM7570.55 1662.2V1671.1H7577.41V1675.96H7570.55V1698.75C7570.55 1700.23 7570.85 1701.34 7571.46 1702.08C7572.08 1702.81 7573.12 1703.17 7574.59 1703.17C7575.32 1703.17 7576.31 1703.03 7577.58 1702.76V1707.86C7575.93 1708.31 7574.32 1708.54 7572.76 1708.54C7569.95 1708.54 7567.83 1707.69 7566.4 1705.99C7564.98 1704.29 7564.26 1701.88 7564.26 1698.75V1675.96H7557.57V1671.1H7564.26V1662.2H7570.55ZM7582.44 1689.14C7582.44 1685.54 7583.14 1682.3 7584.54 1679.42C7585.97 1676.55 7587.94 1674.33 7590.46 1672.76C7592.99 1671.2 7595.88 1670.42 7599.12 1670.42C7604.13 1670.42 7608.17 1672.15 7611.25 1675.62C7614.35 1679.08 7615.9 1683.69 7615.9 1689.44V1689.89C7615.9 1693.46 7615.21 1696.68 7613.83 1699.53C7612.47 1702.37 7610.51 1704.57 7607.95 1706.16C7605.42 1707.75 7602.49 1708.54 7599.19 1708.54C7594.21 1708.54 7590.16 1706.81 7587.06 1703.34C7583.98 1699.87 7582.44 1695.29 7582.44 1689.58V1689.14ZM7588.76 1689.89C7588.76 1693.96 7589.7 1697.24 7591.58 1699.7C7593.48 1702.17 7596.02 1703.41 7599.19 1703.41C7602.38 1703.41 7604.92 1702.16 7606.8 1699.67C7608.68 1697.16 7609.62 1693.65 7609.62 1689.14C7609.62 1685.11 7608.66 1681.85 7606.73 1679.35C7604.83 1676.84 7602.29 1675.58 7599.12 1675.58C7596.02 1675.58 7593.51 1676.82 7591.61 1679.29C7589.71 1681.75 7588.76 1685.29 7588.76 1689.89ZM7641.55 1676.74C7640.6 1676.58 7639.57 1676.5 7638.46 1676.5C7634.34 1676.5 7631.54 1678.26 7630.07 1681.77V1707.86H7623.79V1671.1H7629.9L7630 1675.34C7632.06 1672.06 7634.99 1670.42 7638.77 1670.42C7639.99 1670.42 7640.92 1670.58 7641.55 1670.89V1676.74ZM7668.7 1707.86C7668.34 1707.13 7668.04 1705.84 7667.82 1703.99C7664.89 1707.02 7661.41 1708.54 7657.35 1708.54C7653.73 1708.54 7650.75 1707.52 7648.42 1705.48C7646.11 1703.42 7644.95 1700.81 7644.95 1697.67C7644.95 1693.84 7646.4 1690.87 7649.3 1688.76C7652.22 1686.64 7656.32 1685.57 7661.6 1685.57H7667.71V1682.68C7667.71 1680.49 7667.06 1678.74 7665.74 1677.45C7664.43 1676.14 7662.49 1675.48 7659.93 1675.48C7657.69 1675.48 7655.81 1676.05 7654.29 1677.18C7652.78 1678.31 7652.02 1679.68 7652.02 1681.29H7645.7C7645.7 1679.46 7646.34 1677.69 7647.64 1675.99C7648.95 1674.27 7650.72 1672.91 7652.94 1671.91C7655.18 1670.92 7657.64 1670.42 7660.31 1670.42C7664.54 1670.42 7667.86 1671.48 7670.26 1673.61C7672.66 1675.72 7673.91 1678.63 7674 1682.34V1699.26C7674 1702.64 7674.43 1705.32 7675.29 1707.31V1707.86H7668.7ZM7658.27 1703.07C7660.24 1703.07 7662.11 1702.56 7663.88 1701.54C7665.64 1700.52 7666.92 1699.19 7667.71 1697.56V1690.02H7662.79C7655.09 1690.02 7651.24 1692.28 7651.24 1696.78C7651.24 1698.75 7651.89 1700.29 7653.21 1701.4C7654.52 1702.51 7656.21 1703.07 7658.27 1703.07ZM7682.36 1689.17C7682.36 1683.44 7683.68 1678.89 7686.33 1675.51C7688.98 1672.12 7692.49 1670.42 7696.86 1670.42C7701.35 1670.42 7704.85 1672 7707.36 1675.17L7707.67 1671.1H7713.41V1706.98C7713.41 1711.73 7711.99 1715.48 7709.16 1718.22C7706.36 1720.96 7702.57 1722.33 7697.82 1722.33C7695.17 1722.33 7692.57 1721.77 7690.04 1720.63C7687.5 1719.5 7685.56 1717.95 7684.23 1715.98L7687.49 1712.21C7690.18 1715.54 7693.48 1717.2 7697.37 1717.2C7700.43 1717.2 7702.81 1716.34 7704.51 1714.62C7706.23 1712.9 7707.09 1710.47 7707.09 1707.35V1704.19C7704.58 1707.09 7701.15 1708.54 7696.8 1708.54C7692.49 1708.54 7689.01 1706.81 7686.33 1703.34C7683.68 1699.87 7682.36 1695.15 7682.36 1689.17ZM7688.68 1689.89C7688.68 1694.03 7689.53 1697.29 7691.23 1699.67C7692.92 1702.03 7695.3 1703.2 7698.36 1703.2C7702.32 1703.2 7705.23 1701.4 7707.09 1697.8V1681.02C7705.17 1677.51 7702.28 1675.75 7698.43 1675.75C7695.37 1675.75 7692.98 1676.94 7691.26 1679.32C7689.54 1681.7 7688.68 1685.22 7688.68 1689.89ZM7738.18 1708.54C7733.2 1708.54 7729.14 1706.91 7726.02 1703.65C7722.89 1700.36 7721.33 1695.98 7721.33 1690.5V1689.34C7721.33 1685.7 7722.02 1682.45 7723.4 1679.59C7724.8 1676.72 7726.75 1674.47 7729.24 1672.86C7731.76 1671.23 7734.47 1670.42 7737.4 1670.42C7742.18 1670.42 7745.89 1671.99 7748.54 1675.14C7751.19 1678.29 7752.52 1682.8 7752.52 1688.66V1691.28H7727.61C7727.7 1694.9 7728.76 1697.84 7730.77 1700.08C7732.81 1702.3 7735.39 1703.41 7738.52 1703.41C7740.74 1703.41 7742.62 1702.95 7744.16 1702.05C7745.7 1701.14 7747.05 1699.94 7748.2 1698.45L7752.04 1701.44C7748.96 1706.17 7744.34 1708.54 7738.18 1708.54ZM7737.4 1675.58C7734.86 1675.58 7732.73 1676.51 7731.01 1678.37C7729.29 1680.2 7728.22 1682.79 7727.82 1686.11H7746.23V1685.64C7746.05 1682.45 7745.19 1679.98 7743.65 1678.23C7742.11 1676.47 7740.02 1675.58 7737.4 1675.58Z" fill="white"/>
<path d="M7919.98 1557.24L7938.96 1576.22M7919.98 1576.22L7938.96 1557.24" stroke="white" stroke-width="6.32545"/>
<rect x="7328.4" y="1506.64" width="257.556" height="69.3018" fill="black"/>
<path d="M7382.83 1527.31L7389.76 1546.88L7396.65 1527.31H7403.96V1554.29H7398.38V1546.92L7398.93 1534.18L7391.65 1554.29H7387.83L7380.57 1534.2L7381.13 1546.92V1554.29H7375.57V1527.31H7382.83ZM7407.63 1544.08C7407.63 1542.09 7408.01 1540.32 7408.77 1538.76C7409.54 1537.2 7410.64 1536 7412.07 1535.15C7413.52 1534.3 7415.19 1533.87 7417.09 1533.87C7419.8 1533.87 7422.01 1534.7 7423.71 1536.35C7425.43 1538.01 7426.39 1540.26 7426.58 1543.1L7426.62 1544.47C7426.62 1547.55 7425.76 1550.02 7424.04 1551.88C7422.33 1553.74 7420.02 1554.66 7417.13 1554.66C7414.24 1554.66 7411.93 1553.74 7410.2 1551.88C7408.48 1550.03 7407.63 1547.51 7407.63 1544.32V1544.08ZM7412.98 1544.47C7412.98 1546.37 7413.34 1547.83 7414.06 1548.84C7414.77 1549.84 7415.8 1550.34 7417.13 1550.34C7418.43 1550.34 7419.44 1549.85 7420.17 1548.86C7420.9 1547.86 7421.26 1546.27 7421.26 1544.08C7421.26 1542.21 7420.9 1540.77 7420.17 1539.74C7419.44 1538.72 7418.42 1538.21 7417.09 1538.21C7415.79 1538.21 7414.77 1538.72 7414.06 1539.74C7413.34 1540.76 7412.98 1542.33 7412.98 1544.47ZM7434.85 1534.24L7435.01 1536.56C7436.45 1534.76 7438.37 1533.87 7440.78 1533.87C7442.9 1533.87 7444.48 1534.49 7445.52 1535.74C7446.56 1536.99 7447.09 1538.85 7447.12 1541.34V1554.29H7441.76V1541.47C7441.76 1540.33 7441.51 1539.51 7441.02 1539C7440.52 1538.48 7439.7 1538.22 7438.55 1538.22C7437.05 1538.22 7435.92 1538.87 7435.16 1540.15V1554.29H7429.81V1534.24H7434.85ZM7450.41 1544.12C7450.41 1541.04 7451.14 1538.56 7452.6 1536.69C7454.07 1534.81 7456.05 1533.87 7458.53 1533.87C7460.73 1533.87 7462.44 1534.62 7463.66 1536.13L7463.89 1534.24H7468.74V1553.62C7468.74 1555.38 7468.34 1556.9 7467.54 1558.2C7466.75 1559.5 7465.63 1560.49 7464.18 1561.17C7462.74 1561.85 7461.05 1562.19 7459.11 1562.19C7457.64 1562.19 7456.2 1561.89 7454.81 1561.3C7453.41 1560.72 7452.35 1559.96 7451.64 1559.04L7454.01 1555.77C7455.34 1557.27 7456.96 1558.02 7458.87 1558.02C7460.29 1558.02 7461.39 1557.63 7462.18 1556.87C7462.97 1556.11 7463.37 1555.04 7463.37 1553.64V1552.57C7462.13 1553.96 7460.51 1554.66 7458.49 1554.66C7456.09 1554.66 7454.13 1553.72 7452.64 1551.84C7451.16 1549.95 7450.41 1547.45 7450.41 1544.34V1544.12ZM7455.77 1544.51C7455.77 1546.32 7456.13 1547.75 7456.86 1548.79C7457.59 1549.81 7458.59 1550.33 7459.87 1550.33C7461.5 1550.33 7462.66 1549.71 7463.37 1548.49V1540.06C7462.65 1538.84 7461.5 1538.22 7459.9 1538.22C7458.62 1538.22 7457.6 1538.75 7456.86 1539.8C7456.13 1540.85 7455.77 1542.42 7455.77 1544.51ZM7472.04 1544.08C7472.04 1542.09 7472.42 1540.32 7473.19 1538.76C7473.96 1537.2 7475.06 1536 7476.49 1535.15C7477.93 1534.3 7479.61 1533.87 7481.51 1533.87C7484.22 1533.87 7486.42 1534.7 7488.13 1536.35C7489.84 1538.01 7490.8 1540.26 7491 1543.1L7491.04 1544.47C7491.04 1547.55 7490.18 1550.02 7488.46 1551.88C7486.74 1553.74 7484.44 1554.66 7481.55 1554.66C7478.66 1554.66 7476.35 1553.74 7474.62 1551.88C7472.9 1550.03 7472.04 1547.51 7472.04 1544.32V1544.08ZM7477.4 1544.47C7477.4 1546.37 7477.75 1547.83 7478.47 1548.84C7479.19 1549.84 7480.21 1550.34 7481.55 1550.34C7482.84 1550.34 7483.86 1549.85 7484.59 1548.86C7485.32 1547.86 7485.68 1546.27 7485.68 1544.08C7485.68 1542.21 7485.32 1540.77 7484.59 1539.74C7483.86 1538.72 7482.83 1538.21 7481.51 1538.21C7480.2 1538.21 7479.19 1538.72 7478.47 1539.74C7477.75 1540.76 7477.4 1542.33 7477.4 1544.47ZM7494.69 1554.29V1527.31H7502.99C7505.36 1527.31 7507.48 1527.85 7509.35 1528.92C7511.22 1529.98 7512.69 1531.5 7513.74 1533.48C7514.79 1535.44 7515.31 1537.68 7515.31 1540.19V1541.43C7515.31 1543.94 7514.79 1546.17 7513.76 1548.12C7512.73 1550.07 7511.28 1551.59 7509.4 1552.66C7507.52 1553.74 7505.4 1554.28 7503.04 1554.29H7494.69ZM7500.25 1531.81V1549.82H7502.93C7505.11 1549.82 7506.77 1549.11 7507.92 1547.69C7509.07 1546.27 7509.65 1544.24 7509.68 1541.6V1540.17C7509.68 1537.43 7509.11 1535.35 7507.97 1533.94C7506.84 1532.52 7505.18 1531.81 7502.99 1531.81H7500.25ZM7519.37 1554.29V1527.31H7528.82C7532.1 1527.31 7534.58 1527.94 7536.27 1529.2C7537.96 1530.45 7538.81 1532.28 7538.81 1534.7C7538.81 1536.03 7538.47 1537.19 7537.79 1538.21C7537.11 1539.21 7536.17 1539.94 7534.96 1540.41C7536.34 1540.76 7537.43 1541.45 7538.22 1542.5C7539.02 1543.56 7539.42 1544.84 7539.42 1546.36C7539.42 1548.95 7538.59 1550.92 7536.94 1552.25C7535.28 1553.59 7532.92 1554.27 7529.86 1554.29H7519.37ZM7524.93 1542.54V1549.82H7529.69C7531 1549.82 7532.02 1549.52 7532.75 1548.9C7533.49 1548.27 7533.86 1547.4 7533.86 1546.3C7533.86 1543.83 7532.58 1542.58 7530.03 1542.54H7524.93ZM7524.93 1538.61H7529.04C7531.85 1538.56 7533.25 1537.45 7533.25 1535.26C7533.25 1534.04 7532.89 1533.16 7532.18 1532.63C7531.47 1532.08 7530.35 1531.81 7528.82 1531.81H7524.93V1538.61Z" fill="white"/>
<rect x="7328.4" y="1506.64" width="257.556" height="69.3018" stroke="white" stroke-width="6.32545"/>
<path d="M6500.14 1864.11V1805H6559.25L6500.14 1864.11Z" fill="#003245"/>
<rect x="6500.14" y="1590" width="429.839" height="214.919" fill="#003245"/>
<path d="M6653.42 1710.43C6653.42 1709.18 6652.9 1708.22 6651.86 1707.57C6650.84 1706.92 6649.14 1706.34 6646.75 1705.84C6644.37 1705.34 6642.38 1704.7 6640.78 1703.93C6637.28 1702.24 6635.53 1699.79 6635.53 1696.58C6635.53 1693.88 6636.66 1691.63 6638.93 1689.82C6641.2 1688.01 6644.09 1687.11 6647.59 1687.11C6651.32 1687.11 6654.33 1688.03 6656.62 1689.88C6658.93 1691.73 6660.09 1694.12 6660.09 1697.07H6653.07C6653.07 1695.72 6652.57 1694.6 6651.57 1693.72C6650.57 1692.81 6649.25 1692.36 6647.59 1692.36C6646.05 1692.36 6644.79 1692.72 6643.81 1693.43C6642.85 1694.14 6642.37 1695.09 6642.37 1696.29C6642.37 1697.36 6642.82 1698.2 6643.72 1698.8C6644.63 1699.39 6646.46 1700 6649.21 1700.62C6651.96 1701.21 6654.11 1701.93 6655.67 1702.78C6657.25 1703.61 6658.41 1704.61 6659.16 1705.78C6659.93 1706.95 6660.32 1708.38 6660.32 1710.05C6660.32 1712.86 6659.15 1715.14 6656.83 1716.89C6654.5 1718.62 6651.45 1719.49 6647.68 1719.49C6645.12 1719.49 6642.84 1719.03 6640.84 1718.1C6638.84 1717.18 6637.28 1715.91 6636.16 1714.29C6635.05 1712.68 6634.49 1710.94 6634.49 1709.07H6641.3C6641.4 1710.73 6642.02 1712.01 6643.18 1712.91C6644.33 1713.79 6645.86 1714.24 6647.76 1714.24C6649.61 1714.24 6651.02 1713.89 6651.98 1713.2C6652.94 1712.49 6653.42 1711.56 6653.42 1710.43ZM6675.24 1680.1V1687.69H6680.75V1692.88H6675.24V1710.31C6675.24 1711.51 6675.47 1712.37 6675.93 1712.91C6676.41 1713.43 6677.26 1713.69 6678.47 1713.69C6679.28 1713.69 6680.1 1713.59 6680.92 1713.4V1718.83C6679.33 1719.27 6677.79 1719.49 6676.31 1719.49C6670.92 1719.49 6668.22 1716.52 6668.22 1710.57V1692.88H6663.09V1687.69H6668.22V1680.1H6675.24ZM6683.95 1703.01C6683.95 1699.95 6684.56 1697.2 6685.77 1694.76C6686.98 1692.29 6688.69 1690.41 6690.88 1689.1C6693.07 1687.77 6695.59 1687.11 6698.44 1687.11C6702.65 1687.11 6706.07 1688.47 6708.68 1691.18C6711.32 1693.89 6712.74 1697.49 6712.96 1701.97L6712.98 1703.62C6712.98 1706.7 6712.39 1709.45 6711.2 1711.87C6710.02 1714.29 6708.33 1716.17 6706.12 1717.5C6703.92 1718.83 6701.38 1719.49 6698.5 1719.49C6694.09 1719.49 6690.56 1718.03 6687.91 1715.1C6685.27 1712.16 6683.95 1708.24 6683.95 1703.36V1703.01ZM6690.97 1703.62C6690.97 1706.83 6691.63 1709.35 6692.96 1711.18C6694.28 1712.99 6696.13 1713.89 6698.5 1713.89C6700.86 1713.89 6702.7 1712.97 6704.01 1711.12C6705.34 1709.27 6706 1706.57 6706 1703.01C6706 1699.86 6705.32 1697.35 6703.95 1695.51C6702.61 1693.66 6700.77 1692.74 6698.44 1692.74C6696.15 1692.74 6694.33 1693.65 6692.99 1695.48C6691.64 1697.29 6690.97 1700 6690.97 1703.62ZM6735.26 1694.09C6734.34 1693.94 6733.39 1693.86 6732.41 1693.86C6729.19 1693.86 6727.03 1695.09 6725.91 1697.56V1718.91H6718.9V1687.69H6725.6L6725.77 1691.18C6727.46 1688.47 6729.81 1687.11 6732.81 1687.11C6733.81 1687.11 6734.64 1687.24 6735.29 1687.51L6735.26 1694.09ZM6752.87 1719.49C6748.42 1719.49 6744.82 1718.09 6742.05 1715.3C6739.29 1712.5 6737.92 1708.76 6737.92 1704.11V1703.24C6737.92 1700.13 6738.52 1697.34 6739.71 1694.9C6740.92 1692.44 6742.61 1690.52 6744.79 1689.16C6746.96 1687.79 6749.39 1687.11 6752.06 1687.11C6756.31 1687.11 6759.59 1688.47 6761.9 1691.18C6764.23 1693.89 6765.39 1697.73 6765.39 1702.69V1705.52H6744.99C6745.2 1708.1 6746.06 1710.14 6747.56 1711.64C6749.08 1713.14 6750.98 1713.89 6753.27 1713.89C6756.48 1713.89 6759.1 1712.59 6761.12 1709.99L6764.9 1713.6C6763.65 1715.47 6761.98 1716.92 6759.88 1717.96C6757.8 1718.98 6755.46 1719.49 6752.87 1719.49ZM6752.03 1692.74C6750.11 1692.74 6748.55 1693.41 6747.36 1694.76C6746.18 1696.1 6745.43 1697.98 6745.1 1700.38H6758.47V1699.87C6758.31 1697.52 6757.69 1695.75 6756.59 1694.56C6755.49 1693.34 6753.97 1692.74 6752.03 1692.74ZM6788.36 1710.43C6788.36 1709.18 6787.84 1708.22 6786.81 1707.57C6785.79 1706.92 6784.08 1706.34 6781.7 1705.84C6779.31 1705.34 6777.32 1704.7 6775.72 1703.93C6772.22 1702.24 6770.47 1699.79 6770.47 1696.58C6770.47 1693.88 6771.61 1691.63 6773.88 1689.82C6776.15 1688.01 6779.03 1687.11 6782.53 1687.11C6786.27 1687.11 6789.28 1688.03 6791.57 1689.88C6793.88 1691.73 6795.03 1694.12 6795.03 1697.07H6788.02C6788.02 1695.72 6787.52 1694.6 6786.52 1693.72C6785.52 1692.81 6784.19 1692.36 6782.53 1692.36C6781 1692.36 6779.74 1692.72 6778.75 1693.43C6777.79 1694.14 6777.31 1695.09 6777.31 1696.29C6777.31 1697.36 6777.76 1698.2 6778.67 1698.8C6779.57 1699.39 6781.4 1700 6784.15 1700.62C6786.9 1701.21 6789.06 1701.93 6790.61 1702.78C6792.19 1703.61 6793.36 1704.61 6794.11 1705.78C6794.88 1706.95 6795.26 1708.38 6795.26 1710.05C6795.26 1712.86 6794.1 1715.14 6791.77 1716.89C6789.44 1718.62 6786.39 1719.49 6782.62 1719.49C6780.06 1719.49 6777.78 1719.03 6775.78 1718.1C6773.78 1717.18 6772.22 1715.91 6771.11 1714.29C6769.99 1712.68 6769.43 1710.94 6769.43 1709.07H6776.24C6776.34 1710.73 6776.96 1712.01 6778.12 1712.91C6779.27 1713.79 6780.8 1714.24 6782.71 1714.24C6784.55 1714.24 6785.96 1713.89 6786.92 1713.2C6787.88 1712.49 6788.36 1711.56 6788.36 1710.43Z" fill="white"/>
</g>
<defs>
<clipPath id="clip0_110_53">
<rect width="8713" height="3027" fill="white"/>
</clipPath>
</defs>
</svg>
