<svg width="600" height="450" viewBox="0 0 800 600" fill="none" xmlns="http://www.w3.org/2000/svg" data-reactroot="">
<path d="M644.907 13.127H99.2207C89.0503 13.127 80.732 21.2308 80.4664 31.3978L70.5045 412.798C70.2283 423.373 78.7448 432.085 89.3231 432.049L657.778 430.097C668.362 430.06 676.82 421.281 676.463 410.703L663.657 31.2548C663.316 21.1456 655.022 13.127 644.907 13.127Z" fill="#B5CDFB"></path>
<path d="M644.907 13.127H99.2207C89.0503 13.127 80.732 21.2308 80.4664 31.3978L70.5045 412.798C70.2283 423.373 78.7448 432.085 89.3231 432.049L657.778 430.097C668.362 430.06 676.82 421.281 676.463 410.703L663.657 31.2548C663.316 21.1456 655.022 13.127 644.907 13.127Z" fill="black" fill-opacity="0.2"></path>
<path d="M644.907 10H99.2207C89.0503 10 80.732 18.1039 80.4664 28.2708L70.5045 409.671C70.2283 420.246 78.7448 428.958 89.3231 428.922L657.778 426.97C668.362 426.934 676.82 418.154 676.463 407.576L663.657 28.1278C663.316 18.0187 655.022 10 644.907 10Z" fill="black"></path>
<path d="M88.8252 429.443L657.28 427.491C667.864 427.455 676.322 418.675 675.965 408.098L674.278 358.114L71.2987 360.72L70.0065 410.192C69.7303 420.767 78.2469 429.479 88.8252 429.443Z" fill="#522A7A"></path>
<path d="M440.002 432.115H307.114C307.114 432.115 301.902 483.707 298.255 497.777C295.742 507.469 266.38 526.312 248.747 538.946C244.595 541.921 247.284 551.612 252.392 551.683L487.235 552.828C492.031 552.894 495.585 544.341 492.115 541.031C477.712 527.292 451.482 507.017 449.382 497.777C446.421 484.749 440.002 432.115 440.002 432.115Z" fill="#00199D"></path>
<path d="M440.002 432.115H307.114C307.114 432.115 301.902 483.707 298.255 497.777C295.742 507.469 266.38 526.312 248.747 538.946C244.595 541.921 247.284 551.612 252.392 551.683L487.235 552.828C492.031 552.894 495.585 544.341 492.115 541.031C477.712 527.292 451.482 507.017 449.382 497.777C446.421 484.749 440.002 432.115 440.002 432.115Z" fill="black" fill-opacity="0.3"></path>
<path d="M440.002 430.03H307.114C307.114 430.03 301.902 481.622 298.255 495.693C295.742 505.384 266.38 524.228 248.747 536.862C244.595 539.837 247.284 549.528 252.392 549.598L487.235 550.743C492.031 550.809 495.585 542.257 492.115 538.946C477.712 525.208 451.482 504.933 449.382 495.693C446.421 482.664 440.002 430.03 440.002 430.03Z" fill="#522A7A"></path>
<path d="M298.255 495.692C297.719 497.758 295.964 500.24 293.362 502.988H453.709C451.393 500.164 449.833 497.674 449.382 495.692H298.255Z" fill="black" fill-opacity="0.05"></path>
<path d="M103.352 333.1L108.564 36.0566H635.946L645.327 333.1H103.352Z" fill="#B5CDFB"></path>
<path d="M234.741 285.681H160.481C150.26 285.681 141.916 277.441 141.916 267.116V72.0783C141.916 61.857 150.155 53.5132 160.481 53.5132H234.741V285.681Z" fill="#522A7A"></path>
<path d="M234.741 285.681H160.481C150.26 285.681 141.916 277.441 141.916 267.116V72.0783C141.916 61.857 150.155 53.5132 160.481 53.5132H234.741V285.681Z" fill="black" fill-opacity="0.5"></path>
<path d="M234.741 281.774H160.481C150.26 281.774 141.916 273.534 141.916 263.209V68.171C141.916 57.9498 150.155 49.606 160.481 49.606H234.741V281.774Z" fill="#522A7A"></path>
<path d="M566.459 288.285H229.42C217.218 288.285 207.309 278.377 207.309 266.174V78.2284C207.309 66.0255 217.218 56.1172 229.42 56.1172H566.459C578.662 56.1172 588.57 66.0255 588.57 78.2284V266.174C588.57 278.377 578.662 288.285 566.459 288.285Z" fill="#522A7A"></path>
<path d="M566.459 288.285H229.42C217.218 288.285 207.309 278.377 207.309 266.174V78.2284C207.309 66.0255 217.218 56.1172 229.42 56.1172H566.459C578.662 56.1172 588.57 66.0255 588.57 78.2284V266.174C588.57 278.377 578.662 288.285 566.459 288.285Z" fill="black" fill-opacity="0.26"></path>
<path d="M566.459 284.378H229.42C217.218 284.378 207.309 274.47 207.309 262.267V71.1952C207.309 58.9923 217.218 49.084 229.42 49.084H566.459C578.662 49.084 588.57 58.9923 588.57 71.1952V262.267C588.57 274.47 578.662 284.378 566.459 284.378Z" fill="#7838e0"></path>
<path d="M383.097 180.31H353.574C348.697 180.31 344.778 176.391 344.778 171.515V170.295C344.778 165.418 348.697 161.5 353.574 161.5H383.097C387.974 161.5 391.892 165.418 391.892 170.295V171.515C391.892 176.391 387.974 180.31 383.097 180.31Z" fill="#522A7A"></path>
<path d="M440.139 180.31H410.616C405.739 180.31 401.82 176.391 401.82 171.515V170.295C401.82 165.418 405.739 161.5 410.616 161.5H440.139C445.016 161.5 448.934 165.418 448.934 170.295V171.515C448.934 176.391 445.016 180.31 440.139 180.31Z" fill="#522A7A"></path>
<path d="M497.095 180.31H467.572C462.695 180.31 458.776 176.391 458.776 171.515V170.295C458.776 165.418 462.695 161.5 467.572 161.5H497.095C501.972 161.5 505.891 165.418 505.891 170.295V171.515C505.891 176.391 501.972 180.31 497.095 180.31Z" fill="#522A7A"></path>
<path d="M554.134 180.31H524.612C519.735 180.31 515.816 176.391 515.816 171.515V170.295C515.816 165.418 519.735 161.5 524.612 161.5H554.134C559.011 161.5 562.93 165.418 562.93 170.295V171.515C562.93 176.391 558.924 180.31 554.134 180.31Z" fill="#522A7A"></path>
<path d="M313.904 143.472H231.091C226.815 143.472 223.269 140.03 223.269 135.649V82.4571C223.269 78.1809 226.711 74.6348 231.091 74.6348H313.904C318.18 74.6348 321.726 78.0766 321.726 82.4571V135.649C321.622 139.925 318.18 143.472 313.904 143.472Z" fill="#B5CDFB"></path>
<path d="M313.904 143.472H231.091C226.815 143.472 223.269 140.03 223.269 135.649V82.4571C223.269 78.1809 226.711 74.6348 231.091 74.6348H313.904C318.18 74.6348 321.726 78.0766 321.726 82.4571V135.649C321.622 139.925 318.18 143.472 313.904 143.472Z" fill="black" fill-opacity="0.5"></path>
<path d="M313.904 140.868H231.091C226.815 140.868 223.269 137.426 223.269 133.046V79.8536C223.269 75.5774 226.711 72.0312 231.091 72.0312H313.904C318.18 72.0312 321.726 75.4731 321.726 79.8536V133.046C321.622 137.322 318.18 140.868 313.904 140.868Z" fill="#B5CDFB"></path>
<path fill-rule="evenodd" clip-rule="evenodd" d="M277.504 93.207H232.551V91.3223H277.504V93.207Z" fill="#522A7A"></path>
<path fill-rule="evenodd" clip-rule="evenodd" d="M284.074 97.7964H232.551V95.9116H284.074V97.7964Z" fill="#522A7A"></path>
<path fill-rule="evenodd" clip-rule="evenodd" d="M284.074 102.385H232.551V100.5H284.074V102.385Z" fill="#522A7A"></path>
<path fill-rule="evenodd" clip-rule="evenodd" d="M312.444 93.207H293.253V91.3223H312.444V93.207Z" fill="#522A7A"></path>
<path fill-rule="evenodd" clip-rule="evenodd" d="M312.444 97.7964H293.253V95.9116H312.444V97.7964Z" fill="#522A7A"></path>
<path fill-rule="evenodd" clip-rule="evenodd" d="M312.444 102.385H293.253V100.5H312.444V102.385Z" fill="#522A7A"></path>
<path d="M312.443 112.185H232.551V115.009H312.443V112.185Z" fill="#522A7A"></path>
<path d="M265.614 132.845H237.244C234.637 132.845 232.551 130.759 232.551 128.152C232.551 125.544 234.637 123.458 237.244 123.458H265.614C268.221 123.458 270.307 125.544 270.307 128.152C270.307 130.655 268.221 132.845 265.614 132.845Z" fill="#522A7A"></path>
<path d="M436.869 143.472H354.057C349.78 143.472 346.234 140.03 346.234 135.649V82.4571C346.234 78.1809 349.676 74.6348 354.057 74.6348H436.869C441.146 74.6348 444.692 78.0766 444.692 82.4571V135.649C444.692 139.925 441.146 143.472 436.869 143.472Z" fill="#B5CDFB"></path>
<path d="M436.869 143.472H354.057C349.78 143.472 346.234 140.03 346.234 135.649V82.4571C346.234 78.1809 349.676 74.6348 354.057 74.6348H436.869C441.146 74.6348 444.692 78.0766 444.692 82.4571V135.649C444.692 139.925 441.146 143.472 436.869 143.472Z" fill="black" fill-opacity="0.5"></path>
<path d="M436.869 140.868H354.057C349.78 140.868 346.234 137.426 346.234 133.045V79.8531C346.234 75.5769 349.676 72.0308 354.057 72.0308H436.869C441.146 72.0308 444.692 75.4726 444.692 79.8531V133.045C444.692 137.321 441.146 140.868 436.869 140.868Z" fill="#B5CDFB"></path>
<path fill-rule="evenodd" clip-rule="evenodd" d="M354.057 140.646H436.869C441.023 140.646 444.47 137.199 444.47 133.045V79.8531C444.47 75.5971 441.025 72.2527 436.869 72.2527H354.057C349.801 72.2527 346.456 75.6976 346.456 79.8531V133.045C346.456 137.301 349.901 140.646 354.057 140.646ZM354.057 140.868H436.869C441.146 140.868 444.692 137.321 444.692 133.045V79.8531C444.692 75.4726 441.146 72.0308 436.869 72.0308H354.057C349.676 72.0308 346.234 75.5769 346.234 79.8531V133.045C346.234 137.426 349.78 140.868 354.057 140.868Z" fill="#1E788C"></path>
<path fill-rule="evenodd" clip-rule="evenodd" d="M400.574 93.207H355.517V91.3223H400.574V93.207Z" fill="#522A7A"></path>
<path fill-rule="evenodd" clip-rule="evenodd" d="M407.04 97.7964H355.517V95.9116H407.04V97.7964Z" fill="#522A7A"></path>
<path d="M388.579 132.845H360.21C357.603 132.845 355.517 130.759 355.517 128.152C355.517 125.544 357.603 123.458 360.21 123.458H388.579C391.187 123.458 393.273 125.544 393.273 128.152C393.273 130.655 391.187 132.845 388.579 132.845Z" fill="#522A7A"></path>
<path d="M559.839 143.472H477.026C472.75 143.472 469.204 140.03 469.204 135.649V82.4571C469.204 78.1809 472.646 74.6348 477.026 74.6348H559.839C564.115 74.6348 567.661 78.0766 567.661 82.4571V135.649C567.661 139.925 564.115 143.472 559.839 143.472Z" fill="#B5CDFB"></path>
<path d="M559.839 143.472H477.026C472.75 143.472 469.204 140.03 469.204 135.649V82.4571C469.204 78.1809 472.646 74.6348 477.026 74.6348H559.839C564.115 74.6348 567.661 78.0766 567.661 82.4571V135.649C567.661 139.925 564.115 143.472 559.839 143.472Z" fill="black" fill-opacity="0.5"></path>
<path d="M559.839 140.868H477.026C472.75 140.868 469.204 137.426 469.204 133.045V79.8531C469.204 75.5769 472.646 72.0308 477.026 72.0308H559.839C564.115 72.0308 567.661 75.4726 567.661 79.8531V133.045C567.661 137.321 564.115 140.868 559.839 140.868Z" fill="#B5CDFB"></path>
<path fill-rule="evenodd" clip-rule="evenodd" d="M477.026 140.646H559.839C563.993 140.646 567.439 137.199 567.439 133.045V79.8531C567.439 75.5971 563.995 72.2527 559.839 72.2527H477.026C472.77 72.2527 469.426 75.6976 469.426 79.8531V133.045C469.426 137.301 472.871 140.646 477.026 140.646ZM477.026 140.868H559.839C564.115 140.868 567.661 137.321 567.661 133.045V79.8531C567.661 75.4726 564.115 72.0308 559.839 72.0308H477.026C472.646 72.0308 469.204 75.5769 469.204 79.8531V133.045C469.204 137.426 472.75 140.868 477.026 140.868Z" fill="#1E788C"></path>
<path d="M496.769 81.2085H478.487V85.1718H496.769V81.2085Z" fill="#522A7A"></path>
<path d="M373.8 81.2095H355.517V85.1728H373.8V81.2095Z" fill="#522A7A"></path>
<path d="M250.834 81.2085H232.551V85.1718H250.834V81.2085Z" fill="#522A7A"></path>
<path fill-rule="evenodd" clip-rule="evenodd" d="M523.543 93.207H478.487V91.3223H523.543V93.207Z" fill="#522A7A"></path>
<path fill-rule="evenodd" clip-rule="evenodd" d="M530.01 97.7964H478.487V95.9116H530.01V97.7964Z" fill="#522A7A"></path>
<path fill-rule="evenodd" clip-rule="evenodd" d="M558.483 117.937C558.483 118.55 557.986 119.047 557.373 119.047H479.596C478.983 119.047 478.487 118.55 478.487 117.937V103.314C478.487 102.702 478.983 102.205 479.596 102.205H557.373C557.986 102.205 558.483 102.702 558.483 103.314V117.937Z" fill="#522A7A"></path>
<path d="M511.549 132.845H483.18C480.573 132.845 478.487 130.759 478.487 128.152C478.487 125.544 480.573 123.458 483.18 123.458H511.549C514.157 123.458 516.242 125.544 516.242 128.152C516.242 130.655 514.157 132.845 511.549 132.845Z" fill="#522A7A"></path>
<path fill-rule="evenodd" clip-rule="evenodd" d="M380.114 105.831H360.923V103.946H380.114V105.831Z" fill="#522A7A"></path>
<path fill-rule="evenodd" clip-rule="evenodd" d="M405.06 105.831H385.869V103.946H405.06V105.831Z" fill="#522A7A"></path>
<path fill-rule="evenodd" clip-rule="evenodd" d="M430.003 105.831H410.812V103.946H430.003V105.831Z" fill="#522A7A"></path>
<path fill-rule="evenodd" clip-rule="evenodd" d="M380.114 110.42H360.923V108.536H380.114V110.42Z" fill="#522A7A"></path>
<path fill-rule="evenodd" clip-rule="evenodd" d="M405.06 110.42H385.869V108.536H405.06V110.42Z" fill="#522A7A"></path>
<path fill-rule="evenodd" clip-rule="evenodd" d="M430.003 110.42H410.812V108.536H430.003V110.42Z" fill="#522A7A"></path>
<path fill-rule="evenodd" clip-rule="evenodd" d="M380.114 115.01H360.923V113.125H380.114V115.01Z" fill="#522A7A"></path>
<path fill-rule="evenodd" clip-rule="evenodd" d="M405.06 115.01H385.869V113.125H405.06V115.01Z" fill="#522A7A"></path>
<path fill-rule="evenodd" clip-rule="evenodd" d="M430.003 115.01H410.812V113.125H430.003V115.01Z" fill="#522A7A"></path>
<path d="M308.48 320.675H244.545C240.06 320.675 236.41 317.025 236.41 312.54V166.522C236.41 162.038 240.06 158.387 244.545 158.387H308.48C312.965 158.387 316.615 162.038 316.615 166.522V312.54C316.719 317.025 313.069 320.675 308.48 320.675Z" fill="#B5CDFB"></path>
<path d="M308.48 320.675H244.545C240.06 320.675 236.41 317.025 236.41 312.54V166.522C236.41 162.038 240.06 158.387 244.545 158.387H308.48C312.965 158.387 316.615 162.038 316.615 166.522V312.54C316.719 317.025 313.069 320.675 308.48 320.675Z" fill="black" fill-opacity="0.5"></path>
<path d="M308.48 318.071H244.545C240.06 318.071 236.41 314.42 236.41 309.935V163.918C236.41 159.433 240.06 155.783 244.545 155.783H308.48C312.965 155.783 316.615 159.433 316.615 163.918V309.935C316.719 314.42 313.069 318.071 308.48 318.071Z" fill="#B5CDFB"></path>
<path d="M296.486 244.854H242.042V253.615H296.486V244.854Z" fill="#522A7A"></path>
<path d="M285.222 297.524H242.042V306.285H285.222V297.524Z" fill="#522A7A"></path>
<path d="M303.682 275.414H242.042V291.997H303.682V275.414Z" fill="#522A7A"></path>
<path d="M302.848 232.129H250.178C246.736 232.129 244.024 229.313 244.024 225.975V170.593C244.024 167.151 246.84 164.439 250.178 164.439H302.848C306.29 164.439 309.002 167.255 309.002 170.593V225.975C309.106 229.313 306.29 232.129 302.848 232.129Z" fill="#522A7A"></path>
<path opacity="0.35" d="M197.922 81.7305H153.595V87.5712H197.922V81.7305Z" fill="#B5CDFB"></path>
<path opacity="0.35" d="M197.922 96.1221H153.595V101.963H197.922V96.1221Z" fill="#B5CDFB"></path>
<path opacity="0.35" d="M197.922 110.515H153.595V116.355H197.922V110.515Z" fill="#B5CDFB"></path>
<path opacity="0.35" d="M197.922 124.908H153.595V130.748H197.922V124.908Z" fill="#B5CDFB"></path>
<path opacity="0.35" d="M197.922 209.6H153.595V215.441H197.922V209.6Z" fill="#B5CDFB"></path>
<path opacity="0.35" d="M197.922 223.993H153.595V229.834H197.922V223.993Z" fill="#B5CDFB"></path>
<path opacity="0.35" d="M197.922 238.386H153.595V244.226H197.922V238.386Z" fill="#B5CDFB"></path>
<path opacity="0.35" d="M197.922 252.779H153.595V258.62H197.922V252.779Z" fill="#B5CDFB"></path>
<path d="M301.595 215.337C300.552 214.294 298.779 214.294 297.736 215.337L296.38 216.693L295.024 215.337C293.981 214.294 292.208 214.294 291.165 215.337C290.122 216.38 290.122 218.153 291.165 219.196L292.521 220.552L296.38 224.411L300.239 220.552L301.595 219.196C302.638 218.049 302.638 216.38 301.595 215.337Z" fill="#FCFCFC"></path>
<path d="M376.644 250.807H350.808C348.274 250.807 346.235 248.767 346.235 246.233V205.193C346.235 202.659 348.274 200.62 350.808 200.62H376.644C379.178 200.62 381.217 202.659 381.217 205.193V246.233C381.217 248.705 379.178 250.807 376.644 250.807Z" fill="#B5CDFB"></path>
<path d="M376.644 250.807H350.808C348.274 250.807 346.235 248.767 346.235 246.233V205.193C346.235 202.659 348.274 200.62 350.808 200.62H376.644C379.178 200.62 381.217 202.659 381.217 205.193V246.233C381.217 248.705 379.178 250.807 376.644 250.807Z" fill="black" fill-opacity="0.5"></path>
<path d="M376.644 249.505H350.808C348.274 249.505 346.235 247.465 346.235 244.931V203.891C346.235 201.357 348.274 199.317 350.808 199.317H376.644C379.178 199.317 381.217 201.357 381.217 203.891V244.931C381.217 247.403 379.178 249.505 376.644 249.505Z" fill="#B5CDFB"></path>
<path d="M401.197 201.566H389.186V203.347H401.197V201.566Z" fill="#522A7A"></path>
<path d="M401.197 205.531H389.186V207.313H401.197V205.531Z" fill="#522A7A"></path>
<path d="M401.197 209.496H389.186V211.278H401.197V209.496Z" fill="#522A7A"></path>
<path d="M401.197 219.553H389.186V221.335H401.197V219.553Z" fill="#522A7A"></path>
<path d="M401.197 223.519H389.186V225.301H401.197V223.519Z" fill="#522A7A"></path>
<path d="M401.197 227.484H389.186V229.266H401.197V227.484Z" fill="#522A7A"></path>
<path d="M401.197 237.541H389.186V239.322H401.197V237.541Z" fill="#522A7A"></path>
<path d="M401.197 241.507H389.186V243.289H401.197V241.507Z" fill="#522A7A"></path>
<path d="M401.197 245.472H389.186V247.254H401.197V245.472Z" fill="#522A7A"></path>
<path d="M377.202 240.851C376.584 240.233 375.533 240.233 374.915 240.851L374.111 241.655L373.308 240.851C372.69 240.233 371.639 240.233 371.021 240.851C370.403 241.469 370.403 242.52 371.021 243.138L371.824 243.942L374.111 246.228L376.398 243.942L377.202 243.138C377.82 242.52 377.82 241.531 377.202 240.851Z" fill="#FCFCFC"></path>
<path d="M552.586 586.528L612.181 405.429V399.064H672.354V405.429L730.792 586.528L727.32 588.264L719.799 586.528L712.514 563.385L710.784 557.888L701.769 529.248L699.584 522.305L689.386 489.903L687.382 483.539L676.747 449.75L674.817 443.616L664.254 410.058H648.05L656.412 443.616L657.941 449.75L666.361 483.539L667.947 489.903L676.022 522.305L677.752 529.248L684.889 557.888L686.259 563.385L692.026 586.528L689.386 588.264L682.769 586.528L641.689 423.365L601.766 586.528L596.559 589.421L590.773 586.528L594.244 570.328L595.98 563.385L604.659 532.141L606.395 525.776L614.495 492.218L616.231 485.853L624.91 451.138L627.224 443.616L635.324 410.058H620.859L609.866 443.616L607.552 451.138L596.559 485.853L594.244 492.218L583.251 525.776L580.937 532.141L571.101 563.385L569.014 569.749L563.579 586.528L558.371 588.264L552.586 586.528Z" fill="#6EE7FB"></path>
<path d="M552.586 586.528L612.181 405.429V399.064H672.354V405.429L730.792 586.528L727.32 588.264L719.799 586.528L712.514 563.385L710.784 557.888L701.769 529.248L699.584 522.305L689.386 489.903L687.382 483.539L676.747 449.75L674.817 443.616L664.254 410.058H648.05L656.412 443.616L657.941 449.75L666.361 483.539L667.947 489.903L676.022 522.305L677.752 529.248L684.889 557.888L686.259 563.385L692.026 586.528L689.386 588.264L682.769 586.528L641.689 423.365L601.766 586.528L596.559 589.421L590.773 586.528L594.244 570.328L595.98 563.385L604.659 532.141L606.395 525.776L614.495 492.218L616.231 485.853L624.91 451.138L627.224 443.616L635.324 410.058H620.859L609.866 443.616L607.552 451.138L596.559 485.853L594.244 492.218L583.251 525.776L580.937 532.141L571.101 563.385L569.014 569.749L563.579 586.528L558.371 588.264L552.586 586.528Z" fill="#B5CDFB"></path>
<path d="M635.324 410.057H620.86L622.595 405.428H637.06L635.324 410.057Z" fill="#B5CDFB"></path>
<path d="M648.05 410.057L646.896 405.428H664.254V410.057H648.05Z" fill="#B5CDFB"></path>
<path d="M627.224 443.615H609.866L607.552 451.137H624.91L627.224 443.615Z" fill="#B5CDFB"></path>
<path d="M616.231 485.853H596.559L594.244 492.217H614.495L616.231 485.853Z" fill="#B5CDFB"></path>
<path d="M606.395 525.775H583.251L580.937 532.14H604.659L606.395 525.775Z" fill="#B5CDFB"></path>
<path d="M595.98 563.384H571.101L569.014 569.748L594.244 570.327L595.98 563.384Z" fill="#B5CDFB"></path>
<path d="M674.817 443.615H656.412L657.941 449.75H676.747L674.817 443.615Z" fill="#B5CDFB"></path>
<path d="M687.382 483.538H666.361L667.947 489.903H689.386L687.382 483.538Z" fill="#B5CDFB"></path>
<path d="M699.584 522.304H676.022L677.752 529.247H701.77L699.584 522.304Z" fill="#B5CDFB"></path>
<path d="M710.784 557.887H684.889L686.259 563.384H712.514L710.784 557.887Z" fill="#B5CDFB"></path>
<path d="M635.324 410.057H620.86L622.595 405.428H637.06L635.324 410.057Z" fill="black" fill-opacity="0.2"></path>
<path d="M648.05 410.057L646.896 405.428H664.254V410.057H648.05Z" fill="black" fill-opacity="0.2"></path>
<path d="M624.91 451.137H607.552L608.264 448.823H625.622L624.91 451.137Z" fill="black" fill-opacity="0.2"></path>
<path d="M614.495 492.217H594.244L594.874 490.487H614.967L614.495 492.217Z" fill="black" fill-opacity="0.2"></path>
<path d="M604.659 532.14H580.937L581.568 530.404H605.132L604.659 532.14Z" fill="black" fill-opacity="0.2"></path>
<path d="M594.244 570.327L569.014 569.748L569.583 568.013L594.661 568.659L594.244 570.327Z" fill="black" fill-opacity="0.2"></path>
<path d="M676.747 449.75H657.941L657.509 448.014H676.201L676.747 449.75Z" fill="black" fill-opacity="0.2"></path>
<path d="M689.386 489.903H667.947L667.515 488.167H688.839L689.386 489.903Z" fill="black" fill-opacity="0.2"></path>
<path d="M701.77 529.247H677.752L677.319 527.511H701.223L701.77 529.247Z" fill="black" fill-opacity="0.2"></path>
<path d="M712.514 563.384H686.259L685.826 561.648H711.968L712.514 563.384Z" fill="black" fill-opacity="0.2"></path>
<path d="M563.579 586.528L558.372 588.263L618.545 405.428H622.595H643.201H646.896L648.05 410.057L656.412 443.615L657.941 449.75L666.361 483.538L667.947 489.903L676.022 522.304L677.752 529.247L684.889 557.887L686.259 563.384L692.026 586.528L689.386 588.263L645.061 412.793L601.766 586.528L596.559 589.421L643.201 405.428H622.595L620.86 410.057L609.866 443.615L607.552 451.137L596.559 485.853L594.244 492.217L583.251 525.775L580.937 532.14L571.101 563.384L569.014 569.748L563.579 586.528Z" fill="black" fill-opacity="0.2"></path>
<path d="M730.792 586.528L672.354 405.428H667.947L727.321 588.263L730.792 586.528Z" fill="black" fill-opacity="0.2"></path>
<path d="M565.875 292.655L567.157 289.323L563.737 285.156C563.405 285.629 561.465 286.382 560.897 286.688C560.329 286.994 557.891 288.456 557.323 288.762C556.755 289.069 554.458 291.334 554.126 291.806C553.794 292.279 552.537 294.57 552.371 294.806C552.205 295.042 551.778 296.152 551.682 296.791C551.587 297.429 551.325 298.303 551.797 298.635C552.269 298.967 552.507 298.428 552.673 298.192C552.839 297.956 552.982 297.351 553.125 296.746C553.22 296.108 553.718 295.399 553.884 295.163C554.072 294.896 554.745 293.77 555.211 293.274L555.543 292.802C555.566 292.936 555.452 293.232 555.187 293.61L553.59 295.883C553.424 296.119 553.001 297.508 552.933 298.022C552.865 298.536 552.646 299.937 552.716 300.339C552.787 300.741 552.698 301.792 553.163 301.711C553.628 301.63 553.731 301.404 553.897 301.168C554.063 300.932 554.184 299.254 554.28 298.616C554.375 297.977 554.969 296.631 555.135 296.395L556.794 294.033C556.628 294.27 555.537 296.324 555.371 296.561C555.205 296.797 554.391 298.656 554.35 299.018C554.309 299.379 553.967 301.57 554.037 301.972C554.108 302.374 553.846 303.249 554.318 303.58C554.79 303.912 555.122 303.44 555.288 303.204C555.454 302.968 555.767 300.013 555.933 299.777C556.065 299.588 556.503 298.296 556.788 297.556L558.376 294.793L556.954 297.32L556.31 300.042C556.31 300.042 555.882 301.857 555.786 302.496C555.69 303.134 555.76 303.536 555.997 303.702C556.233 303.868 556.801 303.561 557.133 303.089C557.464 302.617 557.822 301.104 557.917 300.466C558.013 299.828 558.536 298.079 558.536 298.079L559.959 295.552C559.959 295.552 561.689 293.593 561.829 294.397C561.969 295.201 561.803 295.437 561.803 295.437C561.803 295.437 560.406 296.924 560.31 297.562C560.215 298.2 560.189 299.241 560.827 299.336C561.465 299.432 563.125 297.071 563.456 296.599L564.286 295.418C564.618 294.946 565.875 292.655 565.875 292.655Z" fill="#DCA9AB"></path>
<path d="M588.084 240.819C588.084 240.819 590.222 235.245 592.121 233.693C594.02 232.141 600.594 233.247 600.296 238.36C600.296 238.36 598.587 249.866 597.536 255.088C596.485 260.31 593.492 267.836 591.55 270.14C589.609 272.444 580.071 280.957 579.586 281.533C579.1 282.109 566.512 291.203 565.893 291.469L561.946 286.567L573.468 274.998C573.468 274.998 583.757 266.528 584.595 265.067C585.432 263.606 586.34 252.943 586.34 252.943L588.084 240.819Z" fill="#DCA9AB"></path>
<path d="M563.802 351.406H431.081C428.525 351.406 426.452 349.334 426.452 346.777V301.587C426.452 299.03 428.525 296.958 431.081 296.958H563.802C566.358 296.958 568.431 299.03 568.431 301.587V346.777C568.431 349.334 566.358 351.406 563.802 351.406Z" fill="#B5CDFB"></path>
<path d="M563.802 351.406H431.081C428.525 351.406 426.452 349.334 426.452 346.777V301.587C426.452 299.03 428.525 296.958 431.081 296.958H563.802C566.358 296.958 568.431 299.03 568.431 301.587V346.777C568.431 349.334 566.358 351.406 563.802 351.406Z" fill="black" fill-opacity="0.5"></path>
<path d="M563.802 350.027H431.081C428.525 350.027 426.452 347.955 426.452 345.398V300.208C426.452 297.652 428.525 295.579 431.081 295.579H563.802C566.358 295.579 568.431 297.652 568.431 300.208V345.398C568.431 347.955 566.358 350.027 563.802 350.027Z" fill="#522A7A"></path>
<path d="M484.819 336.838V310.174C484.819 308.564 486.566 307.561 487.956 308.374L509.312 320.866C510.875 321.635 510.685 325.772 509.286 326.563L487.93 338.652C486.541 339.438 484.819 338.434 484.819 336.838Z" fill="#B5CDFB"></path>
<path d="M484.819 336.838V310.174C484.819 308.564 486.566 307.561 487.956 308.374L509.312 320.866C510.875 321.635 510.685 325.772 509.286 326.563L487.93 338.652C486.541 339.438 484.819 338.434 484.819 336.838Z" fill="black" fill-opacity="0.3"></path>
<path d="M484.819 334.753V310.174C484.819 308.564 486.566 307.561 487.956 308.374L509.312 320.866C510.699 321.677 510.685 323.687 509.286 324.479L487.93 336.567C486.541 337.354 484.819 336.35 484.819 334.753Z" fill="#B5CDFB"></path>
<path d="M443.65 340.285C443.803 340.171 443.95 340.134 444.072 340.256C444.213 340.396 444.289 340.522 444.33 340.641C444.33 340.641 444.043 341.326 443.65 341.438C443.454 341.494 443.309 341.532 443.129 341.438C442.996 341.369 442.869 341.158 442.869 341.158C443.065 340.963 443.367 340.494 443.65 340.285Z" fill="#FF4F57"></path>
<path d="M440.217 342.823C440.431 342.412 440.69 342.06 441.065 342.06C441.3 342.06 441.425 342.152 441.49 342.282C441.49 342.282 441.279 342.917 440.945 343.115C440.795 343.204 440.692 343.305 440.523 343.263C440.32 343.212 440.217 342.823 440.217 342.823Z" fill="#FF4F57"></path>
<path d="M445.275 340.129C445.5 339.768 445.77 339.354 446.177 339.354C446.509 339.354 446.658 339.537 446.725 339.751C446.725 339.751 446.438 340.514 446.011 340.641C445.798 340.704 445.618 340.776 445.441 340.641C445.274 340.514 445.275 340.129 445.275 340.129Z" fill="#FF4F57"></path>
<path d="M447.092 340.641C447.288 340.384 447.485 340.256 447.681 340.256C447.868 340.256 448.056 340.489 448.17 340.81C448.17 340.81 448.037 341.525 447.681 341.699C447.473 341.8 447.304 341.856 447.092 341.764C446.929 341.693 446.844 341.602 446.777 341.438C446.649 341.129 447.092 340.641 447.092 340.641Z" fill="#FF4F57"></path>
<path d="M548.069 340.285C547.916 340.171 547.768 340.134 547.646 340.256C547.505 340.396 547.429 340.522 547.389 340.641C547.389 340.641 547.675 341.326 548.069 341.438C548.264 341.494 548.409 341.532 548.59 341.438C548.722 341.369 548.849 341.158 548.849 341.158C548.654 340.963 548.352 340.494 548.069 340.285Z" fill="#FF4F57"></path>
<path d="M551.501 342.823C551.287 342.412 551.029 342.06 550.653 342.06C550.418 342.06 550.293 342.152 550.228 342.282C550.228 342.282 550.439 342.917 550.774 343.115C550.924 343.204 551.026 343.305 551.195 343.263C551.399 343.212 551.501 342.823 551.501 342.823Z" fill="#FF4F57"></path>
<path d="M546.443 340.129C546.218 339.768 545.949 339.354 545.541 339.354C545.209 339.354 545.06 339.537 544.994 339.751C544.994 339.751 545.28 340.514 545.707 340.641C545.921 340.704 546.1 340.776 546.277 340.641C546.445 340.514 546.443 340.129 546.443 340.129Z" fill="#FF4F57"></path>
<path d="M544.627 340.641C544.43 340.384 544.234 340.256 544.037 340.256C543.85 340.256 543.663 340.489 543.548 340.81C543.548 340.81 543.681 341.525 544.037 341.699C544.245 341.8 544.415 341.856 544.627 341.764C544.789 341.693 544.874 341.602 544.942 341.438C545.07 341.129 544.627 340.641 544.627 340.641Z" fill="#FF4F57"></path>
<path d="M494.685 580.696C494.685 580.696 496.016 583.35 495.719 585.521C495.545 586.786 494.858 587.358 494.685 588.622C494.557 589.556 494.685 589.656 494.685 589.656C494.685 589.656 493.306 590 491.583 590C489.86 590 488.137 589.656 488.137 589.656C488.137 589.656 488.409 589.524 488.137 588.622C487.937 587.959 488.25 588.109 487.793 587.588C486.955 587.309 487.62 587.244 486.414 587.244H484.002C481.934 587.244 480.581 581.377 482.623 580.696C484.691 580.007 486.931 581.73 486.931 581.73C486.931 581.73 488.482 581.73 491.239 581.73C493.995 581.73 494.685 580.696 494.685 580.696Z" fill="black" fill-opacity="0.2"></path>
<path d="M485.725 441.475H498.131L511.891 440.441C511.891 440.441 520.358 452.691 522.942 463.53C526.798 479.701 522.319 494.174 523.698 510.741C524.815 524.169 525.965 519.689 526.733 533.141C527.641 549.036 527.078 577.94 525.699 579.516C524.321 581.092 515.879 580.894 515.017 579.516C514.154 578.137 512.864 549.409 511.891 534.519C511.167 523.438 509.053 523.106 507.435 512.12C505.902 501.712 503.156 487.531 501.232 477.188C501.232 477.188 497.305 497.643 498.131 512.12C498.626 520.8 498.131 528.926 498.131 537.621C498.131 547.27 497.206 551.934 496.063 562.088C495.251 569.307 496.284 578.629 494.967 580.697C493.651 582.764 484.341 582.764 484.341 579.516C484.341 576.267 482.865 552.467 482.279 536.587C481.848 524.914 481.111 523.787 480.556 512.12C479.783 495.895 474.253 483.883 476.076 467.743C477.403 455.994 485.725 441.475 485.725 441.475Z" fill="#522A7A"></path>
<path d="M495.029 396.331C489.515 396.331 488.137 394.953 488.137 394.953L484.002 398.054L478.832 401.5C478.832 401.5 478.595 404.946 478.832 410.115C479.038 414.595 477.454 418.041 477.454 418.041C477.454 418.041 480.03 422.305 481.589 427.001C483.122 431.617 483.08 433.511 482.968 438.373C482.819 444.769 475.042 462.496 475.042 464.908C475.042 467.32 492.784 470.042 500.887 469.388C509.124 468.723 521.564 464.219 522.942 462.496C524.321 460.773 512.497 442.24 511.225 435.616C510.439 431.519 510.562 429.052 511.225 424.933C511.855 421.026 514.672 415.974 514.672 415.974C514.672 415.974 513.638 415.284 513.293 409.771C513.118 406.966 513.638 399.432 513.638 399.432L508.469 397.02L502.955 394.608C502.955 394.608 499.509 396.331 495.029 396.331Z" fill="#B5CDFB"></path>
<path d="M475.042 401.499C475.042 401.499 477.004 401.89 478.044 406.059C479.085 410.228 477.523 413.355 473.875 412.833C471.811 412.539 465.048 408.047 461.258 404.945C457.467 401.844 449.196 395.296 447.818 392.539C446.439 389.782 444.691 377.918 444.691 376.354C444.691 375.584 443.128 360.889 443.128 360.199L448.885 359.112C448.885 359.112 452.288 371.86 452.659 373.586C453.03 375.312 454.365 386.681 455.399 388.059C456.433 389.438 466.082 395.985 466.082 395.985L475.042 401.499Z" fill="#F7BBBE"></path>
<path d="M517.129 400.326C517.129 400.326 513.481 402.482 513.481 405.538C513.481 408.593 514.54 409.026 516.608 410.749C517.908 411.833 526.671 407.004 530.461 403.903C534.252 400.801 542.523 395.296 543.901 392.539C545.28 389.782 547.028 377.918 547.028 376.354C547.028 375.584 548.591 360.889 548.591 360.199L542.834 359.112C542.834 359.112 539.431 371.86 539.06 373.586C538.689 375.312 537.354 386.681 536.32 388.059C535.286 389.438 525.637 394.943 525.637 394.943L517.129 400.326Z" fill="#F7BBBE"></path>
<path d="M448.861 359.678L449.486 355.593C449.486 355.593 449.786 353.789 449.786 353.187L447.08 351.684C446.779 351.985 446.178 349.579 446.178 349.579L446.478 346.571C446.478 346.571 447.08 344.767 447.38 344.166C447.681 343.564 448.283 342.061 448.283 341.459C448.283 341.232 448.24 341.005 448.17 340.81C448.056 340.489 447.868 340.256 447.681 340.256C447.485 340.256 447.288 340.385 447.092 340.641C446.987 340.778 446.883 340.95 446.779 341.158C446.478 341.76 445.756 343.564 445.756 343.564L444.674 346.271L444.373 349.278L444.674 345.97C444.874 345.168 445.275 343.805 445.275 343.564C445.275 343.263 446.779 340.557 446.779 340.256C446.779 340.121 446.779 339.926 446.725 339.752C446.658 339.537 446.509 339.354 446.178 339.354C445.77 339.354 445.5 339.768 445.275 340.129C445.168 340.301 445.071 340.46 444.975 340.557C444.674 340.858 443.653 342.931 443.471 343.263C443.289 343.596 442.87 345.669 442.87 345.97C442.87 346.271 442.569 348.677 442.569 348.977C442.569 349.278 442.569 348.977 442.569 348.677L442.569 345.97C442.569 345.669 442.87 344.166 443.17 343.564C443.471 342.963 444.373 341.459 444.373 341.158C444.373 340.979 444.39 340.817 444.33 340.641C444.289 340.522 444.213 340.397 444.072 340.256C443.95 340.134 443.803 340.172 443.65 340.285C443.367 340.495 443.065 340.963 442.87 341.158C442.569 341.459 441.917 342.784 441.667 343.263C441.416 343.743 440.945 345.181 440.945 345.481V348.376C440.945 348.857 440.865 349.178 440.764 349.278V348.677C440.664 347.975 440.764 346.611 440.764 346.271C440.764 345.97 440.764 345.068 441.065 344.466L441.065 344.466C441.306 343.865 441.546 343.263 441.546 342.963C441.546 342.78 441.591 342.485 441.49 342.282C441.425 342.152 441.3 342.061 441.065 342.061C440.69 342.061 440.431 342.412 440.217 342.823C440.088 343.07 439.975 343.338 439.862 343.564C439.561 344.166 439.261 345.369 439.261 345.669C439.261 345.97 438.96 348.677 438.96 349.278C438.96 349.879 439.561 353.187 439.862 353.789C440.163 354.39 441.366 357.097 441.667 357.698C441.967 358.3 443.233 360.119 443.233 360.72L448.861 359.678Z" fill="#F7BBBE"></path>
<path d="M542.858 359.678L542.233 355.593C542.233 355.593 541.932 353.789 541.932 353.187L544.639 351.684C544.94 351.985 545.541 349.579 545.541 349.579L545.241 346.571C545.241 346.571 544.639 344.767 544.338 344.166C544.038 343.564 543.436 342.061 543.436 341.459C543.436 341.232 543.479 341.005 543.548 340.81C543.663 340.489 543.85 340.256 544.038 340.256C544.234 340.256 544.431 340.385 544.627 340.641C544.731 340.778 544.836 340.95 544.94 341.158C545.241 341.76 545.962 343.564 545.962 343.564L547.045 346.271L547.346 349.278L547.045 345.97C546.844 345.168 546.443 343.805 546.443 343.564C546.443 343.263 544.94 340.557 544.94 340.256C544.94 340.121 544.94 339.926 544.994 339.752C545.061 339.537 545.209 339.354 545.541 339.354C545.949 339.354 546.218 339.768 546.443 340.129C546.55 340.301 546.647 340.46 546.744 340.557C547.045 340.858 548.066 342.931 548.248 343.263C548.429 343.596 548.849 345.669 548.849 345.97C548.849 346.271 549.15 348.677 549.15 348.977C549.15 349.278 549.15 348.977 549.15 348.677L549.15 345.97C549.15 345.669 548.849 344.166 548.549 343.564C548.248 342.963 547.346 341.459 547.346 341.158C547.346 340.979 547.329 340.817 547.389 340.641C547.43 340.522 547.506 340.397 547.646 340.256C547.768 340.134 547.916 340.172 548.069 340.285C548.352 340.495 548.654 340.963 548.849 341.158C549.15 341.459 549.802 342.784 550.052 343.263C550.302 343.743 550.774 345.181 550.774 345.481V348.376C550.774 348.857 550.854 349.178 550.954 349.278V348.677C551.055 347.975 550.954 346.611 550.954 346.271C550.954 345.97 550.954 345.068 550.654 344.466L550.654 344.466C550.413 343.865 550.172 343.263 550.172 342.963C550.172 342.78 550.128 342.485 550.229 342.282C550.294 342.152 550.419 342.061 550.654 342.061C551.029 342.061 551.288 342.412 551.502 342.823C551.631 343.07 551.744 343.338 551.857 343.564C552.157 344.166 552.458 345.369 552.458 345.669C552.458 345.97 552.759 348.677 552.759 349.278C552.759 349.879 552.157 353.187 551.857 353.789C551.556 354.39 550.353 357.097 550.052 357.698C549.751 358.3 548.486 360.119 548.486 360.72L542.858 359.678Z" fill="#F7BBBE"></path>
<path d="M495.374 360.491C492.723 360.517 490.109 361.96 487.792 363.247C484.428 365.117 482.968 363.937 481.245 369.106C479.522 374.275 482.279 381.856 482.279 381.856C482.279 381.856 483.657 387.714 482.279 390.816C480.9 393.917 483.658 401.499 481.245 403.911C478.832 406.323 478.488 415.973 481.245 418.385C484.002 420.797 487.103 433.547 497.441 433.547C507.78 433.547 510.881 424.931 509.847 420.107C508.813 415.283 502.266 407.357 505.712 403.911C509.158 400.465 506.056 390.126 504.678 387.714C503.3 385.302 505.889 377.067 504.678 371.518C503.531 366.258 500.757 360.436 495.374 360.491Z" fill="black"></path>
<path d="M512.605 402.534C513.377 399.832 513.638 398.743 515.017 397.709C516.395 396.675 517.429 397.091 519.841 396.331C523.287 395.297 526.505 393.42 527.078 393.229C528.112 392.884 534.66 402.189 533.97 403.567C533.281 404.946 524.183 409.012 519.497 412.527C516.74 414.595 514.672 415.973 514.672 415.973C514.672 415.973 512.892 414.588 512.26 411.493C511.724 408.867 511.915 404.946 512.605 402.534Z" fill="#B5CDFB"></path>
<path d="M479.59 404.395C478.967 401.655 478.766 400.553 477.446 399.445C476.126 398.338 475.071 398.696 472.704 397.804C469.32 396.583 466.211 394.532 465.649 394.31C464.636 393.909 457.587 402.84 458.199 404.254C458.812 405.668 467.454 410.484 471.941 414.251C474.58 416.467 477.455 418.042 477.455 418.042C477.455 418.042 478.641 416.415 479.442 413.36C480.121 410.767 480.145 406.842 479.59 404.395Z" fill="#B5CDFB"></path>
<path d="M494.685 580.696C494.685 580.696 496.017 583.35 495.719 585.521C495.545 586.786 494.859 587.358 494.685 588.622C494.557 589.556 494.685 589.656 494.685 589.656C494.685 589.656 493.307 590 491.584 590C489.861 590 488.137 589.656 488.137 589.656C488.137 589.656 488.41 589.524 488.137 588.622C487.937 587.959 488.25 588.109 487.793 587.588C486.956 587.309 487.621 587.244 486.415 587.244H484.002C481.935 587.244 480.581 581.377 482.624 580.696C484.692 580.007 486.931 581.73 486.931 581.73C486.931 581.73 488.482 581.73 491.239 581.73C493.996 581.73 494.685 580.696 494.685 580.696Z" fill="#522A7A"></path>
<path d="M516.439 579.083C516.439 579.083 515.107 581.738 515.405 583.908C515.579 585.173 516.265 585.745 516.439 587.01C516.567 587.943 516.439 588.043 516.439 588.043C516.439 588.043 517.817 588.388 519.54 588.388C521.263 588.388 522.987 588.043 522.987 588.043C522.987 588.043 522.714 587.911 522.987 587.01C523.187 586.346 522.874 586.496 523.331 585.975C525.148 585.37 524.322 587.134 527.768 586.554C531.214 585.975 530.155 581.032 528.112 580.352C526.044 579.663 524.193 580.117 524.193 580.117C524.193 580.117 522.642 580.117 519.885 580.117C517.128 580.117 516.439 579.083 516.439 579.083Z" fill="black" fill-opacity="0.2"></path>
<path d="M449.487 355.595L448.861 359.157L443.171 360.72C443.171 360.119 441.968 358.302 441.667 357.7C441.366 357.099 440.163 354.392 439.863 353.79C439.562 353.189 438.96 349.88 438.96 349.279C438.96 348.677 439.261 345.971 439.261 345.67C439.261 345.369 439.562 344.166 439.863 343.565C440.163 342.963 440.464 342.061 441.066 342.061C441.667 342.061 441.547 342.662 441.547 342.963C441.547 343.264 441.306 343.865 441.066 344.467L441.066 344.467C440.765 345.068 440.765 345.971 440.765 346.271C440.765 346.612 440.665 347.976 440.765 348.677V349.279C440.865 349.179 440.945 348.858 440.945 348.377V345.482C440.945 345.181 441.417 343.743 441.667 343.264C441.917 342.785 442.569 341.459 442.87 341.159C443.171 340.858 443.726 339.909 444.073 340.256C444.421 340.604 444.374 340.858 444.374 341.159C444.374 341.459 443.472 342.963 443.171 343.565C442.87 344.166 442.569 345.67 442.569 345.971L442.569 348.677C442.569 348.978 442.569 349.279 442.569 348.978C442.569 348.677 442.87 346.271 442.87 345.971C442.87 345.67 443.29 343.597 443.472 343.264C443.653 342.931 444.675 340.858 444.976 340.557C445.276 340.256 445.577 339.354 446.179 339.354C446.78 339.354 446.78 339.956 446.78 340.256C446.78 340.557 445.276 343.264 445.276 343.565C445.276 343.805 444.875 345.169 444.675 345.971L444.374 349.279L444.675 346.271L445.757 343.565C445.757 343.565 446.479 341.76 446.78 341.159C447.081 340.557 447.382 340.256 447.682 340.256C447.983 340.256 448.284 340.858 448.284 341.459C448.284 342.061 447.682 343.565 447.382 344.166C447.081 344.768 446.479 346.572 446.479 346.572L446.179 349.58C446.179 349.58 446.78 351.986 447.081 351.685C447.382 351.384 447.682 350.181 447.682 350.181C447.682 350.181 447.382 348.076 447.682 347.474C447.983 346.873 448.585 345.971 449.186 346.271C449.788 346.572 449.788 349.58 449.788 350.181V353.189C449.788 353.79 449.487 355.595 449.487 355.595Z" fill="#F7BBBE"></path>
<path d="M542.233 355.595L542.858 359.157L548.548 360.72C548.548 360.119 549.751 358.302 550.052 357.7C550.353 357.099 551.556 354.392 551.857 353.79C552.157 353.189 552.759 349.88 552.759 349.279C552.759 348.677 552.458 345.971 552.458 345.67C552.458 345.369 552.157 344.166 551.857 343.565C551.556 342.963 551.255 342.061 550.654 342.061C550.052 342.061 550.172 342.662 550.172 342.963C550.172 343.264 550.413 343.865 550.654 344.467L550.654 344.467C550.954 345.068 550.954 345.971 550.954 346.271C550.954 346.612 551.055 347.976 550.954 348.677V349.279C550.854 349.179 550.774 348.858 550.774 348.377V345.482C550.774 345.181 550.302 343.743 550.052 343.264C549.802 342.785 549.15 341.459 548.849 341.159C548.548 340.858 547.994 339.909 547.646 340.256C547.298 340.604 547.345 340.858 547.345 341.159C547.345 341.459 548.248 342.963 548.548 343.565C548.849 344.166 549.15 345.67 549.15 345.971L549.15 348.677C549.15 348.978 549.15 349.279 549.15 348.978C549.15 348.677 548.849 346.271 548.849 345.971C548.849 345.67 548.429 343.597 548.248 343.264C548.066 342.931 547.045 340.858 546.744 340.557C546.443 340.256 546.142 339.354 545.541 339.354C544.939 339.354 544.939 339.956 544.939 340.256C544.939 340.557 546.443 343.264 546.443 343.565C546.443 343.805 546.844 345.169 547.045 345.971L547.345 349.279L547.045 346.271L545.962 343.565C545.962 343.565 545.24 341.76 544.939 341.159C544.639 340.557 544.338 340.256 544.037 340.256C543.736 340.256 543.436 340.858 543.436 341.459C543.436 342.061 544.037 343.565 544.338 344.166C544.639 344.768 545.24 346.572 545.24 346.572L545.541 349.58C545.541 349.58 544.939 351.986 544.639 351.685C544.338 351.384 544.037 350.181 544.037 350.181C544.037 350.181 544.338 348.076 544.037 347.474C543.736 346.873 543.135 345.971 542.533 346.271C541.932 346.572 541.932 349.58 541.932 350.181V353.189C541.932 353.79 542.233 355.595 542.233 355.595Z" fill="#F7BBBE"></path>
<path d="M516.439 579.083C516.439 579.083 515.107 581.738 515.405 583.908C515.579 585.173 516.265 585.745 516.439 587.01C516.567 587.943 516.439 588.043 516.439 588.043C516.439 588.043 517.817 588.388 519.54 588.388C521.263 588.388 522.987 588.043 522.987 588.043C522.987 588.043 522.714 587.911 522.987 587.01C523.187 586.346 522.874 586.496 523.331 585.975C525.148 585.37 524.322 587.134 527.768 586.554C531.214 585.975 530.155 581.032 528.112 580.352C526.044 579.663 524.193 580.117 524.193 580.117C524.193 580.117 522.642 580.117 519.885 580.117C517.128 580.117 516.439 579.083 516.439 579.083Z" fill="#522A7A"></path>
<path d="M589.46 249.318C589.096 244.617 587.399 236.311 586.654 233.868C586.654 233.868 591.824 222.459 595.995 221.079C600.166 219.698 602.945 221.093 609.658 226.629C616.371 232.165 621.438 244.8 626.067 249.318C630.384 253.533 640.238 262.152 641.545 263.293C641.641 263.354 641.689 263.419 641.689 263.419C641.689 263.419 641.639 263.375 641.545 263.293C641.219 263.087 640.331 262.922 638.796 265.409C636.805 268.633 631.852 271.194 628.959 273.509C626.067 275.823 620.281 275.245 620.281 275.245C620.281 275.245 619.326 272.715 614.495 269.459C610.583 266.822 606.484 264.423 602.395 263.339C598.306 262.256 596.397 261.996 593.922 260.188C591.446 258.38 589.824 254.02 589.46 249.318Z" fill="#E1A7AA"></path>
<path d="M641.565 263.081L633.163 266.855C633.163 266.855 634.875 273.325 634.091 284.21C634.387 293.927 631.555 292.111 630.933 299.341C630.311 306.57 630.878 309.086 630.648 316.796C630.418 324.506 634.759 335.424 634.885 336.952L635.309 342.044C635.309 342.044 638.276 353.077 639.208 358.126C640.14 363.176 642.551 372.497 642.933 377.078C643.314 381.66 640.573 390.386 640.573 390.386C640.573 390.386 636.621 391.171 634.886 393.22C633.151 395.27 634.15 395.974 636.425 396.81C638.7 397.646 641.02 397.602 642.933 396.782C644.845 395.962 644.756 394.069 648.788 393.22C652.82 392.371 655.712 390.08 655.452 387.026C655.193 383.971 652.331 383.12 651.642 381.129C650.953 379.137 650.987 375.921 650.987 375.921C650.987 375.921 652.53 364.197 651.642 353.504C650.753 342.811 649.141 341.92 648.718 336.828C648.295 331.736 649.229 330.633 648.085 323.038C646.941 315.442 647.546 316.417 647.581 304.622C647.616 292.827 651.403 288.924 649.581 279.334C647.759 269.744 641.565 263.081 641.565 263.081Z" fill="#C69A9C"></path>
<path d="M641.565 263.08L633.163 266.854C633.163 266.854 634.875 273.324 634.091 284.209C634.387 293.925 631.555 292.11 630.933 299.339C630.311 306.569 630.362 308.585 630.648 316.795C630.933 325.004 633.036 337.363 633.163 338.89C633.163 338.89 636.128 354.092 637.06 359.141C637.992 364.191 638.796 372.449 638.796 375.342C638.796 378.235 639.374 381.128 639.374 382.285C639.374 383.442 651.642 383.441 651.642 381.127L651.642 375.342C651.642 375.342 652.53 364.196 651.642 353.503C650.754 342.81 650.791 342.042 650.368 336.951C649.945 331.859 649.223 327.087 648.718 322.69C648.214 318.293 648.683 315.97 648.718 304.175C648.753 292.38 651.403 288.923 649.581 279.333C647.759 269.743 641.565 263.08 641.565 263.08Z" fill="#8D3BF5"></path>
<path d="M641.11 263.673L633.163 266.854C633.163 266.854 634.875 273.324 634.091 284.209C634.387 293.925 631.555 292.11 630.933 299.339C630.311 306.569 630.362 308.586 630.648 316.795C630.933 325.004 633.036 337.363 633.163 338.891C633.163 338.891 636.128 354.092 637.06 359.141C637.992 364.191 638.796 372.449 638.796 375.342C638.796 378.235 639.374 381.128 639.374 382.285C639.374 383.442 651.642 383.442 651.642 381.127L651.642 375.342C651.642 375.342 652.53 364.196 651.642 353.503C650.754 342.81 650.791 342.043 650.368 336.951C649.945 331.859 649.223 327.087 648.718 322.69C648.214 318.293 648.683 315.97 648.718 304.175C648.753 292.38 651.403 288.923 649.581 279.333C647.759 269.743 641.11 263.673 641.11 263.673Z" fill="#7838e0"></path>
<path d="M641.11 263.673L633.163 266.854C633.163 266.854 634.875 273.324 634.091 284.208C634.387 293.925 631.555 292.109 630.933 299.339C630.31 306.568 630.362 308.585 630.647 316.794C630.933 325.004 633.036 337.363 633.163 338.89C633.163 338.89 636.128 354.091 637.06 359.141C637.992 364.191 638.796 372.448 638.796 375.341C638.796 378.234 639.374 381.128 639.374 382.285C639.374 383.442 651.642 383.441 651.642 381.127L651.642 375.341C651.642 375.341 652.53 364.196 651.642 353.503C650.753 342.81 650.79 342.042 650.367 336.95C649.944 331.858 649.222 327.086 648.718 322.689C648.213 318.293 648.683 315.969 648.718 304.174C648.753 292.379 651.403 288.922 649.58 279.332C647.758 269.743 641.11 263.673 641.11 263.673Z" fill="black" fill-opacity="0.2"></path>
<path d="M616.924 280.453V271.196C616.924 265.41 625.962 263.093 629.538 263.094C632.604 263.604 635.798 264.072 639.374 263.674C639.374 263.674 640.599 264.584 641.11 275.824C641.621 287.065 636.84 302.741 635.829 309.383C634.817 316.025 633.261 327.604 633.261 333.735C633.261 339.867 635.757 350.967 634.746 359.142C633.734 367.317 633.261 377.679 633.261 380.231C633.261 382.782 636.314 383.807 637.349 385.34C638.383 386.873 638.153 388.839 637.349 390.412C636.545 391.986 632.458 392.967 628.881 394.5C625.304 396.033 622.75 397.622 618.662 398.076C614.575 398.53 612.382 395.992 613.042 393.989C613.702 391.986 618.968 392.493 620.488 391.986C622.008 391.478 624.588 383.3 624.588 380.231C624.588 377.162 623.057 363.877 622.033 356.728C621.011 349.592 621.011 343.466 621.011 338.365V338.334C621.011 333.226 618.968 332.717 618.968 326.582C618.968 320.448 618.719 307.484 618.227 304.098C618.227 304.098 616.924 293.738 616.924 280.453Z" fill="#E1A7AA"></path>
<path d="M616.231 281.031V271.195C616.231 270.037 625.962 263.092 629.538 263.093C632.604 263.603 634.641 264.071 638.217 263.673C638.217 263.673 642.914 263.426 643.425 274.666C643.936 285.907 639.229 302.74 638.217 309.382C637.206 316.024 634.746 327.551 634.746 333.683C634.746 339.814 637.493 352.123 636.482 360.298C635.47 368.473 636.23 381.387 634.746 382.863C633.261 384.339 622.612 384.339 622.034 382.863C621.455 381.387 621.012 362.133 621.012 355.091C621.012 348.048 618.968 343.997 618.968 338.89C618.968 333.782 617.967 331.717 617.967 325.582C617.967 319.448 617.416 307.56 616.924 304.174C616.924 304.174 616.231 294.315 616.231 281.031Z" fill="#7838e0"></path>
<path d="M632.087 391.815C634.13 391.269 636.685 391.815 636.685 391.815C636.685 391.815 635.228 393.859 638.805 393.859C641.36 393.859 644.365 391.741 645.447 390.794C649.535 387.217 648.164 385.114 651.23 383.07C652.585 382.167 655.903 384.389 656.176 386.648C656.404 388.527 656.548 390.794 656.176 391.815C655.378 394.01 656.176 398.898 656.176 398.898H653.035H651.23H648.129V394.881C648.129 394.881 646.568 398.898 645.447 398.898H634.641C629.532 398.898 628.698 395.304 629.021 394.335C629.532 392.802 630.043 392.362 632.087 391.815Z" fill="#7838e0"></path>
<path d="M632.087 391.815C634.13 391.269 636.685 391.815 636.685 391.815C636.685 391.815 635.228 393.859 638.805 393.859C641.36 393.859 644.365 391.741 645.447 390.794C649.535 387.217 648.164 385.114 651.23 383.07C652.585 382.167 655.903 384.389 656.176 386.648C656.404 388.527 656.548 390.794 656.176 391.815C655.378 394.01 656.176 398.898 656.176 398.898H653.035H651.23H648.129V394.881C648.129 394.881 646.568 398.898 645.447 398.898H634.641C629.532 398.898 628.698 395.304 629.021 394.335C629.532 392.802 630.043 392.362 632.087 391.815Z" fill="black" fill-opacity="0.2"></path>
<path d="M614.575 391.981C616.618 391.435 619.173 391.981 619.173 391.981C619.173 391.981 617.716 394.025 621.293 394.025C623.848 394.025 626.853 391.907 627.935 390.96C632.023 387.383 630.652 385.28 633.718 383.236C635.073 382.333 638.391 384.555 638.664 386.814C638.892 388.693 639.036 390.96 638.664 391.981C637.866 394.176 638.664 399.064 638.664 399.064H635.523H633.718H630.617V395.047C630.617 395.047 629.056 399.064 627.935 399.064H617.129C612.02 399.064 611.186 395.47 611.509 394.501C612.02 392.968 612.531 392.528 614.575 391.981Z" fill="#7838e0"></path>
<path d="M571.101 233.586C577.199 235.333 581.23 229.914 581.23 229.914C581.23 229.914 582.267 230.336 584.342 232.002C586.417 233.669 587.697 235.201 587.697 235.201C587.697 235.201 589.638 234.25 592.936 230.827C596.233 227.404 596.186 225.3 596.186 225.3L590.975 221.107C590.975 221.107 591.314 222.473 588.49 218.884C586.538 216.403 583.586 211.675 581.112 207.917C576.35 200.684 568.29 200.653 561.122 205.833C557.283 208.607 555.619 214.984 557.214 221.107C559.076 228.251 565.002 231.839 571.101 233.586Z" fill="#E1A7AA"></path>
<path d="M596.389 247.617C596.389 247.617 596.255 240.247 599.525 238.8C602.795 237.352 606.333 238.72 607.378 243.732C608.422 248.744 607.782 254.843 607.135 259.089C606.489 263.334 602.418 275.661 600.407 277.903C598.396 280.145 589.545 285.811 589.042 286.372C588.539 286.932 575.681 295.628 575.055 295.876C574.428 296.123 573.043 298.118 572.541 298.678C572.038 299.238 569.714 301.604 569.211 302.165C568.708 302.725 565.51 304.712 564.883 304.959C564.257 305.206 561.314 306.006 561.001 306.129C560.688 306.253 559.311 306.434 558.561 306.368C557.811 306.302 556.748 306.36 556.501 305.734C556.253 305.107 556.929 304.985 557.243 304.862C557.556 304.738 558.281 304.741 559.006 304.745C559.757 304.81 560.696 304.44 561.009 304.316C561.364 304.176 562.825 303.72 563.515 303.327L564.142 303.08C563.996 303.016 563.629 303.065 563.128 303.263L560.113 304.453C559.8 304.576 558.108 304.676 557.506 304.613C556.904 304.549 555.256 304.415 554.819 304.225C554.382 304.036 553.166 303.848 553.385 303.343C553.604 302.838 553.888 302.783 554.201 302.659C554.514 302.536 556.451 302.857 557.201 302.923C557.951 302.989 559.641 302.684 559.954 302.56L563.086 301.324C562.773 301.448 560.144 302.123 559.831 302.247C559.517 302.371 557.186 302.786 556.764 302.733C556.343 302.681 553.764 302.47 553.327 302.28C552.89 302.09 551.827 302.148 551.58 301.522C551.333 300.895 551.959 300.648 552.272 300.524C552.585 300.401 556.023 300.854 556.336 300.73C556.586 300.632 558.171 300.489 559.089 300.368L562.658 299.321L559.402 300.244L556.138 300.229C556.138 300.229 553.962 300.219 553.212 300.153C552.462 300.088 552.025 299.898 551.901 299.585C551.778 299.272 552.281 298.711 552.907 298.464C553.533 298.216 555.347 298.225 556.097 298.291C556.847 298.357 558.973 298.241 558.973 298.241L562.229 297.318C562.229 297.318 564.925 295.892 564.051 295.513C563.177 295.134 562.864 295.257 562.864 295.257C562.864 295.257 560.795 296.436 560.045 296.37C559.295 296.304 558.108 296.049 558.174 295.299C558.24 294.548 561.372 293.312 561.998 293.065L563.565 292.447C564.191 292.199 567.134 291.4 567.134 291.4L571.263 290.856L583.067 280.689C583.067 280.689 592.691 273.172 593.573 271.738C594.455 270.304 596.675 258.017 596.675 258.017L596.389 247.617Z" fill="#F7BBBE"></path>
<path d="M551.901 299.585C551.833 299.411 551.957 299.161 552.188 298.931C552.188 298.931 552.981 298.651 553.327 298.931C553.473 299.049 553.563 299.139 553.608 299.321C553.672 299.583 553.385 299.976 553.385 299.976H552.356C552.118 299.88 551.966 299.749 551.901 299.585Z" fill="#F24444"></path>
<path d="M551.58 301.522C551.426 301.131 551.611 300.888 551.848 300.73C551.848 300.73 552.639 300.568 552.907 300.888C553.072 301.085 553.112 301.266 553.087 301.522C553.068 301.713 553.038 301.839 552.907 301.979C552.616 302.29 551.828 301.833 551.828 301.833C551.718 301.753 551.631 301.652 551.58 301.522Z" fill="#F24444"></path>
<path d="M553.385 303.343C553.497 303.085 553.626 302.944 553.767 302.852C553.767 302.852 554.426 302.803 554.65 303.079C554.791 303.252 554.839 303.402 554.819 303.624C554.799 303.847 554.553 304.131 554.553 304.131C554.024 303.966 553.202 303.766 553.385 303.343Z" fill="#F24444"></path>
<path d="M556.501 305.734C556.355 305.363 556.531 305.169 556.764 305.047C556.764 305.047 557.258 305 557.506 305.155C557.743 305.302 557.956 305.457 557.924 305.734C557.902 305.917 557.814 306.022 557.663 306.129C557.421 306.302 556.902 306.129 556.902 306.129C556.717 306.043 556.573 305.918 556.501 305.734Z" fill="#F24444"></path>
<path d="M558.174 295.298C558.184 295.18 558.272 295.049 558.414 294.912C558.414 294.912 558.95 294.53 559.34 294.537C559.661 294.542 559.935 294.547 560.113 294.814C560.279 295.062 560.227 295.303 560.113 295.579C559.935 296.01 559.089 296.195 559.089 296.195C558.571 296.037 558.133 295.762 558.174 295.298Z" fill="#F24444"></path>
<path d="M587.104 241.709C585.947 246.917 584.211 256.753 585.368 257.331C586.525 257.91 595.204 261.96 596.362 260.803C597.519 259.646 600.412 249.544 601.569 245.759C602.726 241.975 600.863 230.7 594.626 231.295C589.631 231.771 588.261 236.502 587.104 241.709Z" fill="#522A7A"></path>
<path d="M587.104 241.709C585.947 246.917 584.211 256.753 585.368 257.331C586.525 257.91 595.204 261.96 596.362 260.803C597.519 259.646 600.412 249.544 601.569 245.759C602.726 241.975 600.863 230.7 594.626 231.295C589.631 231.771 588.261 236.502 587.104 241.709Z" fill="black" fill-opacity="0.2"></path>
<path d="M589.46 249.318C589.096 244.617 587.399 236.311 586.654 233.868C586.654 233.868 591.824 222.459 595.995 221.078C600.166 219.698 602.945 221.093 609.658 226.629C616.371 232.165 625.488 245.268 627.803 247.472C630.117 249.677 637.06 256.729 640.532 260.78C644.003 264.83 650.252 271.773 649.789 274.087C649.326 276.402 645.16 277.559 641.11 279.295C637.06 281.03 633.01 283.344 626.067 286.237C619.123 289.13 615.652 289.709 615.652 289.709C615.652 289.709 615.652 273.509 613.916 271.194C612.181 268.88 607.012 265.334 602.923 264.251C598.834 263.168 594.984 262.588 592.508 260.78C590.033 258.972 589.824 254.019 589.46 249.318Z" fill="#522A7A"></path>
<path d="M595.401 249.208C594.244 254.415 592.508 264.251 593.666 264.83C594.823 265.408 603.502 269.459 604.659 268.301C605.816 267.144 608.709 257.043 609.866 253.258C611.023 249.473 609.161 238.199 602.923 238.793C597.929 239.269 596.559 244.001 595.401 249.208Z" fill="#522A7A"></path>
<path d="M595.401 249.208C594.244 254.415 592.508 264.251 593.666 264.83C594.823 265.408 603.502 269.459 604.659 268.301C605.816 267.144 608.709 257.043 609.866 253.258C611.023 249.473 609.161 238.199 602.923 238.793C597.929 239.269 596.559 244.001 595.401 249.208Z" fill="black" fill-opacity="0.2"></path>
<path d="M555.479 207.549C552.695 212.338 552.887 218.479 557.496 221.551C560.268 223.399 562.288 223.013 565.893 224.328C565.893 224.328 568.786 230.692 574.572 233.007C580.358 235.321 583.251 243.654 593.666 238.331C604.08 233.007 616.909 250.06 621.438 247.472C629.538 242.843 619.124 221.551 603.502 221.551C598.873 221.551 584.111 211.137 584.111 211.137C584.111 211.137 581.515 205.234 574.572 202.341C565.619 198.61 557.496 204.077 555.479 207.549Z" fill="#010101"></path>
</svg>